<?xml version="1.0" encoding="UTF-8"?>
<svg width="196px" height="187px" viewBox="0 0 196 187" version="1.1" xmlns="http://www.w3.org/2000/svg" xmlns:xlink="http://www.w3.org/1999/xlink">
    <title>Combined Shape</title>
    <g id="HOME" stroke="none" stroke-width="1" fill="none" fill-rule="evenodd">
        <g id="Desktop-HD" transform="translate(-1063.000000, -3040.000000)" fill="#776027" fill-rule="nonzero">
            <path d="M1109.26627,3103.70414 L1151.48166,3149.68047 L1193.63077,3103.70414 L1204.11834,3103.70414 L1203.97751,3168.73373 L1247.8,3168.73373 L1247.8,3122.37633 L1258.39527,3122.37633 L1258.39527,3225.86864 L1247.87456,3225.86864 L1247.87456,3179.47811 L1203.96923,3179.47811 L1203.86154,3226.07574 L1193.34911,3226.07574 L1193.58935,3118.64852 L1151.48166,3164.57515 L1109.29941,3118.57396 L1109.08402,3215.35621 L1152.90651,3215.35621 L1152.90651,3226.12544 L1098.53846,3226.12544 L1098.53846,3215.35621 L1098.79527,3103.70414 L1109.26627,3103.70414 Z M1162.33373,3040 L1259,3092.96805 L1253.82249,3101.81538 L1162.33373,3051.68876 L1073.52071,3100.3574 L1073.52071,3226.06746 L1063,3226.06746 L1063,3094.42604 L1162.33373,3040 Z" id="Combined-Shape"></path>
        </g>
    </g>
</svg>