<?xml version="1.0" encoding="UTF-8"?>
<svg width="101px" height="70px" viewBox="0 0 101 70" version="1.1" xmlns="http://www.w3.org/2000/svg" xmlns:xlink="http://www.w3.org/1999/xlink">
    <title>360-degrees</title>
    <g id="FICHA-TÉCNICA" stroke="none" stroke-width="1" fill="none" fill-rule="evenodd">
        <g id="Desktop-HD-Copy" transform="translate(-448.000000, -2589.000000)" fill="#CC9964" fill-rule="nonzero">
            <g id="360-degrees" transform="translate(448.000000, 2589.000000)">
                <g id="Group" transform="translate(50.303181, 35.000000) scale(-1, 1) rotate(-180.000000) translate(-50.303181, -35.000000) translate(0.000000, 0.000000)">
                    <path d="M80.7953278,69.6845562 C78.7689277,68.9566261 77.4114363,67.1269638 77.254046,64.9038258 C77.1753509,63.8020937 77.2343723,63.4282917 77.6475218,62.5429713 C78.9066442,59.8083148 81.798691,58.5688661 84.5333475,59.5919031 C85.7727961,60.064074 87.0712661,61.3035226 87.6024584,62.5232975 C88.0943031,63.6643772 88.0352817,65.80882 87.4647419,66.8908783 C86.1465981,69.4484708 83.3922678,70.6092242 80.7953278,69.6845562 Z M83.8054174,66.6941405 C84.4546524,66.3006647 85.0842136,65.257954 85.0842136,64.6283928 C85.0842136,63.9988316 84.4349786,62.9167732 83.8250912,62.5429713 C82.7430328,61.8937363 81.4445628,62.1888431 80.5789162,63.2709014 C79.7919647,64.2742646 80.2051142,65.9662103 81.4052153,66.6941405 C82.2118406,67.1859852 82.9987921,67.1859852 83.8054174,66.6941405 Z" id="Shape"></path>
                    <path d="M26.7907805,60.3788546 C24.9414444,59.9460313 23.3675414,58.6082137 23.6036269,57.6638719 C23.7610172,57.0146369 24.3905784,56.4637708 25.0004658,56.4637708 C25.2758988,56.4637708 25.8267649,56.6998563 26.2595882,56.9752893 C27.3613203,57.7032195 28.5024,57.7819146 29.5844583,57.2113748 C30.076303,56.9556155 30.6468429,56.5227922 30.8435807,56.2276854 C31.3354254,55.5784504 31.5124895,53.9061784 31.1780351,53.1192269 C30.823907,52.2732541 29.7418486,51.3879336 28.876202,51.2502171 C27.5974058,51.0338054 27.0858873,50.7583724 26.8694756,50.148485 C26.6333902,49.4599024 26.8498018,48.7122985 27.3809941,48.4368654 C27.577732,48.3384965 28.3450097,48.1417586 29.0926136,48.0237159 C30.725538,47.7482829 31.3354254,47.4335023 32.4961789,46.3711177 C33.7749751,45.1906905 34.3651888,43.9118943 34.4832315,42.1019058 C34.6012742,40.0951794 34.0504081,38.6589929 32.673243,37.262154 C31.4337944,36.0227054 29.9385865,35.4128179 28.1679456,35.4128179 C26.3776309,35.4128179 25.1972037,35.9046626 23.7413434,37.262154 C22.7773278,38.1671482 22.3641782,38.4229075 21.8920073,38.4229075 C21.2034247,38.4229075 20.3574519,37.635956 20.3574519,36.986721 C20.3574519,36.337486 21.9707025,34.6061927 23.2888462,33.8192411 C24.9217706,32.8355518 25.5710056,32.6388139 27.6957747,32.5207712 C30.5484739,32.3437071 32.6929168,33.1700061 34.7193169,35.2160801 C36.0374607,36.5145501 36.7063695,37.6556298 37.1785404,39.4065969 C37.6310375,41.0788688 37.5129948,43.4987447 36.9031074,45.0923215 C36.3128937,46.6465508 34.9357286,48.3975179 33.6372586,49.2828383 C32.5552003,50.0304422 32.5552003,50.050116 32.9290022,50.4435918 C34.2668198,51.8994521 34.6996431,54.4767183 33.9520392,56.4834446 C33.1847615,58.5098448 31.5518371,59.9263575 29.4467418,60.3788546 C28.2663145,60.6346138 27.8334912,60.6346138 26.7907805,60.3788546 Z" id="Path"></path>
                    <path d="M47.9007547,60.3788546 C44.5168632,59.8279885 41.4870999,56.7982252 40.8181911,53.3356386 C40.4837367,51.5846715 40.5624319,40.6657193 40.9165601,39.1705114 C41.4280786,37.0063948 43.3561098,34.4684761 45.2251196,33.5044605 C48.7664014,31.6747983 53.0159395,32.2846857 55.7309222,34.9996684 C57.5999321,36.8686782 58.3868836,38.8557308 58.3868836,41.70843 C58.3868836,44.7381933 57.422868,47.0203527 55.4161416,48.8106674 C52.4847473,51.4076074 47.8810809,51.7814094 44.7332749,49.6566403 C44.1824088,49.2828383 43.6905641,48.9877315 43.6315428,48.9877315 C43.5725214,48.9877315 43.5725214,49.9320733 43.611869,51.1125006 C43.6708904,52.7847725 43.7692593,53.39466 44.1233875,54.1225901 C45.1660982,56.2473592 47.1924984,57.5261554 49.5927005,57.5458292 C50.8518229,57.5458292 51.1469297,57.467134 52.4060521,56.817899 C53.1930036,56.4047495 53.9996289,56.0702951 54.2160406,56.0702951 C54.7669066,56.0702951 55.5735319,56.9359417 55.5735319,57.565503 C55.5735319,58.5885399 53.4094153,59.9657051 51.1272559,60.3788546 C49.8484597,60.6149401 49.4353102,60.6149401 47.9007547,60.3788546 Z M50.9108442,47.925347 C52.3470308,47.5908926 53.4290891,46.8629624 54.275062,45.6825352 C55.1603824,44.4824341 55.475163,43.3610282 55.4358154,41.4920184 C55.4358154,40.3312649 55.3177727,39.7410513 54.9439707,38.9147522 C52.7208327,34.0553266 45.835007,34.3110858 43.9463234,39.3279017 C43.3757835,40.8231096 43.4741525,43.380702 44.1430613,44.679172 C45.0087079,46.3514439 46.5235896,47.5908926 48.2352091,47.9843683 C49.2975937,48.2401276 49.632048,48.2204538 50.9108442,47.925347 Z" id="Shape"></path>
                    <path d="M68.9517076,60.4575498 C67.1220454,60.1821167 65.6858588,59.5328817 64.3086937,58.3524545 C63.2463092,57.4474602 62.4987052,56.3260543 61.9478392,54.7914989 C61.4756683,53.5127027 61.4756683,53.3749862 61.4756683,46.5481818 C61.4756683,40.9608261 61.5346896,39.4262707 61.7707751,38.6196454 C62.9315286,34.7242354 66.3547676,32.3043595 70.3878941,32.5010974 C73.9685235,32.6978352 76.6638324,34.6848878 78.0409976,38.1474744 C78.4541471,39.1901852 78.4738209,39.6033347 78.552516,45.4857973 C78.5918636,49.4205548 78.552516,52.2535803 78.4147995,53.1585745 C77.8639335,56.7588777 75.2473197,59.5722293 71.7650593,60.3001595 C70.4469155,60.5755925 69.9157232,60.6149401 68.9517076,60.4575498 Z M71.2732146,57.4081127 C73.0045079,56.9949631 74.3226517,55.8735572 75.0899294,54.2012853 C75.5424265,53.2372697 75.5424265,53.0995531 75.5424265,46.4301391 C75.5424265,39.8984416 75.5227527,39.6033347 75.129277,38.7376881 C74.5980847,37.6162822 73.4373312,36.4161811 72.3946205,35.9046626 C71.2732146,35.3734704 69.1681193,35.2751014 68.0270396,35.7079248 C66.9056337,36.1407481 65.5284685,37.3801967 64.9579287,38.4622551 C64.5447792,39.209859 64.5251054,39.5049658 64.466084,46.0366633 C64.4267364,50.8173938 64.466084,53.0602056 64.6234743,53.6110716 C65.1546666,55.4013863 66.689222,56.8769204 68.5188843,57.3687651 C69.6993116,57.6835457 70.1518087,57.7032195 71.2732146,57.4081127 Z" id="Shape"></path>
                    <path d="M19.9639761,52.1158637 C19.1573508,51.8010831 17.2489934,50.9157627 15.7341118,50.1681588 C7.37275196,46.0563371 1.98213412,40.508329 0.36888352,34.3307596 C-0.122961173,32.4814236 -0.122961173,28.7434039 0.36888352,26.9530892 C2.13952442,20.480413 7.96296559,14.7946884 17.189972,10.5451502 C24.6463376,7.10223738 31.9256391,5.37094406 43.7692593,4.19051679 L44.8513176,4.09214785 L43.2774146,3.52160801 C41.1526455,2.75433028 40.8575387,2.5772662 40.6608008,1.98705256 C40.3460202,1.10173211 40.9952552,0.0196737877 41.8412281,0 C42.2150301,0 51.7961647,3.40356528 52.6618114,3.8560624 C52.9569182,4.0134527 53.2716988,4.36758088 53.3307201,4.6626877 C53.625827,5.82344117 53.3897415,6.02017905 48.1368402,8.89255206 C44.9693603,10.6238454 42.9429602,11.6075348 42.588832,11.6075348 C41.5067737,11.6075348 40.8181911,10.2500434 41.4674261,9.36472297 C41.6051426,9.16798509 42.5101369,8.57777146 43.4741525,8.04657919 C44.4578419,7.53506071 45.1660982,7.08256359 45.0480555,7.08256359 C44.1824088,7.08256359 39.6377639,7.5547345 37.3949521,7.88918889 C17.6031216,10.7615619 3.63473229,19.7131353 2.90680214,29.9631787 C2.39528366,37.2424802 9.20241422,44.5611293 20.8492966,49.2631645 C22.8756967,50.0894636 23.30852,50.423918 23.30852,51.1911957 C23.30852,51.8797783 22.5215685,52.7257512 21.8920073,52.7064142 C21.6362481,52.7064142 20.7706014,52.4306444 19.9639761,52.1158637 Z" id="Path"></path>
                    <path d="M82.4282522,50.2665277 C81.798691,49.6566403 81.7790172,48.7909936 82.3889046,48.2598014 C82.6249901,48.0237159 83.5299843,47.4925236 84.4153048,47.0597003 C88.2516934,45.1316691 92.8553597,41.432997 94.8424123,38.6393191 C96.4950105,36.337486 97.6557639,33.1896799 97.6754377,31.0649109 C97.6754377,29.4516603 99.3083621,28.6843825 100.23303,29.8648098 C100.626506,30.3369807 100.665853,30.5533924 100.547811,31.8321886 C100.488789,32.6388139 100.292052,33.8192411 100.114987,34.4881499 C99.4657524,37.1047637 97.3803309,40.6066979 95.0391502,43.0462476 C94.035787,44.1283059 91.3404781,46.253075 89.4124469,47.551545 C87.543437,48.8106674 83.8054174,50.7583724 83.2938989,50.7583724 C83.0774872,50.7583724 82.6840115,50.5419607 82.4282522,50.2665277 Z" id="Path"></path>
                    <path d="M96.6720746,25.39886 C95.983492,24.8676677 95.2358881,23.175722 95.3932784,22.5461608 C95.5900162,21.778883 96.357294,21.3460597 97.1245717,21.5624714 C97.5967426,21.7001879 97.931197,22.0346423 98.4033679,22.8215938 C99.1706456,24.1200638 99.2099932,24.6512561 98.5607582,25.2808173 C97.9902183,25.8710309 97.3016358,25.9103785 96.6720746,25.39886 Z" id="Path"></path>
                    <path d="M91.2224353,18.6704246 C90.6715693,18.4540129 88.4681051,16.8210885 87.9959342,16.2898963 C87.2089826,15.4045758 87.8188701,13.9683893 88.9599498,13.9290417 C89.4321207,13.9093679 89.9633129,14.184801 91.1240664,15.0504476 C92.9340549,16.3882652 93.1504665,16.6243506 93.1504665,17.332607 C93.1504665,18.3359702 92.1274296,19.0442265 91.2224353,18.6704246 Z" id="Path"></path>
                    <path d="M80.3625045,12.4731814 C79.4378365,12.0993795 78.4934947,11.5485134 78.2574092,11.2927542 C77.5098053,10.4664551 77.7458907,9.44341812 78.7492539,9.08928994 C79.3591413,8.87287828 80.1657666,9.10896373 82.3889046,10.0926531 C83.9824815,10.8009095 84.2972621,11.8239464 83.2545513,12.787962 C82.7036853,13.3191543 82.3102095,13.2798067 80.3625045,12.4731814 Z" id="Path"></path>
                    <path d="M69.9747446,9.16798509 C68.9910552,8.91222585 67.987692,8.55809767 67.7712804,8.36135979 C66.9253075,7.59408207 67.5745425,5.90213632 68.7156222,5.90213632 C69.7780067,5.92181011 72.8864652,6.80713056 73.181572,7.20060632 C73.8111332,8.0269054 73.3192885,9.32537539 72.2962515,9.52211327 C72.0208185,9.56146085 70.9781078,9.40407054 69.9747446,9.16798509 Z" id="Path"></path>
                    <path d="M60.0985031,7.45636556 C59.3508992,7.35799662 58.9180759,7.18093253 58.6819904,6.88582571 C58.2098195,6.29561208 58.2294933,5.41029163 58.7410118,4.89877315 C59.09514,4.54464497 59.3312254,4.48562361 60.3936099,4.56431876 C62.0462081,4.6626877 62.6560955,5.07583724 62.6560955,6.07920041 C62.6560955,7.31864904 61.9478392,7.69245101 60.0985031,7.45636556 Z" id="Path"></path>
                </g>
            </g>
        </g>
    </g>
</svg>