<?xml version="1.0" encoding="UTF-8"?>
<svg width="50px" height="50px" viewBox="0 0 50 50" version="1.1" xmlns="http://www.w3.org/2000/svg" xmlns:xlink="http://www.w3.org/1999/xlink">
    <title>Sin título-1-03</title>
    <g id="CONÓCENOS" stroke="none" stroke-width="1" fill="none" fill-rule="evenodd">
        <g id="Desktop-HD" transform="translate(-105.000000, -3244.000000)">
            <g id="Sin-título-1-03" transform="translate(105.000000, 3244.000000)">
                <path d="M39.64,6.73500958 C40.2961394,6.73699577 40.9141773,6.42704885 41.305,5.9 C41.722137,5.33918221 41.8479682,4.6135184 41.644,3.945 C41.518,3.511 40.776,2.768 40.344,2.645 C40.1238945,2.58190134 39.8959701,2.55025452 39.667,2.551 C39.3894553,2.54919735 39.1137012,2.59555111 38.852,2.688 L38.846,2.688 C38.428,2.833 37.784,3.524 37.659,3.963 C37.402,4.813 37.571,5.49 38.188,6.098 C38.664,6.574 39.031,6.73500958 39.64,6.73500958 Z M39.67,3.635 C39.943,3.635 40.224,3.91 40.297,3.987 C40.462,4.143 40.65,4.403 40.65,4.635 C40.65,5.056 40.042,5.635 39.6,5.635 C39.138,5.635 38.65,5.126 38.65,4.645 C38.65,4.2 39.222,3.635 39.67,3.635 L39.67,3.635 Z" id="Shape" fill="#CC9964" fill-rule="nonzero"></path>
                <path d="M13.842,15.882 L13.653,16.1 C13.411,16.372 13.419,16.453 13.558,16.714 L13.558,16.723 C13.692,16.99 13.821,17.058 16.109,17.023 L18.164,16.995 L18.572,16.745 C18.8537626,16.5840231 19.0784763,16.3393892 19.215,16.045 L19.445,15.576 L19.445,11.655 C19.445,9.698 19.432,7.655 19.34,7.346 C19.213,6.926 18.655,6.367 18.234,6.24 C18.128,6.209 17.678,6.14 15.815,6.14 C13.932,6.14 13.821,6.153 13.678,6.272 C13.5728532,6.38356124 13.500532,6.52197502 13.469,6.672 C13.441,6.853 13.441,6.853 13.627,7.047 L13.82,7.239 L15.74,7.239 C16.746,7.239 17.251,7.239 17.546,7.269 C17.863,7.299 18.073,7.369 18.21,7.626 C18.25,7.706 18.348,7.902 18.33,9.314 L18.292,10.981 L15.792,11.039 C13.874,11.085 13.746,11.102 13.631,11.217 C13.5358126,11.3190005 13.4869639,11.4557768 13.496,11.595 C13.4961408,11.7418435 13.5560774,11.8822973 13.662,11.984 C13.837,12.133 13.843,12.139 15.862,12.139 L18.369,12.139 L18.295,15.781 L13.842,15.882 Z" id="Path" fill="#CC9964" fill-rule="nonzero"></path>
                <path d="M23.253,16.938 C23.698,17.062 26.3,17.063 26.734,16.938 C27.104,16.838 27.692,16.328 27.846,15.982 C27.946,15.699 27.946,14.395 27.946,13.964 C27.946,12.296 27.925,12.195 27.762,11.907 C27.6114774,11.6830171 27.4261425,11.4845164 27.213,11.319 L26.865,11.082 L23.146,11.018 L23.146,9.185 C23.146,7.785 23.146,7.456 23.538,7.316 C23.772,7.237 25.59,7.235 25.796,7.235 L27.613,7.235 L27.768,7.05 C28.003,6.774 28,6.564 27.758,6.323 L27.571,6.135 L25.53,6.135 C23.413,6.135 23.413,6.135 22.967,6.358 C22.7058428,6.48237905 22.4807422,6.67133968 22.313,6.907 L22.1,7.231 L22.071,11.378 C22.043,15.24 22.116,15.829 22.13,15.905 C22.238,16.231 22.839,16.824 23.253,16.938 Z M23.153,12.118 L26.796,12.192 L26.87,15.835 L23.15,15.835 L23.153,12.118 Z" id="Shape" fill="#CC9964" fill-rule="nonzero"></path>
                <path d="M31.833,16.74 C32.293,16.962 32.342,16.985 33.55,16.985 C34.717,16.985 34.83,16.951 35.17,16.785 C35.45507,16.6257377 35.7137945,16.4233457 35.937,16.185 C36.513,15.524 36.56,15.47 36.53,11.369 C36.501,8.106 36.489,7.891 36.323,7.534 C36.0840976,7.03347155 35.6903185,6.62321191 35.2,6.364 C34.927,6.223 34.742,6.185 33.7,6.164 C32.892,6.145 32.4,6.178 32.114,6.264 C31.5724084,6.46022128 31.1171476,6.8407853 30.828,7.339 L30.6,7.73 L30.571,11.378 C30.541,15.5 30.561,15.525 31.071,16.167 C31.2877875,16.4030297 31.5460695,16.5972496 31.833,16.74 Z M31.65,11.685 C31.65,8.291 31.65,7.936 32.179,7.536 C32.29,7.447 32.492,7.352 33.514,7.336 L33.52,7.336 C34.407,7.336 34.629,7.349 34.996,7.659 L34.996,7.659 L35.4,8 L35.4,15.1 L35.067,15.461 C34.724,15.833 34.519,15.833 33.53,15.833 C32.541,15.833 32.33,15.821 32.002,15.481 L31.65,15.142 L31.65,11.685 Z" id="Shape" fill="#CC9964" fill-rule="nonzero"></path>
                <path d="M47.53,28.186 L47.5,17 L47.305,16.512 C46.577,14.707 44.155,13.071 40.484,11.906 C39.618,11.63 39.575,11.648 39.432,11.706 L39.412,11.715 C39.203,11.8 39.171,11.815 39.12,12.304 C39.05,12.987 39.05,14.325 39.05,16.992 L39.05,22.718 L37.662,23.052 C33.5,24.03 30.19,24.375 25,24.375 C19.837,24.375 16.354,24.004 12.149,23.006 L10.949,22.722 L10.949,12.01 L10.761,11.823 C10.532,11.599 10.446,11.514 8.872,12.103 L8.872,12.103 C5.627,13.3 3.655,14.668 2.843,16.3 L2.5,17.006 L2.47,28.176 C2.448,35.91 2.487,39.699 2.536,40.023 C2.664,40.823 3.019,41.493 3.686,42.206 C6.1,44.781 12.059,46.636 20.049,47.3 C22.262,47.485 27.229,47.511 29.374,47.35 C37.688,46.711 43.862,44.837 46.314,42.21 C46.981,41.497 47.336,40.823 47.464,40.024 C47.512,39.7 47.552,35.914 47.53,28.186 Z M40.225,13.354 L40.314,13.138 L40.55,13.138 C40.623,13.138 40.65,13.138 41.499,13.473 C43.599,14.299 45.15,15.312 45.875,16.325 C46.193,16.768 46.295,17.044 46.329,17.555 C46.364,18.117 46.308,18.326 45.98,18.869 C45.6857073,19.3060404 45.3285258,19.6972552 44.92,20.03 C44.42,20.441 43.32,21.043 42.527,21.43 C41.354,22.011 40.844,22.174 40.589,22.174 C40.4791799,22.1802235 40.3733365,22.1319769 40.306,22.045 C40.179,21.918 40.158,21.898 40.153,17.681 C40.147,13.541 40.194,13.428 40.225,13.354 Z M3.817,16.81 C4.163,15.974 5.317,14.978 6.843,14.21 C7.381,13.94 8.959,13.242 9.343,13.153 L9.343,13.153 L9.509,13.111 L9.645,13.217 C9.8,13.338 9.806,13.342 9.828,14.717 C9.841,15.487 9.848,16.517 9.848,17.617 C9.848,18.699 9.841,19.744 9.829,20.561 C9.809,21.931 9.809,21.931 9.685,22.055 C9.62546753,22.1266084 9.53605672,22.1665108 9.443,22.163 C9.277,22.163 8.987,22.079 8.389,21.843 C5.913,20.854 4.337,19.692 3.83,18.483 C3.59339712,17.9513641 3.58868732,17.3452485 3.817,16.81 L3.817,16.81 Z M46.35,30.545 C46.35,39.362 46.325,40.127 46.183,40.469 C46.083,40.71 45.774,41.135 45.483,41.438 C43.227,43.858 36.958,45.697 29.125,46.238 C28.178,46.304 26.587,46.338 24.997,46.338 C23.407,46.338 21.818,46.305 20.877,46.238 C14.191,45.771 8.482,44.328 5.6,42.375 C4.864,41.875 4.046,41.007 3.815,40.475 C3.671,40.127 3.646,39.361 3.646,30.535 L3.646,20.4 L4.832,21.267 C5.39918074,21.6439907 5.99007247,21.984029 6.601,22.285 C9.673,23.785 13.718,24.743 19.331,25.311 C21.819,25.561 28.173,25.561 30.661,25.311 C37.285,24.637 42.103,23.311 44.981,21.379 L46.346,20.446 L46.35,30.545 Z" id="Shape" fill="#CC9964" fill-rule="nonzero"></path>
                <path d="M14.546,32.325 C14.8262307,32.3879104 15.1128114,32.4181121 15.4,32.415 C16.442,32.415 17.134,32.006 17.578,31.127 C17.8847645,30.539435 17.9421878,29.8531442 17.7373306,29.2227708 C17.5324733,28.5923975 17.0825706,28.0709762 16.489,27.776 C16.139,27.589 15.063,27.488 14.713,27.606 L14.706,27.606 C13.6923774,27.9230084 12.9896752,28.8458351 12.9536641,29.9072626 C12.917653,30.9686901 13.5561937,31.9370211 14.546,32.322 L14.546,32.325 Z M14.234,29.325 C14.587,28.686 15.368,28.465 16.049,28.812 L16.049,28.812 C16.5873398,29.0910888 16.8583655,29.7076619 16.7,30.293 C16.5827229,30.8271985 16.1497173,31.2347275 15.6093966,31.319436 C15.069076,31.4041445 14.5321298,31.1486791 14.257,30.676 C14.0082778,30.2625465 13.9995061,29.747686 14.234,29.326 L14.234,29.325 Z" id="Shape" fill="#CC9964" fill-rule="nonzero"></path>
                <path d="M29.108,28.337 C28.898,28.161 28.747,28.179 28.616,28.228 C28.304,28.445 26.316,30.878 21.572,36.736 C21.4812146,36.8572344 21.340369,36.930783 21.189,36.936 L21.189,36.936 C20.889,36.936 20.712,36.727 19.742,35.568 C19.11,34.803 18.642,34.288 18.522,34.185 C18.3674778,34.1172586 18.1899108,34.1272886 18.044,34.212 C17.605,34.642 12.29,40.904 11.959,41.382 C11.859,41.528 11.759,41.754 12.042,42.05 C12.197,42.204 12.292,42.233 12.421,42.233 C12.55,42.233 12.594,42.233 12.921,41.889 C13.329,41.461 14.04,40.604 15.481,38.86 C17.718,36.16 17.865,35.995 17.9,35.96 C17.9788494,35.8799609 18.0877252,35.8367734 18.2,35.841 C18.5,35.85 18.655,35.966 21.028,38.936 C22.678,40.986 23.534,42.019 23.655,42.136 L23.66,42.136 C23.836,42.296 24.16,42.247 24.378,42.028 C24.567,41.834 24.57,41.787 24.501,41.616 C24.374,41.302 23.985,40.786 23.312,39.944 C21.941,38.23 21.976,38.159 22.082,37.944 C22.1,37.907 22.163,37.772 25.33,33.894 C26.147,32.9 26.919,31.96 27.5,31.259 C28.595,29.935 28.595,29.935 28.781,29.935 L28.824,29.935 L28.866,29.946 C29.013,29.983 29.013,29.983 30.209,31.507 C30.948,32.448 31.896,33.668 32.878,34.941 C36.902,40.169 37.419,40.841 37.657,40.891 C37.857829,40.9263479 38.0619981,40.8497366 38.19,40.691 C38.3080919,40.5694286 38.3539893,40.3949427 38.311,40.231 C37.877,39.534 29.6,28.831 29.108,28.337 Z" id="Path" fill="#CC9964" fill-rule="nonzero"></path>
                <rect id="Rectangle" x="0" y="0" width="50" height="50"></rect>
            </g>
        </g>
    </g>
</svg>