<?xml version="1.0" encoding="UTF-8"?>
<svg width="35px" height="35px" viewBox="0 0 35 35" version="1.1" xmlns="http://www.w3.org/2000/svg" xmlns:xlink="http://www.w3.org/1999/xlink">
    <title>icons-08</title>
    <g id="LANDING---VENDE-TU-PROPIEDAD" stroke="none" stroke-width="1" fill="none" fill-rule="evenodd">
        <g id="Desktop-HD" transform="translate(-511.000000, -2262.000000)">
            <g id="icons-08" transform="translate(511.000000, 2262.000000)">
                <rect id="Rectangle" x="0" y="0" width="35" height="35"></rect>
                <path d="M9.6782,12.7547 C9.443,13.3798 9.1882,14.007 8.9355,14.6146 L8.82,14.8946 C8.7206,15.1382 8.7353,15.2999 8.8683,15.4364 C9.0132,15.5841 9.1812,15.6002 9.4283,15.4882 C9.7244,15.3552 10.0268,15.2229 10.3194,15.0948 C10.7093,14.924 11.1125,14.7448 11.5052,14.567 C11.5847951,14.5276406 11.6719436,14.5059132 11.7607,14.5033 C11.8604831,14.506326 11.9574466,14.5371119 12.0407,14.5922 C12.848216,15.08482 13.7505549,15.4015808 14.6888,15.5218 C14.7973,15.5358 14.9121,15.5435 15.0227,15.5505 C15.2908,15.5687 15.568,15.5869 15.8088,15.6947 C18.3554,16.8336 20.7088,16.6432 23.0048,15.1123 C23.1456301,15.0292185 23.3142708,15.0072219 23.4717,15.0514 C24.1535,15.2761 24.8402,15.5218 25.5017,15.7591 L25.6459,15.8102 C25.9021,15.9019 26.0659,15.8732 26.2017,15.715 C26.3375,15.5568 26.3284,15.4091 26.2094,15.1725 C25.8657,14.4928 25.5094,13.79 25.1762,13.0725 C25.1110218,12.915669 25.1110218,12.739331 25.1762,12.5825 C25.8005839,11.3232395 26.0410835,9.90823516 25.8678,8.5134 C25.5213,5.5314 23.0545,2.9554 20.1278,2.5207 L19.9472,2.4941 C19.2591,2.3933 18.5472,2.2897 17.8892,1.9628 C17.7059616,1.88302348 17.5136743,1.82590145 17.3166,1.7927 L17.1612,1.7591 C16.9512,1.7108 16.7377,1.6709 16.5312,1.6317 L16.2631,1.5806 L14.98,1.5806 L14.8449,1.6065 C14.7413,1.6261 14.6349,1.6457 14.5327,1.6632 C12.1702,2.0748 10.2522,3.528 9.2715,5.6532 C8.2908,7.7784 8.4266,10.1703 9.6418,12.2332 C9.72243927,12.3953745 9.73552798,12.5828955 9.6782,12.7547 Z M20.8047,3.5 C20.9139,3.5483 21.0245,3.5945 21.1351,3.64 C21.3717,3.7387 21.6167,3.8416 21.8477,3.9655 C23.3083137,4.74329971 24.394563,6.07605604 24.8617487,7.6635391 C25.3289343,9.25102215 25.137763,10.9597148 24.3313,12.4047 C24.1633,12.7078 24.1591,12.936 24.3173,13.2181 C24.4755,13.5002 24.6141,13.7893 24.7625,14.098 C24.829,14.238 24.8983,14.3815 24.9725,14.532 L25.067,14.7238 L24.8654,14.6538 C24.7044,14.5985 24.5497,14.5467 24.4006,14.4963 C24.0674,14.385 23.7531,14.2793 23.4479,14.1575 C23.1854,14.0532 22.9775,14.0875 22.7318,14.28 C21.6520499,15.1234364 20.3219234,15.5828227 18.9518,15.5855014 C18.54191,15.5857827 18.1330715,15.544031 17.7317,15.4609 L17.4307,15.3986 L17.7191,15.2929 C20.2391,14.3654 21.8197,12.6791 22.4168,10.2802 C23.0139,7.8813 22.4343,5.6525 20.7004,3.6365 L20.4463,3.3411 L20.8047,3.5 Z M9.877,6.3343 C10.6225,4.431 12.208,3.0576 14.2268,2.5669 C16.0202,2.1308 17.9081,2.541 19.4068,3.6932 C20.8915,4.8356 21.7651,6.5359 21.8029,8.3587 C21.8554,10.8626 20.7991,12.7456 18.6627,13.9538 C17.6666,14.518 16.6593,14.7994 15.6478,14.7994 C14.5187,14.7994 13.3847,14.4494 12.2535,13.7494 C11.9623,13.5681 11.7271,13.5527 11.4408,13.6962 C11.1545,13.8397 10.8612,13.9643 10.5749,14.0868 C10.4643,14.1344 10.353,14.1813 10.2424,14.2268 C10.2120844,14.2380405 10.178964,14.2392672 10.1479,14.2303 C10.136,14.2303 10.1213,14.2254 10.1017,14.2233 L9.9869,14.21 L10.0303,14.1029 C10.087,13.9629 10.1416,13.8229 10.1962,13.6885 C10.3243,13.3658 10.4461,13.0585 10.5805,12.7547 C10.6974,12.4901 10.6764,12.2787 10.5105,12.0246 C9.3639,10.3047 9.135,8.2299 9.877,6.3343 Z" id="Shape" fill="#CC9964" fill-rule="nonzero"></path>
                <path d="M11.6074,25.9791 L11.3708,25.8916 L11.0908,25.788 L11.2245,25.6921 C12.2325,24.9648 12.845,23.919 12.95,22.75 C13.0529,21.6132 12.6574,20.4589 11.893,19.6616 C10.3656,18.0691 7.9191,17.99 6.3224,19.4803 C5.5342,20.2174 5.1107,21.1218 5.0624,22.1697 C4.9994,23.6054 5.5713,24.7597 6.8124,25.6893 L6.9377,25.7831 L6.7095,25.8734 C6.6612,25.893 6.6241,25.9077 6.5856,25.9217 C4.102,26.8555 2.492,28.6181 1.8046,31.1563 C1.7346,31.4041 1.6912,31.6638 1.6464,31.9151 C1.6261,32.0327 1.6051,32.1496 1.582,32.2651 L1.582,33.103 C1.7171,33.2829 1.8991,33.3606 2.184,33.3606 L2.184,33.3606 C5.7141,33.355 9.303,33.355 12.7743,33.355 L15.8431,33.355 C16.0937,33.355 16.2421,33.3179 16.3254,33.2332 C16.4087,33.1485 16.4437,33.0029 16.4409,32.7586 C16.408,29.8004 14.42,27.0123 11.6074,25.9791 Z M6.7949,24.5882 C5.89898451,23.6923487 5.63124782,22.344872 6.11662816,21.1745644 C6.60200851,20.0042567 7.74483014,19.2418034 9.0118,19.2429986 L9.0118,19.2429986 C10.7234612,19.2666046 12.0991907,20.6598789 12.1011056,22.3717018 C12.1030164,24.0835247 10.7304042,25.4798701 9.0188,25.5073 L8.9978,25.5073 C8.17074626,25.5048154 7.37847247,25.1742608 6.7949,24.5882 L6.7949,24.5882 Z M15.5876,32.5143 L2.4423,32.5143 L2.4472,32.4226 C2.5914,29.5057 5.1359,26.3515 8.9957,26.3395704 L9.016,26.3395704 C10.7396205,26.3344165 12.395725,27.0092841 13.6248,28.2177 C14.7847,29.3538 15.4987,30.8861 15.5848,32.4219 L15.5876,32.5143 Z" id="Shape" fill="#CC9964" fill-rule="nonzero"></path>
                <path d="M28.49,25.97 C28.42,25.9434 28.35,25.9147 28.2716,25.8853 L28.1624,25.8419 L28.0126,25.7838 L28.1428,25.6893 C29.1599,24.9501 29.771,23.891 29.8627,22.7059 C29.953,21.5439 29.5344,20.3798 28.7427,19.5923 C27.2084264,18.0576903 24.7289951,18.0306352 23.1616,19.5314 C22.3552,20.2937 21.9016,21.4977 21.9793,22.6737 C22.0577,23.8742 22.6688,24.9452 23.6992,25.6914 L23.8294,25.7859 L23.5998,25.8755 C23.5452,25.8972 23.4934,25.9175 23.4409,25.9364 C20.5261,26.9976 18.5409,29.7276 18.4926,32.7264 C18.4884,32.9903 18.5241,33.1464 18.6074,33.2304 C18.6907,33.3144 18.8391,33.3508 19.0932,33.3508 L32.753,33.3508 C33.0064,33.3508 33.1562,33.3137 33.2381,33.2304 C33.32,33.1471 33.3571,32.9896 33.3529,32.7257 C33.3067,29.7752 31.3075,26.9962 28.49,25.97 Z M23.7027,24.5854 C22.8069325,23.6889702 22.5400079,22.3409031 23.026583,21.1707618 C23.5131582,20.0006206 24.6572286,19.239282 25.9245,19.2422911 L25.9399,19.2422911 C27.6695454,19.2469392 29.0679392,20.6528546 29.0633115,22.3825 C29.0586608,24.1121454 27.6527454,25.5105392 25.9231,25.5059208 L25.9231,25.5059208 C25.0902186,25.5089449 24.2909011,25.1778711 23.7041,24.5868 L23.7027,24.5854 Z M19.3767,32.515 L19.3767,32.4268 C19.3823,31.1136 19.9976,29.6506 21.0224,28.5131 C22.218731,27.1929584 23.8971633,26.4114325 25.6775118,26.3455473 C27.4578604,26.2796622 29.1894663,26.9349932 30.4801,28.1631 C31.6855,29.3188 32.4163,30.8721 32.4856,32.424 L32.4898,32.5157 L19.3767,32.515 Z" id="Shape" fill="#CC9964" fill-rule="nonzero"></path>
                <path d="M12.7855,9.1231 L12.7897,9.1231 C13.0805525,9.11570578 13.3143712,8.88127095 13.321,8.5904 C13.3223075,8.45031429 13.2675729,8.31551622 13.1689743,8.21599729 C13.0703756,8.11647836 12.9360918,8.0604939 12.796,8.0605 L12.7869,8.0605 C12.6483548,8.0569322 12.5141156,8.10880748 12.4139724,8.20461374 C12.3138292,8.30041999 12.2560655,8.43223265 12.2535,8.5708 C12.25049,8.71642517 12.3065456,8.85706924 12.4089,8.9607 C12.507729,9.06292432 12.6433238,9.12139643 12.7855,9.1231 L12.7855,9.1231 Z" id="Path" fill="#CC9964" fill-rule="nonzero"></path>
                <path d="M18.4891,9.1231 C18.7799629,9.11661903 19.0121348,8.8785339 19.0113,8.5876 C19.0143381,8.44780492 18.9605779,8.31274921 18.8622999,8.21328398 C18.7640219,8.11381875 18.6296215,8.05844071 18.4898,8.0598 L18.4849,8.0598 C18.1987778,8.0712539 17.9730528,8.30712651 17.9741796,8.59347561 C17.9753149,8.8798247 18.2028963,9.11390676 18.4891,9.1231 Z" id="Path" fill="#CC9964" fill-rule="nonzero"></path>
                <path d="M15.6268,9.1238 L15.6317,9.1238 C15.9224097,9.1180921 16.1552949,8.88116484 16.156,8.5904 C16.1597954,8.45067837 16.1067353,8.31539639 16.0089619,8.21551189 C15.9111886,8.11562739 15.7770708,8.05968985 15.6373,8.0605 L15.6282,8.0605 C15.4900934,8.05750103 15.3565098,8.10978954 15.2571368,8.20574495 C15.1577638,8.30170035 15.1008342,8.433373 15.099,8.5715 C15.0946761,8.71859914 15.1508429,8.86104007 15.2544,8.9656 C15.3519537,9.06663772 15.4863531,9.12373222 15.6268,9.1238 L15.6268,9.1238 Z" id="Path" fill="#CC9964" fill-rule="nonzero"></path>
            </g>
        </g>
    </g>
</svg>