<?xml version="1.0" encoding="UTF-8"?>
<svg width="40px" height="40px" viewBox="0 0 40 40" version="1.1" xmlns="http://www.w3.org/2000/svg" xmlns:xlink="http://www.w3.org/1999/xlink">
    <title>Group Copy</title>
    <g id="FICHA-TÉCNICA" stroke="none" stroke-width="1" fill="none" fill-rule="evenodd">
        <g id="Desktop-HD-Copy" transform="translate(-70.000000, -1374.000000)">
            <g id="Group-Copy" transform="translate(70.000000, 1374.000000)">
                <rect id="Rectangle-Copy-21" x="0" y="0" width="40" height="40"></rect>
                <g id="pool-copy-2" transform="translate(2.000000, 8.000000)" fill="#CC9964" fill-rule="nonzero">
                    <path d="M34.4873047,15.0201103 C34.2801758,15.0201103 34.0865137,15.0285422 33.9040625,15.0437999 L33.9040625,6.93912779 C33.9040625,6.66194546 33.6745117,6.43722835 33.3913672,6.43722835 L27.3635742,6.43722835 C27.0804297,6.43722835 26.8508789,6.66194546 26.8508789,6.93912779 C26.8508789,7.21631012 27.0804297,7.44102723 27.3635742,7.44102723 L32.8786719,7.44102723 L32.8786719,15.2255544 C32.2680859,15.3984086 31.8163672,15.6547119 31.3974609,15.8926792 C30.7015625,16.2880421 30.1005469,16.6295345 28.8222949,16.6295345 C27.544043,16.6295345 26.9430273,16.2880421 26.2471289,15.8926792 C25.527373,15.4837315 24.7115039,15.0201772 23.1572852,15.0201772 C22.3806543,15.0201772 21.7885254,15.1360156 21.3005762,15.3030477 L21.3005762,7.44102723 L25.1716309,7.44102723 C25.4547754,7.44102723 25.6843262,7.21631012 25.6843262,6.93912779 C25.6843262,6.66194546 25.4547754,6.43722835 25.1716309,6.43722835 L24.5883887,6.43722835 L24.5883887,2.1111898 C24.5883887,0.947050779 23.6209668,0 22.4317871,0 C21.2426074,0 20.2751855,0.947050779 20.2751855,2.1111898 L20.2751855,6.43722835 L16.9167578,6.43722835 L16.9167578,2.1111898 C16.9167578,0.947050779 15.9493359,0 14.7601563,0 C13.5709766,0 12.6035547,0.947050779 12.6035547,2.1111898 L12.6035547,6.43722835 L1.60863281,6.43722835 C1.32548828,6.43722835 1.0959375,6.66194546 1.0959375,6.93912779 L1.0959375,15.0440007 C0.913486328,15.0287429 0.719824219,15.0202441 0.512695313,15.0202441 C0.229550781,15.0202441 0,15.2449612 0,15.5221435 C0,15.7993259 0.229550781,16.024043 0.512695313,16.024043 C1.78944336,16.024043 2.38977539,16.3654684 3.08485352,16.7607644 C3.8040625,17.169779 4.61917969,17.6333333 6.17216797,17.6333333 C7.72549805,17.6333333 8.54075195,17.169779 9.26009766,16.7607644 C9.95544922,16.3654015 10.5559863,16.0239761 11.8331445,16.0239761 C13.1107813,16.0239761 13.7115918,16.3654015 14.4071484,16.7607644 C15.1266992,17.1697121 15.9422949,17.6333333 17.4960352,17.6333333 C19.0494336,17.6333333 19.8647559,17.1697121 20.5841016,16.7606975 C21.2794531,16.3653346 21.8799902,16.0239091 23.1572168,16.0239091 C24.4354688,16.0239091 25.0364844,16.3654015 25.7323828,16.7607644 C26.4521387,17.1697121 27.2680078,17.6333333 28.8222949,17.6333333 C30.3765137,17.6333333 31.1923828,17.169779 31.9121387,16.7607644 C32.6080371,16.3654015 33.2090527,16.0239091 34.4873047,16.0239091 C34.7704492,16.0239091 35,15.799192 35,15.5220097 C35,15.2448274 34.7704492,15.0201103 34.4873047,15.0201103 Z M12.6034863,15.0624706 C12.3679883,15.0355018 12.1127344,15.020311 11.8331445,15.020311 C10.2798145,15.020311 9.46449219,15.4838653 8.74514648,15.8928799 C8.04979492,16.2882428 7.44925781,16.6296683 6.17216797,16.6296683 C4.89541992,16.6296683 4.29508789,16.2882428 3.59994141,15.8929468 C3.18171875,15.6551134 2.73068359,15.398944 2.12132812,15.2260898 L2.12132812,7.44102723 L12.6034863,7.44102723 L12.6034863,15.0624706 L12.6034863,15.0624706 Z M13.6288086,2.1111898 L13.628877,2.1111898 C13.628877,1.50054548 14.1363086,1.00379888 14.7600879,1.00379888 C15.3838672,1.00379888 15.8912988,1.50054548 15.8912988,2.1111898 L15.8912988,6.43722835 L13.6288086,6.43722835 L13.6288086,2.1111898 Z M20.2751172,15.7765062 C20.2053223,15.8153866 20.1368262,15.854334 20.0691504,15.892813 C19.3737988,16.2881759 18.7732617,16.6296014 17.4960352,16.6296014 C16.2183301,16.6296014 15.6175879,16.288109 14.9219629,15.892813 C14.5472852,15.6798738 14.1462891,15.4522122 13.6288086,15.2828379 L13.6288086,13.8783894 L20.2751172,13.8783894 L20.2751172,15.7765062 Z M20.2751855,12.8745236 L13.628877,12.8745236 L13.628877,10.6596749 L20.2751855,10.6596749 L20.2751855,12.8745236 Z M20.2751855,9.65580907 L13.628877,9.65580907 L13.628877,7.44096031 L20.2751855,7.44096031 L20.2751855,9.65580907 Z M21.3005078,2.1111898 L21.3005078,2.1111898 C21.3005762,1.50054548 21.8080078,1.00379888 22.4317871,1.00379888 C23.0555664,1.00379888 23.562998,1.50054548 23.562998,2.1111898 L23.562998,6.43722835 L21.3005078,6.43722835 L21.3005078,2.1111898 Z" id="Shape"></path>
                    <path d="M34.4360478,17.6333333 C33.9578915,17.6333333 33.5279343,17.6574855 33.1216631,17.7071418 C32.8160762,17.744489 32.6171891,17.9283809 32.6774192,18.1178678 C32.7304307,18.2845081 32.9661627,18.4 33.2300924,18.4 C33.2662605,18.4 33.302955,18.3978552 33.3397999,18.3933325 C33.6733588,18.352535 34.0319572,18.3327191 34.4360478,18.3327191 C34.7474998,18.3327191 35,18.1761499 35,17.9830262 C35,17.7899025 34.7474998,17.6333333 34.4360478,17.6333333 Z" id="Path"></path>
                    <path d="M31.8298542,18.8145497 C31.6975277,18.5984499 31.3856005,18.5150491 31.1331962,18.6282527 C30.6449025,18.8471797 30.0501558,19.0497917 29.0134263,19.0497917 C27.7267008,19.0497917 27.121701,18.7492309 26.4211895,18.4012565 C25.6966624,18.0413257 24.8753849,17.6333333 23.3108632,17.6333333 C21.7471673,17.6333333 20.9264403,18.0413257 20.2023261,18.4013154 C19.5023651,18.7492898 18.897847,19.0497917 17.6121537,19.0497917 C16.3259788,19.0497917 15.7212543,18.7492309 15.021018,18.4013154 C14.2966973,18.0413845 13.4757638,17.6333922 11.9116551,17.6333922 C10.348028,17.6333922 9.52730097,18.0413845 8.80318673,18.4013743 C8.10322569,18.7493487 7.49870763,19.0498506 6.21315198,19.0498506 C4.92794039,19.0498506 4.32362877,18.7493487 3.62387417,18.4014332 C2.89989756,18.0414434 2.07937698,17.6334511 0.516093961,17.6334511 C0.23107247,17.6334511 0,17.8312335 0,18.0751925 C0,18.3191515 0.23107247,18.5169338 0.516093961,18.5169338 C1.80130555,18.5169338 2.40561717,18.8174358 3.10530296,19.1653513 C3.82927957,19.525341 4.64980016,19.9333333 6.21308317,19.9333333 C7.77671025,19.9333333 8.59743727,19.525341 9.32155151,19.1653513 C10.0215125,18.8173769 10.6260306,18.5168749 11.9116551,18.5168749 C13.1977612,18.5168749 13.8025545,18.8173769 14.502722,19.1653513 C15.2270427,19.5252821 16.0480449,19.9332744 17.6120849,19.9332744 C19.1757808,19.9332744 19.9965078,19.5252821 20.7206221,19.1652924 C21.4205831,18.817318 22.0251011,18.516816 23.3107944,18.516816 C24.5975199,18.516816 25.2025196,18.8173769 25.9030312,19.1653513 C26.6275583,19.5252821 27.4488358,19.9332744 29.0134263,19.9332744 C30.2766867,19.9332744 31.0360329,19.669172 31.6122002,19.4108417 C31.8646734,19.2976381 31.9621119,19.0306496 31.8298542,18.8145497 Z" id="Path"></path>
                    <path d="M34.4844624,20.7 C32.9216273,20.7 32.1012351,21.1079334 31.377489,21.4679232 C30.6777326,21.8158976 30.0733851,22.1164584 28.7880467,22.1164584 C27.5027083,22.1164584 26.8983607,21.8158976 26.1986044,21.4679232 C25.4748583,21.1079923 24.6544661,20.7 23.091631,20.7 C21.5296208,20.7 20.7097785,21.1079923 19.9864448,21.4679821 C19.2872384,21.8159565 18.683372,22.1164584 17.3990647,22.1164584 C16.1142762,22.1164584 15.5102036,21.8158976 14.8107221,21.4679821 C14.0871823,21.1080512 13.2671338,20.7000589 11.7047111,20.7000589 C10.1427696,20.7000589 9.32292733,21.1080512 8.59959368,21.468041 C7.9003872,21.8160154 7.29652081,22.1165173 6.01235098,22.1165173 C4.96780303,22.1165173 4.36462402,21.907662 3.86847062,21.6820205 C3.61702574,21.5676978 3.3048849,21.6495672 3.17139503,21.8650781 C3.03790515,22.080589 3.1335202,22.3479898 3.38503382,22.4623713 C3.96951599,22.7282407 4.73876685,23 6.01235098,23 C7.57429248,23 8.39406602,22.5920077 9.11739967,22.2320179 C9.81660615,21.8840435 10.4204725,21.5835416 11.7047111,21.5835416 C12.9894308,21.5835416 13.5935722,21.8840435 14.2929849,22.2320179 C15.0165247,22.5919488 15.836642,22.9999411 17.3989959,22.9999411 C18.9610061,22.9999411 19.7808484,22.5919488 20.5041821,22.231959 C21.2033886,21.8839846 21.807255,21.5834827 23.0915623,21.5834827 C24.3769006,21.5834827 24.9812482,21.8840435 25.6810046,22.2320179 C26.4047507,22.5919488 27.2251429,22.9999411 28.7880467,22.9999411 C30.3508818,22.9999411 31.171274,22.5920077 31.8950201,22.2320179 C32.5947764,21.8840435 33.199124,21.5834827 34.4844624,21.5834827 C34.7691766,21.5834827 35,21.3857004 35,21.1417414 C35,20.8977823 34.7691766,20.7 34.4844624,20.7 Z" id="Path"></path>
                    <path d="M1.87859683,20.773977 C1.4721577,20.7241929 1.04211112,20.7 0.563872262,20.7 C0.252464407,20.7 0,20.8565311 0,21.0496078 C0,21.2426846 0.252464407,21.3992157 0.563872262,21.3992157 C0.96783035,21.3992157 1.32637793,21.4190734 1.66003994,21.4599542 C1.69695478,21.4644758 1.73364406,21.4666667 1.76995744,21.4666667 C2.03377447,21.4666667 2.26947308,21.3512961 2.32255225,21.1847429 C2.38284899,20.9953021 2.18414041,20.8114084 1.87859683,20.773977 Z" id="Path"></path>
                </g>
            </g>
        </g>
    </g>
</svg>