<?xml version="1.0" encoding="UTF-8"?>
<svg width="50px" height="50px" viewBox="0 0 50 50" version="1.1" xmlns="http://www.w3.org/2000/svg" xmlns:xlink="http://www.w3.org/1999/xlink">
    <title>Sin título-1-04-03</title>
    <g id="CONÓCENOS" stroke="none" stroke-width="1" fill="none" fill-rule="evenodd">
        <g id="Desktop-HD" transform="translate(-767.000000, -3244.000000)">
            <g id="Sin-título-1-04-03" transform="translate(767.000000, 3244.000000)">
                <path d="M38.381,16.786 L38.327,16.769 L38.327,13.389 C38.327,10.9823333 38.327,8.57533333 38.327,6.168 C38.327,5.726 38.244,5.454 38.074,5.335 C37.904,5.216 37.622,5.235 37.209,5.383 L33.753,6.649 C29.419,8.236 24.938,9.877 20.527,11.481 C20.1296801,11.624062 19.7112588,11.6997699 19.289,11.705 C16.689,11.717 14.047,11.716 11.489,11.716 L8.441,11.716 C8.118,11.716 7.85,11.725 7.598,11.745 C5.8727062,11.8600856 4.45035504,13.1411108 4.156,14.845 C4.09659718,15.2118511 4.06318069,15.5824399 4.056,15.954 C4.048,16.135 4.041,16.322 4.028,16.511 L4.028,16.581 L3.67,16.581 C3.47,16.581 3.264,16.581 3.063,16.581 C1.8,16.6 1.127,17.146 0.575,18.61 L0.575,22.977 L0.595,23.01 C0.623361898,23.0515406 0.64621903,23.0965826 0.663,23.144 C1.022,24.321 1.829,24.927 3.063,24.944 C3.263,24.944 3.463,24.944 3.677,24.944 L4.097,24.944 L4.091,25.025 C3.96,26.674 4.3,27.807 5.194,28.7 C6.088,29.593 7.221,29.929 8.894,29.81 L8.974,29.804 L8.974,30.546 C8.974,31.558 8.974,32.5703333 8.974,33.583 C8.974,35.93 8.974,38.358 8.982,40.745 C8.993,42.866 10.614,44.62 12.673,44.738 C13.855,44.805 14.951,44.424 15.757,43.666 C16.563,42.908 17.01,41.837 17.014,40.65 C17.024,38.285 17.022,35.88 17.02,33.55 C17.02,32.5326667 17.02,31.515 17.02,30.497 L17.02,29.82 L17.095,29.82 C17.316,29.82 17.53,29.82 17.739,29.813 C18.215,29.806 18.664,29.799 19.113,29.831 C19.6296549,29.8500716 20.1411799,29.940598 20.633,30.1 C24.867,31.633 29.167,33.206 33.325,34.727 L37.225,36.154 C37.643,36.306 37.915,36.323 38.081,36.208 C38.247,36.093 38.327,35.822 38.327,35.365 C38.327,32.957 38.327,30.5496667 38.327,28.143 L38.327,24.771 L38.381,24.755 C40.534,24.099 41.619,22.749 41.6061154,20.743 C41.594,18.765 40.509,17.434 38.381,16.786 Z M4.056,23.739 L3.981,23.739 C3.852,23.739 3.725,23.739 3.597,23.747 C3.469,23.755 3.346,23.755 3.219,23.755 C3.05887792,23.7567558 2.89882696,23.7474 2.74,23.727 C2.20038236,23.6545201 1.80058731,23.1893822 1.81,22.645 C1.79,21.297 1.79,20.072 1.81,18.9 C1.82,18.273 2.243,17.841 2.887,17.8 C3.126,17.784 3.365,17.788 3.618,17.792 C3.735,17.792 3.855,17.792 3.981,17.792 L4.056,17.792 L4.056,23.739 Z M15.813,40.589 C15.813,41.477 15.491,42.271 14.913,42.822 C14.3966635,43.3104108 13.7106931,43.57899 13,43.571 L12.873,43.571 C11.5003134,43.508057 10.373336,42.4639022 10.206,41.1 L10.206,41.089 C10.187871,40.9563857 10.17752,40.822824 10.175,40.689 C10.175,37.1923333 10.175,33.695 10.175,30.197 C10.1761402,30.1367777 10.180815,30.0766743 10.189,30.017 C10.189,29.982 10.198,29.943 10.202,29.898 L10.208,29.83 L15.781,29.83 L15.781,29.9 C15.781,29.954 15.79,30.007 15.794,30.06 C15.804,30.173 15.814,30.281 15.814,30.391 C15.814,31.191 15.814,31.991 15.814,32.791 C15.82,35.352 15.822,37.992 15.813,40.589 Z M19.344,28.629 L8.2,28.629 C6.334,28.624 5.266,27.562 5.2679972,25.714 C5.2679972,24.267 5.279,22.797 5.286,21.375 C5.29266667,20.175 5.298,18.975 5.302,17.775 C5.302,17.449 5.294,17.116 5.286,16.795 C5.276,16.445 5.267,16.084 5.27,15.728 C5.283,14 6.37,12.928 8.106,12.928 C10.6393333,12.928 13.1726667,12.928 15.706,12.928 L19.347,12.928 L19.344,28.629 Z M33.559,33.54 L32.959,33.326 C32.614,33.202 32.286,33.084 31.959,32.964 L29.349,32.007 C26.649,31.015 23.849,29.988 21.092,28.991 C20.732,28.861 20.605,28.676 20.6059941,28.284 C20.617,23.458 20.617,18.397 20.6059941,13.242 C20.6059941,12.912 20.679,12.693 21.062,12.555 C24.046,11.476 27.073,10.369 30,9.3 L33.062,8.18 C33.146,8.149 33.233,8.126 33.324,8.101 L33.464,8.062 L33.559,8.035 L33.559,33.54 Z M37.109,34.84 L37.009,34.803 L36.509,34.62 C35.993,34.433 35.509,34.257 35.021,34.064 C34.892,34.013 34.821,33.824 34.785,33.716 C34.7632477,33.6280683 34.7578245,33.5368902 34.769,33.447 C34.769,33.413 34.769,33.38 34.769,33.347 L34.769,28.815 C34.769,22.06 34.769,15.074 34.757,8.204 C34.757,7.76 34.857,7.457 35.38,7.316 C35.75,7.216 36.109,7.079 36.49,6.935 C36.659,6.871 36.831,6.805 37.008,6.742 L37.108,6.705 L37.109,34.84 Z M38.45,23.437 L38.35,23.469 L38.35,18.126 L38.439,18.143 C39.503,18.343 40.361,19.425 40.439,20.656 C40.517,21.887 39.7,23.036 38.45,23.437 Z" id="Shape" fill="#CC9964" fill-rule="nonzero"></path>
                <path d="M49.286,20.471 C49.192,20.358 49.086,20.229 49.003,20.227 C48.34,20.211 47.712,20.203 47.112,20.203 C46.304,20.203 45.547,20.218 44.828,20.247 C44.737,20.247 44.494,20.629 44.502,20.847 C44.507,21.001 44.782,21.201 44.964,21.334 L44.983,21.348 C45.0687438,21.3805587 45.1617247,21.3892001 45.252,21.373 C45.295,21.373 45.342,21.373 45.379,21.373 L46.379,21.373 C47.065,21.373 47.773,21.373 48.47,21.382 C48.932,21.39 49.219,21.271 49.422,20.982 L49.422,20.637 C49.378,20.581 49.331,20.525 49.286,20.471 Z" id="Path" fill="#CC9964" fill-rule="nonzero"></path>
                <path d="M43.739,16.582 C44.649,15.682 45.466,14.867 46.239,14.082 C46.3301546,13.9760969 46.4071348,13.8587778 46.468,13.733 C46.501,13.673 46.537,13.606 46.579,13.533 C46.531,13.477 46.486,13.419 46.442,13.362 C46.332,13.219 46.228,13.084 46.115,13.057 C46.0703682,13.0470429 46.0247243,13.0423442 45.979,13.043 C45.783106,13.0417496 45.5925102,13.1065733 45.438,13.227 C44.659,13.957 43.897,14.727 43.159,15.48 L42.893,15.75 C42.7498063,15.8831206 42.665288,16.0676224 42.658,16.263 C42.6586461,16.4147675 42.7219765,16.5595226 42.833,16.663 C43.087,16.911 43.435,16.882 43.739,16.582 Z" id="Path" fill="#CC9964" fill-rule="nonzero"></path>
                <path d="M43.592,24.887 C43.4955116,24.8052843 43.3877337,24.7379232 43.272,24.687 C43.217,24.659 43.155,24.627 43.091,24.587 C43.034,24.629 42.974,24.669 42.916,24.707 C42.781,24.797 42.641,24.889 42.623,24.979 C42.578,25.205 42.623,25.553 42.774,25.711 C43.49,26.484 44.256,27.237 44.996,27.965 L45.296,28.256 C45.608,28.563 45.938,28.589 46.201,28.327 C46.464,28.065 46.423,27.71 46.132,27.413 C45.281,26.557 44.428,25.706 43.592,24.887 Z" id="Path" fill="#CC9964" fill-rule="nonzero"></path>
                <rect id="Rectangle" x="0" y="0" width="50" height="50"></rect>
            </g>
        </g>
    </g>
</svg>