<?xml version="1.0" encoding="UTF-8"?>
<svg width="40px" height="40px" viewBox="0 0 40 40" version="1.1" xmlns="http://www.w3.org/2000/svg" xmlns:xlink="http://www.w3.org/1999/xlink">
    <title>Group 8 Copy</title>
    <g id="FICHA-TÉCNICA" stroke="none" stroke-width="1" fill="none" fill-rule="evenodd">
        <g id="Desktop-HD-Copy" transform="translate(-180.000000, -1374.000000)">
            <g id="Group-8-Copy" transform="translate(180.000000, 1374.000000)">
                <rect id="Rectangle-Copy-21" x="0" y="0" width="40" height="40"></rect>
                <g id="001-estacionamiento" transform="translate(3.000000, 5.036512)" fill="#CC9964" fill-rule="nonzero">
                    <path d="M33.8322991,14.3920754 C33.5416741,13.7032862 33.1264955,13.0851247 32.596875,12.5537346 C32.0678571,12.0216718 31.4523884,11.6046987 30.7667411,11.3127032 C30.0568527,11.0107525 29.3035045,10.8573221 28.5267857,10.8573221 L28.5253795,10.8573221 C27.8316964,10.8573221 27.151942,10.9810889 26.5057366,11.2259319 C25.9941964,11.4191158 25.5163393,11.6844073 25.0794643,12.0138691 L4.71776786,0.203487975 C4.36921875,0.00129066586 3.96314732,-0.0524537288 3.57441964,0.0522772129 C3.18569196,0.15694089 2.86078125,0.407299634 2.65955357,0.757344478 L1.90607143,2.0679947 C1.70484375,2.41810681 1.65133929,2.82599919 1.75546875,3.21640277 C1.85959821,3.60694089 2.10890625,3.93324134 2.45738839,4.13543865 L27.3796875,18.5907974 C27.6237723,18.7328602 27.929933,18.6428602 28.0653348,18.4065597 C28.2040179,18.1654835 28.1223214,17.8570082 27.8825893,17.7177705 L27.8819196,17.7170978 L24.7720982,15.9136673 C25.959375,15.5941606 27.58125,15.1576135 28.2020089,14.990192 L29.137567,15.5329499 C29.5239509,15.7569409 29.7650223,16.1760665 29.765692,16.6266718 C29.7644196,17.0518512 29.5535491,17.4279274 29.238683,17.6517839 C29.0090625,17.8173221 28.9617187,18.130775 29.1208259,18.3553714 C29.2787946,18.5799005 29.5918527,18.6375463 29.8198661,18.4751023 C29.8205357,18.4751023 29.8205357,18.4744297 29.8212723,18.4744297 C30.4234821,18.0440709 30.7701562,17.3488916 30.7701562,16.6266046 C30.7701562,15.821044 30.3464062,15.0698333 29.6397991,14.6591158 L26.0447545,12.5737795 C26.7885268,12.1149005 27.6476116,11.8668288 28.5268527,11.8662907 C29.793817,11.8662907 30.9871205,12.3640485 31.8871205,13.2667391 C32.7857812,14.1707077 33.281317,15.3694297 33.281317,16.6420754 L33.281317,28.9178602 L23.7723214,28.9178602 L23.7723214,17.5602369 C23.7723214,17.2816943 23.5466518,17.0557525 23.2700893,17.0557525 C22.9927902,17.0557525 22.7678571,17.2816943 22.7678571,17.5602369 L22.7678571,29.4223445 C22.7678571,29.5555283 22.8214286,29.685349 22.9151786,29.7788467 C23.0082589,29.8730171 23.137433,29.9268288 23.2700893,29.9268288 L33.7834821,29.9268288 C33.9154018,29.9268288 34.0453125,29.8730171 34.1383929,29.7788467 C34.2321429,29.685349 34.2857143,29.5548557 34.2857143,29.4223445 L34.2857143,16.6420754 C34.2857143,15.8618064 34.1330357,15.1050799 33.8322991,14.3920754 Z M2.95975446,3.26167183 C2.84357143,3.19427273 2.76046875,3.08550591 2.72571429,2.95534896 C2.69102679,2.82512475 2.70883929,2.68925031 2.7759375,2.57261354 L3.52935268,1.26196331 C3.59645089,1.14525928 3.70473214,1.06171667 3.83430804,1.02687363 C3.96401786,0.991896047 4.09921875,1.00999022 4.21540179,1.07732206 L7.39895089,2.92393641 L3.96870536,3.84694089 L2.95975446,3.26167183 Z M5.19883929,4.56041623 L8.62915179,3.63741174 L11.3135491,5.19438484 L7.88316964,6.11745659 L5.19883929,4.56041623 Z M9.1134375,6.83099919 L12.543817,5.9079947 L15.2282812,7.46510233 L11.7979687,8.38810681 L9.1134375,6.83099919 Z M13.0280357,9.10158215 L16.4584152,8.17857766 L19.1428795,9.73555076 L15.7125,10.6585552 L13.0280357,9.10158215 Z M16.9426339,11.3721651 L20.3729464,10.4490934 L23.0574107,12.006201 L19.6270312,12.9292055 L16.9426339,11.3721651 Z M26.9720089,14.2767839 L23.5416295,15.1998557 L20.8571652,13.6428153 L24.2876116,12.7197436 L24.8628348,13.0533759 C24.8655134,13.0549902 24.868192,13.05647 24.8708705,13.0580171 L26.9720089,14.2767839 Z" id="Shape"></path>
                    <path d="M4.31892857,16.1377256 L2.51116071,16.1377256 C1.12647321,16.1377256 0,17.2692503 0,18.6601472 L0,29.422479 C0,29.7011561 0.224866071,29.9269633 0.502232143,29.9269633 L6.32785714,29.9269633 C6.60522321,29.9269633 6.83008929,29.7011561 6.83008929,29.422479 L6.83008929,18.6601472 C6.83008929,17.2692503 5.70354911,16.1377256 4.31892857,16.1377256 Z M5.825625,28.9179947 L1.00446429,28.9179947 L1.00446429,18.6601472 C1.00446429,17.8256629 1.68033482,17.1466943 2.51116071,17.1466943 L4.31892857,17.1466943 C5.14975446,17.1466943 5.825625,17.8256629 5.825625,18.6601472 L5.825625,28.9179947 Z" id="Shape"></path>
                    <path d="M4.31892857,18.2212458 L2.51116071,18.2212458 C2.23379464,18.2212458 2.00892857,18.447053 2.00892857,18.7257301 L2.00892857,20.5415373 C2.00892857,20.8202144 2.23379464,21.0460216 2.51116071,21.0460216 C2.78852679,21.0460216 3.01339286,20.8202144 3.01339286,20.5415373 L3.01339286,19.2302144 L3.81669643,19.2302144 L3.81669643,20.5415373 C3.81669643,20.8202144 4.0415625,21.0460216 4.31892857,21.0460216 C4.59629464,21.0460216 4.82116071,20.8202144 4.82116071,20.5415373 L4.82116071,18.7257301 C4.82116071,18.447053 4.59629464,18.2212458 4.31892857,18.2212458 Z" id="Path"></path>
                    <path d="M28.5267857,19.5785777 C27.3267187,19.5785777 26.3504464,20.5592279 26.3504464,21.7646763 C26.3504464,22.9701247 27.3267187,23.950775 28.5267857,23.950775 C29.7268527,23.950775 30.703125,22.9701247 30.703125,21.7646763 C30.703125,20.5592279 29.7268527,19.5785777 28.5267857,19.5785777 Z M28.5267857,22.9418064 C27.8806473,22.9418064 27.3549107,22.4137795 27.3549107,21.7646763 C27.3549107,21.1156404 27.8806473,20.5875463 28.5267857,20.5875463 C29.1729241,20.5875463 29.6986607,21.1156404 29.6986607,21.7646763 C29.6986607,22.4137122 29.1729241,22.9418064 28.5267857,22.9418064 Z" id="Shape"></path>
                </g>
            </g>
        </g>
    </g>
</svg>