<?xml version="1.0" encoding="UTF-8"?>
<svg width="40px" height="40px" viewBox="0 0 40 40" version="1.1" xmlns="http://www.w3.org/2000/svg" xmlns:xlink="http://www.w3.org/1999/xlink">
    <title>Group 5</title>
    <g id="FICHA-TÉCNICA" stroke="none" stroke-width="1" fill="none" fill-rule="evenodd">
        <g id="Desktop-HD-Copy" transform="translate(-511.000000, -1374.000000)">
            <g id="Group-5" transform="translate(511.000000, 1374.000000)">
                <rect id="Rectangle-Copy-2" x="0" y="0" width="40" height="40"></rect>
                <g id="garden" transform="translate(0.000000, 4.000000)" fill="#CC9964" fill-rule="nonzero">
                    <path d="M39.3221753,30.2287406 L30.7891311,30.2287406 L30.7891311,26.1824919 C32.6524899,25.9318669 34.3039737,24.7681173 35.2642859,23.003821 C36.5401449,22.7121804 37.699207,21.9735088 38.5566286,20.8985873 C39.4874096,19.7316345 40.0000657,18.2402287 40.0000657,16.6990573 C40.0000657,14.3546049 38.7995973,12.1846837 36.9107698,11.0575747 C36.713973,7.14796653 33.7001458,4.03062375 30.0296,4.03062375 C28.8742098,4.03062375 27.731007,4.34507678 26.7236636,4.93999847 C26.4102262,5.12507653 26.3061637,5.52913891 26.4912418,5.84249818 C26.676398,6.15601371 27.0805385,6.25999806 27.3938196,6.07491999 C28.1983506,5.59976389 29.1097566,5.34867021 30.0296,5.34867021 C33.097021,5.34867021 35.5971764,8.08718499 35.6029577,11.4532777 C35.6034264,11.7013245 35.7430358,11.9281213 35.9643638,12.0401525 C37.6153008,12.8756991 38.6819411,14.7043704 38.6819411,16.6989792 C38.6819411,19.2163222 36.977176,21.3958527 34.7163955,21.7687432 C34.5046768,21.8037432 34.3232706,21.9394463 34.2300675,22.1328056 C33.5230365,23.5990552 32.2455369,24.5902267 30.7891311,24.8482735 L30.7891311,19.0166347 L34.0325676,16.0340575 C34.3004581,15.7876513 34.3179581,15.3707765 34.0715519,15.1028859 C33.8250676,14.8349954 33.4082709,14.8174173 33.1403803,15.0639016 L30.7891311,17.2260103 L30.7891311,12.8266366 C30.7891311,12.4626524 30.494053,12.1675743 30.1300688,12.1675743 C29.7660845,12.1675743 29.4710065,12.4626524 29.4710065,12.8266366 L29.4710065,20.8031967 L27.1197572,18.641088 C26.8518667,18.3946037 26.4349137,18.4121818 26.1885856,18.6800723 C25.9421794,18.9479629 25.9596794,19.3648377 26.22757,19.6112439 L29.4710846,22.5938211 L29.4710846,24.8791329 C27.9170226,24.6788986 26.5464761,23.6506177 25.8110857,22.0946806 C25.7231951,21.9086651 25.5534296,21.7743682 25.3522577,21.731712 C23.1653834,21.2671028 21.5781964,19.1506191 21.5781964,16.6989792 C21.5781964,14.7658548 22.5530399,13.016246 24.1222581,12.1331994 C24.3322581,12.0149963 24.461008,11.791637 24.4580393,11.5507777 C24.457883,11.5324964 24.457258,11.5143714 24.456633,11.4963246 C24.4562424,11.4858558 24.4558518,11.4754652 24.4558518,11.4650746 C24.4558518,10.0921844 24.8610079,8.79499727 25.627492,7.71390385 C25.8380388,7.41695082 25.7679607,7.0055447 25.4710858,6.79515414 C25.1741328,6.5845292 24.7627267,6.65476356 24.5523361,6.95156034 C23.6791333,8.18312246 23.1944459,9.64210638 23.1425709,11.1868715 C21.3552277,12.352418 20.2602281,14.428433 20.2602281,16.6990573 C20.2602281,19.6524939 22.1352275,22.2251493 24.7631954,22.9445241 C25.7523357,24.8074142 27.5018665,26.0129607 29.4712408,26.2059294 L29.4712408,30.2287406 L29.0538191,30.2287406 C28.9567098,28.5039755 27.7777257,27.0035072 26.1359294,26.4968668 C25.6207733,25.4008515 24.6201486,24.6061642 23.4435083,24.3485081 C23.0577272,22.594993 21.4792121,21.2874153 19.6397595,21.2874153 C18.2213225,21.2874153 16.935151,22.0497588 16.2495262,23.2631959 C14.8992922,23.314524 13.6853082,24.0358519 12.9879647,25.1533516 C12.5533555,23.9577269 11.4400746,23.0871803 10.1366375,22.9935866 L10.1366375,21.2608528 C11.9157775,21.0135091 13.4911677,19.9006969 14.4116361,18.21726 C15.6343701,17.9347601 16.7448385,17.2253853 17.5669477,16.1947606 C18.4621036,15.0726516 18.9550722,13.6385114 18.9550722,12.1566368 C18.9550722,9.90757505 17.805932,7.82531007 15.9966357,6.73913853 C15.8003076,2.98828032 12.9056991,0 9.38116896,0 C8.02921626,0 6.72882603,0.43601549 5.620467,1.26109336 C5.32859209,1.47835892 5.26804524,1.89132754 5.4853108,2.18328057 C5.70257635,2.47515548 6.11546685,2.53570234 6.40749801,2.31843678 C7.28656024,1.66390573 8.31484117,1.31804647 9.38116896,1.31804647 C12.3023399,1.31804647 14.6834329,3.9272644 14.6889798,7.13445091 C14.6894486,7.38249771 14.8290579,7.60929451 15.0503859,7.72132573 C16.6216355,8.51655985 17.6367914,10.2575749 17.6367914,12.1566368 C17.6367914,14.5531205 16.0147606,16.6278855 13.8637457,16.982651 C13.6521051,17.017651 13.4706208,17.153354 13.3774177,17.3467134 C12.7098398,18.7310879 11.5083558,19.6707751 10.1364812,19.9254626 L10.1364812,14.3879643 L13.2327303,11.5408558 C13.5006208,11.2944496 13.5180427,10.8775747 13.2717146,10.6096842 C13.0253866,10.3417155 12.6084336,10.3242155 12.340543,10.5706998 L10.1364812,12.597418 L10.1364812,8.4494505 C10.1364812,8.08546624 9.84140319,7.7903882 9.47741893,7.7903882 C9.11343467,7.7903882 8.81835664,8.08546624 8.81835664,8.4494505 L8.81835664,16.0221825 L6.61437294,13.9954644 C6.34640428,13.7489801 5.92952941,13.7665582 5.68320136,14.0344488 C5.43679519,14.3023393 5.45429518,14.7192923 5.72218572,14.9656204 L8.81827851,17.8127288 L8.81827851,19.9563219 C7.35296647,19.7558532 6.06265437,18.7807754 5.36773271,17.3106196 C5.27984211,17.1246041 5.11007654,16.9903072 4.90890472,16.947651 C2.82820225,16.5053855 1.31796834,14.4906205 1.31796834,12.1566368 C1.31796834,10.3159343 2.24570243,8.65030981 3.73921759,7.80984132 C3.94906127,7.69171636 4.07781123,7.46874768 4.07499873,7.2279665 C4.07484248,7.21015401 4.07429561,7.19234152 4.07367061,7.17460715 C4.07343623,7.16499777 4.07296748,7.15546653 4.07296748,7.1457009 C4.07296748,6.33054491 4.22320181,5.5422639 4.51945172,4.80281101 C4.60757669,4.58312358 4.70906104,4.36734239 4.82132663,4.16124871 C4.99538907,3.84156131 4.87742036,3.44140518 4.55773296,3.26734273 C4.23804556,3.09312404 3.83781131,3.21117088 3.66382699,3.53085828 C3.52703015,3.7821082 3.40328019,4.04507687 3.29609273,4.31257679 C2.97140533,5.12281091 2.79148351,5.97968564 2.75999914,6.86374787 C1.0482028,7.98616939 0,9.97835627 0,12.1566368 C0,14.9923391 1.79828069,17.4633539 4.31999866,18.15976 C5.26827961,19.9374938 6.93773222,21.0909309 8.81835664,21.2839778 L8.81835664,23.1690553 C8.09710686,23.4210865 7.47984143,23.9193676 7.08273217,24.5886642 C5.48226392,24.6796798 4.1890612,25.8617107 3.93843628,27.4206165 C2.75804602,27.9448351 1.88046817,28.9845222 1.55734327,30.2285844 L0.659062295,30.2285844 C0.295078033,30.2285844 0,30.5236624 0,30.8876467 C0,31.2516309 0.295078033,31.5467089 0.659062295,31.5467089 L2.10281185,31.5467089 L16.9804635,31.5467089 L28.3746006,31.5467089 L39.3221753,31.5467089 C39.6861595,31.5467089 39.9812376,31.2516309 39.9812376,30.8876467 C39.9812376,30.5236624 39.6860814,30.2287406 39.3221753,30.2287406 Z M2.93960846,30.2287406 C3.25398336,29.427569 3.91531128,28.7893661 4.75781102,28.5164755 C5.02288906,28.4306162 5.20531088,28.1874131 5.21351401,27.9089757 C5.24671712,26.7831167 6.15523246,25.9011638 7.28187274,25.9011638 C7.32702897,25.9011638 7.37640396,25.9032732 7.43710706,25.9077263 C7.71945073,25.9281169 7.98359127,25.766867 8.09320061,25.5057733 C8.40038802,24.7749923 9.11093467,24.3027268 9.90343442,24.3027268 C10.9210904,24.3027268 11.7801526,25.0966328 11.8592151,26.1101481 C11.8845276,26.4336637 12.1414806,26.6906948 12.4650743,26.7160073 C12.6447617,26.7299917 12.8185116,26.7694448 12.9830428,26.829601 C12.983746,26.8298354 12.984371,26.830226 12.9850741,26.8304604 C13.015621,26.8417104 13.0456991,26.8538198 13.0755428,26.866476 C13.0819491,26.8692104 13.0884334,26.8719448 13.0948397,26.8747573 C13.1227303,26.8868666 13.1503084,26.899601 13.1774178,26.9129604 C13.1866365,26.9175698 13.195699,26.9223354 13.2048396,26.9270229 C13.2424178,26.9462416 13.2792146,26.9667104 13.3153084,26.9881947 C13.3349959,26.9999916 13.3548396,27.0113979 13.3740583,27.0238979 C13.3886677,27.0332729 13.4027302,27.043351 13.416949,27.0529603 C13.4385896,27.067726 13.4600739,27.082726 13.4811677,27.098351 C13.4931208,27.1072572 13.5049177,27.1161635 13.5165583,27.1253041 C13.542027,27.1451478 13.5671833,27.1656166 13.5916364,27.1867884 C13.5984333,27.1925697 13.6052301,27.1981165 13.6119489,27.2039759 C13.6768708,27.2614759 13.7380426,27.323429 13.7949957,27.3892102 C13.8002301,27.395304 13.8053863,27.4013977 13.8105426,27.4075696 C13.834527,27.435929 13.8576519,27.4650696 13.8800738,27.4948352 C13.8843707,27.5005383 13.8888238,27.5061633 13.8930426,27.5119446 C13.9442144,27.5816321 13.990855,27.6550695 14.03273,27.7317101 C14.0382769,27.7418664 14.0435113,27.752257 14.04898,27.7625695 C14.0638238,27.7909289 14.0779644,27.8198351 14.09148,27.849132 C14.0968706,27.8606945 14.1022612,27.872257 14.1074175,27.8838976 C14.1240581,27.9218663 14.1398394,27.9603819 14.1541362,27.9995226 C14.1546831,28.0009288 14.1551519,28.0021788 14.1556987,28.003585 C14.2329643,28.2170225 14.414683,28.3756943 14.636558,28.4235068 C14.6954642,28.436163 14.7531985,28.4516318 14.8099954,28.4690537 C14.828511,28.4747568 14.8464798,28.4817099 14.8648391,28.4878818 C14.9026516,28.500538 14.9403079,28.5134286 14.9771047,28.5281161 C14.9983547,28.5366318 15.0190578,28.5462411 15.0399172,28.5553818 C15.0728078,28.5697567 15.1055422,28.5843661 15.1375734,28.6003036 C15.1591359,28.6110067 15.1800734,28.6225692 15.2011672,28.6339755 C15.2314796,28.6503036 15.2614796,28.6671786 15.2907765,28.684913 C15.3116359,28.6974911 15.3321827,28.710538 15.3525734,28.7238192 C15.3810108,28.7423348 15.4090577,28.7616317 15.4365577,28.7814754 C15.4561671,28.7956161 15.4755421,28.8097567 15.4946046,28.8245223 C15.5218702,28.845616 15.5482764,28.8675692 15.5744483,28.8898348 C15.5921827,28.9049129 15.6101514,28.9199129 15.627417,28.9355379 C15.6542139,28.9599129 15.6798389,28.9853035 15.7053857,29.0108504 C15.7204639,29.0259285 15.7360889,29.0406941 15.7506982,29.0563191 C15.7794482,29.086866 15.8066357,29.118741 15.8335888,29.1507722 C15.8435888,29.1627253 15.8542138,29.1739753 15.8639794,29.1860847 C15.8999169,29.2309284 15.9342138,29.2770222 15.9665575,29.3246003 C15.9733544,29.3345221 15.9792138,29.3451471 15.9857763,29.3551471 C16.0106982,29.3931159 16.034995,29.4314752 16.0575731,29.4709283 C16.0677294,29.488819 16.07687,29.5074127 16.0865575,29.5256158 C16.1040575,29.5582721 16.121245,29.5910064 16.1371044,29.624522 C16.1469481,29.6453814 16.1556981,29.6667095 16.1648387,29.6878033 C16.178745,29.7199126 16.1921825,29.752022 16.2045262,29.7848345 C16.2129637,29.8073345 16.2206981,29.8300689 16.2284325,29.8528814 C16.2394481,29.8853813 16.2497606,29.9181157 16.2592918,29.9512407 C16.2660106,29.9746782 16.2722606,29.9982719 16.2782762,30.0219438 C16.2866356,30.0555375 16.2939793,30.0893657 16.3007762,30.1234281 C16.3055418,30.1471781 16.3101512,30.1709281 16.3141356,30.1949906 C16.3160106,30.2061625 16.3169481,30.2174906 16.3185887,30.2287406 L2.93960846,30.2287406 L2.93960846,30.2287406 Z M17.6474945,30.2288187 L17.6474945,30.2287406 C17.6469476,30.2224906 17.6456195,30.2163187 17.6451508,30.2101469 C17.6375726,30.131475 17.627807,30.0532719 17.6149164,29.9760063 C17.6141352,29.9714751 17.6131195,29.9669438 17.6123383,29.9624126 C17.5989008,29.8835845 17.5828852,29.8055376 17.5641352,29.7283501 C17.5633539,29.7249908 17.5627289,29.7216314 17.5618695,29.7184283 C17.5430414,29.6419439 17.5212446,29.5665533 17.4974946,29.4920221 C17.4949164,29.4840533 17.4925727,29.4758502 17.4899164,29.4678815 C17.4664789,29.3961627 17.4403852,29.3255378 17.4123383,29.255694 C17.4082758,29.2456159 17.4043696,29.2354597 17.400229,29.2254597 C17.372104,29.1571003 17.3417134,29.0899128 17.3093696,29.023741 C17.3042915,29.0132722 17.2992134,29.0028816 17.293979,28.992491 C17.2610103,28.9267098 17.2261665,28.8620223 17.1892915,28.7985848 C17.1836665,28.7889754 17.1780415,28.7795223 17.1723384,28.7699129 C17.1343697,28.7059286 17.0946041,28.6431161 17.052651,28.581788 C17.0475728,28.574288 17.0422603,28.5670224 17.0371041,28.5596786 C16.9933541,28.4967099 16.9479635,28.434913 16.9003072,28.3749912 C16.8973385,28.3712412 16.8941354,28.3676474 16.8911666,28.3638193 C16.8413229,28.3016318 16.7896042,28.2410069 16.7356198,28.182335 C16.7349948,28.18171 16.7344479,28.1810069 16.7339011,28.1803819 C16.6804636,28.1224131 16.6247605,28.0663975 16.5674949,28.0120225 C16.5624949,28.0072569 16.5576511,28.0023351 16.5526511,27.9976476 C16.497573,27.9460069 16.4405418,27.8963195 16.3821043,27.8481945 C16.3742918,27.8417882 16.3665574,27.8352257 16.3586668,27.8287414 C16.3011668,27.782257 16.2421043,27.7376476 16.1815575,27.694757 C16.1721825,27.6881164 16.1628075,27.6814758 16.1534325,27.6749133 C16.0929638,27.632882 16.0310106,27.5927258 15.9677294,27.5545227 C15.9578075,27.5485852 15.9478075,27.5426477 15.9378857,27.5367883 C15.8737451,27.4988977 15.8084326,27.4628821 15.741792,27.429054 C15.7326514,27.4243665 15.7233545,27.4200696 15.7141357,27.4155384 C15.6453858,27.381554 15.575542,27.3492884 15.5042139,27.3197571 C15.4978858,27.3171009 15.4914796,27.3148353 15.4851514,27.3122571 C15.4103858,27.2818665 15.3345265,27.2535072 15.2571828,27.2282728 C15.2569484,27.2281947 15.2566359,27.2280384 15.2563234,27.2278822 C15.252964,27.2210853 15.2491359,27.2147572 15.2457765,27.2080384 C15.2191359,27.1546791 15.1912453,27.1022572 15.1618703,27.0506947 C15.1468703,27.0243666 15.1308547,26.9986635 15.1152297,26.972726 C15.0962453,26.9415541 15.0771047,26.9104604 15.0571828,26.8799135 C15.0380422,26.8504604 15.0183547,26.8215542 14.9981985,26.7928042 C14.9806985,26.7678823 14.9627297,26.7433511 14.9446047,26.7188979 C14.9217922,26.6880386 14.8989016,26.6573355 14.8749954,26.6273355 C14.8609329,26.6097574 14.8461673,26.5928824 14.8317923,26.5756949 C14.7762454,26.508898 14.7181986,26.4444449 14.6574954,26.3822574 C14.6470267,26.3715543 14.6370267,26.3604606 14.6264798,26.3499137 C14.5963236,26.3199137 14.5651517,26.2911637 14.5339017,26.2623356 C14.5158549,26.245695 14.4978861,26.2291325 14.4794486,26.2128825 C14.4496049,26.1866325 14.4192924,26.1608512 14.3883549,26.1355388 C14.3658549,26.1171013 14.3429643,26.0993669 14.3199956,26.0814763 C14.2913237,26.0593669 14.2628862,26.0370232 14.2334331,26.0157732 C14.1920268,25.9857732 14.1496831,25.9571794 14.1068706,25.9291326 C14.0954644,25.9216326 14.084605,25.9133513 14.0730425,25.9060076 C14.5533549,25.0946016 15.4325733,24.5787424 16.4039793,24.5787424 C16.4634324,24.5787424 16.5279636,24.5814767 16.6070261,24.587258 C16.8889791,24.6082736 17.1534322,24.4463205 17.2630415,24.185305 C17.6662445,23.225774 18.599213,22.6057742 19.6397595,22.6057742 C20.975931,22.6057742 22.1038213,23.6482739 22.2075712,24.9790547 C22.2328056,25.3025703 22.4898368,25.5596014 22.8134304,25.5848358 C23.8186645,25.6631952 24.6900705,26.3268668 25.0335078,27.2756947 C25.1107734,27.4891321 25.2924921,27.6478039 25.5143671,27.6956164 C26.7303042,27.9576476 27.6323352,29.0032722 27.7336633,30.2290531 L17.6474945,30.2290531 L17.6474945,30.2288187 Z" id="Shape"></path>
                </g>
            </g>
        </g>
    </g>
</svg>