<?xml version="1.0" encoding="UTF-8"?>
<svg width="14px" height="12px" viewBox="0 0 14 12" version="1.1" xmlns="http://www.w3.org/2000/svg" xmlns:xlink="http://www.w3.org/1999/xlink">
    <title>Combined Shape Copy 3</title>
    <g id="CONÓCENOS" stroke="none" stroke-width="1" fill="none" fill-rule="evenodd">
        <g id="Desktop-HD" transform="translate(-1136.000000, -3629.000000)" fill="#FFFFFF" fill-rule="nonzero">
            <path d="M1144.36702,3629.2097 L1144.46552,3629.29289 L1149.69374,3634.29289 C1150.07068,3634.65338 1150.09967,3635.22061 1149.78072,3635.6129 L1149.69374,3635.70711 L1144.46552,3640.70711 C1144.05717,3641.09763 1143.39511,3641.09763 1142.98676,3640.70711 C1142.60982,3640.34662 1142.58083,3639.77939 1142.89977,3639.3871 L1142.98676,3639.29289 L1146.428,3636 L1137.04564,3636 C1136.46815,3636 1136,3635.55228 1136,3635 C1136,3634.48716 1136.40366,3634.06449 1136.9237,3634.00673 L1137.04564,3634 L1146.429,3634 L1142.98676,3630.70711 C1142.60982,3630.34662 1142.58083,3629.77939 1142.89977,3629.3871 L1142.98676,3629.29289 C1143.3637,3628.93241 1143.95682,3628.90468 1144.36702,3629.2097 Z" id="Combined-Shape-Copy-3"></path>
        </g>
    </g>
</svg>