<?xml version="1.0" encoding="UTF-8"?>
<svg width="14px" height="12px" viewBox="0 0 14 12" version="1.1" xmlns="http://www.w3.org/2000/svg" xmlns:xlink="http://www.w3.org/1999/xlink">
    <title>Path 5</title>
    <g id="CONÓCENOS" stroke="none" stroke-width="1" fill="none" fill-rule="evenodd">
        <g id="Desktop-HD" transform="translate(-372.000000, -4172.000000)" fill="#CC9964" fill-rule="nonzero">
            <path d="M380.001788,4172.2097 L380.095996,4172.29289 L385.095996,4177.29289 C385.45648,4177.65338 385.484209,4178.22061 385.179184,4178.6129 L385.095996,4178.70711 L380.095996,4183.70711 C379.705471,4184.09763 379.072306,4184.09763 378.681782,4183.70711 C378.321298,4183.34662 378.293569,4182.77939 378.598594,4182.3871 L378.681782,4182.29289 L381.973,4179 L373,4179 C372.447715,4179 372,4178.55228 372,4178 C372,4177.48716 372.38604,4177.06449 372.883379,4177.00673 L373,4177 L381.975,4177 L378.681782,4173.70711 C378.321298,4173.34662 378.293569,4172.77939 378.598594,4172.3871 L378.681782,4172.29289 C379.042266,4171.93241 379.609497,4171.90468 380.001788,4172.2097 Z" id="Combined-Shape-Copy"></path>
        </g>
    </g>
</svg>