<?xml version="1.0" encoding="UTF-8"?>
<svg width="12px" height="11px" viewBox="0 0 12 11" version="1.1" xmlns="http://www.w3.org/2000/svg" xmlns:xlink="http://www.w3.org/1999/xlink">
    <title>Combined Shape</title>
    <g id="HOME" stroke="none" stroke-width="1" fill="none" fill-rule="evenodd">
        <g id="Desktop-HD" transform="translate(-455.000000, -1327.000000)" fill="#CC9964" fill-rule="nonzero">
            <path d="M461.284306,1327.08859 L461.353553,1327.14645 L466.353553,1332.14645 C466.52712,1332.32001 466.546405,1332.58944 466.411409,1332.78431 L466.353553,1332.85355 L461.353553,1337.85355 C461.158291,1338.04882 460.841709,1338.04882 460.646447,1337.85355 C460.47288,1337.67999 460.453595,1337.41056 460.588591,1337.21569 L460.646447,1337.14645 L464.793,1333 L456,1333 C455.723858,1333 455.5,1332.77614 455.5,1332.5 C455.5,1332.25454 455.676875,1332.05039 455.910124,1332.00806 L456,1332 L464.793,1332 L460.646447,1327.85355 C460.47288,1327.67999 460.453595,1327.41056 460.588591,1327.21569 L460.646447,1327.14645 C460.820013,1326.97288 461.089437,1326.9536 461.284306,1327.08859 Z" id="Combined-Shape"></path>
        </g>
    </g>
</svg>