<?xml version="1.0" encoding="UTF-8"?>
<svg width="14px" height="12px" viewBox="0 0 14 12" version="1.1" xmlns="http://www.w3.org/2000/svg" xmlns:xlink="http://www.w3.org/1999/xlink">
    <title>Combined Shape</title>
    <g id="HOME" stroke="none" stroke-width="1" fill="none" fill-rule="evenodd">
        <g id="Desktop-HD" transform="translate(-1207.000000, -3929.000000)" fill="#FFFFFF" fill-rule="nonzero">
            <path d="M1215.00179,3929.2097 L1215.096,3929.29289 L1220.096,3934.29289 C1220.45648,3934.65338 1220.48421,3935.22061 1220.17918,3935.6129 L1220.096,3935.70711 L1215.096,3940.70711 C1214.70547,3941.09763 1214.07231,3941.09763 1213.68178,3940.70711 C1213.3213,3940.34662 1213.29357,3939.77939 1213.59859,3939.3871 L1213.68178,3939.29289 L1216.972,3936 L1208,3936 C1207.44772,3936 1207,3935.55228 1207,3935 C1207,3934.48716 1207.38604,3934.06449 1207.88338,3934.00673 L1208,3934 L1216.974,3934 L1213.68178,3930.70711 C1213.3213,3930.34662 1213.29357,3929.77939 1213.59859,3929.3871 L1213.68178,3929.29289 C1214.04227,3928.93241 1214.6095,3928.90468 1215.00179,3929.2097 Z" id="Combined-Shape"></path>
        </g>
    </g>
</svg>