<?xml version="1.0" encoding="UTF-8"?>
<svg width="50px" height="50px" viewBox="0 0 50 50" version="1.1" xmlns="http://www.w3.org/2000/svg" xmlns:xlink="http://www.w3.org/1999/xlink">
    <title>Sin título-1-06</title>
    <g id="CONÓCENOS" stroke="none" stroke-width="1" fill="none" fill-rule="evenodd">
        <g id="Desktop-HD" transform="translate(-767.000000, -3416.000000)">
            <g id="Sin-título-1-06" transform="translate(767.000000, 3416.000000)">
                <path d="M46.238,21.5 C46.218,19.929 45.068,18.77 43.504,18.743 C42.704,18.73 41.91,18.733 41.073,18.736 C40.699,18.736 40.3206667,18.736 39.938,18.736 L39.813,18.736 L39.813,15.026 C39.813,12.516 39.813,10.0056667 39.813,7.495 C39.813,5.195 38.382,3.77 36.08,3.77 L7.5,3.77 C5.456,3.77 4.3,4.651 3.74,6.627 C3.73074571,6.65717416 3.7142693,6.68463485 3.692,6.707 L3.692,29.788 C3.70141491,29.8108844 3.70845191,29.8346761 3.713,29.859 C4.084,31.759 5.657,32.898 7.719,32.774 C8.219,32.743 8.719,32.751 9.25,32.759 C9.493,32.759 9.74,32.767 9.993,32.767 L10.118,32.767 L10.118,33.367 C10.118,33.74 10.118,34.113 10.118,34.486 C10.118,35.338 10.118,36.219 10.118,37.086 C10.118,37.953 10.445,38.567 11.144,38.942 C11.82,39.305 12.522,39.256 13.229,38.797 C14.373,38.055 15.5186667,37.315 16.666,36.577 L17.366,36.125 C17.442,36.076 17.518,36.032 17.615,35.976 L17.783,35.876 L17.971,35.765 L17.971,35.984 C17.971,36.284 17.971,36.569 17.971,36.853 C17.971,37.478 17.964,38.067 17.978,38.662 C17.991281,39.9360523 18.9013206,41.0239157 20.153,41.262 C20.4077053,41.304246 20.6659493,41.3213283 20.924,41.313 L23.48,41.313 C25.267,41.313 27.113,41.313 28.929,41.325 C29.2516375,41.3318942 29.5669442,41.4225233 29.844,41.588 C31.19,42.4 32.552,43.24 33.87,44.05 C34.746,44.588 35.622,45.1256667 36.498,45.663 C36.768,45.827 37.055,45.976 37.333,46.12 C37.456,46.184 37.579,46.248 37.701,46.313 L38.39,46.313 C38.476,46.266 38.563,46.221 38.649,46.177 C38.8551685,46.0816869 39.0506033,45.9646942 39.232,45.828 C39.6093041,45.5188863 39.8223368,45.0525775 39.809,44.565 C39.809,43.951 39.809,43.337 39.809,42.723 L39.809,41.313 L42.3,41.313 C42.665,41.313 43.031,41.313 43.4,41.313 C45.1,41.298 46.239,40.154 46.24,38.465 C46.24,34.747 46.24,31.029 46.24,27.311 L46.24,23.005 C46.24,22.851 46.24,22.697 46.24,22.542 C46.2408944,22.2 46.242,21.849 46.238,21.5 Z M14.838,36.339 L12.717,37.71 C12.705,37.718 12.694,37.727 12.683,37.736 C12.6389966,37.7773183 12.5842348,37.8053923 12.525,37.817 C12.457,37.826 12.385,37.841 12.309,37.857 C12.1848615,37.8881525 12.0578729,37.9065809 11.93,37.9121979 C11.8450472,37.9143024 11.7607539,37.8964843 11.684,37.86 C11.441,37.737 11.304,37.339 11.299,37.099 C11.278,36.088 11.28,35.062 11.283,34.068 C11.283,33.727 11.283,33.385 11.283,33.044 L11.283,32.823 C11.283,32.66 11.283,32.498 11.283,32.335 C11.276,31.787 11.083,31.592 10.546,31.59 C9.95733333,31.59 9.369,31.59 8.781,31.59 L7.333,31.59 C5.809,31.59 4.862,30.642 4.862,29.125 C4.862,21.883 4.862,14.6413333 4.862,7.4 C4.862,5.885 5.811,4.944 7.338,4.943 L36.172,4.943 C37.714,4.943 38.636,5.863 38.637,7.404 C38.637,9.96933333 38.637,12.536 38.637,15.104 L38.637,21.158 C38.637,23.8033333 38.637,26.4483333 38.637,29.093 C38.637,30.683 37.721,31.593 36.125,31.593 L33.985,31.593 C30.317,31.593 26.525,31.593 22.794,31.585 L22.787,31.585 C22.3844571,31.5802262 21.9902266,31.6996477 21.658,31.927 C19.39,33.4 17.078,34.9 14.842,36.342 L14.838,36.339 Z M45.06,38.456 C45.055,39.503 44.425,40.13 43.373,40.134 C42.658,40.134 41.944,40.134 41.229,40.134 L39.448,40.134 C38.829,40.134 38.639,40.325 38.638,40.942 C38.638,41.287 38.638,41.632 38.638,41.976 C38.638,42.747 38.638,43.544 38.625,44.329 C38.62,44.547 38.517,44.907 38.301,45.023 C38.2310736,45.05731 38.1538611,45.0741251 38.076,45.0721791 C37.8874803,45.065227 37.7036147,45.0116138 37.541,44.916 C36.417,44.232 35.277,43.532 34.175,42.855 C32.864,42.055 31.508,41.217 30.169,40.407 C29.8939323,40.243091 29.5811202,40.1531747 29.261,40.146 C27.208,40.13 25.121,40.132 23.102,40.133 L20.9,40.133 C19.731,40.133 19.137,39.541 19.135,38.373 C19.135,38.073 19.135,37.763 19.135,37.457 C19.135,36.8 19.141,36.119 19.123,35.452 C19.111,35.047 19.288,34.852 19.557,34.684 C19.974,34.424 20.393,34.151 20.799,33.884 C21.254,33.584 21.725,33.284 22.199,32.992 C22.427024,32.8514389 22.6882201,32.7738046 22.956,32.767 C25.564,32.76 28.215,32.76 30.779,32.759 C32.601,32.759 34.4236667,32.759 36.247,32.759 C38.069,32.759 39.447,31.626 39.763,29.879 C39.8005229,29.6191068 39.8159115,29.356497 39.809,29.094 L39.809,29.069 C39.809,26.8536667 39.809,24.639 39.809,22.425 L39.809,19.923 L39.934,19.923 C40.316,19.923 40.692,19.923 41.064,19.917 C41.936,19.911 42.764,19.904 43.596,19.933 C44.471,19.964 45.06,20.641 45.06,21.619 C45.06,25.077 45.06,28.5346667 45.06,31.992 L45.06,36.355 C45.066,37.056 45.067,37.757 45.064,38.459 L45.06,38.456 Z" id="Shape" fill="#CC9964" fill-rule="nonzero"></path>
                <path d="M27.073,15.638 C27.404,15.655 27.649,15.424 27.685,15.064 C27.691,15.005 27.697,14.946 27.702,14.886 C27.717,14.724 27.731,14.557 27.76,14.393 C28.075,12.547 29.77,11.252 31.699,11.379 C33.546,11.502 35.025,13.079 35.066,14.979 C35.107,16.854 33.694,18.496 31.849,18.718 C30.788,18.846 30.788,18.846 30.788,19.898 L30.788,19.94 L30.788,20.065 L30.788,20.225 C30.788,20.394 30.788,20.564 30.788,20.733 C30.7885175,20.7666049 30.7922005,20.8000862 30.799,20.833 C30.8384,21.1337575 31.1042951,21.3524213 31.407,21.333 C31.722,21.32 31.927,21.114 31.955,20.781 C31.9686041,20.635985 31.9686041,20.490015 31.955,20.345 C31.917,19.962 32.142,19.859 32.391,19.805 C34.391,19.366 35.961,17.691 36.197,15.731 C36.452,13.62 35.428,11.652 33.589,10.715 C31.741852,9.76107783 29.4913758,10.0975411 28.004,11.55 C27.039,12.472 26.537,13.634 26.511,15.004 C26.511,15.363 26.74,15.622 27.073,15.638 Z" id="Path" fill="#CC9964" fill-rule="nonzero"></path>
                <path d="M7.666,15.861 C7.78639916,15.8942191 7.91119147,15.908722 8.036,15.904 C13.45,15.904 18.218,15.904 22.611,15.904 C22.7607694,15.9100662 22.9103497,15.8880192 23.052,15.839 C23.3045449,15.757641 23.4547832,15.4986094 23.4,15.239 C23.3802978,14.9733336 23.1704549,14.7613712 22.905,14.739 C22.8054265,14.7276927 22.7051342,14.7240153 22.605,14.728 L8.073,14.728 L7.973,14.728 C7.909828,14.7275598 7.84669439,14.7312342 7.784,14.739 C7.471,14.782 7.305,14.95 7.276,15.253 C7.2253482,15.526797 7.39602064,15.792871 7.666,15.861 Z" id="Path" fill="#CC9964" fill-rule="nonzero"></path>
                <path d="M23.278,20.68 C23.3742659,20.5751845 23.4221508,20.4347948 23.41,20.293 C23.404,20.027 23.295,19.721 22.501,19.721 L8.076,19.721 C7.96423772,19.7185604 7.85247668,19.7259219 7.742,19.743 C7.47613503,19.7893989 7.27887422,20.0153169 7.26874264,20.28501 C7.25861105,20.5547032 7.43836562,20.7947845 7.7,20.861 C7.85326868,20.8921103 8.00974238,20.9045342 8.166,20.898 C12.9406667,20.898 17.715,20.898 22.489,20.898 C22.871,20.9 23.136,20.826 23.278,20.68 Z" id="Path" fill="#CC9964" fill-rule="nonzero"></path>
                <path d="M31.4,23.0319992 L31.376,23.0319992 C31.0975891,23.0315365 30.8589884,23.2309326 30.81,23.505 C30.7882946,23.6371599 30.7799193,23.7711659 30.785,23.905 L30.785,23.977 C30.785,24.811 31.12,24.911 31.374,24.913 C31.511582,24.923259 31.6472886,24.876214 31.749,24.783 C31.888,24.644 31.958,24.377 31.954,23.989 C31.954,23.944 31.954,23.899 31.954,23.855 C31.9585395,23.7643902 31.9585395,23.6736098 31.954,23.583 C31.9430912,23.2821694 31.7008854,23.0412752 31.4,23.0319992 Z" id="Path" fill="#CC9964" fill-rule="nonzero"></path>
                <rect id="Rectangle" x="0" y="0" width="50" height="50"></rect>
            </g>
        </g>
    </g>
</svg>