<?xml version="1.0" encoding="UTF-8"?>
<svg width="13px" height="16px" viewBox="0 0 13 16" version="1.1" xmlns="http://www.w3.org/2000/svg" xmlns:xlink="http://www.w3.org/1999/xlink">
    <title>bano.00f32a copy 22</title>
    <g id="FICHA-TÉCNICA" stroke="none" stroke-width="1" fill="none" fill-rule="evenodd">
        <g id="Desktop-HD-Copy" transform="translate(-729.000000, -899.000000)" fill="#CC9964">
            <g id="bano.00f32a-copy-22" transform="translate(729.000000, 899.000000)">
                <path d="M0.245167095,0.422686045 C0.456695148,0.155479167 0.776489365,-8.8817842e-16 1.11455085,-8.8817842e-16 L4.08664316,-8.8817842e-16 C4.70219102,-8.8817842e-16 5.20118056,0.50563763 5.20118056,1.12936128 L5.20118056,5.64680638 C5.20118056,6.27053002 4.70219102,6.77616765 4.08664316,6.77616765 L2.105252,6.77616765 C1.58286832,6.77616765 1.13056675,6.40852668 1.01725173,5.89179872 L0.0265505831,1.37435362 C-0.046785978,1.03994974 0.0336278956,0.689892922 0.245167095,0.422686045 Z M2.25627182,1.12936128 L1.11455085,1.12936128 L1.36222335,2.25872255 L2.105252,5.64680638 L2.97210576,5.64680638 L4.08664316,5.64680638 L4.08664316,4.5174451 L4.08664316,2.25872255 L4.08664316,1.12936128 L2.97210576,1.12936128 L2.25627182,1.12936128 Z M6.50002901,5.64680638 C6.19226066,5.64680638 5.94276031,5.89962519 5.94276031,6.21148702 C5.94276031,6.52334884 6.19226066,6.77616765 6.50002901,6.77616765 L12.0727049,6.77616765 C12.3805401,6.77616765 12.6299736,6.52334884 12.6299736,6.21148702 C12.6299736,5.89962519 12.3805401,5.64680638 12.0727049,5.64680638 L6.50002901,5.64680638 Z M11.8854626,7.90552893 L13,7.90552893 C13,8.29318219 12.9587621,8.67105518 12.8802987,9.0348902 C12.591522,10.3753291 11.7993089,11.5250189 10.7146411,12.2705103 L11.3173829,15.324642 C11.3501503,15.4904322 11.3077979,15.6625469 11.2019168,15.7933269 C11.0960358,15.9242199 10.9378829,16 10.7709252,16 L1.85467056,16 C1.59009052,16 1.36197815,15.8115096 1.30878128,15.5489331 C1.25558441,15.2862437 1.39195921,15.0219731 1.63515127,14.9162649 C1.99823412,14.7586061 2.57763753,14.392806 3.05974183,13.8316264 C3.4616886,13.3638449 3.78219612,12.7779323 3.87246251,12.0737755 C2.92552924,11.3300911 2.2388516,10.262393 1.97436073,9.0348902 C1.89597531,8.67105518 1.85467056,8.29318219 1.85467056,7.90552893 L2.96920796,7.90552893 L11.8854626,7.90552893 Z M4.8883522,12.6978606 C4.70207957,13.4500152 4.32640245,14.0773754 3.90032594,14.5732779 C3.81059454,14.6776309 3.71821053,14.7767888 3.62427732,14.8706387 L10.0911688,14.8706387 L9.68614594,12.8182505 C9.10104724,13.0492049 8.46456837,13.1759192 7.79886632,13.1759192 L7.05584882,13.1759192 C6.28228184,13.1759192 5.54816949,13.004708 4.8883522,12.6978606 Z M3.12303641,9.0348902 L11.7316564,9.0348902 C11.2464983,10.7729772 9.66942788,12.0465579 7.79886632,12.0465579 L7.05584882,12.0465579 C5.18524268,12.0465579 3.6081834,10.7729772 3.12303641,9.0348902 Z" id="Shape"></path>
            </g>
        </g>
    </g>
</svg>