<?xml version="1.0" encoding="UTF-8"?>
<svg width="16px" height="16px" viewBox="0 0 16 16" version="1.1" xmlns="http://www.w3.org/2000/svg" xmlns:xlink="http://www.w3.org/1999/xlink">
    <title>banos.827612</title>
    <g id="FICHA-TÉCNICA" stroke="none" stroke-width="1" fill="none" fill-rule="evenodd">
        <g id="Desktop-HD-Copy" transform="translate(-614.000000, -899.000000)" fill="#CC9964" fill-rule="nonzero">
            <g id="banos.827612" transform="translate(614.000000, 899.000000)">
                <path d="M15.4405591,7.95404188 L15.1944051,7.95404188 L15.1944051,2.36433917 C15.1419295,1.75873448 14.8838035,1.19127061 14.465006,0.761047149 C14.0462086,0.330835163 13.4933691,0.0651922894 12.903047,0.0105119121 C12.3128368,-0.0441569873 11.7225148,0.115602914 11.2353536,0.46191197 C10.7481925,0.808209549 10.3951853,1.31905328 10.2377698,1.90522601 C9.7868828,2.01155662 9.38439863,2.27139171 9.09588377,2.64238958 C8.8073689,3.01338744 8.64984153,3.47368282 8.64895761,3.94827957 C8.64895761,4.10048706 8.70790031,4.24645061 8.81281785,4.35407821 C8.91772421,4.46170581 9.0600236,4.52217102 9.20839852,4.52217102 L12.184613,4.52217102 C12.3359977,4.51336752 12.4783195,4.4454073 12.5823755,4.33227034 C12.6864315,4.2191219 12.7442777,4.06939362 12.7440539,3.91384608 C12.743942,3.47845759 12.6096762,3.05424851 12.3605012,2.70177586 C12.1113262,2.34930321 11.7599973,2.08658719 11.3566404,1.95113733 C11.4392139,1.6540452 11.6137595,1.39258026 11.8539834,1.20622622 C12.0942073,1.01987219 12.3870187,0.91875252 12.6881098,0.918132717 C13.061145,0.92112843 13.4179564,1.07446075 13.6817888,1.34502761 C13.9455092,1.61560595 14.0949918,1.98170278 14.0979009,2.36433917 L14.0979009,7.95404188 L0.55944203,7.95404188 C0.411067112,7.95404188 0.268767722,8.01450709 0.163856886,8.12213469 C0.0589415756,8.22975081 0,8.37572584 0,8.52793333 C0.00286433747,8.6792226 0.0627256339,8.82348743 0.167026679,8.93048375 C0.271329961,9.03748007 0.411962217,9.09888646 0.55944203,9.10182478 L0.716085486,9.10182478 L0.716085486,11.3973906 C0.716958213,12.0104214 0.90994295,12.6068094 1.26654178,13.0987492 C1.6231406,13.5905741 2.12446679,13.9518962 2.69650631,14.1291139 C2.63780977,14.2826872 2.60745451,14.4462463 2.60699577,14.6111827 C2.60699577,14.9795062 2.74963082,15.3327938 3.00352748,15.5932257 C3.25742415,15.8536577 3.60178241,16 3.96084277,16 C4.31990314,16 4.6642614,15.8536577 4.91815806,15.5932257 C5.17205472,15.3327938 5.31468978,14.9795062 5.31468978,14.6111827 C5.309666,14.4935349 5.28701983,14.3773793 5.24755687,14.2668478 L10.6853113,14.2668478 C10.6458148,14.3773793 10.6232134,14.4935349 10.6181784,14.6111827 C10.6181784,14.9795062 10.7608359,15.3327938 11.0147101,15.5932257 C11.2685844,15.8536577 11.6129763,16 11.9720254,16 C12.3310746,16 12.6754664,15.8536577 12.9293407,15.5932257 C13.183215,15.3327938 13.3258724,14.9795062 13.3258724,14.6111827 C13.324306,14.4425734 13.2939843,14.275571 13.2363619,14.117636 C13.8032993,13.9384671 14.2994115,13.577719 14.6518593,13.0880748 C15.0041952,12.5985454 15.1944051,12.0059451 15.1944051,11.3973906 L15.1944051,9.10182478 L15.4405591,9.10182478 C15.5880277,9.09888646 15.7286712,9.03748007 15.8329509,8.93048375 C15.9372307,8.82348743 15.9970909,8.6792226 16,8.52793333 C16,8.37572584 15.9410349,8.22975081 15.8361957,8.12213469 C15.7312446,8.01450709 15.5889228,7.95404188 15.4405591,7.95404188 Z M9.93567171,3.36291029 C10.0202144,3.2465251 10.1298536,3.15176415 10.2559964,3.08606505 C10.3822063,3.02035448 10.521507,2.98547336 10.6629337,2.98414193 L10.7300666,2.98414193 C10.8716052,2.98547336 11.0107941,3.02035448 11.1370039,3.08606505 C11.2632138,3.15176415 11.3727523,3.2465251 11.4573398,3.36291029 L9.93567171,3.36291029 Z M3.72587759,14.6111827 C3.72587759,14.5472512 3.75062726,14.4859596 3.79470001,14.4407369 C3.83876158,14.3955143 3.89852106,14.3701483 3.96084277,14.3701483 C4.0231533,14.3701483 4.08292397,14.3955143 4.12698553,14.4407369 C4.1710471,14.4859596 4.19580796,14.5472512 4.19580796,14.6111827 C4.19580796,14.8751728 3.72587759,14.8751728 3.72587759,14.6111827 Z M11.7370603,14.6111827 C11.7370603,14.5472512 11.7617875,14.4859596 11.8058715,14.4407369 C11.8499554,14.3955143 11.9097037,14.3701483 11.9720254,14.3701483 C12.0343472,14.3701483 12.0940954,14.3955143 12.1381794,14.4407369 C12.1822633,14.4859596 12.2069906,14.5472512 12.2069906,14.6111827 C12.2069906,14.8751728 11.7370603,14.8751728 11.7370603,14.6111827 Z M14.0755233,11.3973906 C14.0755233,11.8539786 13.8987399,12.2919726 13.5839985,12.6148439 C13.269257,12.9377152 12.8422917,13.1190649 12.3972005,13.1190649 L3.52447886,13.1190649 C3.07935411,13.1190649 2.65246712,12.9377152 2.33772567,12.6148439 C2.02297302,12.2919726 1.84615613,11.8539786 1.84615613,11.3973906 L1.84615613,9.10182478 L14.0755233,9.10182478 L14.0755233,11.3973906 Z" id="Shape"></path>
            </g>
        </g>
    </g>
</svg>