<?xml version="1.0" encoding="UTF-8"?>
<svg width="160px" height="33px" viewBox="0 0 160 33" version="1.1" xmlns="http://www.w3.org/2000/svg" xmlns:xlink="http://www.w3.org/1999/xlink">
    <title>Group 2</title>
    <g id="CRÉDITOS" stroke="none" stroke-width="1" fill="none" fill-rule="evenodd">
        <g id="Desktop-HD" transform="translate(-423.000000, -2199.000000)">
            <g id="Group-2" transform="translate(423.000000, 2199.000000)">
                <rect id="Rectangle" x="0" y="0" width="160" height="33"></rect>
                <g id="banorte-logo" transform="translate(0.000000, 5.000000)" fill="#FFFFFF" fill-rule="nonzero">
                    <path d="M41.3500729,4.57301884 C41.1278547,4.09033185 40.7271334,3.69871788 40.2535537,3.35992625 C39.4921833,2.81348815 38.6160609,2.40730249 37.690759,2.0666894 C35.2827884,1.18874551 32.729101,0.69695122 30.113484,0.414624866 C28.5323255,0.252743174 26.9470743,0.133697488 25.3594725,0.0576186376 C23.1556792,-0.0417592158 20.9479664,-0.0125663187 18.7475714,0.145048734 C16.9862192,0.265265117 15.2376173,0.458339914 13.5126943,0.757059412 C11.5345884,1.10313688 9.5965546,1.54939466 7.79330885,2.29619341 C6.87711429,2.67505716 6.02284939,3.12131494 5.34344468,3.74425438 C4.29246206,4.70962837 4.26696161,5.84621963 5.3379803,6.80066485 C5.75691618,7.17224276 6.24871047,7.50374854 6.76600521,7.78425344 C8.11752879,8.52194488 9.6420911,8.96820267 11.2012612,9.33978058 C12.8260038,9.73139455 14.4889971,9.9955063 16.170205,10.1885811 C16.8131805,10.2614395 17.4597989,10.3160833 18.1228105,10.378013 C19.1883648,7.47278372 20.2484547,4.58576907 21.3103661,1.70057587 C21.3212949,1.70786171 21.3358665,1.70968317 21.3486168,1.71332609 L21.8695544,10.5383015 C22.1008799,10.5474088 22.303062,10.5674449 22.5034226,10.5619805 C23.8075882,10.5346586 25.1099324,10.5182654 26.4086336,10.4654431 C28.4008316,10.3831267 30.3858864,10.1756784 32.3520587,9.84432509 C34.2864496,9.51828369 36.1807684,9.09024051 37.9621566,8.39808558 C39.0186036,7.98279262 40.0185853,7.50557 40.7726699,6.7660571 C41.4411459,6.11579576 41.7271152,5.39449746 41.3482514,4.57301884 M17.4233697,10.769627 C15.1277585,10.8077119 12.8375493,11.0049024 10.5692144,11.3597801 C8.383462,11.7149649 6.25781778,12.2085806 4.26149723,13.017309 C2.99193937,13.5327823 1.81345452,14.1466144 0.928224795,15.0518802 C0.12131786,15.8770018 -0.233866908,16.7895534 0.163211448,17.8205 C0.496538692,18.6765863 1.21237261,19.3195618 2.07028043,19.8732858 C3.51651995,20.8022306 5.18679909,21.3978481 6.93357957,21.8768922 C9.04586152,22.4335287 11.2017919,22.808897 13.3779063,22.9989117 C14.8769681,18.9133762 16.3651013,14.8496981 17.8659846,10.769627 L17.4233697,10.769627 Z M34.1043036,13.662106 C32.4668107,12.7950909 30.6544577,12.2468313 28.7765321,11.8169667 C26.965734,11.4154257 25.1306589,11.1324981 23.2830077,10.9699876 C22.8349284,10.9262725 22.3850277,10.9025936 21.9096266,10.8679858 L22.623639,23.0663058 C22.7657129,23.0663058 22.8786435,23.0772345 22.9879311,23.0608414 C24.1281653,22.9260533 25.2738638,22.8113013 26.4049907,22.6419055 C28.459598,22.3286143 30.4559185,21.8550346 32.3465944,21.1337363 C33.7090467,20.6127987 34.9767831,19.9862163 35.9621931,19.0445213 C37.1570711,17.9061086 37.2973236,16.5800855 36.3319496,15.3706358 C35.7672969,14.6566233 34.9767831,14.1229355 34.1043036,13.662106" id="Shape"></path>
                    <path d="M56.0237574,15.0354871 C56.0237574,15.1921327 56.0237574,15.6729982 54.8817018,15.6729982 L48.6887366,15.6729982 L48.6887366,13.4071015 L54.8817018,13.4071015 C56.0237574,13.4071015 56.0237574,13.8861456 56.0237574,14.0446127 L56.0237574,15.0354871 Z M48.6869151,17.6073891 L54.8798803,17.6073891 C55.424497,17.6073891 55.674037,17.6766046 55.7833247,17.7312484 C55.9891497,17.8441789 56.0929729,18.0773259 56.0929729,18.4270463 L56.0929729,19.2157386 C56.0929729,19.5618161 55.9891497,19.7986059 55.7869676,19.9078935 C55.6230362,19.9916807 55.3188523,20.0353957 54.8817018,20.0353957 L48.6887366,20.0353957 L48.6869151,17.6073891 Z M57.2878509,16.6529439 C58.3151546,16.3979394 58.8342708,15.8077863 58.8342708,14.8934132 L58.8342708,13.6202124 C58.8342708,12.2085806 57.8925758,11.4927467 56.0346862,11.4927467 L45.7161133,11.4927467 L45.7161133,22.1300751 L55.2969948,22.1300751 C57.7049653,22.1300751 58.9271652,21.4087768 58.9271652,19.9807519 L58.9271652,18.6492644 C58.9271652,17.6019247 58.3752627,16.9316273 57.2878509,16.6529439 M71.0471624,17.7531059 L66.2530788,17.7531059 L68.6938356,13.8515379 L71.0471624,17.7531059 Z M70.1965404,11.4927467 L67.3769198,11.4927467 L60.5027284,22.1300751 L63.5591389,22.1300751 L64.9416273,19.8496068 L72.3331134,19.8496068 L73.7647812,22.1318966 L77.1654477,22.1318966 L70.2329696,11.5473905 L70.1965404,11.4927467 Z M90.5531813,17.0755227 C90.5531813,17.2813477 90.5841461,17.7858922 90.6442543,18.5691202 C90.2817585,18.2479071 89.9042957,17.9439918 89.5131274,17.65839 L81.1416956,11.5164257 L81.1052664,11.4927467 L79.0470162,11.4927467 L79.0470162,22.1300751 L81.7846712,22.1300751 L81.7846712,16.3888321 C81.7846712,16.0300044 81.7591707,15.5801037 81.7045269,15.0500588 C81.9358524,15.2613482 82.1872139,15.4689947 82.45679,15.6638909 L91.1979782,22.1082176 L91.232586,22.1337181 L93.2926576,22.1337181 L93.2926576,11.4927467 L90.5550027,11.4927467 L90.5531813,17.0755227 Z M108.676712,19.95343 L99.7934496,19.95343 L99.7934496,13.5692115 L108.676712,13.5692115 L108.676712,19.95343 Z M108.616604,11.4927467 L99.8517364,11.4927467 C98.6696086,11.4927467 97.8827377,11.6676069 97.4383014,12.0264346 C96.9920436,12.3870837 96.7752898,13.0537382 96.7752898,14.0664702 L96.7752898,19.5581731 C96.7752898,20.5690836 96.9938651,21.2357381 97.4383014,21.5982087 C97.8809163,21.955215 98.6696086,22.1318966 99.8517364,22.1318966 L108.616604,22.1318966 C109.79691,22.1318966 110.585602,21.955215 111.030039,21.5982087 C111.476296,21.2357381 111.691229,20.5690836 111.691229,19.5581731 L111.691229,14.0646487 C111.691229,13.0537382 111.476296,12.3889052 111.030039,12.0246131 C110.585602,11.6676069 109.79691,11.4927467 108.616604,11.4927467 M118.230271,13.4872458 L124.332163,13.4872458 C124.838529,13.4872458 125.068033,13.547354 125.166392,13.594712 C125.361289,13.6948923 125.454183,13.8988958 125.454183,14.212187 L125.454183,15.4726376 C125.454183,15.7877502 125.361289,15.9881109 125.171857,16.0882912 C125.068033,16.1392921 124.840351,16.1975788 124.330342,16.1975788 L118.22845,16.1975788 L118.230271,13.4872458 Z M125.579864,18.1920779 C127.439575,18.1920779 128.38127,17.476244 128.38127,16.0646122 L128.38127,13.6202124 C128.38127,12.2085806 127.439575,11.4927467 125.579864,11.4927467 L115.259469,11.4927467 L115.259469,22.1300751 L118.22845,22.1300751 L118.22845,18.1920779 L120.6856,18.1920779 L125.446897,22.1009318 L125.483326,22.1318966 L129.851188,22.1318966 L124.357664,18.1938993 L125.579864,18.1920779 Z M130.678131,13.5692115 L136.142512,13.5692115 L136.142512,22.1300751 L139.160672,22.1300751 L139.160672,13.5692115 L144.648732,13.5692115 L144.648732,11.4927467 L130.678131,11.4927467 L130.678131,13.5692115 Z M150.053005,19.95343 L150.053005,17.5855316 L155.695889,17.5855316 L155.695889,15.5946754 L150.053005,15.5946754 L150.053005,13.4872458 L159.245915,13.4872458 L159.245915,11.4927467 L147.038488,11.4927467 L147.038488,22.1300751 L159.362489,22.1300751 L159.362489,19.95343 L150.053005,19.95343 Z M51.2114592,4.95370406 L47.1131734,4.95370406 L47.1131734,8.08297294 L51.2114592,8.08297294 L51.2114592,6.98463235 L49.0694218,6.98463235 L49.0694218,6.1412962 L52.4901244,6.1412962 L52.4901244,7.84618309 C52.4901244,8.3051911 52.3917655,8.61483936 52.1950478,8.77512787 C51.9983301,8.93541638 51.6303951,9.01373917 51.0912428,9.01373917 L47.2006035,9.01373917 C46.6614512,9.01373917 46.2935162,8.93541638 46.0949771,8.77330641 C45.9000808,8.61483936 45.801722,8.3051911 45.801722,7.84436163 L45.801722,5.24331625 C45.801722,4.78248678 45.9000808,4.47283852 46.0949771,4.31437147 C46.2935162,4.15408296 46.6596298,4.07393871 47.2006035,4.07393871 L51.0912428,4.07393871 C51.6158234,4.07393871 51.9801155,4.1522615 52.184119,4.30890709 C52.3881226,4.46555268 52.4901244,4.76062926 52.4901244,5.19413682 L52.4901244,5.30888882 L51.2114592,5.50924946 L51.2114592,4.95370406 Z M58.7741626,4.91545339 L55.8233968,4.91545339 L55.8233968,6.30340617 L58.7741626,6.30340617 C58.9799876,6.30340617 59.12024,6.28519157 59.2022057,6.24511944 C59.3114934,6.18683271 59.3661372,6.07572363 59.3661372,5.90814928 L59.3661372,5.30888882 C59.3661372,5.14131447 59.3114934,5.02838393 59.2022057,4.9700972 C59.0646109,4.92337543 58.9191663,4.90418912 58.7741626,4.91363193 M54.5338029,9.01009625 L54.5338029,4.07211725 L59.3661372,4.07211725 C60.2094733,4.07211725 60.6338736,4.39269427 60.6338736,5.03020539 L60.6338736,6.18865417 C60.6338736,6.82616529 60.2094733,7.14674232 59.3661372,7.14674232 L58.6211599,7.14674232 L61.2240267,9.01191771 L59.3424582,9.01191771 L57.0692757,7.14674232 L55.8233968,7.14674232 L55.8233968,9.01191771 L54.5338029,9.01009625 Z M63.8797159,4.07211725 L63.8797159,8.08297294 L67.6173526,8.08297294 L67.6173526,4.07211725 L68.928804,4.07211725 L68.928804,7.84436163 C68.928804,8.30336964 68.8304451,8.6130179 68.6337274,8.77330641 C68.4370097,8.93359492 68.0690747,9.01191771 67.5299225,9.01191771 L63.967146,9.01191771 C63.4279938,9.01191771 63.0600588,8.93359492 62.863341,8.77148495 C62.6666233,8.6130179 62.5682645,8.30336964 62.5682645,7.84436163 L62.5682645,4.07393871 L63.8797159,4.07211725 Z M75.3239513,4.91545339 L72.3731855,4.91545339 L72.3731855,6.24511944 L75.3239513,6.24511944 C75.5279549,6.24511944 75.6700288,6.22690484 75.750173,6.18683271 C75.8594606,6.12854598 75.9141044,6.01561544 75.9141044,5.84804109 L75.9141044,5.31253174 C75.9141044,5.14495739 75.8594606,5.03020539 75.750173,4.97374012 C75.6134561,4.92588062 75.468498,4.90605729 75.3239513,4.91545339 M71.0817701,9.01191771 L71.0817701,4.07029579 L75.9141044,4.07029579 C76.759262,4.07029579 77.1818408,4.38905135 77.1818408,5.02838393 L77.1818408,6.12854598 C77.1818408,6.7660571 76.759262,7.08663412 75.9141044,7.08663412 L72.3713641,7.08663412 L72.3713641,9.01009625 L71.0817701,9.01191771 Z M79.6626698,8.08297294 L83.9922811,8.08297294 L83.9922811,4.95370406 L79.6626698,4.95370406 L79.6626698,8.08297294 Z M78.3512184,5.24149479 C78.3512184,4.78066532 78.4495773,4.47101706 78.646295,4.31255001 C78.8430127,4.1522615 79.2109477,4.07211725 79.7500999,4.07211725 L83.9030295,4.07211725 C84.4440033,4.07211725 84.8119383,4.1522615 85.008656,4.31255001 C85.2053737,4.47101706 85.3037325,4.78066532 85.3037325,5.24149479 L85.3037325,7.84436163 C85.3037325,8.30336964 85.2053737,8.6130179 85.008656,8.77330641 C84.8119383,8.93177346 84.4440033,9.01191771 83.904851,9.01191771 L79.7519214,9.01191771 C79.2109477,9.01191771 78.8430127,8.93177346 78.646295,8.77330641 C78.4495773,8.6130179 78.3512184,8.30336964 78.3512184,7.84436163 L78.3512184,5.24149479 Z M90.8336862,9.01191771 L90.8336862,4.07211725 L96.5385,4.07211725 L96.5385,4.93366799 L92.1451376,4.93366799 L92.1451376,6.23601214 L94.516679,6.23601214 L94.516679,7.13581355 L92.1451376,7.13581355 L92.1451376,9.01191771 L90.8336862,9.01191771 Z M97.4346585,4.07211725 L98.7461099,4.07211725 L98.7461099,9.01191771 L97.4346585,9.01191771 L97.4346585,4.07211725 Z M100.889969,9.01191771 L100.889969,4.07211725 L101.786127,4.07211725 L105.753268,6.98463235 C106.037416,7.19592175 106.252348,7.37442486 106.398065,7.52014169 C106.372041,7.23654837 106.35382,6.95229315 106.343421,6.66769824 L106.343421,4.07211725 L107.523727,4.07211725 L107.523727,9.01191771 L106.627569,9.01191771 L102.485568,5.95915017 C102.317977,5.83830146 102.160784,5.7036515 102.015631,5.55660743 C102.05206,5.87536299 102.070275,6.13765328 102.070275,6.33983538 L102.070275,9.01191771 L100.889969,9.01191771 Z M111.108361,7.03927616 L113.580083,7.03927616 L112.36699,5.03020539 L111.108361,7.03927616 Z M108.583817,9.01191771 L111.775016,4.07029579 L113.042752,4.07029579 L116.279487,9.01009625 L114.804104,9.01009625 L114.126521,7.92814881 L110.552816,7.92814881 L109.89709,9.01009625 L108.583817,9.01191771 Z M117.348684,9.01191771 L117.348684,4.07211725 L118.246664,4.07211725 L122.213805,6.98463235 C122.499774,7.19592175 122.712885,7.37442486 122.858602,7.52014169 C122.832578,7.23654837 122.814357,6.95229315 122.803958,6.66769824 L122.803958,4.07211725 L123.986086,4.07211725 L123.986086,9.01191771 L123.088106,9.01191771 L118.946105,5.95915017 C118.778514,5.83830146 118.621321,5.7036515 118.476168,5.55660743 C118.512598,5.87536299 118.530812,6.13765328 118.530812,6.33983538 L118.530812,9.01191771 L117.348684,9.01191771 Z M130.860277,4.95370406 L127.319358,4.95370406 L127.319358,8.08297294 L130.860277,8.08297294 L130.860277,7.02106155 L132.171729,7.2578514 L132.171729,7.84436163 C132.171729,8.30336964 132.07337,8.6130179 131.876652,8.77330641 C131.679934,8.93359492 131.312,9.01191771 130.772847,9.01191771 L127.406789,9.01191771 C126.867636,9.01191771 126.499701,8.93359492 126.301162,8.77148495 C126.104444,8.6130179 126.006086,8.30336964 126.006086,7.84254017 L126.006086,5.24331625 C126.006086,4.78248678 126.104444,4.47283852 126.301162,4.31437147 C126.499701,4.15408296 126.865815,4.07393871 127.406789,4.07393871 L130.772847,4.07393871 C131.312,4.07393871 131.679934,4.15408296 131.876652,4.31437147 C132.07337,4.47283852 132.171729,4.78248678 132.171729,5.24331625 L132.171729,5.7096101 L130.860277,5.89175614 L130.860277,4.95370406 Z M134.149835,4.07211725 L135.461286,4.07211725 L135.461286,9.01191771 L134.149835,9.01191771 L134.149835,4.07211725 Z M137.614252,9.01191771 L137.614252,4.07211725 L143.38646,4.07211725 L143.38646,4.91545339 L138.925704,4.91545339 L138.925704,6.01561544 L141.528571,6.01561544 L141.528571,6.85713012 L138.925704,6.85713012 L138.925704,8.08297294 L143.439283,8.08297294 L143.439283,9.01191771 L137.614252,9.01191771 Z M149.375422,4.91545339 L146.424656,4.91545339 L146.424656,6.30340617 L149.375422,6.30340617 C149.579425,6.30340617 149.721499,6.28519157 149.803465,6.24511944 C149.912753,6.18683271 149.967396,6.07572363 149.967396,5.90814928 L149.967396,5.30888882 C149.967396,5.14131447 149.912753,5.02838393 149.803465,4.9700972 C149.665849,4.92346808 149.520422,4.9042842 149.375422,4.91363193 M145.135062,9.01009625 L145.135062,4.07211725 L149.967396,4.07211725 C150.812554,4.07211725 151.235133,4.39269427 151.235133,5.03020539 L151.235133,6.18865417 C151.235133,6.82616529 150.812554,7.14674232 149.967396,7.14674232 L149.222419,7.14674232 L151.825286,9.01191771 L149.943717,9.01191771 L147.670535,7.14674232 L146.424656,7.14674232 L146.424656,9.01191771 L145.135062,9.01009625 Z M154.360759,8.08297294 L158.69037,8.08297294 L158.69037,4.95370406 L154.360759,4.95370406 L154.360759,8.08297294 Z M153.049307,5.24149479 C153.049307,4.78066532 153.147666,4.47101706 153.344384,4.31255001 C153.541102,4.1522615 153.909037,4.07211725 154.448189,4.07211725 L158.601118,4.07211725 C159.140271,4.07211725 159.508206,4.1522615 159.704923,4.31255001 C159.901641,4.47101706 160,4.78066532 160,5.24149479 L160,7.84436163 C160,8.30336964 159.901641,8.6130179 159.704923,8.77330641 C159.508206,8.93177346 159.140271,9.01191771 158.601118,9.01191771 L154.448189,9.01191771 C153.909037,9.01191771 153.541102,8.93177346 153.344384,8.77330641 C153.147666,8.6130179 153.049307,8.30336964 153.049307,7.84436163 L153.049307,5.24149479 Z" id="Shape"></path>
                </g>
            </g>
        </g>
    </g>
</svg>