<?xml version="1.0" encoding="UTF-8"?>
<svg width="160px" height="33px" viewBox="0 0 160 33" version="1.1" xmlns="http://www.w3.org/2000/svg" xmlns:xlink="http://www.w3.org/1999/xlink">
    <title>bbva-bancomer</title>
    <g id="CRÉDITOS" stroke="none" stroke-width="1" fill="none" fill-rule="evenodd">
        <g id="Desktop-HD" transform="translate(-181.000000, -2199.000000)" fill="#FFFFFF" fill-rule="nonzero">
            <g id="bbva-bancomer" transform="translate(181.000000, 2199.000000)">
                <path d="M40.3088531,0 L40.3088531,33 L0,33 L0,0 L40.3088531,0 Z M95.8341252,11.9757095 C99.8116611,11.9757095 101.044342,13.7859804 101.044342,16.2915137 L101.044342,16.2915137 L97.7550684,16.2915137 C97.7550684,14.8991399 97.7550684,13.088869 95.6975653,13.088869 C93.9159132,13.088869 93.092912,14.8991399 93.092912,17.1273079 C93.092912,20.1894209 94.6014441,23.6712801 98.3031289,23.6712801 C99.2636005,23.6712801 99.9500418,23.5325974 100.771222,23.2524585 L100.771222,23.2524585 L101.181812,24.0882526 C99.9491314,24.6448323 98.5762488,25.2023366 97.0686271,25.0636539 C92.4082915,24.9249713 89.6661678,22.6968033 89.6661678,18.1008601 C89.6661678,14.3425602 91.5843798,11.9757095 95.8341252,11.9757095 Z M108.860123,11.974785 C113.111689,11.974785 115.303931,14.3416356 115.303931,18.5196817 C115.303931,22.8354859 113.111689,25.0636539 108.860123,25.0636539 C104.610377,25.0636539 102.554695,22.8345614 102.554695,18.5196817 C102.554695,14.3416356 104.610377,11.974785 108.860123,11.974785 Z M68.1406795,11.974785 C72.4214156,11.974785 73.1179225,13.9709835 73.2031116,16.1301369 L73.2111085,16.4188288 L73.2111085,16.4188288 L73.2134261,16.7084863 L73.2134261,24.7853641 L70.1963618,24.7853641 L70.1963618,23.1137758 C69.6483013,23.8108873 68.4137994,25.0636539 66.0831764,25.0636539 C63.8891133,25.0636539 62.2440212,23.6722046 62.2440212,21.9996918 C62.2440212,18.1008601 68.2772394,17.9612529 70.1963618,17.8225703 L70.1963618,17.8225703 L70.1962991,16.5756801 C70.1943534,15.1799524 70.1320933,13.088869 68.1397691,13.088869 C66.3572067,13.088869 66.2197363,14.3416356 66.0831764,15.8736167 L66.0831764,15.8736167 L62.7929922,15.8736167 C63.0670225,13.9237385 63.7534638,11.974785 68.1406795,11.974785 Z M144.64429,11.974785 C149.306446,11.974785 150.265097,14.7595327 150.265097,17.1273079 L150.265097,17.1273079 L141.629046,17.1273079 C141.629046,19.6337657 142.863548,23.6712801 147.249853,23.6712801 C148.209415,23.6712801 148.895856,23.6712801 149.854507,23.2524585 L149.854507,23.2524585 L150.265097,24.2278598 C149.032416,24.6448323 147.522973,25.0636539 145.741321,25.0636539 C141.765606,25.0636539 138.612892,22.9741686 138.612892,17.9612529 C138.612892,14.4812428 140.120514,11.974785 144.64429,11.974785 Z M84.0444503,11.9757095 C86.5125436,11.9757095 87.6095751,13.9246631 87.6095751,15.734934 L87.6095751,15.734934 L87.6095751,24.7862886 L84.5943316,24.7862886 L84.5943316,16.9886252 C84.5943316,15.4557196 84.3184805,13.9246631 82.8108588,13.9246631 C79.7947049,13.9246631 78.972614,18.1008601 78.972614,19.6337657 L78.972614,19.6337657 L78.972614,24.7853641 L75.8180794,24.7853641 L75.8180794,12.2539994 L78.9717036,12.2539994 L78.9717036,15.317037 C79.5206746,14.3425602 80.8917364,11.9757095 84.0444503,11.9757095 Z M132.442204,12.1143922 C135.457447,12.1143922 136.007329,14.202953 136.007329,16.2915137 L136.007329,16.2915137 L136.007329,24.7862886 L132.990264,24.7862886 L132.990264,16.7094108 C132.990264,15.317037 132.716234,14.0642703 131.208612,14.0642703 C128.603959,14.0642703 128.191548,18.1017847 128.191548,19.6346903 L128.191548,19.6346903 L128.191548,24.7862886 L125.176305,24.7862886 L125.176305,16.9886252 C125.176305,15.4557196 125.039745,14.0633458 123.394653,14.0633458 C120.652529,14.0633458 120.240118,18.3809991 120.240118,19.6337657 L120.240118,24.7853641 L117.360524,24.7853641 L117.360524,12.392682 L120.239207,12.392682 L120.239207,15.317037 L120.375767,15.317037 C120.651619,14.3425602 121.88521,12.1143922 124.627334,12.1143922 C127.095427,12.1143922 128.054078,13.7850559 128.054078,15.1774297 L128.054078,15.1774297 L128.190638,15.1774297 C128.603049,14.202953 129.70008,12.1143922 132.442204,12.1143922 Z M52.9878782,8.35483614 C56.0953467,8.3734126 59.6411888,8.84620263 59.6411888,12.2530748 C59.6411888,14.6199255 57.7220664,15.7340095 56.2135342,16.0122993 L56.2135342,16.0122993 L56.2135342,16.1519065 C58.2701269,16.4301964 60.4632796,17.4055977 60.4632796,20.3290281 C60.4632796,24.6203146 55.7593335,24.7792511 53.0850593,24.7851377 L48.398664,24.7853641 L48.398664,8.35424313 Z M160,12.1143922 L160,14.7595327 C157.121316,14.8982153 155.339664,15.7340095 155.339664,19.0753369 L155.339664,19.0753369 L155.339664,24.7853641 L152.3226,24.7853641 L152.3226,12.392682 L155.339664,12.392682 L155.339664,15.4557196 C156.298315,13.7859804 157.395347,12.2539994 160,12.1143922 L160,12.1143922 Z M108.860123,13.0879444 C106.25547,13.0879444 105.844879,16.2905892 105.844879,18.5187572 C105.844879,20.8865324 106.25547,23.9495699 108.860123,23.9486456 C111.604067,23.9486456 112.014657,20.8865324 112.014657,18.5187572 C112.014657,16.2905892 111.604067,13.0879444 108.860123,13.0879444 Z M70.1963618,18.9366542 C68.9627703,19.0753369 65.9466164,19.2140196 65.9466164,21.5817947 C65.9466164,22.6958787 66.6321473,23.3929902 67.5917085,23.3929902 C68.6887401,23.3929902 70.1972722,22.5571961 70.1972722,20.4677108 L70.1972722,20.4677108 L70.1963618,20.4677108 Z M52.7849693,16.9877007 L51.5513778,16.9877007 L51.5513778,23.2515339 L52.9401921,23.2512287 C54.9701668,23.242727 57.4462153,23.0353739 57.4462153,20.0498137 C57.4462153,17.5442804 55.2530626,16.9877007 52.7849693,16.9877007 L52.7849693,16.9877007 Z M7.12933933,10.7220183 L2.19406306,10.7220183 L2.19406306,22.2789062 L6.99277939,22.2789062 C11.1059648,22.2789062 12.4761162,17.2659905 8.50040114,15.3161124 L8.50040114,15.3161124 L9.04846171,14.4812428 C10.2829636,12.6709719 9.45996233,10.7220183 7.12933933,10.7220183 L7.12933933,10.7220183 Z M16.7258616,10.7220183 L11.7905853,10.7220183 L11.7905853,22.2789062 L16.5893017,22.2789062 C20.7033975,22.2789062 22.0735489,17.2659905 18.0969234,15.3161124 L18.0969234,15.3161124 L18.644984,14.4812428 C19.8794859,12.6709719 19.0564846,10.7220183 16.7258616,10.7220183 L16.7258616,10.7220183 Z M21.800429,10.7210938 L19.7438363,10.7210938 L23.4455211,22.2779817 L26.1876447,22.2779817 L29.6152993,10.7210938 L27.8327368,10.7210938 L25.2280836,19.4923094 L23.1714908,12.2530748 C22.7599902,10.8597764 22.4859599,10.7210938 21.800429,10.7210938 L21.800429,10.7210938 Z M34.002515,10.7210938 L31.8084519,10.7210938 L28.2433271,22.2779817 L30.0258895,22.2779817 L30.8488907,19.7715238 L34.9620762,19.7715238 L35.6476071,22.2779817 L38.8003209,22.2779817 L35.3726664,11.8351778 C34.9620762,10.9993836 34.8246058,10.7210938 34.002515,10.7210938 L34.002515,10.7210938 Z M6.30633809,12.2530748 C6.99186899,12.2530748 7.6773999,12.8096546 7.6773999,13.5058415 C7.6773999,13.7850559 7.53992956,14.0633458 7.40336962,14.3416356 L7.40336962,14.3416356 L6.44380843,15.8736167 C7.40336962,16.0122993 8.08890052,16.849018 8.08890052,18.2395428 C8.08890052,20.0507382 6.99186899,20.7460006 5.62080718,20.7460006 L5.62080718,20.7460006 L4.93527628,20.7460006 L4.93527628,12.2530748 Z M15.9037708,12.2530748 C16.5893017,12.2530748 17.2748326,12.8096546 17.2748326,13.5058415 C17.2748326,13.7850559 17.1373622,14.0633458 17.0008023,14.3416356 L17.0008023,14.3416356 L16.0412411,15.8736167 C17.0008023,16.0122993 17.6863332,16.849018 17.6863332,18.2395428 C17.6863332,20.0507382 16.5893017,20.7460006 15.2182399,20.7460006 L15.2182399,20.7460006 L14.532709,20.7460006 L14.532709,12.2530748 Z M32.9045731,12.8096546 L34.4131052,18.0999356 L31.259481,18.0999356 L32.9045731,12.8096546 Z M144.6452,13.088869 C142.177107,13.088869 141.766517,15.1774297 141.766517,15.8736167 L141.766517,15.8736167 L147.249853,15.8736167 C147.249853,14.8991399 146.839263,13.088869 144.6452,13.088869 Z M52.7849693,9.88622419 L51.5513778,9.88622419 L51.5513778,15.3161124 L52.7849693,15.3161124 C54.9790324,15.3161124 56.4866541,14.7586081 56.4866541,12.5313647 C56.4866541,10.3041213 55.1155923,9.88622419 52.7849693,9.88622419 L52.7849693,9.88622419 Z" id="Combined-Shape"></path>
            </g>
        </g>
    </g>
</svg>