<?xml version="1.0" encoding="UTF-8"?>
<svg width="20px" height="20px" viewBox="0 0 20 20" version="1.1" xmlns="http://www.w3.org/2000/svg" xmlns:xlink="http://www.w3.org/1999/xlink">
    <title>1827444 copy</title>
    <g id="CRÉDITOS" stroke="none" stroke-width="1" fill="none" fill-rule="evenodd">
        <g id="Desktop-HD" transform="translate(-339.000000, -2914.000000)" fill="#CC9964" fill-rule="nonzero">
            <g id="1827444-copy" transform="translate(339.000000, 2914.000000)">
                <g id="Group" transform="translate(10.000000, 10.000000) scale(-1, 1) rotate(-180.000000) translate(-10.000000, -10.000000) translate(0.000000, 0.000000)">
                    <path d="M4.5703125,19.9606196 C4.45703125,19.9137362 4.30859375,19.7848067 4.24609375,19.6715051 C4.21875,19.6246217 4.19140625,19.3355072 4.1796875,18.9682537 L4.16015625,18.3431413 L2.96875,18.3236066 C1.80859375,18.3040718 1.76953125,18.3001649 1.515625,18.202491 C1.15234375,18.0618408 0.90234375,17.8899349 0.62109375,17.5890995 C0.34375,17.2921711 0.109375,16.8428716 0.04296875,16.4717111 C0.01171875,16.3076191 0,14.0728424 0,9.14226852 C0,2.19961418 0,2.03552218 0.078125,1.74250075 C0.1875,1.31273599 0.3671875,1.0001798 0.68359375,0.683716663 C1,0.367253522 1.3125,0.187533713 1.7421875,0.0781390472 C2.0390625,0 2.203125,0 10,0 C17.796875,0 17.9609375,0 18.2578125,0.0781390472 C18.6875,0.187533713 19,0.367253522 19.3164062,0.683716663 C19.6328125,1.0001798 19.8125,1.31273599 19.921875,1.74250075 C20,2.03552218 20,2.19961418 20,9.14226852 C20,14.0728424 19.9882812,16.3076191 19.9570312,16.4717111 C19.890625,16.8428716 19.65625,17.2921711 19.3789062,17.5890995 C19.0976562,17.8899349 18.8476562,18.0618408 18.484375,18.202491 C18.2304688,18.3001649 18.1914062,18.3040718 17.03125,18.3236066 L15.8398438,18.3431413 L15.8203125,18.9760676 C15.8046875,19.5347618 15.7929688,19.6207147 15.71875,19.7144816 C15.5117188,19.9957822 15.1796875,20.0778282 14.90625,19.9176431 C14.6289062,19.7574581 14.5898438,19.6441565 14.578125,18.940905 L14.5625,18.3236066 L10,18.3236066 L5.4375,18.3236066 L5.421875,18.940905 C5.41015625,19.5035062 5.40234375,19.5660174 5.31640625,19.7027607 C5.1640625,19.9528057 4.83203125,20.0661073 4.5703125,19.9606196 Z M4.1796875,16.2568288 C4.1796875,15.4793452 4.18359375,15.4402757 4.26953125,15.3152532 C4.39453125,15.1277195 4.5390625,15.0339527 4.734375,15.0144179 C4.9609375,14.9870693 5.1953125,15.1042778 5.31640625,15.3035324 C5.40625,15.4441827 5.41015625,15.4910661 5.421875,16.2646427 L5.43359375,17.0733818 L10,17.0733818 L14.5664062,17.0733818 L14.578125,16.2646427 C14.5898438,15.4910661 14.59375,15.4441827 14.6835938,15.3035324 C14.8046875,15.1042778 15.0390625,14.9870693 15.265625,15.0144179 C15.4609375,15.0339527 15.6054688,15.1277195 15.734375,15.3152532 C15.8164062,15.4402757 15.8203125,15.4793452 15.8203125,16.2568288 L15.8203125,17.0733818 L16.8867188,17.0733818 C17.921875,17.0733818 17.953125,17.0694749 18.1484375,16.979615 C18.2539062,16.9288246 18.40625,16.815523 18.4882812,16.7217561 C18.7421875,16.4248277 18.75,16.3701304 18.75,14.760466 L18.75,13.3227075 L10,13.3227075 L1.25,13.3227075 L1.25,14.760466 C1.25,16.3701304 1.2578125,16.4248277 1.51171875,16.7217561 C1.59375,16.815523 1.74609375,16.9288246 1.8515625,16.979615 C2.046875,17.0694749 2.078125,17.0733818 3.1171875,17.0733818 L4.1796875,17.0733818 L4.1796875,16.2568288 Z M18.7421875,7.0442351 C18.7304688,2.12928904 18.7304688,2.00817351 18.6523438,1.85580237 C18.5546875,1.66045475 18.3398438,1.44557237 18.1445312,1.34789856 C17.9921875,1.26975952 17.8632812,1.26975952 10,1.26975952 C2.13671875,1.26975952 2.0078125,1.26975952 1.85546875,1.34789856 C1.66015625,1.44557237 1.4453125,1.66045475 1.34765625,1.85580237 C1.26953125,2.00817351 1.26953125,2.12928904 1.2578125,7.0442351 L1.25,12.0724828 L10,12.0724828 L18.75,12.0724828 L18.7421875,7.0442351 Z" id="Shape"></path>
                </g>
            </g>
        </g>
    </g>
</svg>