<?xml version="1.0" encoding="UTF-8"?>
<svg width="16px" height="16px" viewBox="0 0 16 16" version="1.1" xmlns="http://www.w3.org/2000/svg" xmlns:xlink="http://www.w3.org/1999/xlink">
    <title>antiguedad.eb15bc</title>
    <g id="FICHA-TÉCNICA" stroke="none" stroke-width="1" fill="none" fill-rule="evenodd">
        <g id="Desktop-HD-Copy" transform="translate(-198.000000, -944.000000)" fill="#CC9964">
            <g id="antiguedad.eb15bc" transform="translate(198.000000, 944.000000)">
                <path d="M2.25640615,2.60434337 C1.68996923,2.60434337 1.23076923,3.02083666 1.23076923,3.53460475 L1.23076923,13.9534786 C1.23076923,14.467202 1.68996923,14.8836953 2.25640615,14.8836953 L13.7436308,14.8836953 C14.3100308,14.8836953 14.7692308,14.467202 14.7692308,13.9534786 L14.7692308,3.53460475 C14.7692308,3.02083666 14.3100308,2.60434337 13.7436308,2.60434337 L2.25640615,2.60434337 Z M0,3.53460475 C0,2.40432389 1.01022769,1.48803866 2.25640615,1.48803866 L13.7436308,1.48803866 C14.9897846,1.48803866 16,2.40432389 16,3.53460475 L16,13.9534786 C16,15.0837371 14.9897846,16 13.7436308,16 L2.25640615,16 C1.01022769,16 0,15.0837371 0,13.9534786 L0,3.53460475 Z" id="Shape"></path>
                <path d="M11.2824615,0 C11.6222769,0 11.8978462,0.249889277 11.8978462,0.558156825 L11.8978462,3.53496197 C11.8978462,3.84322951 11.6222769,4.09311433 11.2824615,4.09311433 C10.9425231,4.09311433 10.6670769,3.84322951 10.6670769,3.53496197 L10.6670769,0.558156825 C10.6670769,0.249889277 10.9425231,0 11.2824615,0 Z" id="Path"></path>
                <path d="M4.71755077,0 C5.05741538,0 5.33293538,0.249889277 5.33293538,0.558156825 L5.33293538,3.53496197 C5.33293538,3.84322951 5.05741538,4.09311433 4.71755077,4.09311433 C4.37768615,4.09311433 4.10216615,3.84322951 4.10216615,3.53496197 L4.10216615,0.558156825 C4.10216615,0.249889277 4.37768615,0 4.71755077,0 Z" id="Path"></path>
                <path d="M0,6.51140989 C0,6.20315351 0.27552,5.95325753 0.615384615,5.95325753 L15.3846154,5.95325753 C15.7244308,5.95325753 16,6.20315351 16,6.51140989 C16,6.81967744 15.7244308,7.06956225 15.3846154,7.06956225 L0.615384615,7.06956225 C0.27552,7.06956225 0,6.81967744 0,6.51140989 Z" id="Path"></path>
            </g>
        </g>
    </g>
</svg>