<?xml version="1.0" encoding="UTF-8"?>
<svg width="30px" height="30px" viewBox="0 0 30 30" version="1.1" xmlns="http://www.w3.org/2000/svg" xmlns:xlink="http://www.w3.org/1999/xlink">
    <title>phone-call</title>
    <g id="HOME" stroke="none" stroke-width="1" fill="none" fill-rule="evenodd">
        <g id="Desktop-HD" transform="translate(-511.000000, -4111.000000)" fill="#CC9964" fill-rule="nonzero">
            <g id="phone-call" transform="translate(511.000000, 4111.000000)">
                <path d="M25.3637197,4.26305299 C19.4785448,-1.42101766 10.1482594,-1.42101766 4.26308452,4.26305299 C-1.56371672,10.2960009 -1.39660447,19.9101458 4.6363434,25.736947 C10.5215182,31.4210177 19.8518037,31.4210177 25.7369785,25.736947 C31.5637798,19.7040585 31.3966675,10.0898542 25.3637197,4.26305299 Z M25.023207,25.0231754 L25.0181645,25.018133 C19.4802652,30.5509899 10.5056791,30.5468966 4.97282216,25.0089973 C-0.560034749,19.4710979 -0.555941478,10.4965711 4.98195786,4.96371424 C10.5198572,-0.569142667 19.4944433,-0.565049396 25.0273002,4.97279062 C27.6849011,7.63282368 29.1766908,11.2398261 29.1742615,15 C29.1742615,18.7593433 27.6813417,22.3648034 25.023207,25.0231754 Z" id="Shape"></path>
                <path d="M23.5298748,19.323147 L20.6849327,16.4882897 C20.0392637,15.8410783 18.9911489,15.8398325 18.3439375,16.4855015 C18.3429883,16.4864507 18.3420985,16.4873405 18.3411493,16.4882897 L16.7111375,18.1183015 C16.5878055,18.2419301 16.3934641,18.2590151 16.2504962,18.1588189 C15.3583411,17.5353366 14.5231951,16.8339635 13.7548466,16.0630641 C13.0667024,15.3764623 12.4336691,14.636826 11.8615603,13.8508586 C11.7578641,13.7096704 11.7729321,13.5139053 11.896976,13.3902173 L13.5675053,11.719688 C14.2124624,11.0734851 14.2124624,10.0271501 13.5675053,9.38094711 L10.7225631,6.53600497 C10.0669872,5.90925989 9.03435569,5.90925989 8.37877974,6.53600497 L7.47772617,7.43705854 C6.11692112,8.78255831 5.63112695,10.7804306 6.22227836,12.6005125 C6.66340249,13.9321308 7.28694414,15.1961804 8.07504716,16.3566525 C8.7845475,17.420547 9.59851524,18.4108814 10.5049079,19.3130028 C11.4903184,20.3054727 12.5818574,21.1864752 13.759889,21.9402897 C15.0549051,22.7853425 16.4768126,23.4176639 17.9716278,23.8132875 C18.3559207,23.908026 18.7502985,23.9556028 19.1460407,23.9550151 C20.5028118,23.9467044 21.8008534,23.400579 22.7554161,22.4363467 L23.5299342,21.6618286 C24.174832,21.0156849 24.174832,19.9693499 23.5298748,19.323147 Z M22.8130185,20.9714302 C22.8123659,20.9720827 22.8117134,20.9727946 22.8110015,20.9734471 L22.8160439,20.9582605 L22.0415258,21.7327786 C21.0463863,22.7404945 19.5970717,23.1551014 18.2195377,22.8262159 C16.8316814,22.4547367 15.512343,21.8634073 14.3115315,21.0747111 C13.1959074,20.3617107 12.1620302,19.5282258 11.2286457,18.5891463 C10.3698299,17.7366188 9.59827795,16.8005054 8.92532044,15.7948065 C8.18924349,14.7126405 7.60663455,13.5337784 7.19404468,12.2917375 C6.72106423,10.8326346 7.11300977,9.23157237 8.20650642,8.15593188 L9.10755999,7.25487831 C9.35808005,7.00323111 9.76515291,7.00234127 10.0167408,7.25286133 C10.0173933,7.25351389 10.0181052,7.25416644 10.0187578,7.25487831 L12.8636999,10.0998204 C13.1153471,10.3503405 13.1162369,10.7574134 12.8657169,11.0090012 C12.8650643,11.0096538 12.8644118,11.0103063 12.8636999,11.0110182 L11.1931707,12.6815475 C10.7138427,13.155655 10.6535707,13.9090542 11.0514486,14.4533407 C11.655651,15.2825544 12.3242779,16.0628268 13.0510412,16.7870392 C13.8613309,17.6008289 14.7422148,18.3411178 15.6833705,18.9992446 C16.2271824,19.3785544 16.9644458,19.3146045 17.4348754,18.8473783 L19.0497005,17.2072223 C19.3002206,16.9555752 19.7072934,16.9546853 19.9588813,17.2052054 C19.9595339,17.2058579 19.9601864,17.2065105 19.9608983,17.2072223 L22.8109422,20.0623087 C23.0626487,20.3127694 23.0635385,20.719783 22.8130185,20.9714302 Z" id="Shape"></path>
            </g>
        </g>
    </g>
</svg>