<?xml version="1.0" encoding="UTF-8"?>
<svg width="35px" height="35px" viewBox="0 0 35 35" version="1.1" xmlns="http://www.w3.org/2000/svg" xmlns:xlink="http://www.w3.org/1999/xlink">
    <title>icons-02</title>
    <g id="LANDING---VENDE-TU-PROPIEDAD" stroke="none" stroke-width="1" fill="none" fill-rule="evenodd">
        <g id="Desktop-HD" transform="translate(-180.000000, -1911.000000)">
            <g id="icons-02" transform="translate(180.000000, 1911.000000)">
                <rect id="Rectangle" x="0" y="0" width="35" height="35"></rect>
                <path d="M33.5545,11.1601 C33.5545,10.1654 32.9245,9.5459 31.9158,9.5431 L30.8525,9.5431 L30.8525,9.4206 C30.8525,9.296 30.8525,9.1763 30.8525,9.0601 C30.8525,8.8172 30.8525,8.5869 30.8525,8.3601 C30.8392,7.7931 30.4409,7.392 29.8837,7.3843 C29.2117,7.3752 28.5166,7.3752 27.7585,7.3843 C27.1803,7.3913 26.7862,7.7917 26.7785,8.3811 C26.775,8.6086 26.7785,8.8361 26.7785,9.0769 C26.7785,9.1889 26.7785,9.3037 26.7785,9.422 L26.7785,9.5445 L23.8987,9.5445 C23.3513,9.5445 23.1553,9.3919 23.0237,8.8669 C22.9583667,8.6079 22.8937333,8.34936667 22.8298,8.0913 C22.6935333,7.5425 22.5561,6.99393333 22.4175,6.4456 C22.2138,5.6455 21.6741,5.222 20.8572,5.2206 C18.6263,5.2206 16.3422,5.2206 14.0672,5.2206 C13.2503,5.2206 12.7106,5.6455 12.5083,6.4463 C12.2983,7.273 12.0932,8.0983 11.8958,8.9005 C11.8314,9.1623 11.6998,9.5123 11.3001,9.5305 C10.8465,9.5494 10.4027,9.5459 9.9323,9.5424 C9.7419,9.5424 9.5494,9.54123333 9.3548,9.5389 L9.233,9.5389 L9.233,9.4164 C9.233,9.2995 9.233,9.1861 9.233,9.0748 C9.233,8.8347 9.233,8.6079 9.233,8.3804 C9.2225,7.7889 8.827,7.3892 8.253,7.3864 C7.5768,7.3864 6.881,7.3808 6.153,7.3808 C5.4642,7.3808 4.7481,7.3808 3.9956,7.3857 C3.4055,7.3857 3.003,7.7945 2.9953,8.3965 C2.9918,8.6268 2.9953,8.8606 2.9953,9.0867 C2.9953,9.1903 2.9953,9.2967 2.9953,9.3968 L2.9953,9.4997 L2.8938,9.5179 C1.8116,9.7041 1.3713,10.22 1.3713,11.2889 L1.3713,14.6741 C1.3713,19.1886333 1.3713,23.7024667 1.3713,28.2156 C1.3713,29.2166 1.9838,29.8389 2.9687,29.8389 C12.3053,29.8389 22.0563,29.8389 31.9487,29.8389 C32.9378,29.8389 33.5517,29.2194 33.5524,28.2219 C33.5559,22.4413 33.5559,16.6999 33.5545,11.1601 Z M27.6171,8.2418 L29.9971,8.2418 L29.9971,9.52 L27.6171,9.52 L27.6171,8.2418 Z M3.8437,8.2418 L8.3762,8.2418 L8.3762,9.5277 L3.8437,9.5277 L3.8437,8.2418 Z M32.7145,28.322 C32.7145,28.714 32.4583,28.9744 32.0488,29.0017 C32.0068,29.0017 31.9655,29.0052 31.9249,29.0052 L3.1703,29.0052 C2.3961,29.0052 2.2071,28.8148 2.2071,28.0343 L2.2071,22.2943 L2.3233,22.288 L2.4367,22.2803 C2.5067,22.2754 2.5767,22.2705 2.6467,22.2705 L4.6676,22.2705 C6.44,22.2705 8.2733,22.2705 10.0765,22.2649 C10.36,22.2649 10.5112,22.3601 10.6365,22.6198 C12.0309,25.5941 14.3262,27.104 17.4594,27.1082 L17.4734,27.1082 C20.5905,27.1082 22.8858,25.6039 24.2963,22.6359 L24.3166,22.5925 C24.3866,22.4455 24.4685,22.2628 24.7681,22.2628 L24.7681,22.2628 C26.7029,22.2712 28.6699,22.2712 30.5725,22.2705 L32.3988,22.2705 C32.4394,22.2705 32.4765,22.2705 32.5241,22.2775 L32.6046,22.2838 L32.7187346,22.2915 L32.7187346,23.9183 C32.7187346,25.3652 32.7194,26.8597 32.7145,28.322 Z M10.8556,19.6952 C10.8556,16.0601492 13.78943,13.1065414 17.4244,13.0823 L17.4524,13.0823 C21.0875,13.0823 24.0534,16.0223 24.0709775,19.6518 C24.0884,23.3002 21.1414,26.2829 17.5021,26.3018002 L17.4678,26.3018002 C13.8181221,26.3025739 10.8583051,23.345577 10.8556,19.6959 L10.8556,19.6952 Z M32.7194,21.4116 L24.7282,21.4116 L24.7541,21.2681 C25.2364,18.5269 24.5238,16.1952 22.6366,14.3381 C21.1491,12.8744 19.3263,12.1681 17.2193,12.2479 C14.9037,12.3312 13.0088,13.2979 11.5871,15.1235 C10.22,16.8812 9.7426,18.9525 10.1801,21.28 L10.2074,21.4249 L2.2274,21.4249 L2.2218,21.3087 L2.2155,21.2051 C2.2113,21.1309 2.2064,21.0539 2.2064,20.9769 C2.2064,17.7345 2.2064,14.4911667 2.2064,11.2469 C2.2064,10.5987 2.4241,10.3796 3.0695,10.3796 L10.9732,10.3796 C12.0008,10.3796 12.4768,10.0079 12.7288,9.0083 C12.8412667,8.56076667 12.9525667,8.11276667 13.0627,7.6643 C13.1401667,7.34836667 13.2192667,7.0336 13.3,6.72 C13.4267,6.2125 13.6255,6.0578 14.1519,6.0571 L20.7711,6.0571 C21.3164,6.0571 21.5026,6.2048 21.6377,6.7438 L21.7938,7.3738 C21.9429,7.9716 22.0913,8.5694 22.2432,9.1665 C22.4455,9.9617 22.988,10.3824 23.8112,10.3831 C25.5262,10.3831 27.2409667,10.3831 28.9555,10.3831 L31.8486,10.3831 C32.4933,10.3831 32.7215,10.6078 32.7215,11.2413 C32.7215,13.7207 32.7215,16.2003333 32.7215,18.6802 L32.7194,21.4116 Z" id="Shape" fill="#CC9964" fill-rule="nonzero"></path>
                <path d="M19.6056,6.8425 C18.1839,6.8348 16.7419,6.8348 15.3195,6.8425 C14.7595,6.8425 14.3577,7.2436 14.3444,7.8106 C14.3367,8.1557 14.3395,8.498 14.3444,8.8193 C14.3521,9.4423 14.7455,9.8322 15.372,9.8371 C15.8683,9.8406 16.373,9.8371 16.8616,9.8371 L17.5,9.8371 L18.1342,9.8371 C18.6242,9.8371 19.1282,9.8406 19.6245,9.8329 C19.8771721,9.8336437 20.1197907,9.73398278 20.2989819,9.55584174 C20.4781732,9.3777007 20.5792585,9.13567209 20.58,8.883 C20.5898,8.5505 20.5905,8.1991 20.58,7.8092 C20.5674,7.2429 20.1663,6.8453 19.6056,6.8425 Z M19.7295,8.9754 L15.19,8.9754 L15.19,7.7 L19.7281,7.7 L19.7295,8.9754 Z" id="Shape" fill="#CC9964" fill-rule="nonzero"></path>
                <path d="M29.5029,11.7089 C29.0563,11.6956 28.5929,11.6956 28.1288,11.7089 C27.6108,11.7236 27.314,12.0736 27.3146988,12.6686 C27.3154,13.2636 27.6087,13.6017 28.1407,13.6206 C28.2954,13.6262 28.4543,13.6206 28.6076,13.6206 L28.8099,13.6206 L28.8281,13.6206 L29.0381,13.6206 C29.1928,13.6206 29.3538,13.6206 29.5092,13.6171 C30.0279,13.5919 30.3121,13.2447 30.3093205,12.6371 C30.31,12.0638 30.0146,11.7243 29.5029,11.7089 Z" id="Path" fill="#CC9964" fill-rule="nonzero"></path>
                <path d="M17.4482,24.9746662 L17.4482,24.9746662 C19.8452743,24.9865379 21.9502755,23.3838776 22.5766056,21.0700456 C23.2029356,18.7562136 22.193765,16.3105797 20.1179676,15.1117582 C18.0421702,13.9129367 15.4195135,14.2611053 13.7284,15.96 C12.739219,16.9382469 12.1817853,18.271098 12.1799529,19.6623 C12.1740692,21.0700337 12.728096,22.4223627 13.72,23.4213 C14.7034724,24.4190779 16.0472147,24.9789284 17.4482,24.9746662 Z M17.4601,15.2446 L17.465,15.2446 C19.8891571,15.2876235 21.8318109,17.2650611 21.8318109,19.6896 C21.8318109,22.1141389 19.8891571,24.0915765 17.465,24.1346 L17.4517,24.1346 C15.0275195,24.0886295 13.0872389,22.1087127 13.09029,19.6840983 C13.0933482,17.2594838 15.0386114,15.2844622 17.4629,15.2446 L17.4601,15.2446 Z" id="Shape" fill="#CC9964" fill-rule="nonzero"></path>
            </g>
        </g>
    </g>
</svg>