<?xml version="1.0" encoding="UTF-8"?>
<svg width="30px" height="30px" viewBox="0 0 30 30" version="1.1" xmlns="http://www.w3.org/2000/svg" xmlns:xlink="http://www.w3.org/1999/xlink">
    <title>Group 11</title>
    <g id="HOME" stroke="none" stroke-width="1" fill="none" fill-rule="evenodd">
        <g id="Desktop-HD" transform="translate(-290.000000, -811.000000)">
            <g id="Group-7" transform="translate(290.000000, 811.000000)">
                <rect id="Rectangle-Copy-11" x="0" y="0" width="30" height="30"></rect>
                <g id="Sin-tiÌtulo-1_Mesa-de-trabajo-1" transform="translate(0.000000, 1.620000)" fill="#CC9964" fill-rule="nonzero">
                    <path d="M29.537458,10.4860227 C24.9140452,7.08601756 20.2866174,3.68962603 15.6551744,0.296848114 C15.1131329,-0.100046676 14.8963163,-0.100046676 14.3464454,0.303473065 C9.73307047,3.68661469 5.12029779,7.07015783 0.508127384,10.4541025 C-0.0134369378,10.8365428 -0.135697396,11.2575283 0.151584568,11.6658662 C0.438866533,12.0742041 0.903215368,12.0976926 1.43140464,11.7104341 C5.87895505,8.44854914 10.3257024,5.1852589 14.7716468,1.92056337 C14.9330547,1.80010971 15.0408607,1.77300764 15.2215412,1.90610893 C19.6723037,5.18124378 24.1258768,8.45176124 28.5822605,11.7176613 C29.2056082,12.1753852 29.6404458,12.0790223 30,11.4056863 L30,10.9949394 C29.8470239,10.8238952 29.7187407,10.619124 29.537458,10.4860227 Z" id="Path"></path>
                    <path d="M26.6664451,12.6427454 C26.6026192,12.3040076 26.3150838,12.0530677 25.9708253,12.035659 C25.4649199,12.0031365 25.1360815,12.3536566 25.1360815,12.9348455 C25.1360815,16.9158387 25.1360815,20.896832 25.1360815,24.8778253 L25.1360815,25.2163 L18.9001958,25.2163 L18.9001958,24.8465073 C18.9001958,22.8024088 18.9001958,20.7581095 18.9001958,18.7136095 C18.9001958,18.5184746 18.8941731,18.3227374 18.8797187,18.1276025 C18.7044586,15.7426202 16.3664532,14.0665076 14.0501294,14.6639577 C12.2848811,15.1198748 11.1152761,16.6454203 11.1074467,18.5311222 C11.0990149,20.6535156 11.1002194,22.7761098 11.1110603,24.8989047 C11.1110603,25.1614936 11.0508334,25.2470157 10.7731878,25.2452089 C8.90615613,25.2325613 7.04394264,25.2391862 5.17932008,25.2379817 C5.08416169,25.2379817 4.98960558,25.2295499 4.87035646,25.2241295 L4.87035646,24.8549391 C4.87035646,20.9229303 4.87035646,16.9909215 4.87035646,13.0589127 C4.87035646,12.9511067 4.87517461,12.8426984 4.86493604,12.736097 C4.83390502,12.3492432 4.5174501,12.0473022 4.12956649,12.0344544 C3.72920374,12.006358 3.37760424,12.2982519 3.33156103,12.6969495 C3.31550254,12.8328396 3.30906232,12.9696943 3.31228845,13.1064919 C3.31228845,17.3127335 3.31228845,21.5187744 3.31228845,25.7246144 C3.31228845,25.8221819 3.31228845,25.9203516 3.31710659,26.0179191 C3.35444722,26.5027451 3.64955868,26.7918338 4.13438463,26.7924361 C6.70165351,26.7968527 9.26912314,26.7968527 11.8367935,26.7924361 C12.347517,26.7924361 12.6522648,26.4786543 12.6631056,25.9697376 C12.6631056,25.8812042 12.6631056,25.793273 12.6631056,25.7053419 C12.6631056,23.2992801 12.6576852,20.8926161 12.6631056,18.4865544 C12.6679237,17.1115759 13.7622452,16.0564019 15.1004853,16.1106061 C16.3652486,16.1624011 17.3367074,17.1946889 17.3397187,18.5100428 C17.3463437,20.9745246 17.3397187,23.4396086 17.3427301,25.9046927 C17.3427301,26.4696203 17.6330234,26.7912316 18.1630194,26.7918338 C20.7302883,26.7962505 23.2977579,26.7962505 25.8654283,26.7918338 C26.3532656,26.7918338 26.6483771,26.5063587 26.6887291,26.0227372 C26.6941495,25.9625104 26.6936768,25.9052949 26.6936768,25.8468749 C26.6936768,21.5527021 26.6936768,17.2587301 26.6936768,12.9649589 C26.6948886,12.856933 26.6858126,12.7490294 26.6664451,12.6427454 Z" id="Path"></path>
                </g>
            </g>
        </g>
    </g>
</svg>