<?xml version="1.0" encoding="UTF-8"?>
<svg width="30px" height="30px" viewBox="0 0 30 30" version="1.1" xmlns="http://www.w3.org/2000/svg" xmlns:xlink="http://www.w3.org/1999/xlink">
    <title>Group 3</title>
    <g id="FICHA-TÉCNICA" stroke="none" stroke-width="1" fill="none" fill-rule="evenodd">
        <g id="Desktop-HD-Copy-2" transform="translate(-1174.000000, -236.000000)">
            <g id="Group-3" transform="translate(1174.000000, 236.000000)">
                <circle id="Oval" fill="#CC9964" cx="15" cy="15" r="15"></circle>
                <path d="M20.9862279,7.8552011 C21.3859967,7.53863358 21.9684062,7.5650142 22.337735,7.93434298 C22.7354736,8.33208167 22.7354736,8.97694349 22.337735,9.37468218 L22.337735,9.37468218 L16.576039,15.136039 L22.337735,20.8973958 C22.7354736,21.2951344 22.7354736,21.9399963 22.337735,22.337735 C21.9684062,22.7070637 21.3859967,22.7334444 20.9862279,22.4168768 L20.8973958,22.337735 L15.136039,16.576039 L9.37468218,22.337735 L9.28585008,22.4168768 C8.88608121,22.7334444 8.30367176,22.7070637 7.93434298,22.337735 C7.5366043,21.9399963 7.5366043,21.2951344 7.93434298,20.8973958 L7.93434298,20.8973958 L13.696039,15.136039 L7.93434298,9.37468218 C7.5366043,8.97694349 7.5366043,8.33208167 7.93434298,7.93434298 C8.30367176,7.5650142 8.88608121,7.53863358 9.28585008,7.8552011 L9.37468218,7.93434298 L15.136039,13.696039 L20.8973958,7.93434298 Z" id="Combined-Shape" fill="#EEEEEE" fill-rule="nonzero"></path>
            </g>
        </g>
    </g>
</svg>