<?xml version="1.0" encoding="UTF-8"?>
<svg width="16px" height="16px" viewBox="0 0 16 16" version="1.1" xmlns="http://www.w3.org/2000/svg" xmlns:xlink="http://www.w3.org/1999/xlink">
    <title>cochera.30335f</title>
    <g id="FICHA-TÉCNICA" stroke="none" stroke-width="1" fill="none" fill-rule="evenodd">
        <g id="Desktop-HD-Copy" transform="translate(-69.000000, -944.000000)" fill="#CC9964">
            <g id="cochera.30335f" transform="translate(69.000000, 944.000000)">
                <path d="M8.1466487,0.020520777 C8.05088347,-0.00684025901 7.94936892,-0.00684025901 7.85361436,0.020520777 L0.386951783,2.15385386 C0.103733966,2.2347711 -0.0602615835,2.5299601 0.0206577926,2.81318112 C0.101577169,3.09640213 0.396769372,3.26039128 0.679990388,3.17947404 L8.00013153,1.08800972 L15.3202193,3.17947404 C15.6035257,3.26039128 15.898672,3.09640213 15.9796319,2.81318112 C16.0604852,2.5299601 15.8965387,2.2347711 15.613339,2.15385386 L8.1466487,0.020520777 Z M3.50782722,3.52819898 C3.59063246,3.32945787 3.78482958,3.19999668 4.000136,3.19999668 L12.0001164,3.19999668 C12.2154761,3.19999668 12.4096093,3.32945787 12.4923825,3.52819898 L13.8257143,6.7281954 L13.9488075,7.02339507 C14.8269932,7.28751211 15.4667792,8.10236986 15.4667792,9.06665678 L15.4667792,12.2666532 L15.4667792,13.3333187 L14.4001137,13.3333187 L13.866781,13.3333187 L13.866781,14.3999841 C13.866781,15.2836098 13.1504084,15.9999824 12.2667828,15.9999824 C11.3831571,15.9999824 10.6667845,15.2836098 10.6667845,14.3999841 L10.6667845,13.3333187 L5.33346785,13.3333187 L5.33346785,14.3999841 C5.33346785,15.2836098 4.61711665,15.9999824 3.73346964,15.9999824 C2.84981196,15.9999824 2.13347143,15.2836098 2.13347143,14.3999841 L2.13347143,13.3333187 L1.60013869,13.3333187 L0.533473219,13.3333187 L0.533473219,12.2666532 L0.533473219,9.06665678 C0.533473219,8.10236986 1.1732485,7.28751211 2.05148752,7.02339507 L2.17449538,6.7281954 L3.50782722,3.52819898 Z M14.4001137,12.2666532 L13.866781,12.2666532 L12.8001155,12.2666532 L11.73345,12.2666532 L10.6667845,12.2666532 L5.33346785,12.2666532 L4.26680237,12.2666532 L3.2001369,12.2666532 L2.13347143,12.2666532 L1.60013869,12.2666532 L1.60013869,9.06665678 C1.60013869,8.47755878 2.07769549,7.99999131 2.66680416,7.99999131 L13.3334482,7.99999131 C13.9225676,7.99999131 14.4001137,8.47755878 14.4001137,9.06665678 L14.4001137,12.2666532 Z M12.8001155,14.3999841 L12.8001155,13.3333187 L11.73345,13.3333187 L11.73345,14.3999841 C11.73345,14.6944905 11.9722764,14.9333169 12.2667828,14.9333169 C12.5612891,14.9333169 12.8001155,14.6944905 12.8001155,14.3999841 Z M3.2001369,13.3333187 L3.2001369,14.3999841 C3.2001369,14.6944905 3.43890997,14.9333169 3.73346964,14.9333169 C4.02801864,14.9333169 4.26680237,14.6944905 4.26680237,14.3999841 L4.26680237,13.3333187 L3.2001369,13.3333187 Z M11.6445968,4.26666216 L12.7556355,6.93332584 L3.24457418,6.93332584 L4.35568761,4.26666216 L11.6445968,4.26666216 Z M4.80013511,10.1333223 C4.80013511,10.7224416 4.32256764,11.1999877 3.73346964,11.1999877 C3.14436096,11.1999877 2.66680416,10.7224416 2.66680416,10.1333223 C2.66680416,9.54421358 3.14436096,9.06665678 3.73346964,9.06665678 C4.32256764,9.06665678 4.80013511,9.54421358 4.80013511,10.1333223 Z M12.2667828,11.1999877 C12.8559021,11.1999877 13.3334482,10.7224416 13.3334482,10.1333223 C13.3334482,9.54421358 12.8559021,9.06665678 12.2667828,9.06665678 C11.6776634,9.06665678 11.2001173,9.54421358 11.2001173,10.1333223 C11.2001173,10.7224416 11.6776634,11.1999877 12.2667828,11.1999877 Z" id="Shape"></path>
            </g>
        </g>
    </g>
</svg>