<?xml version="1.0" encoding="UTF-8"?>
<svg width="35px" height="35px" viewBox="0 0 35 35" version="1.1" xmlns="http://www.w3.org/2000/svg" xmlns:xlink="http://www.w3.org/1999/xlink">
    <title>icons-04</title>
    <g id="LANDING---VENDE-TU-PROPIEDAD" stroke="none" stroke-width="1" fill="none" fill-rule="evenodd">
        <g id="Desktop-HD" transform="translate(-180.000000, -2262.000000)">
            <g id="icons-04" transform="translate(180.000000, 2262.000000)">
                <rect id="Rectangle" x="0" y="0" width="35" height="35"></rect>
                <path d="M25.9959,29.1081 C25.9504,28.2037 25.5591,27.4743 24.7394,27.0606 C24.268785,26.8250265 23.77079,26.6486827 23.2568,26.5356 C22.2271,26.3088 21.1806,26.1639 20.1481,25.949 C19.3207,25.7768 18.6368,25.3638 18.1769,24.619 C17.9698992,24.2660295 17.7283825,23.9344717 17.4559,23.6292 C16.9659,23.1056 16.9001,22.4791 16.9519,21.8218 C16.9638,21.6685 17.0765,21.5005 17.1885,21.3822 C17.4517,21.1022 17.7884,20.8852 18.0131,20.5821 C18.5976,19.7946 19.138,18.9721 19.7428,18.0999 C20.4351,18.1699 21.0287,17.7884 21.4767,17.1472 C21.9728347,16.4317181 22.2660059,15.595261 22.3251,14.7266 C22.4105,13.6332 22.0108,13.1362 20.9363,12.9066 C20.8935539,12.8910155 20.8523168,12.8715684 20.8131,12.8485 C20.8131,12.2451 20.839,11.6312 20.8075,11.0201 C20.7473,9.8644 20.6094,8.7171 20.0732,7.665 C19.5734,6.685 18.8923,6.335 17.8171,6.4582 C17.7616212,6.46168156 17.7059788,6.46168156 17.6505,6.4582 C17.1864,5.4229 16.751,5.0582 15.7605,4.8811 C14.4451319,4.63808248 13.0923631,4.68803454 11.7985,5.0274 C10.08,5.4775 8.7108,6.3945 7.959,8.071 C7.58956664,8.92221931 7.38299834,9.83515625 7.35,10.7625 C7.3185,11.3925 7.3437,12.0288 7.3437,12.6525 C6.1103,12.81 5.5937,13.3581 5.7057,14.4291 C5.79023921,15.356362 6.12189048,16.2439885 6.6661,16.9995 C7.1379,17.6477 7.7308,18.0369 8.5778,17.8395 C8.5939,17.836 8.617,17.8619 8.6478,17.8801 C9.0629,19.0799 9.6411,20.202 10.6008,21.063 C10.9613,21.3864 11.0775,21.7217 11.0257,22.1592 C10.9949,22.4203 11.0257,22.7395 10.8899,22.9292 C10.4293,23.5529 9.9141,24.136 9.4003,24.7177 C9.19987303,24.9537874 8.96675225,25.1600368 8.708,25.3302 C7.8932,25.8398 6.9895,26.1002 6.0424,26.2521 C5.2024,26.3858 4.3512,26.4992 3.5497,26.7603 C2.31,27.16 1.75,28.0252 1.7143,29.3167 C1.6961,29.9663 1.6856,30.6159 1.6681,31.2655 C1.6618,31.5322 1.7227,31.7723 2.0328,31.7828 C2.3429,31.7933 2.4241,31.5574 2.4276,31.2928 C2.43506667,30.7393333 2.44183333,30.1858667 2.4479,29.6324 C2.4619,28.2814 2.8861,27.7228 4.1853,27.3539 C4.3351,27.3119 4.4877,27.2776 4.6403,27.2496 C5.5251,27.0879 6.4211,26.9745 7.2912,26.7554 C8.0108,26.5741 8.6996,26.2696 9.4248,26.0113 C9.4297,26.0197 9.4724,26.0911 9.5102,26.1653 C9.9547,27.0305 10.395,27.8978 10.8402,28.7609 C11.0383,29.1424 11.2476,29.1809 11.5808,28.9184 C11.6935,28.8288 11.7999,28.7322 11.9105,28.6384 L13.4652,27.3203 L13.4652,31.0345 C13.4652,31.1185 13.4652,31.2025 13.4652,31.2872 C13.4652,31.5371 13.5695,31.7184 13.8369,31.7226 C14.1043,31.7268 14.21,31.5371 14.21,31.29 C14.21,30.3034667 14.21,29.3171667 14.21,28.3311 L14.21,27.3616 C14.3612,27.4883 14.4501,27.559 14.5341,27.6353 C15.0059,28.0627667 15.477,28.4914 15.9474,28.9212 C16.3457,29.2824 16.548,29.2495 16.8112,28.7812 C17.3257,27.8593 17.8381,26.936 18.3736,25.9735 C19.1758,26.5286 20.0536,26.7435 20.9594,26.9038 C21.9261,27.0781 22.9033,27.2237 23.8469,27.4855 C24.8472,27.7655 25.2378,28.3633 25.2644,29.4049 C25.2812,30.03 25.2819,30.6558 25.2854,31.2816 C25.2854,31.5504 25.3617,31.787 25.669,31.7849139 C25.9763,31.7828 26.0477,31.5441 26.0421,31.2753 C26.0288,30.5515 26.0323,29.8284 25.9959,29.1081 Z M20.8859,13.7018 C21.2002,13.6535 21.469,13.7984 21.5439,14.1785 C21.586252,14.4254305 21.586252,14.6777695 21.5439,14.9247 C21.4403,15.5967 21.2415,16.2449 20.8019,16.7748 C20.5975,17.0212 20.3119,17.1948 20.0578,17.4048 L20.0137,17.3173 C20.3042,16.1238 20.5926,14.9289 20.8887,13.7018 L20.8859,13.7018 Z M7.7119,16.9813 C7.4452,16.751 7.1736,16.4738 7.0371,16.1588 C6.78169709,15.5794044 6.58699161,14.9751137 6.4561,14.3556 C6.3238,13.7004 6.7032,13.3756 7.3381,13.4568 C7.6776,14.6699 8.0122,15.8655 8.379,17.1745 C8.12,17.1066 7.8603,17.1094 7.7119,16.9813 Z M8.561,14.8918 C8.2551,14.1729 8.1669,13.4218 8.1025,12.6721 C8.008,11.5752 8.0479,10.486 8.295,9.4094 C8.7073,7.6132 9.8035,6.4421 11.5395,5.8709 C12.913446,5.41158551 14.3872421,5.338937 15.7997,5.6609 C16.5396,5.8268 16.8245,6.16 16.94,6.9118 C17.0023,7.3318 17.1815,7.4368 17.5917,7.3031 C18.5129,7.0035 19.0939,7.2086 19.4502,8.1081 C19.7065658,8.77970864 19.8830123,9.47915118 19.9759,10.192 C20.1782,11.6263 20.1229,13.069 19.9577,14.539 L19.4215,14.6216 C19.2815,13.6682 19.1982,12.7568 19.0078,11.8685 C18.7614,10.7198 18.2427,9.6985 17.3348,8.9089 C17.0751,8.6821 16.8532,8.6443 16.5298,8.8137 C14.5859,9.8315 12.5699,10.1598 10.4594,9.359 C10.1192,9.2302 9.9463,9.3912 9.8217,9.6873 C9.2764,10.9851 9.0734,12.3403 9.1329,13.7403 C9.1476,14.0903 9.1805,14.4333 9.2071,14.812 L8.561,14.8918 Z M10.64,20.0382 C10.2524141,19.5642625 9.93357687,19.0380514 9.6929,18.4751 C9.3219,17.5651 9.0573,16.6173 8.7318,15.6366 C9.0055,15.6037 9.226,15.5722 9.4479,15.5512 C9.9673,15.5022 10.0674,15.3685 9.9813,14.8512 C9.73575193,13.3865018 9.84888159,11.8841111 10.311,10.4727 C10.3397,10.3824 10.381,10.2963 10.4167,10.2095 C10.9767,10.3131 11.5206,10.4468 12.0736,10.5091 C13.6437,10.6855 15.1284,10.3495 16.5291,9.6467 C16.8168,9.5025 16.9659,9.5564 17.1591,9.7755 C17.9025,10.6155 18.2588,11.6298 18.4233,12.712 C18.5111523,13.3546312 18.5616371,14.0018191 18.5745,14.6503 C18.599,15.3678 18.5794,15.3685 19.3039,15.4392 L18.2343,16.8553 C17.9732,17.1997 17.7079,17.5413 17.4503,17.8892 C17.08,18.3897 16.5858,18.5892 15.9516,18.5136 C15.8487,17.9802 15.4721,17.8626 14.9905,17.8836 C14.5474,17.9011 14.1029,17.8836 13.6605,17.8892 C13.1579,17.9004 12.9213,18.1468 12.9052,18.6543 C12.8688,19.7918 12.9934,19.922 14.126,19.9213 C14.4858,19.9213 14.8463,19.9213 15.2061,19.9213 C15.5421,19.9213 15.7724,19.7813 15.9103,19.4656 C15.9599155,19.3720476 16.0501888,19.3068646 16.1546,19.2892 C17.0499,19.2836 17.6995,18.8622 18.2028,18.1468 C18.5528,17.647 18.9399,17.1668 19.3375,16.7041 C18.6704,18.5577 17.8234,20.2916 15.9705,21.2541 C14.1176,22.2166 11.9938,21.7245 10.64,20.0382 Z M15.1725,18.6725 L15.1725,19.1527 L13.685,19.1527 L13.685,18.6725 L15.1725,18.6725 Z M11.3701,28.1183 C11.1244,27.6437 10.8948,27.2013 10.6701,26.7582 C10.4601,26.3529 10.2634,25.9413 10.0401,25.543 C9.9407,25.3624 9.9302,25.2315 10.073,25.0628 C10.3824,24.6974 10.6687,24.3124 10.983,23.9085 L13.3161,26.4635 L11.3701,28.1183 Z M13.7767,25.8538 C13.118,25.1328 12.3837,24.332 11.6564,23.5249 C11.6070974,23.4607736 11.5852006,23.3797301 11.5955,23.2995 C11.6613,22.876 11.7404,22.4553 11.8125,22.0465 C13.2636,22.6555 14.6958,22.6835 16.1574,22.1018 C16.2148,22.4875 16.2827,22.9047 16.3324,23.3233 C16.3401,23.3884 16.2778,23.4787 16.2225,23.5333 C15.4168,24.3012 14.6069,25.067 13.7767,25.8538 Z M17.7429,25.5738 C17.2732,26.4362 16.7951,27.2937 16.2911,28.203 L14.3871,26.4677 C15.2271,25.6851 16.0601,24.9123 16.9071,24.1241 C17.143,24.4503 17.4608,24.878 17.7625,25.3141 C17.8024,25.3743 17.78,25.5045 17.7429,25.5759 L17.7429,25.5738 Z" id="Shape" fill="#CC9964" fill-rule="nonzero"></path>
                <path d="M33.3319,6.6892 C33.3319,6.3637 33.1765,6.1992 32.8503,6.1992 L31.8388,6.1992 C31.8388,5.3592 31.8388,4.5801 31.8388,3.8003 C31.8388,3.3292 31.7352,3.2207 31.2788,3.2207 C28.2454667,3.2207 25.2100333,3.2207 22.1725,3.2207 C21.7077,3.2207 21.6062,3.3243 21.6055,3.7933 C21.6055,5.3207 21.6055,6.84763333 21.6055,8.3741 C21.6055,8.9922 21.6685,9.0552 22.2824,9.0559 L23.8301,9.0559 C23.8301,9.9939 23.8301,10.8703 23.8301,11.7467 C23.8301,12.1905 23.9365,12.2913 24.3852,12.2962 C24.5854,12.2962 24.7849,12.2962 25.0152,12.2962 C25.0152,12.943 25.0152,13.5422 25.0152,14.1407 C25.0152,14.3696 25.0425,14.6272 25.2994,14.6489 C25.4576,14.6615 25.6781,14.5292 25.7894,14.3948 C26.2878,13.7942 26.7652,13.1761 27.2314,12.5496 C27.3777,12.3529 27.5359,12.2906 27.7725,12.292 C29.4406,12.3004 31.108,12.2976 32.7754,12.2955 C33.1891,12.2955 33.3319,12.1814 33.3354,11.8132 C33.3347,10.1038 33.3305,8.4 33.3319,6.6892 Z M23.8315,6.86 C23.8315,7.29306667 23.8298667,7.7259 23.8266,8.1585 C23.8190806,8.19820931 23.8085502,8.23728882 23.7951,8.2754 L22.3713,8.2754 L22.3713,3.9942 L31.08,3.9942 L31.08,6.195 L24.4902,6.195 C23.9043,6.1957 23.8329,6.2699 23.8315,6.86 Z M32.5437,11.5367 L32.1363,11.5367 C30.5893,11.5367 29.0416,11.5416 27.4939,11.5325 C27.2048,11.5325 26.9976,11.6116 26.8226,11.8545 C26.5062342,12.2966134 26.1551217,12.7127987 25.7726,13.0991 C25.7726,12.7876 25.7726,12.4761 25.7726,12.1646 C25.7726,11.6347 25.6739,11.5388 25.1426,11.5346 L24.591,11.5346 L24.591,6.9706 L32.5437,6.9706 L32.5437,11.5367 Z" id="Shape" fill="#CC9964" fill-rule="nonzero"></path>
            </g>
        </g>
    </g>
</svg>