<?xml version="1.0" encoding="UTF-8"?>
<svg width="35px" height="35px" viewBox="0 0 35 35" version="1.1" xmlns="http://www.w3.org/2000/svg" xmlns:xlink="http://www.w3.org/1999/xlink">
    <title>icons-06</title>
    <g id="LANDING---VENDE-TU-PROPIEDAD" stroke="none" stroke-width="1" fill="none" fill-rule="evenodd">
        <g id="Desktop-HD" transform="translate(-511.000000, -2077.000000)">
            <g id="icons-06" transform="translate(511.000000, 2077.000000)">
                <rect id="Rectangle" x="0" y="0" width="35" height="35"></rect>
                <path d="M26.39,23.59 L26.39,23.5375 C26.3936582,23.4412046 26.3873243,23.3447893 26.3711,23.2498 C26.3242,23.0293 26.1786,22.9138 25.9672,22.9222 C25.732,22.932 25.5969,23.0622 25.5766,23.3009 C25.5703,23.3772 25.571,23.457 25.5717,23.534 C25.5717,23.5606 25.5717,23.5865 25.5717,23.6131 L25.5717,25.074 C25.5717,26.5328 25.5717,27.9918333 25.5717,29.4511 C25.5717,30.38 25.2721,31.1381 24.6799,31.7058 C23.7825,32.564 22.7031,32.8055 21.5586,32.4058 C20.4141,32.0061 19.74,31.1675 19.5769,29.9334 C19.4733,29.1564 19.4733,29.1564 18.6858,29.1564 L5.831,29.1564 L5.831,26.2388 C5.831,19.3405333 5.831,12.4418 5.831,5.5426 C5.82567584,5.32922613 5.83949787,5.11580466 5.8723,4.9049 C6.1523,3.388 7.3479,2.408 8.9257,2.4066 C13.1957,2.4031 17.5357,2.4031 21.7357,2.4066 L26.9724,2.4066 L26.6,2.8 C25.9574,3.4881 25.62,4.2392 25.5941,5.0309 C25.5584,6.1859 25.5633,7.3619 25.5682,8.4987 C25.5682,8.9481 25.5717,9.3968 25.5682,9.8462 C25.5682,10.0989 25.7082,10.2424 25.9616,10.2494 C26.2031,10.2571 26.3515,10.1171 26.3781,9.8595 C26.3844044,9.78033374 26.3865074,9.70088892 26.3844,9.6215 C26.3844,9.597 26.3844,9.5725 26.3844,9.548 L26.3844,5.8352 L31.1584,5.8352 C31.6414,5.8352 32.1244,5.8352 32.6074,5.8352 C32.8636,5.8352 33.0092,5.796 33.0974,5.7071 C33.1856,5.6182 33.2157,5.4649 33.2052,5.1996 C33.2014085,5.09612557 33.1908863,4.99300761 33.1737,4.8909 C32.8307,2.8854 31.2522,1.589 29.1529,1.5869 C21.3766,1.5799 14.9429,1.582 8.9096,1.5932 C8.47031822,1.59533778 8.03407584,1.66619469 7.6167,1.8032 C6.0109,2.3324 5.0134,3.7681 5.0127,5.5489 C5.0127,11.2170333 5.0127,16.8851667 5.0127,22.5533 L5.0127,29.1592 L2.4325,29.1592 C2.1224,29.1592 1.9096,29.1809 1.8081,29.2901 C1.7192,29.3853 1.6947,29.5533 1.7185,29.9124 C1.72403422,29.9924696 1.73408354,30.072163 1.7486,30.1511 C2.0986,32.1293 3.6386,33.4089 5.6833,33.4096 C10.2216333,33.4096 14.7595,33.4096 19.2969,33.4096 L22.3482,33.4096 C24.7226,33.4096 26.383,31.7443 26.3865,29.3594 C26.3865,27.7613 26.3865,26.1394 26.3865,24.5651 L26.39,23.59 Z M29.211,2.4129 C29.9306,2.3744 30.7104,2.6733 31.2977,3.2137 C31.8304,3.7037 32.1461,4.3379 32.1636,4.9518 L32.1636,4.9966 L26.4894,4.9966 L26.4859,4.9567 C26.4453,4.4912 26.6441,3.9767 27.0459,3.5161 C27.5996,2.8784 28.4291,2.4556 29.211,2.4129 Z M15.7395,32.5878 L11.9882,32.5878 C9.8812,32.5878 7.756,32.5878 5.6518,32.5878 C4.2343,32.5878 3.1619,31.7611 2.7818,30.3793 C2.76378087,30.3082749 2.74975886,30.2362953 2.7398,30.1637 C2.7342,30.1259 2.7279,30.086 2.7202,30.044 L2.7111,29.9929 L18.7488,29.9929 L18.7537,30.03 C18.8937,31.0016 19.3298,31.8136 20.0956,32.5129 L20.1789,32.5892 L15.7395,32.5878 Z" id="Shape" fill="#CC9964" fill-rule="nonzero"></path>
                <path d="M33.1723,13.1649 C32.8783,11.5416 31.3992,10.3739997 29.7164,10.3739997 C29.5903776,10.3739997 29.4644389,10.380493 29.3391,10.3936 C28.1939,10.5119 27.0802,10.9725 25.935,11.8006 C23.485,13.5709 21.539,15.939 20.1446,18.8398 C19.2822,20.6332 18.9336,22.2103 19.0477,23.8014 C19.0575,23.9372 18.9847,24.0814 18.9154,24.2102 C18.7467,24.5196 18.5717,24.8318 18.4023,25.1342 C18.1559,25.5745 17.9011,26.0295 17.6603,26.4824 C17.5664688,26.6377377 17.5708328,26.8333025 17.6715,26.9843 C17.7498312,27.093218 17.8858449,27.1445335 18.0166,27.1145 C18.1615,27.0872 18.3253,26.9262 18.4121,26.7799 C18.6557,26.3718 18.8937,25.9504 19.124,25.5437 C19.3242,25.1902 19.5307,24.8248 19.74,24.4685 C19.8216146,24.3328321 19.9513188,24.2328673 20.1033,24.1885 C21.9051,23.772 23.5207,22.9285 24.9977,22.0822 C25.2301,21.9485 25.3176,21.7805 25.2896,21.5222 C25.2637,21.2828 25.2448,21.0392 25.2252,20.7809 C25.2161,20.6626 25.207,20.5401 25.1965,20.4106 L25.1909,20.3406 L25.2546,20.3637 C25.3449,20.3973 25.4282,20.4253 25.5066,20.4519 C25.6565542,20.4983068 25.8029949,20.555386 25.9448,20.6227 C26.2472,20.7767 26.523,20.7627 26.8982,20.5758 C28.1150821,19.9812674 29.2549274,19.2405678 30.2925,18.3701 C31.5357,17.3124 32.3155,16.3611 32.8202,15.2852 C33.18,14.525 33.2927,13.8306 33.1723,13.1649 Z M20.0823,22.2761 L20.1257,22.0836 C20.1509,21.9709 20.174,21.8575 20.1957,21.7441 C20.2447,21.5012 20.2958,21.2506 20.37,21.0098 C21.546,17.1885 23.7594,14.203 26.95,12.1345 C28.0259,11.4345 28.9842,11.1384 29.9698,11.1951 C30.5949,11.2308 31.0898,11.4443 31.4797,11.8475 L31.5196,11.8881 L31.4699,11.9161 C27.3854,14.2177 23.8056,17.4608 20.1999,22.12 L20.0823,22.2761 Z M32.277,14.42 C32.067,15.12 31.6834,15.7696 31.0604,16.4731 C29.8963,17.7891 28.4123,18.8762 26.5237,19.7974 C26.3984,19.859 26.2171,19.8359 26.1002,19.7974 C25.8825,19.7274 25.6648,19.6441 25.4541,19.565 C25.2777,19.4992 25.0957,19.4306 24.9151,19.369 C24.7345,19.3074 24.5728,19.3179 24.465,19.3991 C24.3572,19.4803 24.3061,19.6273 24.3166,19.8142 C24.3278,20.0179 24.3495,20.2251 24.3705,20.4253 C24.3936,20.6486 24.4181,20.8796 24.4279,21.1085 C24.4328,21.2324 24.3628,21.4585 24.2452,21.5096 C23.3352,21.9296 22.3972,22.3363 21.4921,22.7318 L21.0168,22.9418 C20.9991684,22.9485296 20.9803583,22.9516249 20.9615,22.9510033 L20.9195,22.9510033 C20.895,22.9510033 20.8635,22.9510033 20.8201,22.9510033 L20.7326,22.9510033 L20.7851,22.8809 C24.29,18.1594 27.8691,14.875 32.0404,12.5377 L32.0782,12.5167 L32.0992,12.5538 C32.4289,13.1229 32.4856,13.7151 32.277,14.42 Z" id="Shape" fill="#CC9964" fill-rule="nonzero"></path>
                <path d="M15.1291,25.7943 C15.1291,26.0743 15.1291,26.313 15.1291,26.5559 C15.1361,26.8947 15.2691,27.0375 15.5946,27.0508 C15.9061,27.0627 16.2491,27.062 16.6446,27.0473 C16.7615295,27.0501216 16.8747203,27.006005 16.9589,26.9248 C17.030174,26.840251 17.0638063,26.7302506 17.052,26.6203 C17.0387,26.3088 16.8168,26.2409 16.632,26.2388 C16.4997,26.2388 16.3674,26.2388 16.2155,26.2388 L15.9355,26.2388 L15.9355,26.1947 C15.9355,26.0344 15.9355,25.879 15.9404,25.7278 C15.946,25.3855 15.9516,25.0628 15.9271,24.7429 C15.9061,24.4713 15.8011,24.1297 15.4161,24.0429 C15.1137,23.9729 14.9184,24.1542 14.7161,24.4433 C14.6391,24.5539 14.5656,24.6701 14.4942,24.7821 C14.3634247,24.9979364 14.2181929,25.2046754 14.0595,25.4009 C13.8618287,25.6228771 13.6514771,25.8332287 13.4295,26.0309 C13.3357,26.1184 13.2412,26.2059 13.1495,26.2955 L13.1229,26.3207 L12.9675,26.2066 L12.9724,26.1793 C12.9864,26.1044 12.9997,26.0295 13.013,25.9546 C13.0424,25.7936 13.0718,25.627 13.1082,25.4646 C13.2108667,24.9979333 13.3149333,24.5287 13.4204,24.0569 C13.6402,23.072 13.867,22.0542 14.0756,21.0469 C14.1806,20.5387 14.1246,20.0767 13.9083,19.6728 C13.6612,19.2115 13.286,19.0673 12.8513,19.2654 C12.3795,19.4817 12.0533,19.6966 11.8258,19.9437 C11.2074467,20.6109643 10.6300572,21.3150523 10.0968,22.0521 C9.352,23.0902 8.925,24.0191 8.7542,24.976 C8.65246766,25.4809428 8.77761739,26.0050872 9.0965,26.4096 C9.41810222,26.8006545 9.89506221,27.0309463 10.4013,27.0396 C10.5450322,27.0537864 10.687702,27.0038391 10.7912,26.9031 C10.8668564,26.8174417 10.8997832,26.7021981 10.8808,26.5895 C10.85,26.3417 10.6848,26.2626 10.4279,26.2164 C10.0079,26.1401 9.7643,26.019 9.6369,25.8223 C9.5095,25.6256 9.4969,25.3498 9.6012,24.9298 C9.63315243,24.7913311 9.67454926,24.6552127 9.7251,24.5224 C10.3006967,23.078188 11.1610421,21.7645782 12.2549,20.6598 C12.4264,20.4834 12.7316,20.251 12.9402,20.251 C12.9639247,20.2510121 12.9875158,20.2545508 13.0102,20.2615 C13.3707,20.3826 13.2853,20.8215 13.2286,21.1169 C13.0837,21.8645 12.9199,22.6163 12.7617,23.3443 C12.6889,23.6770333 12.6168,24.01 12.5454,24.3432 C12.5069,24.5245 12.4656,24.7051 12.4243,24.885 C12.3117467,25.3385957 12.2227279,25.7977089 12.1576,26.2605 C12.1219,26.5496 12.2003,26.796 12.3781,26.9535 C12.5692,27.1229 12.8611,27.1754 13.1775,27.0935 C13.685,26.9689 14.0343,26.6119 14.2821,26.3151 C14.4452,26.1191 14.5992,25.9203 14.777,25.69 C14.8603,25.5822 14.9478,25.4681 15.043,25.347 L15.1214,25.2476 L15.1214,25.3743 C15.1305,25.5283 15.1298,25.6648 15.1291,25.7943 Z" id="Path" fill="#CC9964" fill-rule="nonzero"></path>
                <path d="M22.12,11.06 C22.1529,11.06 22.19,11.06 22.2229,11.067 C22.2827387,11.0807283 22.3452909,11.0765906 22.4028,11.0551 C22.5218,10.9641 22.722,10.8122 22.7318,10.6848 C22.7416,10.5574 22.6023,10.3824 22.4672,10.2725 C22.4105,10.2263 22.2908,10.2312 22.1872,10.2354 C22.1536,10.2354 22.1207,10.2354 22.0899,10.2354 L22.0899,10.2354 C18.4254,10.2354 14.6965,10.2354 11.0075,10.2354 L11.0075,10.2354 C10.976,10.2354 10.9424,10.2354 10.9081,10.2354 C10.8031,10.2305 10.6841,10.2256 10.6281,10.2711 C10.493,10.3803 10.3537,10.5623 10.3621,10.6827 C10.3705,10.8031 10.5721,10.9627 10.6883,11.0544 C10.7460044,11.0761123 10.8088456,11.080253 10.8689,11.0663 C10.9025,11.0663 10.9389,11.06 10.9711,11.06 L22.12,11.06 Z" id="Path" fill="#CC9964" fill-rule="nonzero"></path>
                <path d="M18.6802,17.08 C18.8048,17.08 18.9448,17.08 19.026,17.0233 C19.1303,16.9491 19.2451,16.7958 19.2493,16.6768 C19.2535,16.5578 19.1499,16.3968 19.0512,16.3177 C18.9812,16.261 18.8412,16.2617 18.7194,16.2624 L18.6746,16.2624 C17.395,16.2624 16.0944,16.2624 14.8365,16.2624 L10.6064,16.2624 C10.01,16.2624 9.4136,16.2624 8.8172,16.2624 L8.8123,16.2624 C8.5134,16.2624 8.3727,16.3751 8.3566,16.6278 C8.3405,16.8805 8.5036,17.0478 8.7927,17.08 C8.84551952,17.084834 8.89858299,17.0864703 8.9516,17.0849 L10.1556,17.0849 C12.9854667,17.0849 15.8153333,17.0849 18.6452,17.0849 L18.6802,17.08 Z" id="Path" fill="#CC9964" fill-rule="nonzero"></path>
                <path d="M20.5485,14.0742 C20.804,14.0742 20.9895,14.0259 21.0665,13.7942 C21.1135895,13.6754642 21.0991899,13.5411547 21.028,13.4351 C20.944,13.3196 20.79,13.2552 20.5926,13.2545 C19.7211,13.251 18.8356,13.2545 17.9788,13.2545 L16.0755,13.2545 L15.2026,13.2545 C14.6881,13.2545 12.425,13.2545 11.1692,13.2615 C11.1405,13.2615 11.1111,13.2615 11.0803,13.2573 C10.7270333,13.2573 10.3737667,13.2573 10.0205,13.2573 C9.62756667,13.2573 9.23463333,13.2573 8.8417,13.2573 L8.8333,13.2573 C8.5148,13.2573 8.3727,13.3707 8.358,13.6353 C8.34637188,13.7440924 8.38090635,13.8527744 8.4532,13.9349 C8.5393,14.0273 8.68,14.0749 8.8613,14.0812 C9.1182,14.0854 9.3807,14.0847 9.6313,14.0812 L10.3033,14.0812 C10.5518,14.0812 10.808,14.0812 11.06,14.0812 C11.0866,14.0812 11.1111,14.0812 11.1349,14.0812 C12.5818,14.0875 15.4469,14.0868 16.2652,14.0854 L18.1027,14.0854 C18.9156333,14.0854 19.7288,14.0854 20.5422,14.0854 L20.5485,14.0742 Z" id="Path" fill="#CC9964" fill-rule="nonzero"></path>
            </g>
        </g>
    </g>
</svg>