<?xml version="1.0" encoding="UTF-8"?>
<svg width="30px" height="30px" viewBox="0 0 30 30" version="1.1" xmlns="http://www.w3.org/2000/svg" xmlns:xlink="http://www.w3.org/1999/xlink">
    <title>Group 8</title>
    <g id="HOME" stroke="none" stroke-width="1" fill="none" fill-rule="evenodd">
        <g id="Desktop-HD" transform="translate(-449.000000, -811.000000)">
            <g id="Group-6" transform="translate(449.000000, 811.000000)">
                <rect id="Rectangle-Copy-12" x="0" y="0.0222166203" width="29.9897929" height="29.9777834"></rect>
                <g id="Sin-tiÌtulo-1-02" transform="translate(0.010207, -0.000000)" fill="#CC9964" fill-rule="nonzero">
                    <path d="M29.9873849,15.3055065 C29.9873849,14.3164527 29.4016397,13.5866243 28.451083,13.3952336 C25.3925259,12.7798762 22.3333667,12.1675471 19.2736056,11.5582464 C18.6842484,11.437113 18.0960952,11.3159797 17.49831,11.1948463 L17.49831,10.8126706 C17.49831,8.57008855 17.49831,6.3273046 17.49831,4.08431876 C17.49831,3.00017529 16.8896889,2.2751922 15.8355883,2.10197151 C14.7285118,1.92027148 13.6196293,1.7561358 12.5107469,1.58594344 C9.21540337,1.07960604 5.91644789,0.579325313 2.62170641,0.0639029145 C1.92459136,-0.0451170994 1.26901426,-0.0644984352 0.67845307,0.418217959 C0.321467559,0.71196633 0.151101793,1.10988938 0,1.52537677 L0,28.4430239 C0.120399835,28.6943756 0.216719703,28.9608689 0.364209501,29.1940506 C0.645945115,29.6380043 1.0962405,29.8409027 1.58145183,29.9777834 L28.4071371,29.9777834 C28.4317444,29.9620814 28.4577408,29.9486999 28.484795,29.9378094 C29.4847156,29.6555687 29.9897929,28.9996316 29.9897929,27.9651528 C29.9897929,23.7456745 29.9889902,19.5257924 29.9873849,15.3055065 Z M11.2459466,28.7046719 L6.25236343,28.7046719 L6.25236343,28.3969932 C6.25236343,26.6768996 6.25236343,24.9568061 6.25236343,23.2367125 C6.25236343,22.6201438 6.44861516,22.4226964 7.05603233,22.4220908 C8.1966201,22.4220908 9.3376092,22.4220908 10.4789996,22.4220908 C11.0177889,22.4220908 11.2441406,22.6504271 11.2447426,23.1931045 C11.2447426,24.9430776 11.2447426,26.6928489 11.2447426,28.4424182 L11.2459466,28.7046719 Z M12.4902789,28.7046719 L12.4902789,28.3679212 C12.4902789,26.656307 12.4589749,24.9440871 12.5011149,23.2336842 C12.5300108,22.0368867 11.648684,21.1138506 10.4350537,21.1598813 C9.31473324,21.2034893 8.18959678,21.2040949 7.06867431,21.1598813 C5.86467596,21.1126393 4.9616772,21.9950957 4.98575717,23.2512485 C5.01645913,24.9422701 4.99298116,26.634503 4.99298116,28.3261302 L4.99298116,28.7252646 L3.14303769,28.7252646 C2.74331024,28.7252646 2.34298079,28.7325326 1.94265134,28.7252646 C1.49837595,28.7143626 1.26419827,28.4720959 1.24553629,28.0239025 C1.2425263,27.9554621 1.24553629,27.8864161 1.24553629,27.8173701 L1.24553629,2.14194551 C1.24200836,2.03382591 1.24542681,1.92558994 1.25577028,1.8179138 C1.30754221,1.42786442 1.61696978,1.19407706 2.00345325,1.2534324 C5.53076709,1.79207202 9.05848225,2.33091354 12.5865988,2.86995694 C13.5497974,3.01713396 14.5129961,3.15946564 15.4798068,3.30300866 C16.090836,3.39446434 16.2395297,3.56647369 16.2395297,4.19576144 L16.2395297,28.7028549 L12.4902789,28.7046719 Z M28.7442566,27.8428081 C28.7442566,28.5187322 28.5401789,28.7246589 27.8719598,28.7252646 L17.517574,28.7252646 L17.517574,12.4933958 C18.4759567,12.6823639 19.4126674,12.8658809 20.3469701,13.0524262 C22.8910186,13.5587636 25.4346658,14.0657067 27.9779117,14.5732554 C28.6094088,14.6986284 28.7400426,14.8542848 28.7400426,15.5059822 C28.7432533,19.6172481 28.7444573,23.7289177 28.7436546,27.8409911 L28.7442566,27.8428081 Z" id="Shape"></path>
                    <path d="M4.43011193,7.3088885 C5.22836284,7.31373384 6.02701507,7.31373384 6.82606865,7.3088885 C7.2239901,7.3088885 7.49368573,7.0448178 7.49550095,6.68384042 C7.49729773,6.32286304 7.23362209,6.06666601 6.83028264,6.05879234 C6.42694319,6.05091867 6.03142973,6.05879234 5.63230428,6.05879234 C5.23317883,6.05879234 4.83345138,6.05394701 4.43432592,6.05879234 C4.0129265,6.06545468 3.74262887,6.31983471 3.75045486,6.69474242 C3.75828085,7.05450847 4.02918048,7.30586017 4.43011193,7.3088885 Z" id="Path"></path>
                    <path d="M4.42950993,13.1172326 C4.82863538,13.1226836 5.22836284,13.1172326 5.62748829,13.1172326 C6.02661374,13.1172326 6.42634119,13.1220779 6.82546665,13.1172326 C7.2245921,13.1123872 7.49368573,12.8531619 7.49550095,12.4915788 C7.49729773,12.1299958 7.23362209,11.8707704 6.83028264,11.8671364 C6.03203173,11.8602722 5.2333795,11.8602722 4.43432592,11.8671364 C4.0129265,11.8701647 3.74262887,12.1269674 3.75045486,12.5024808 C3.75767885,12.8610355 4.02918048,13.1111759 4.42950993,13.1172326 Z" id="Path"></path>
                    <path d="M6.80259068,17.3914228 C6.01316909,17.3865774 5.22414884,17.3865774 4.43552992,17.3914228 C4.0141305,17.3950568 3.74323087,17.6506481 3.75045486,18.0255559 C3.75767885,18.4004636 4.03399647,18.6390963 4.45780389,18.6433359 C4.84729736,18.6469699 5.23679082,18.6433359 5.62628429,18.6433359 C6.01577776,18.6433359 6.40888322,18.6433359 6.79536669,18.6433359 C7.21676611,18.6384906 7.49248173,18.3889559 7.49551667,18.0182879 C7.49850172,17.6476198 7.22880609,17.3944511 6.80259068,17.3914228 Z" id="Path"></path>
                    <path d="M10.6860874,7.3088885 C11.4747063,7.31373384 12.2633252,7.31373384 13.0519441,7.3088885 C13.4733435,7.3088885 13.7472532,7.04724047 13.7442677,6.67596675 C13.7442677,6.31620071 13.4733435,6.06484901 13.0706061,6.05818668 C12.6678686,6.05152434 12.2717532,6.05818668 11.8726277,6.05818668 C11.4735023,6.05818668 11.0737748,6.05334134 10.6746494,6.05818668 C10.2580659,6.06545468 10.0094403,6.30045337 10.0052263,6.67233275 C10.0010123,7.04421213 10.2640859,7.30646583 10.6860874,7.3088885 Z" id="Path"></path>
                    <path d="M13.0838501,11.8671364 C12.6847246,11.8592627 12.2849972,11.8671364 11.8858717,11.8671364 C11.4771143,11.8671364 11.0677548,11.8604741 10.6589974,11.8671364 C10.25024,11.8737987 10.0016143,12.1203051 10.0045973,12.4958185 C10.0076343,12.8713319 10.2689019,13.1142042 10.6722414,13.1172326 C11.4712949,13.1228855 12.2699472,13.1228855 13.0681981,13.1172326 C13.4685275,13.1172326 13.7388252,12.8586129 13.7448452,12.4976355 C13.7508652,12.1366581 13.4805675,11.8750101 13.0838501,11.8671364 Z" id="Path"></path>
                    <path d="M13.0964921,17.3926341 C12.6973666,17.3841548 12.2976391,17.3926341 11.8985137,17.3926341 C11.4801243,17.3926341 11.0611328,17.3853661 10.6427434,17.3926341 C10.25024,17.4017191 10.0076343,17.6445915 10.0052095,18.0085972 C10.0028183,18.3726029 10.2598719,18.6384906 10.6602014,18.6415189 C11.4680843,18.6483832 12.2761678,18.6483832 13.0844521,18.6415189 C13.4793635,18.6378849 13.7466512,18.3677576 13.7466512,18.0061745 C13.7394272,17.6536765 13.4787615,17.4011134 13.0964921,17.3926341 Z" id="Path"></path>
                </g>
            </g>
        </g>
    </g>
</svg>