<?xml version="1.0" encoding="UTF-8"?>
<svg width="50px" height="50px" viewBox="0 0 50 50" version="1.1" xmlns="http://www.w3.org/2000/svg" xmlns:xlink="http://www.w3.org/1999/xlink">
    <title>Sin título-1_Mesa de trabajo 1</title>
    <g id="CONÓCENOS" stroke="none" stroke-width="1" fill="none" fill-rule="evenodd">
        <g id="Desktop-HD" transform="translate(-105.000000, -3089.000000)">
            <g id="Sin-título-1_Mesa-de-trabajo-1" transform="translate(105.000000, 3089.000000)">
                <path d="M43.242,27.255 L43.213,8.94 L42.998,8.54 C42.7156846,8.01365758 42.2843424,7.58231542 41.758,7.3 C41.397,7.1 41.182,7.085 39.308,7.037 C37.56,6.998 37.208,6.959 36.984,6.812 C36.467,6.47 36.389,6.226 36.33,4.772 C36.271,3.318 36.242,3.229 35.735,3.229 C35.228,3.229 35.159,3.464 35.159,4.86 C35.159,6.646 35.442,7.32 36.418,7.896 C36.857,8.15 36.906,8.159 38.918,8.208 C41.281,8.267 41.486,8.325 41.876,9.087 L42.091,9.516 L42.091,44.716 L12.021,44.716 L12.021,1.179 L23.521,1.199 C34.347,1.228 35.031,1.238 35.402,1.399 C35.919,1.633 36.095,1.809 37.852,3.82 C38.682,4.767 39.434,5.567 39.531,5.587 C40.01,5.714 40.459,5.206 40.231,4.787 C40.003,4.368 36.931,0.921 36.541,0.648 C36.2267874,0.456375067 35.8911547,0.302319645 35.541,0.189 C34.963,0.017 34.505,0.008 23.063,0.008 L11.172,0.008 L10.986,0.213 C10.801,0.418 10.801,0.945 10.786,22.891 C10.767,40.874 10.786,45.404 10.886,45.599 L11.013,45.843 L26.955,45.873 C41.736,45.892 42.927,45.882 43.093,45.726 C43.259,45.57 43.262,44.935 43.242,27.255 Z" id="Path" fill="#CC9964" fill-rule="nonzero"></path>
                <path d="M38.742,47.22 C38.527,47.142 38.442,47.161 38.234,47.357 C38.026,47.553 37.99,47.669 37.99,48.206 L37.99,48.821 L22.99,48.801 L7.97,48.772 L7.94,27.021 L7.921,5.279 L8.507,5.279 C9.161,5.279 9.483,5.079 9.483,4.664 C9.483,4.215 9.219,4.108 8.097,4.108 C7.228,4.108 7.052,4.137 6.915,4.284 C6.759,4.45 6.749,6.168 6.749,27.031 C6.749,49.475 6.749,49.602 6.949,49.797 C7.149,49.992 7.271,49.992 22.989,49.992 L38.839,49.992 L39.025,49.787 C39.171,49.621 39.22,49.407 39.239,48.687 C39.269,47.679 39.161,47.366 38.742,47.22 Z" id="Path" fill="#CC9964" fill-rule="nonzero"></path>
                <path d="M33.314,10.122 L29,5.894 C27.819,4.733 27.214,4.206 27.067,4.206 C26.92,4.206 26.511,4.528 25.906,5.106 C25.388,5.606 23.406,7.517 21.522,9.372 C18.701,12.125 18.076,12.779 18.076,12.994 C18.0796186,13.1551148 18.1478977,13.3080008 18.2654607,13.4182279 C18.3830238,13.5284549 18.5399862,13.5867554 18.701,13.58 C18.964,13.58 19.667,12.916 25.359,7.302 L27.028,5.652 L29.655,8.22 C31.1,9.624 32.923,11.41 33.7,12.182 C34.92,13.382 35.164,13.582 35.428,13.582 C35.809,13.582 36.092,13.22 35.985,12.882 C35.949,12.758 34.749,11.518 33.314,10.122 Z" id="Path" fill="#CC9964" fill-rule="nonzero"></path>
                <path d="M22.506,21.778 C24.459,21.778 24.706,21.759 24.84,21.603 C24.966,21.466 24.996,21.103 25.025,19.484 C25.064,17.2 25.132,16.975 25.943,16.428 C26.392,16.116 26.46,16.096 27.104,16.135 C27.856,16.175 28.227,16.36 28.666,16.935 C29.008,17.384 29.106,18.048 29.106,19.883 C29.106,21.192 29.135,21.494 29.262,21.621 C29.487,21.855 33.606,21.855 33.831,21.621 C33.968,21.484 33.987,21.045 33.968,17.843 L33.938,14.221 L33.675,14.075 C33.431,13.938 33.392,13.938 33.138,14.123 L32.864,14.323 L32.835,17.467 L32.816,20.601 L30.3,20.601 L30.261,18.961 C30.232,17.447 30.212,17.291 29.978,16.793 C29.616,16.012 29.187,15.573 28.445,15.212 C27.869,14.929 27.703,14.89 27.01,14.89 C26.434,14.899 26.11,14.948 25.77,15.104 C25.165,15.378 24.462,16.042 24.149,16.647 C23.896,17.116 23.886,17.213 23.856,18.863 L23.817,20.601 L21.305,20.601 L21.276,17.467 L21.247,14.333 L21.013,14.148 C20.72,13.913 20.603,13.913 20.28,14.167 L20.027,14.367 L20.027,17.862 C20.027,20.85 20.046,21.377 20.183,21.562 C20.329,21.778 20.368,21.778 22.506,21.778 Z" id="Path" fill="#CC9964" fill-rule="nonzero"></path>
                <path d="M37.258,24.951 L37.023,24.707 L27.085,24.717 C21.491,24.717 17.049,24.756 16.932,24.805 C16.502,24.98 16.532,25.722 16.971,25.888 C17.107,25.937 21.149,25.976 27.114,25.976 L37.023,25.976 L37.258,25.732 C37.394,25.605 37.502,25.432 37.502,25.342 C37.502,25.252 37.394,25.078 37.258,24.951 Z" id="Path" fill="#CC9964" fill-rule="nonzero"></path>
                <path d="M27.056,30.077 C32.562,30.077 37.111,30.038 37.17,29.998 C37.4238686,29.825885 37.5150141,29.4947934 37.385,29.217 L37.258,28.954 L27.1,28.925 C17.357,28.905 16.937,28.915 16.781,29.081 C16.546,29.335 16.581,29.745 16.829,29.92 C17.02,30.057 18.152,30.077 27.056,30.077 Z" id="Path" fill="#CC9964" fill-rule="nonzero"></path>
                <path d="M37.346,33.328 L37.14,33.054 L27.065,33.025 C17.107,33.005 17,33.005 16.805,33.201 C16.561,33.445 16.551,33.806 16.785,34.011 C16.951,34.167 17.785,34.177 27.104,34.157 L37.248,34.128 L37.394,33.865 C37.531,33.62 37.531,33.581 37.346,33.328 Z" id="Path" fill="#CC9964" fill-rule="nonzero"></path>
                <path d="M37.17,38.746 C37.111,38.707 35.432,38.668 33.431,38.668 C30.326,38.668 29.779,38.687 29.653,38.814 C29.408,39.058 29.369,39.341 29.535,39.605 L29.701,39.839 L33.479,39.82 L37.258,39.79 L37.385,39.527 C37.5145699,39.2491691 37.4235061,38.9183746 37.17,38.746 Z" id="Path" fill="#CC9964" fill-rule="nonzero"></path>
                <rect id="Rectangle" x="0" y="0" width="50" height="50"></rect>
            </g>
        </g>
    </g>
</svg>