<?xml version="1.0" encoding="UTF-8"?>
<svg width="21px" height="23px" viewBox="0 0 21 23" version="1.1" xmlns="http://www.w3.org/2000/svg" xmlns:xlink="http://www.w3.org/1999/xlink">
    <title>Combined Shape Copy 2</title>
    <g id="CONÓCENOS" stroke="none" stroke-width="1" fill="none" fill-rule="evenodd">
        <g id="Desktop-HD" transform="translate(-1041.000000, -2897.000000)" fill="#FFFFFF" fill-rule="nonzero">
            <path d="M1053.33631,2898.50692 L1053.49333,2898.64556 L1061.82666,2906.9789 C1062.42747,2907.5797 1062.47368,2908.52509 1061.96531,2909.17891 L1061.82666,2909.33592 L1053.49333,2917.66925 C1052.84245,2918.32013 1051.78718,2918.32013 1051.1363,2917.66925 C1050.5355,2917.06845 1050.48928,2916.12306 1050.99766,2915.46924 L1051.1363,2915.31223 L1056.622,2909.82341 L1041.66667,2909.82407 C1040.74619,2909.82407 1040,2909.07788 1040,2908.15741 C1040,2907.30268 1040.6434,2906.59823 1041.4723,2906.50195 L1041.66667,2906.49074 L1056.623,2906.49041 L1051.1363,2901.00259 C1050.5355,2900.40178 1050.48928,2899.45639 1050.99766,2898.80258 L1051.1363,2898.64556 C1051.73711,2898.04476 1052.6825,2897.99854 1053.33631,2898.50692 Z" id="Combined-Shape-Copy-2" transform="translate(1051.157407, 2908.157407) rotate(-270.000000) translate(-1051.157407, -2908.157407) "></path>
        </g>
    </g>
</svg>