<?xml version="1.0" encoding="UTF-8"?>
<svg width="35px" height="35px" viewBox="0 0 35 35" version="1.1" xmlns="http://www.w3.org/2000/svg" xmlns:xlink="http://www.w3.org/1999/xlink">
    <title>icons-05</title>
    <g id="LANDING---VENDE-TU-PROPIEDAD" stroke="none" stroke-width="1" fill="none" fill-rule="evenodd">
        <g id="Desktop-HD" transform="translate(-511.000000, -1994.000000)">
            <g id="icons-05" transform="translate(511.000000, 1994.000000)">
                <rect id="Rectangle" x="0" y="0" width="35" height="35"></rect>
                <path d="M31.85,12.9318 C31.1649333,11.0898667 30.4810333,9.2477 29.7983,7.4053 C29.4938,6.5905 28.7329,6.174 27.9531,6.4351 C27.1131,6.7151 26.2864,7.0294 25.4653,7.3577 C24.871,7.595 24.5399,8.1823 24.5931,8.82 C24.6064,8.981 24.647,9.1406 24.6785,9.3184 C24.2697,9.4829 23.8777,9.3807 23.5025,9.2484 C22.9117,9.0384 22.3342,8.7906 21.7469,8.5687 C20.1369,7.9583 18.5801,8.0416 17.0905,8.9348 C16.9435,9.0237 16.8434,9.0132 16.7034,8.9299 C15.7234,8.3426 14.6538,8.0689 13.5114,8.1753 C12.9388,8.2292 12.3746,8.3629 11.8041,8.442 C11.2182,8.5232 10.6288,8.582 10.0457,8.652 C9.9057,7.889 9.5018,7.4788 8.8438,7.2835 C8.1536,7.0798 7.4732,6.8411 6.7872,6.622 C5.8212,6.3147 5.0624,6.7018 4.7516,7.6594 C4.4716,8.5204 4.19323333,9.38186667 3.9165,10.2438 C3.1969,12.4754 2.478,14.7074667 1.7598,16.94 C1.4742,17.8311 1.8676,18.6032 2.7531,18.9 C3.4944,19.1471 4.2413,19.3781 4.9854,19.6196 C5.4908,19.7834 5.9591,19.7246 6.3903,19.4054 C6.45588335,19.3667199 6.5236649,19.3318942 6.5933,19.3011 C6.56021406,19.4372255 6.51740416,19.5708017 6.4652,19.7008 C6.2986,20.0312 6.1068,20.3497 5.9479,20.6808 C5.67440643,21.2361748 5.6739301,21.8869828 5.94661041,22.4427573 C6.21929071,22.9985319 6.73429457,23.3964292 7.3409,23.52 C7.56530745,23.555777 7.79151787,23.5791459 8.0185,23.59 C7.8596,24.4699 8.043,25.2434 8.8004,25.7768 C9.5396,26.2976 10.3208,26.2724 11.1195,25.8062 C11.3295,26.3662 11.6977,26.7778 12.2514,27.0081 C12.8051,27.2384 13.3714,27.1901 13.9314,26.9626 C14.2485,27.8523 14.7987,28.4816 15.7381,28.6209 C16.7384,28.77 17.3152,28.1484 17.7478,27.3364 C18.4359,27.7564 19.1205,27.9055 19.8058,27.4428 C20.468,26.9955 20.6878,26.3347 20.5947,25.5528 C21.2408,25.5269 21.791,25.333 22.2187,24.8647 C22.6464,24.3964 22.7969,23.8371 22.7563,23.2015 C23.5228,23.4395 24.2165,23.3667 24.8311,22.8809 C25.4457,22.3951 25.6662,21.7406 25.6102,20.958 C25.7194,20.9895 25.7873,21.0112 25.8559,21.028 C26.6889,21.238 27.4323,20.888 27.8061,20.1145 C28.0245,19.6637 28.0679,19.1884 28.0161,18.6977 C28.0118984,18.6179553 28.0118984,18.5380447 28.0161,18.4583 C28.0994,18.4807 28.1246,18.5108 28.1407,18.5444 C28.5607,19.4215 29.2719,19.7183 30.1742,19.3844 C30.7923,19.1576 31.4006,18.9 32.0278,18.7033 C32.6872,18.4968 33.1513,18.123 33.3375,17.4433 L33.3375,16.8868 C32.8405,15.5689333 32.3446667,14.2506 31.85,12.9318 Z M6.1383,18.27 C5.9647,18.8069 5.6882,18.9455 5.1506,18.7726 C4.4359,18.543 3.7212,18.3141 3.0093,18.0775 C2.6684,17.9641 2.5158,17.7527 2.5256,17.3887 C2.5431,17.3236 2.5697,17.2039 2.6075,17.087 C3.5875,14.0438667 4.57006667,11.0014333 5.5552,7.9597 C5.7344,7.4053 6.0067,7.2667 6.5632,7.4459 C7.238,7.6629 7.9128,7.88106667 8.5876,8.1004 C9.128,8.2761 9.2729,8.5491 9.1014,9.0804 C8.11533333,12.1454667 7.12763333,15.2086667 6.1383,18.27 Z M7.8673,22.7059 C6.9174,22.7059 6.3469,21.8589 6.7053,21.0959 C7.0294,20.4078 7.399,19.7386 7.784,19.082 C8.09027901,18.5841277 8.72919583,18.4075166 9.2477,18.6774 C9.8301,18.9973 10.0667,19.6343 9.7818,20.2034 C9.4549,20.8572 9.1077,21.5005 8.7507,22.1382 C8.54,22.519 8.19,22.701 7.8673,22.7066 L7.8673,22.7059 Z M10.99,24.6869 C10.7429915,25.164009 10.1944673,25.4015566 9.6775,25.2553 C9.1462,25.109 8.8291,24.6953 8.7864,24.1304 C8.8564,23.9281 8.8977,23.7104 8.9964,23.527 C9.4094,22.7318 9.8364,21.9436 10.2613,21.1561 C10.6022,20.5261 11.27,20.3035 11.8559,20.6122 C12.4418,20.9209 12.6329,21.6083 12.3032,22.2362 C11.8678,23.0566 11.4338,23.8756 10.99,24.6869 Z M13.9706,25.8027 C13.664,26.3095 12.9969,26.4411 12.4677,26.1597 C11.9665,25.8937 11.7131,25.2581 11.963,24.7261 C12.2647,24.0856 12.6098,23.4626 12.9696,22.8522 C13.1358173,22.570691 13.4339043,22.3931578 13.7606,22.3810783 C14.7112,22.3762 15.295,23.2022 14.9576,23.9526 C14.6648596,24.5884883 14.3343357,25.2062921 13.9678,25.8027 L13.9706,25.8027 Z M17.3943,26.0827 C17.2484333,26.4216786 17.084875,26.7527674 16.9043,27.0746 C16.5998,27.6346 16.2743,27.839 15.8221,27.7697 C15.3699,27.7004 14.889,27.2363 14.7735,26.74 C14.7658,26.7099 14.7623,26.6791 14.7567,26.649 C14.6118,25.8181 15.5687,24.6071 16.3716,24.6049995 C17.2291,24.6043 17.7163,25.2994 17.3915,26.0848 L17.3943,26.0827 Z M19.5748,26.495 C19.2948,26.8821 18.8818,26.9605 18.3981,26.7148 C18.3162,26.6735 18.2385,26.6252 18.1356,26.5664 C18.4779,25.7537 18.5416,25.0019 17.8808,24.3012 C18.4023,24.6036 18.9525,24.8675 19.4376,25.2203 C19.8485,25.5234 19.8667,26.0848 19.572,26.4971 L19.5748,26.495 Z M27.1544,19.3403 C27.0144,20.1467 26.4642,20.4428 25.7404,20.0599 C24.2851,19.2899 22.8389,18.5003 21.3892,17.7191 C21.1267,17.5791 20.867,17.43 20.6017,17.2935 C20.3364,17.157 20.0879,17.2095 19.9647,17.4384 C19.8415,17.6673 19.9234,17.8955 20.2041,18.0488 C21.4781,18.7446 22.7537333,19.4366667 24.031,20.125 C24.4069,20.3273 24.6701,20.6115 24.7359,21.0427 C24.8108,21.5327 24.6617,21.9457 24.2557,22.2369 C23.8308,22.5407 23.3716,22.5554 22.9145,22.3118 C21.5971,21.6118 20.2818,20.9059667 18.9686,20.1943 C18.8986,20.1558 18.8251,20.1131 18.7495,20.0816 C18.5087,19.9787 18.2973,20.0116 18.1692,20.2573 C18.0411,20.503 18.1293,20.7032 18.3554,20.8327 C18.7054,21.0315 19.0624,21.2128 19.4159,21.4032 C20.041,21.7406 20.6759,22.064 21.2877,22.421 C21.777659,22.6889118 22.0139246,23.2626579 21.8547,23.7979 C21.6356,24.5525 20.8166,24.8948 20.0914,24.5175 C19.1149,24.0093 18.1454,23.4871 17.1731,22.9705 C17.1031,22.9313 17.0289,22.89 16.9547,22.8543 C16.6929,22.7283 16.4563,22.7843 16.3352,22.9901 C16.205,23.2155 16.2834,23.4416 16.5515,23.6103 C16.6026,23.6418 16.6551,23.6712 16.7069,23.702 L16.6985,23.7601 L15.9026,23.7601 C15.9369,23.0937 15.7521,22.4798 15.2166,22.0171 C14.6811,21.5544 14.0546,21.4277 13.3392,21.588 C13.2692,20.9524 13.0368,20.4078 12.5146,20.0249 C12.0029,19.649 11.4331,19.5447 10.7961,19.6805 C10.6736,18.8405 10.2634,18.1937 9.4899,17.8605 C8.7038,17.5189 7.98,17.7205 7.3038,18.2896 C7.2408,17.773 7.3521,17.3096 7.497,16.8588 C8.2152,14.6146 8.93853333,12.3722667 9.667,10.1318 C9.877,9.4759 9.8833,9.5165 10.5595,9.4563 C11.3162,9.3863 12.068,9.2533 12.8177,9.1238 C13.8341,8.9474 14.8267,8.9593 15.7815,9.4038 C15.8466,9.4346 15.911,9.4661 15.9754,9.499 C16.0104,9.5179 16.0454,9.541 16.0979,9.5746 C16.0682092,9.61563433 16.0364342,9.65511948 16.0027,9.6929 C15.0605,10.6148 14.1092,11.529 13.1789,12.4628 C12.9045,12.7386 12.6812,13.0655 12.4488,13.3798 C12.2584,13.6367 12.2913,13.8775 12.4957,14.1351 C13.5352,15.4448 14.8344,15.8361 16.5879,15.309 C17.3754,15.0724 18.1426,14.7693 18.9238,14.511 C19.6938,14.2569 20.3938,14.301 21.1309,14.7511 C22.1487,15.3692 23.2603,15.8291 24.3061,16.4031 C25.0520507,16.8183261 25.7763259,17.2713486 26.4761,17.7604 C27.0088,18.13 27.272,18.6606 27.1544,19.3403 Z M27.4512,17.507 C26.7666,16.7853 25.9196,16.2918 25.0558,15.8319 C23.9358,15.2376 22.8053,14.6741 21.6762,14.1022 C21.2933,13.9083 20.9202,13.6717 20.5142,13.5534 C19.8268,13.3539 19.145,13.5282 18.4842,13.7466 C17.6834,14.0112 16.8973,14.322 16.0888,14.5572 C15.0479,14.8603 14.1092,14.6706 13.363,13.8257 C13.3294,13.7872 13.3014,13.7438 13.2517,13.6773 C13.44,13.4603 13.6122,13.2272 13.818,13.0298 C14.8638,12.0239 15.8676,10.9648 16.9834,10.0436 C18.3365,8.9236 19.8982,8.7346 21.5425,9.4003 C21.924,9.555 22.3062,9.7062 22.6877,9.8602 C23.4311,10.1598 24.1794,10.4125 25.0096,10.1248 C25.3211,10.9648 25.6242,11.7831 25.928,12.6007 C26.516,14.1817667 27.1033,15.7633 27.6899,17.3453 C27.7235,17.437 27.706,17.5476 27.7123,17.6498 C27.6241,17.6029 27.5163,17.5749 27.4512,17.507 Z M31.9025,17.8269 C31.2277,18.0793667 30.5524333,18.3304333 29.8767,18.5801 C29.3762,18.7635 29.0857,18.6375 28.9037,18.1475 C27.7739,15.1090333 26.6462,12.0698667 25.5206,9.03 C25.3435,8.5526 25.4786,8.26 25.9518,8.0815 C26.6518,7.8155 27.3595,7.5558 28.0644,7.2961 C28.1442918,7.26843358 28.2256083,7.24506677 28.308,7.2261 C28.6776,7.2184 28.868,7.3661 29.008,7.7392 C29.5549333,9.20453333 30.1002333,10.6705667 30.6439,12.1373 C31.2216333,13.6913 31.7986667,15.2455333 32.375,16.8 C32.5794,17.3502 32.4555,17.6197 31.9025,17.8269 Z" id="Shape" fill="#CC9964" fill-rule="nonzero"></path>
            </g>
        </g>
    </g>
</svg>