<?xml version="1.0" encoding="UTF-8"?>
<svg width="40px" height="40px" viewBox="0 0 40 40" version="1.1" xmlns="http://www.w3.org/2000/svg" xmlns:xlink="http://www.w3.org/1999/xlink">
    <title>Group 12</title>
    <g id="FICHA-TÉCNICA" stroke="none" stroke-width="1" fill="none" fill-rule="evenodd">
        <g id="Desktop-HD-Copy" transform="translate(-842.000000, -1374.000000)">
            <g id="Group-12" transform="translate(842.000000, 1374.000000)">
                <rect id="Rectangle-Copy-19" x="0" y="0" width="40" height="40"></rect>
                <g id="3320987" transform="translate(5.000000, 5.000000)" fill="#CC9964" fill-rule="nonzero">
                    <path d="M24.4455981,28.993261 L21.6193237,28.993261 L21.6193237,6.69096501 C21.6193237,5.96179916 21.0261529,5.3686283 20.296987,5.3686283 L4.81154253,5.3686283 C4.08237668,5.3686283 3.48920581,5.96179916 3.48920581,6.69096501 L3.48920581,28.993261 L1.8512714,28.993261 C1.3165772,28.993261 0.881557811,28.5582416 0.881557811,28.0235474 L0.881557811,8.64102966 C0.881557811,8.39760216 0.684206402,8.20025075 0.440778905,8.20025075 C0.197351409,8.20025075 0,8.39760216 0,8.64102966 L0,28.0235474 C0,29.0443326 0.830486228,29.8748188 1.8512714,29.8748188 L24.4455981,29.8748188 C24.6890256,29.8748188 24.886377,29.6774674 24.886377,29.4340399 C24.886377,29.1906124 24.6890256,28.993261 24.4455981,28.993261 Z M20.7377659,6.69096501 L20.7377659,28.993261 L12.9947498,28.993261 L12.9947498,6.25018611 L20.296987,6.25018611 C20.5400031,6.25018611 20.7377659,6.44789014 20.7377659,6.69096501 Z M4.37076362,6.69096501 C4.37076362,6.44789014 4.56846766,6.25018611 4.81154253,6.25018611 L12.113192,6.25018611 L12.113192,28.993261 L4.37076362,28.993261 L4.37076362,6.69096501 Z" id="Shape"></path>
                    <path d="M28.1487286,0.00764016769 L1.8512714,0.00764016769 C0.830486228,0.00764016769 0,0.838126396 0,1.85891157 L0,6.58406143 C0,6.82748893 0.197351409,7.02484034 0.440778905,7.02484034 C0.684206402,7.02484034 0.881557811,6.82748893 0.881557811,6.58406143 L0.881557811,1.85891157 C0.881557811,1.32421737 1.3165772,0.889197978 1.8512714,0.889197978 L28.1487286,0.889197978 C28.6834228,0.889197978 29.1184422,1.32421737 29.1184422,1.85891157 L29.1184422,28.0235474 C29.1184422,28.5582416 28.6834228,28.993261 28.1487286,28.993261 L26.5025663,28.993261 C26.2591388,28.993261 26.0617874,29.1906124 26.0617874,29.4340399 C26.0617874,29.6774674 26.2591388,29.8748188 26.5025663,29.8748188 L28.1487286,29.8748188 C29.1695138,29.8748188 30,29.0443326 30,28.0235474 L30,1.85891157 C30,0.838126396 29.1695138,0.00764016769 28.1487286,0.00764016769 Z" id="Path"></path>
                    <path d="M17.9623869,4.62947146 C18.3674921,4.62947146 18.6970184,4.29994515 18.6970184,3.89483995 L18.6970184,2.32178819 C18.6970184,1.91668299 18.3674921,1.58715668 17.9623869,1.58715668 L7.14614269,1.58715668 C6.7410375,1.58715668 6.41151119,1.91668299 6.41151119,2.32178819 L6.41151119,3.89483995 C6.41151119,4.29994515 6.7410375,4.62947146 7.14614269,4.62947146 L17.9623869,4.62947146 Z M7.293069,2.46871449 L17.8154606,2.46871449 L17.8154606,3.74791365 L7.293069,3.74791365 L7.293069,2.46871449 Z" id="Shape"></path>
                    <path d="M24.1133096,15.0467813 L26.8352075,15.0467813 C27.0678212,15.0467813 27.2845669,14.9216589 27.400815,14.7201936 C27.5171218,14.518787 27.5171218,14.2684833 27.400815,14.0670768 L26.039866,11.7098499 C25.9235591,11.5084434 25.7068135,11.3832622 25.4742585,11.3832622 C25.2417036,11.3832622 25.0248991,11.5083846 24.908651,11.7098499 L23.5477021,14.0670768 C23.4313952,14.2684833 23.4313952,14.518787 23.5477021,14.7201936 C23.6639502,14.9216589 23.8806958,15.0467813 24.1133096,15.0467813 L24.1133096,15.0467813 Z M25.4742585,12.4933198 L26.4395643,14.1652235 L24.5089527,14.1652235 L25.4742585,12.4933198 Z" id="Shape"></path>
                    <path d="M27.400815,17.507503 C27.2845081,17.3060377 27.0677624,17.1809153 26.8352075,17.1809153 L24.1133096,17.1809153 C23.8806958,17.1809153 23.6639502,17.3060377 23.5477021,17.507503 C23.4313952,17.7089096 23.4313952,17.9592133 23.5477021,18.1606198 L24.908651,20.5178466 C25.0249579,20.7192532 25.2417036,20.8444344 25.4742585,20.8444344 C25.7068135,20.8444344 25.9236179,20.719312 26.039866,20.5178466 L27.400815,18.1606198 C27.5171218,17.9592133 27.5171218,17.7089096 27.400815,17.507503 L27.400815,17.507503 Z M25.4742585,19.7344356 L24.5089527,18.0625318 L26.4395643,18.0625318 L25.4742585,19.7344356 Z" id="Shape"></path>
                </g>
            </g>
        </g>
    </g>
</svg>