<?xml version="1.0" encoding="UTF-8"?>
<svg width="19px" height="18px" viewBox="0 0 19 18" version="1.1" xmlns="http://www.w3.org/2000/svg" xmlns:xlink="http://www.w3.org/1999/xlink">
    <title>Combined Shape 2</title>
    <g id="HOME" stroke="none" stroke-width="1" fill="none" fill-rule="evenodd">
        <g id="Desktop-HD" transform="translate(-383.000000, -4685.000000)" fill="#FFFFFF">
            <g id="Combined-Shape-2" transform="translate(383.402465, 4685.000000)">
                <path d="M9,0 C13.9705562,0 18,4.02944377 18,9 C18,13.5740722 14.5877476,17.3511824 10.1699207,17.924653 L10.1694023,10.9726959 L12.1292325,10.9726959 L12.3890144,8.52600104 L10.1694023,8.52600104 L10.1726941,7.30132314 C10.1726941,6.6631706 10.233319,6.32139428 11.1499346,6.32139428 L12.3752709,6.32139428 L12.3752709,3.87428791 L10.4150017,3.87428791 C8.06036887,3.87428791 7.23172795,5.06113697 7.23172795,7.0573422 L7.23172795,8.52619307 L5.7639195,8.52619307 L5.7639195,10.9731074 L7.23172795,10.9731074 L7.23172795,17.8258886 L7.56811894,17.8867209 C3.27808651,17.2008673 0,13.4832468 0,9 C0,4.02944377 4.02944377,0 9,0 Z" id="Combined-Shape"></path>
            </g>
        </g>
    </g>
</svg>