<?xml version="1.0" encoding="UTF-8"?>
<svg width="40px" height="40px" viewBox="0 0 40 40" version="1.1" xmlns="http://www.w3.org/2000/svg" xmlns:xlink="http://www.w3.org/1999/xlink">
    <title>Group 2</title>
    <g id="FICHA-TÉCNICA" stroke="none" stroke-width="1" fill="none" fill-rule="evenodd">
        <g id="Desktop-HD-Copy" transform="translate(-401.000000, -1374.000000)">
            <g id="Group-2" transform="translate(401.000000, 1374.000000)">
                <rect id="Rectangle" x="0" y="0" width="40" height="40"></rect>
                <g id="Group-6" transform="translate(3.000000, 3.000000)">
                    <rect id="Rectangle-Copy-3" x="0" y="0" width="34" height="34"></rect>
                    <g id="firepit" fill="#CC9964" fill-rule="nonzero">
                        <path d="M0.564224234,34 L33.4306917,34 C33.6084784,34 33.775928,33.916692 33.8830779,33.7748072 C33.9901723,33.6329225 34.0245181,33.4490225 33.9758338,33.2780717 L33.2102785,30.5903753 C32.9373463,29.6424206 32.3633049,28.8090075 31.574908,28.2160703 L31.4292997,28.1027515 C30.645071,27.5133156 29.6903361,27.1950892 28.7093139,27.1960896 L27.0727763,27.1960896 C28.2569277,25.126006 28.8854888,22.7848797 28.8974376,20.4000709 C28.8974376,10.8331035 23.634808,5.14154067 23.4104489,4.90412129 C23.2682863,4.75267751 23.0547089,4.69115521 22.8538027,4.7437854 C22.6528966,4.79636001 22.49684,4.9546396 22.4470998,5.15632381 C22.128651,6.44323467 21.6679285,7.00138141 21.3517584,7.24280224 C20.1334835,3.48582947 16.947162,0.703821176 13.0602532,0.00356738031 C12.8385618,-0.0213861081 12.6228725,0.086097292 12.5092758,0.278111329 C12.395679,0.470125366 12.4052936,0.71087929 12.5338402,0.893223156 C14.8004951,4.1050539 14.818057,9.34895447 13.4195501,12.0468767 C13.0761479,12.7087277 12.4930477,13.4981249 11.6629134,13.4981249 C11.0744224,13.5434191 10.4976022,13.3163924 10.0977906,12.8821795 C9.27499243,11.9188303 9.55037001,10.1214011 9.55320437,10.1055064 C9.59716475,9.83707583 9.44416485,9.57525871 9.18868337,9.48178039 C8.93320188,9.38830207 8.64737607,9.48956099 8.50771434,9.7230345 C8.37060909,9.95367364 5.09753393,15.4729518 5.09753393,20.9667763 C5.09080927,23.1755768 5.7203152,25.3395834 6.91085781,27.200091 L5.28449058,27.200091 C4.30346835,27.1991462 3.34873344,27.5173727 2.56450476,28.1067529 L2.42678818,28.2115687 C1.63572369,28.8052839 1.05995946,29.6409201 0.78686048,30.5915424 L0.0218609957,33.2775159 C-0.0269344672,33.4480777 0.00696670865,33.6316442 0.113449746,33.773529 C0.219932784,33.9154138 0.386826605,33.9991663 0.564224234,34 L0.564224234,34 Z M10.9840007,32.8666448 L11.9835852,29.863334 C12.2342316,29.113729 12.7376363,28.4744973 13.4076013,28.0551231 L15.766623,26.5818114 C16.3070411,26.2443557 16.9314896,26.0658466 17.5686094,26.0667325 L19.6732055,26.0667325 C20.6822935,26.0655687 21.6394737,26.514009 22.2843741,27.2901792 L23.1842558,28.3668472 C23.6012403,28.8673619 23.8657251,29.4770829 23.946421,30.1234839 L24.2864331,32.8655888 L10.9840007,32.8666448 Z M15.4702934,17.8285278 C17.306181,18.537896 18.7632091,19.9805855 19.4907505,21.8093594 C19.5493273,21.9580244 19.6679814,22.0750113 19.8174245,22.1315873 C19.9668675,22.1881078 20.1332612,22.1789378 20.2755905,22.1063004 C20.8276239,21.803524 21.2974053,21.3705337 21.6440865,20.8448988 C22.1988431,22.1516502 22.8907606,24.2448533 22.6221632,26.0298891 C21.8025328,25.322466 20.7559313,24.933325 19.6732611,24.9333806 L17.568665,24.9333806 C16.7189682,24.932936 15.8863331,25.1717448 15.1660164,25.6224637 L12.806439,27.0957754 C12.681227,27.1739704 12.5712982,27.2714502 12.4545337,27.3609827 C11.4941856,25.8502129 11.1221619,24.0393899 11.4090437,22.2723606 C12.2284518,22.3913482 13.6756985,22.4355864 14.6469394,21.5028595 C15.4504529,20.7309686 15.7258304,19.4973548 15.4702934,17.8285278 L15.4702934,17.8285278 Z M30.7481084,29.0133593 L30.8931609,29.1266782 C31.4847642,29.5713949 31.915587,30.1965103 32.1205502,30.9077126 L32.6804198,32.8666448 L25.4310702,32.8666448 L25.0706618,29.9834331 C25.0131965,29.5343259 24.8888737,29.0963338 24.7017503,28.6840733 C25.1679192,28.4544901 25.6803828,28.3345022 26.2000155,28.333335 L28.7103142,28.333335 C29.4453584,28.3332239 30.1605065,28.571866 30.7481084,29.0133593 L30.7481084,29.0133593 Z M8.52638777,12.1500252 C8.64476401,12.6866086 8.88740751,13.1879014 9.23470005,13.6137224 C9.84647733,14.3071404 10.7416907,14.6828877 11.6651365,14.6337032 C12.7554205,14.6337032 13.7357203,13.9009932 14.4253591,12.5704554 C15.8119728,9.89409649 15.9451321,4.96808892 14.1641533,1.42247053 C15.9326832,1.99478907 19.1139473,3.63243816 20.4540997,8.1510203 C20.5254033,8.39171865 20.746539,8.55677847 20.9975189,8.55677847 C21.1556317,8.55677847 22.4034173,8.48992091 23.2193797,6.46012968 C26.1846766,10.5018723 27.777365,15.3871985 27.7641099,20.4000709 C27.764527,22.8334528 27.0450996,25.2126485 25.6962774,27.2379936 C25.1423544,27.3002384 24.6045484,27.4636865 24.1096468,27.720224 C24.0898063,27.6952705 24.0750787,27.668094 24.0529596,27.6437518 L23.5412741,27.0300294 C24.5981016,23.6691446 22.1337084,19.2191429 22.0243355,19.0253504 C21.8980675,18.8014915 21.6370284,18.6906736 21.3882716,18.7552525 C21.1395703,18.8198871 20.9654517,19.043746 20.9640623,19.300728 C20.9423878,19.8596528 20.6840163,20.3829536 20.2534714,20.7400274 C19.1559625,18.5913598 17.1798018,17.0249587 14.8372862,16.4469715 C14.6470506,16.4087354 14.4504793,16.47048 14.316264,16.6106419 C14.1820487,16.7508038 14.1289183,16.949876 14.1754352,17.1382776 C14.5987553,18.8541217 14.4904938,20.0809552 13.8637667,20.6867303 C12.9480459,21.5701616 11.1205502,21.0641449 11.1029883,21.0595877 C10.9502107,21.0142935 10.7853732,21.0361348 10.6496573,21.119665 C10.5138859,21.2023617 10.4191293,21.3382442 10.3884515,21.4942452 C9.85331314,23.7910777 10.305477,26.2070089 11.6351256,28.1548259 C11.511692,28.3171625 11.3992623,28.4875021 11.2985036,28.6648441 L10.4246869,28.0415071 C9.7982932,27.6006806 9.07064059,27.3252475 8.3093091,27.240828 C6.95770812,25.4285045 6.22855496,23.2275957 6.23077292,20.9667207 C6.23077292,17.6324567 7.56704007,14.1905426 8.52638777,12.1500252 Z M1.87375441,30.9065455 C2.07949564,30.1936204 2.51170785,29.56706 3.10508958,29.1215652 L3.24336191,29.0173052 C3.8313528,28.5736444 4.54789027,28.3335574 5.28449058,28.3333351 L7.79478928,28.3333351 C8.50310156,28.3335018 9.19385191,28.553915 9.77128341,28.9640081 L10.836614,29.7256175 L9.78940109,32.8666448 L1.31444058,32.8666448 L1.87375441,30.9065455 Z" id="Shape_25_"></path>
                    </g>
                </g>
            </g>
        </g>
    </g>
</svg>