<?xml version="1.0" encoding="UTF-8"?>
<svg width="40px" height="40px" viewBox="0 0 40 40" version="1.1" xmlns="http://www.w3.org/2000/svg" xmlns:xlink="http://www.w3.org/1999/xlink">
    <title>Group 6 Copy 4</title>
    <g id="FICHA-TÉCNICA" stroke="none" stroke-width="1" fill="none" fill-rule="evenodd">
        <g id="Desktop-HD-Copy" transform="translate(-732.000000, -1374.000000)">
            <g id="Group-6-Copy-4" transform="translate(732.000000, 1374.000000)">
                <rect id="Rectangle-Copy-19" x="0" y="0" width="40" height="40"></rect>
                <g id="dumbbell" transform="translate(2.000000, 5.000000)" fill="#CC9964" fill-rule="nonzero">
                    <path d="M34.1218461,22.6267539 C34.3977299,22.6267539 34.6213942,22.3989693 34.6213942,22.1178517 L34.6213942,21.1336349 C34.6213942,20.1386973 33.8756688,19.3292714 32.9590978,19.3292714 L32.1506291,19.3292714 L32.1506291,18.2864969 C32.1506291,17.5568669 31.5678895,16.9632834 30.8517373,16.9632834 L26.8307077,16.9632834 C26.1144889,16.9632834 25.5318159,17.5569347 25.5318159,18.2864969 L25.5318159,21.0020668 C21.9397983,20.5751996 17.4685759,20.5745211 13.8704971,21.0020668 L13.8704971,18.2864969 C13.8704971,17.5568669 13.2877575,16.9632834 12.5716053,16.9632834 L12.2538927,16.9632834 C14.9924157,15.2644322 18.0550454,12.9607339 20.4429522,10.7171538 L22.0110006,12.9131685 C22.4328856,13.5041736 23.2474155,13.633299 23.8254926,13.2049391 L27.0772847,10.7954569 C27.0772847,10.7954569 27.0772847,10.7954569 27.0772847,10.7953891 C27.6564275,10.3662828 27.7849113,9.53704363 27.3636257,8.94692067 L26.7615036,8.10363584 L27.4153123,7.61922882 C28.1565751,7.06988589 28.2922524,5.96848588 27.717772,5.16387762 L25.0062247,1.36617819 C24.4316777,0.561705635 23.3613791,0.353869988 22.6201163,0.903145066 L21.966241,1.38768779 L21.3641856,0.544470815 C20.9429666,-0.0457199984 20.1289695,-0.17647393 19.5496935,0.252632382 L16.2979015,2.66211454 C15.7187587,3.09122085 15.5902749,3.92045998 16.0115605,4.51058294 L17.5795422,6.70659759 C14.4273268,8.51442167 10.8118637,11.192672 8.14907224,13.694503 L6.99564887,12.0792475 C6.34610306,11.1695339 5.08937312,10.9673301 4.19651406,11.6291744 L2.08469091,13.1939468 C1.19123239,13.8561303 0.993078295,15.1353068 1.64295713,16.0455631 L1.8303876,16.3080888 L1.17664559,16.7924958 C0.420596115,17.3526275 0.311428192,18.4596594 0.874185835,19.247847 L3.58573319,23.0454108 C3.88239819,23.4610142 4.3172049,23.7253041 4.78091879,23.7955326 L4.78091879,25.8296485 C4.78091879,26.8245861 5.52664427,27.6340799 6.44321522,27.6340799 L7.25168394,27.6340799 L7.25168394,28.6767865 C7.25168394,29.4064165 7.83442351,30 8.55057574,30 L12.5716053,30 C13.2878241,30 13.8704971,29.4063487 13.8704971,28.6767865 L13.8704971,25.9614881 C15.290213,26.129765 16.8861694,26.2355488 18.52542,26.2691364 C18.5288835,26.2692721 18.5322804,26.2692721 18.5356774,26.2692721 C18.8068987,26.2692721 19.0294974,26.0480693 19.0350257,25.770548 C19.040554,25.4895661 18.8214189,25.2571675 18.5455351,25.2515356 C16.8926968,25.2176088 15.2870158,25.1092466 13.8704971,24.9366948 L13.8704971,22.0265208 C17.4044339,21.5950396 21.9245454,21.5860829 25.5318159,22.0265208 L25.5318159,24.9366948 C24.1154304,25.1092466 22.5096828,25.2176088 20.8567779,25.2515356 C20.5809607,25.2571675 20.361759,25.4895661 20.3672873,25.7704801 C20.3728157,26.0480693 20.5952811,26.2692721 20.8666356,26.2692721 C20.8700326,26.2692721 20.8734961,26.2692721 20.876893,26.2691364 C22.5162102,26.2355488 24.1121667,26.129765 25.5318159,25.9614881 L25.5318159,28.6767865 C25.5318159,29.4064165 26.1145555,30 26.8307077,30 L30.8517373,30 C31.5679561,30 32.1506291,29.4063487 32.1506291,28.6767865 L32.1506291,27.6340799 L32.9590978,27.6340799 C33.8756688,27.6340799 34.6213942,26.8245861 34.6213942,25.8296485 L34.6213942,24.4929321 C34.6213942,24.2118145 34.3977299,23.9840299 34.1218461,23.9840299 C33.8459623,23.9840299 33.6222979,24.2118145 33.6222979,24.4929321 L33.6222979,25.8296485 C33.6222979,26.2559728 33.3186393,26.6162077 32.9591644,26.6162077 L32.1506957,26.6162077 L32.1506957,20.3472114 L32.9591644,20.3472114 C33.3185727,20.3472114 33.6222979,20.7073785 33.6222979,21.1337028 L33.6222979,22.1179196 C33.6222313,22.3989693 33.8459623,22.6267539 34.1218461,22.6267539 Z M23.2077847,1.72627737 C23.4983885,1.51104568 23.9521114,1.62022215 24.1981556,1.96498641 L26.9097029,5.76268584 C27.1558803,6.10738225 27.1182476,6.58072912 26.8275772,6.79609652 L26.1737686,7.28050354 C25.7690014,6.71338296 22.9654039,2.78689735 22.5539761,2.21068438 L23.2077847,1.72627737 Z M16.819563,3.91197827 C16.7240494,3.77810308 16.7542887,3.58275249 16.8856365,3.48538255 L20.1374286,1.07583254 C20.2693759,0.978191174 20.4608693,1.00974311 20.5561165,1.14321118 C20.7583336,1.42643221 25.418252,7.95286509 25.659567,8.29091184 C25.6597002,8.29104755 25.6597668,8.29118325 25.6599001,8.29131896 L26.5555566,9.54566104 C26.6511368,9.67953623 26.6208975,9.87488681 26.489483,9.97225676 L23.2376244,12.3818068 C23.1056105,12.479516 22.9157822,12.4500675 22.819003,12.3144281 C22.6219146,12.0384674 17.0574145,4.24507171 16.819563,3.91197827 Z M18.1710738,7.53522604 L19.8514872,9.8886611 C17.2524381,12.3460479 13.6068023,15.0626356 10.4208174,16.8761593 L8.74067046,14.5230636 C11.3327259,12.0721228 14.9805597,9.35126041 18.1710738,7.53522604 Z M4.78091879,21.1336349 L4.78091879,22.749094 C4.63231987,22.6927076 4.49497743,22.5883488 4.39386889,22.4466704 L1.68232153,18.6490388 C1.42488772,18.2886004 1.48243566,17.8246173 1.76444724,17.6156281 L2.41818926,17.1312211 C2.4974509,17.2422975 3.11802291,18.1113667 4.86717411,20.5612218 C4.80762797,20.7539939 4.78091879,20.9529407 4.78091879,21.1336349 Z M7.25168394,26.6161398 L6.44321522,26.6161398 C6.08380698,26.6161398 5.7800817,26.2559728 5.7800817,25.8295806 C5.7800817,25.3698045 5.7800817,21.6128851 5.7800817,21.1335671 C5.7800817,20.9557906 5.83769625,20.7638327 5.95179305,20.6130619 C6.08767015,20.433182 6.27143726,20.3470757 6.44321522,20.3470757 L7.25161734,20.3470757 L7.25161734,26.6161398 L7.25168394,26.6161398 Z M7.25168394,18.2864291 L7.25168394,19.3292035 L6.44321522,19.3292035 C6.40265191,19.3292035 6.36248824,19.331307 6.32259099,19.3344961 C6.31553071,19.3350389 6.30847043,19.3355818 6.30141015,19.3362603 C5.99208993,19.3647588 5.70674803,19.4854704 5.46876329,19.6730857 L2.45102622,15.4466871 C2.12518762,14.9904393 2.22449779,14.349019 2.67242596,14.0170791 L4.78424911,12.4523067 C5.2301791,12.121656 5.86300669,12.2232329 6.18757978,12.67792 C6.55131744,13.1872971 8.85803097,16.4180117 9.24727889,16.9631477 L8.55050913,16.9631477 C7.83442351,16.9631477 7.25168394,17.556799 7.25168394,18.2864291 Z M12.8714008,28.6767186 C12.8714008,28.8422136 12.734125,28.9820599 12.5716719,28.9820599 L8.55064235,28.9820599 C8.38818929,28.9820599 8.25091346,28.8422136 8.25091346,28.6767186 C8.25091346,28.1977399 8.25091346,18.5987593 8.25091346,18.2864969 C8.25091346,18.1210019 8.38818929,17.9811556 8.55064235,17.9811556 C9.56725613,17.9811556 10.1285484,17.9811556 10.4207508,17.9811556 C10.6313603,17.9811556 10.7022295,17.9811556 10.702829,17.9811556 C10.9948981,17.9811556 11.5558574,17.9811556 12.5716719,17.9811556 C12.734125,17.9811556 12.8714008,18.1210019 12.8714008,18.2864969 C12.8714008,18.9162464 12.8714008,28.289478 12.8714008,28.6767186 Z M31.1515328,28.6767186 C31.1515328,28.8422136 31.0142569,28.9820599 30.8518039,28.9820599 L26.8307743,28.9820599 C26.6683213,28.9820599 26.5310454,28.8422136 26.5310454,28.6767186 L26.5310454,18.2864969 C26.5310454,18.1210019 26.6683213,17.9811556 26.8307743,17.9811556 L30.8518039,17.9811556 C31.0142569,17.9811556 31.1515328,18.1210019 31.1515328,18.2864969 C31.1515328,18.9133287 31.1515328,28.3404361 31.1515328,28.6767186 Z" id="Shape"></path>
                </g>
            </g>
        </g>
    </g>
</svg>