<?xml version="1.0" encoding="UTF-8"?>
<svg width="54px" height="15px" viewBox="0 0 54 15" version="1.1" xmlns="http://www.w3.org/2000/svg" xmlns:xlink="http://www.w3.org/1999/xlink">
    <title>Combined-Shape</title>
    <g id="HOME" stroke="none" stroke-width="1" fill="none" fill-rule="evenodd">
        <g id="Desktop-HD" transform="translate(-1316.000000, -4721.000000)" fill="#EEEEEE" fill-rule="nonzero">
            <path d="M1342.63519,4724.10285 C1344.76249,4724.10285 1346.78431,4725.75015 1346.78431,4728.77455 L1346.78431,4728.77455 L1346.78431,4728.80941 C1346.78431,4731.8251 1344.79766,4733.4724 1342.63519,4733.4724 C1341.25509,4733.4724 1340.4112,4732.84486 1339.79587,4732.12144 L1339.79587,4732.12144 L1339.79587,4736 L1337.21146,4736 L1337.21146,4724.26845 L1339.79587,4724.26845 L1339.79587,4725.56711 C1340.42878,4724.73039 1341.29025,4724.10285 1342.63519,4724.10285 Z M1320.04363,4724.10285 C1320.74687,4724.10285 1321.31825,4724.23359 1321.77535,4724.48635 C1322.22367,4724.74782 1322.62803,4725.06159 1322.97965,4725.44509 L1322.97965,4724.26845 L1325.55527,4724.26845 L1325.55527,4731.24114 C1325.55527,4732.84486 1325.16848,4734.0215 1324.40371,4734.7885 C1323.97298,4735.21557 1323.43676,4735.52063 1322.78626,4735.71238 C1322.11818,4735.90413 1321.35341,4736 1320.47436,4736 C1319.72717,4736 1319.01514,4735.92156 1318.33827,4735.75596 C1317.6614,4735.59035 1317.03728,4735.36374 1316.45711,4735.05869 L1317.33615,4733.1412 C1317.81084,4733.40267 1318.28553,4733.60314 1318.76901,4733.74259 C1319.25248,4733.89076 1319.79749,4733.96049 1320.40404,4733.96049 C1321.28309,4733.96049 1321.93358,4733.75131 1322.36432,4733.34166 C1322.78626,4732.9233 1322.99723,4732.31319 1322.99723,4731.51133 L1322.99723,4731.07554 C1322.61045,4731.53748 1322.1973,4731.89483 1321.74019,4732.14759 C1321.29188,4732.40906 1320.72049,4732.53109 1320.02605,4732.53109 C1319.49862,4732.53109 1318.98877,4732.43521 1318.4965,4732.25218 C1318.01302,4732.06915 1317.58229,4731.79895 1317.2043,4731.4416 C1316.82631,4731.08425 1316.53622,4730.63974 1316.31646,4730.12551 C1316.11428,4729.60256 1316,4729.00988 1316,4728.33876 L1316,4728.30389 C1316,4727.63277 1316.11428,4727.03138 1316.34283,4726.51714 C1316.57138,4725.99419 1316.87026,4725.5584 1317.23946,4725.20105 C1317.60866,4724.8437 1318.03939,4724.5735 1318.53166,4724.38175 C1319.01514,4724.19872 1319.5162,4724.10285 1320.04363,4724.10285 Z M1355.92642,4724.10285 C1358.96793,4724.10285 1360.35683,4726.4387 1360.36562,4729.00988 C1360.36562,4729.21034 1360.34804,4729.44567 1360.33046,4729.681 L1360.33046,4729.681 L1353.99251,4729.681 C1354.24744,4730.84021 1355.06495,4731.45032 1356.21651,4731.45032 C1357.07797,4731.45032 1357.71089,4731.18013 1358.42292,4730.52644 L1358.42292,4730.52644 L1359.89972,4731.8251 C1359.05584,4732.87101 1357.83396,4733.50726 1356.18134,4733.50726 C1353.4475,4733.50726 1351.42569,4731.59849 1351.42569,4728.83556 L1351.42569,4728.83556 L1351.42569,4728.8007 C1351.42569,4726.22952 1353.27169,4724.10285 1355.92642,4724.10285 Z M1331.40973,4724.10285 C1334.23148,4724.10285 1336.32362,4726.17722 1336.32362,4728.77455 L1336.32362,4728.77455 L1336.32362,4728.80941 C1336.32362,4731.39802 1334.2139,4733.50726 1331.37457,4733.50726 C1330.35488,4733.50726 1329.42308,4733.22836 1328.65831,4732.7577 L1328.65831,4732.7577 L1330.35488,4731.05811 C1330.66254,4731.21499 1331.02295,4731.30215 1331.41853,4731.30215 C1332.89533,4731.30215 1333.78317,4730.1778 1333.78317,4728.84428 L1333.78317,4728.84428 L1333.78317,4728.80941 C1333.78317,4727.47589 1332.80742,4726.31668 1331.38336,4726.31668 C1331.01416,4726.31668 1330.68891,4726.3864 1330.39883,4726.50843 L1330.39883,4726.50843 L1328.73742,4724.82626 C1329.49341,4724.36432 1330.40762,4724.10285 1331.40973,4724.10285 Z M1350.41478,4721 L1350.41478,4733.29808 L1347.83038,4733.29808 L1347.83038,4721 L1350.41478,4721 Z M1370,4724.59965 L1366.84421,4727.93783 L1370,4733.29808 L1367.04639,4733.29808 L1363.88182,4727.93783 L1367.04639,4724.59965 L1370,4724.59965 Z M1363.88182,4721 L1363.88182,4733.29808 L1361.3062,4733.29808 L1361.3062,4721 L1363.88182,4721 Z M1328.5792,4725.89831 L1331.39215,4728.7484 L1328.5792,4731.59849 L1326.03874,4731.59849 L1328.8517,4728.7484 L1326.03874,4725.89831 L1328.5792,4725.89831 Z M1341.97591,4726.2731 C1340.77161,4726.2731 1339.76949,4727.26671 1339.76949,4728.76583 L1339.76949,4728.76583 L1339.76949,4728.8007 C1339.76949,4730.29983 1340.77161,4731.29343 1341.97591,4731.29343 C1343.18021,4731.29343 1344.1999,4730.31726 1344.1999,4728.8007 L1344.1999,4728.8007 L1344.1999,4728.76583 C1344.1999,4727.26671 1343.18021,4726.2731 1341.97591,4726.2731 Z M1320.78203,4726.23823 C1320.46557,4726.23823 1320.17548,4726.29053 1319.91177,4726.3864 C1319.64805,4726.49099 1319.41071,4726.63045 1319.21732,4726.81348 C1319.02393,4726.99651 1318.8657,4727.22313 1318.75142,4727.47589 C1318.63715,4727.73736 1318.58441,4728.01627 1318.58441,4728.31261 L1318.58441,4728.34747 C1318.58441,4728.97501 1318.79538,4729.48053 1319.20853,4729.86403 C1319.62168,4730.2301 1320.14911,4730.42185 1320.78203,4730.42185 C1321.09849,4730.42185 1321.38857,4730.36955 1321.66108,4730.27368 C1321.93358,4730.16909 1322.17093,4730.02963 1322.36432,4729.8466 C1322.55771,4729.66357 1322.71594,4729.43696 1322.83021,4729.1842 C1322.94449,4728.92272 1322.99723,4728.64381 1322.99723,4728.34747 L1322.99723,4728.31261 C1322.99723,4728.00755 1322.94449,4727.72865 1322.83021,4727.47589 C1322.71594,4727.21441 1322.55771,4726.99651 1322.36432,4726.81348 C1322.17093,4726.63045 1321.93358,4726.48228 1321.66108,4726.3864 C1321.38857,4726.28181 1321.09849,4726.23823 1320.78203,4726.23823 Z M1355.91763,4726.15979 C1354.84519,4726.15979 1354.15074,4726.91807 1353.94856,4728.07728 L1353.94856,4728.07728 L1357.83396,4728.07728 C1357.68452,4726.9355 1357.00765,4726.15979 1355.91763,4726.15979 Z" id="Combined-Shape"></path>
        </g>
    </g>
</svg>