<?xml version="1.0" encoding="UTF-8"?>
<svg width="112px" height="33px" viewBox="0 0 112 33" version="1.1" xmlns="http://www.w3.org/2000/svg" xmlns:xlink="http://www.w3.org/1999/xlink">
    <title>Group 3</title>
    <g id="CRÉDITOS" stroke="none" stroke-width="1" fill="none" fill-rule="evenodd">
        <g id="Desktop-HD" transform="translate(-907.000000, -2199.000000)">
            <g id="Group-3" transform="translate(907.000000, 2199.000000)">
                <rect id="Rectangle-Copy-5" x="0" y="0" width="112" height="33"></rect>
                <g id="hsbc-logo-2018-" transform="translate(-0.000000, 1.000000)" fill="#FFFFFF" fill-rule="nonzero">
                    <g id="Group">
                        <path d="M60.3076923,15.0176263 L45.2396328,0 L45.2396328,30 L60.3076923,15.0176263 Z M30.1715733,15.0176263 L45.2396328,0 L15.1035138,0 L30.1715733,15.0176263 Z" id="Shape"></path>
                        <path d="M0,15.0176263 L15.1035138,30 L15.1035138,0 L0,15.0176263 Z M30.1715733,15.0176263 L15.1035138,30 L45.2396328,30 L30.1715733,15.0176263 Z" id="Shape"></path>
                    </g>
                    <path d="M73.5321304,15.8989424 L68.0721747,15.8989424 L68.0721747,21.2573443 L65.3421969,21.2573443 L65.3421969,8.70740306 L68.0721747,8.70740306 L68.0721747,13.8542891 L73.5321304,13.8542891 L73.5321304,8.70740306 L76.2621083,8.70740306 L76.2621083,21.2573443 L73.5321304,21.2573443 L73.5321304,15.8989424 Z M82.8566002,21.5041128 C80.1266223,21.5041128 77.8930041,20.4112808 77.8575499,17.4148061 L80.5875277,17.4148061 C80.622982,18.7544066 81.4029756,19.5652174 82.8920544,19.5652174 C83.9911364,19.5652174 85.2674897,19.0011751 85.2674897,17.7673325 C85.2674897,16.7802585 84.4165875,16.4982374 82.9984172,16.0752056 L82.0766065,15.8284371 C80.0911681,15.2643948 78.1057297,14.4888367 78.1057297,12.2326675 C78.1057297,9.44770858 80.7293447,8.49588719 83.10478,8.49588719 C85.5511238,8.49588719 87.6783792,9.34195065 87.7138335,12.1269095 L84.9838557,12.1269095 C84.8774929,10.9988249 84.203862,10.3290247 82.9275087,10.3290247 C81.8993352,10.3290247 80.906616,10.8578143 80.906616,11.9858989 C80.906616,12.9024677 81.7575182,13.1844888 83.5302311,13.7485311 L84.5938588,14.0658049 C86.7565685,14.7356052 88.1392846,15.4759107 88.1392846,17.5910693 C88.1038303,20.4112808 85.3383982,21.5041128 82.8566002,21.5041128 L82.8566002,21.5041128 Z M89.6638177,8.7426557 L94.0601456,8.7426557 C94.8755935,8.70740306 95.7264957,8.7426557 96.5419437,8.88366627 C98.0664767,9.23619271 99.2364672,10.2232667 99.2364672,11.9153937 C99.2364672,13.5370153 98.2082938,14.3478261 96.7192149,14.7356052 C98.4210193,15.052879 99.6973726,15.8989424 99.6973726,17.7673325 C99.6973726,20.6227967 96.861032,21.2573443 94.662868,21.2573443 L89.6992719,21.2573443 L89.6638177,8.7426557 Z M94.0601456,13.960047 C95.2655904,13.960047 96.5064894,13.7132785 96.5064894,12.2679201 C96.5064894,10.9635723 95.3719531,10.6110458 94.2374169,10.6110458 L92.322887,10.6110458 L92.322887,13.960047 L94.0601456,13.960047 Z M94.3083254,19.3889542 C95.5846787,19.3889542 96.8255777,19.106933 96.8255777,17.5558167 C96.8255777,16.0047004 95.76195,15.7226792 94.4501425,15.7226792 L92.2874327,15.7226792 L92.2874327,19.3889542 L94.3083254,19.3889542 Z M106.788224,21.5041128 C102.710984,21.5041128 100.902817,18.9306698 100.902817,15.0881316 C100.902817,11.2455934 102.92371,8.46063455 106.930041,8.46063455 C109.447293,8.46063455 111.893637,9.58871915 111.964546,12.4089307 L109.128205,12.4089307 C108.986388,11.1398355 108.135486,10.5052879 106.930041,10.5052879 C104.448243,10.5052879 103.703704,13.1492362 103.703704,15.1586369 C103.703704,17.1680376 104.448243,19.4947121 106.823678,19.4947121 C108.064577,19.4947121 108.986388,18.8249119 109.163659,17.5558167 L112,17.5558167 C111.716366,20.4465335 109.411839,21.5041128 106.788224,21.5041128 Z" id="Shape"></path>
                </g>
            </g>
        </g>
    </g>
</svg>