<?xml version="1.0" encoding="UTF-8"?>
<svg width="19px" height="18px" viewBox="0 0 19 18" version="1.1" xmlns="http://www.w3.org/2000/svg" xmlns:xlink="http://www.w3.org/1999/xlink">
    <title>Shape</title>
    <g id="HOME" stroke="none" stroke-width="1" fill="none" fill-rule="evenodd">
        <g id="Desktop-HD" transform="translate(-335.000000, -4685.000000)" fill="#FFFFFF" fill-rule="nonzero">
            <path d="M341.403677,4694 C341.403677,4692.34321 342.746407,4690.99976 344.403192,4690.99976 C346.059978,4690.99976 347.403435,4692.34321 347.403435,4694 C347.403435,4695.65679 346.059978,4697.00024 344.403192,4697.00024 C342.746407,4697.00024 341.403677,4695.65679 341.403677,4694 M339.781787,4694 C339.781787,4696.55242 341.850769,4698.62141 344.403192,4698.62141 C346.955616,4698.62141 349.024598,4696.55242 349.024598,4694 C349.024598,4691.44758 346.955616,4689.37859 344.403192,4689.37859 C341.850769,4689.37859 339.781787,4691.44758 339.781787,4694 M348.127506,4689.1954 C348.127506,4689.79152 348.610947,4690.27569 349.207797,4690.27569 C349.803919,4690.27569 350.288087,4689.79152 350.288087,4689.1954 C350.288087,4688.59927 349.804646,4688.11583 349.207797,4688.11583 C348.610947,4688.11583 348.127506,4688.59927 348.127506,4689.1954 M340.766844,4701.32577 C339.88938,4701.28578 339.412482,4701.13966 339.095519,4701.01607 C338.675325,4700.8525 338.37581,4700.65767 338.060301,4700.34289 C337.745519,4700.02811 337.549961,4699.72859 337.387118,4699.3084 C337.263532,4698.99144 337.117409,4698.51454 337.077425,4697.63708 C337.033806,4696.68837 337.025083,4696.40339 337.025083,4694 C337.025083,4691.59661 337.034533,4691.31236 337.077425,4690.36292 C337.117409,4689.48546 337.264259,4689.00929 337.387118,4688.6916 C337.550688,4688.27141 337.745519,4687.97189 338.060301,4687.65638 C338.375083,4687.3416 338.674598,4687.14604 339.095519,4686.9832 C339.412482,4686.85961 339.88938,4686.71349 340.766844,4686.67351 C341.715551,4686.62989 342.000527,4686.62116 344.403192,4686.62116 C346.806585,4686.62116 347.090834,4686.63061 348.040268,4686.67351 C348.917732,4686.71349 349.393903,4686.86034 349.711593,4686.9832 C350.131787,4687.14604 350.431302,4687.3416 350.746811,4687.65638 C351.061593,4687.97116 351.256423,4688.27141 351.419994,4688.6916 C351.54358,4689.00856 351.689703,4689.48546 351.729687,4690.36292 C351.773306,4691.31236 351.782029,4691.59661 351.782029,4694 C351.782029,4696.40267 351.773306,4696.68764 351.729687,4697.63708 C351.689703,4698.51454 351.542853,4698.99144 351.419994,4699.3084 C351.256423,4699.72859 351.061593,4700.02811 350.746811,4700.34289 C350.432029,4700.65767 350.131787,4700.8525 349.711593,4701.01607 C349.39463,4701.13966 348.917732,4701.28578 348.040268,4701.32577 C347.091561,4701.36939 346.806585,4701.37811 344.403192,4701.37811 C342.000527,4701.37811 341.715551,4701.36939 340.766844,4701.32577 M340.692692,4685.05452 C339.734533,4685.09814 339.080252,4685.25008 338.50812,4685.47254 C337.916359,4685.70226 337.414743,4686.0105 336.913855,4686.51066 C336.413693,4687.01082 336.105454,4687.51244 335.875729,4688.10493 C335.653273,4688.67706 335.501335,4689.33134 335.457716,4690.2895 C335.41337,4691.24911 335.403192,4691.5559 335.403192,4694 C335.403192,4696.4441 335.41337,4696.75089 335.457716,4697.7105 C335.501335,4698.66866 335.653273,4699.32294 335.875729,4699.89507 C336.105454,4700.48683 336.412966,4700.98918 336.913855,4701.48934 C337.414016,4701.9895 337.915632,4702.29701 338.50812,4702.52746 C339.080979,4702.74992 339.734533,4702.90186 340.692692,4702.94548 C341.653031,4702.9891 341.959089,4703 344.403192,4703 C346.848023,4703 347.154081,4702.98982 348.113693,4702.94548 C349.071852,4702.90186 349.726133,4702.74992 350.298265,4702.52746 C350.890026,4702.29701 351.391642,4701.9895 351.89253,4701.48934 C352.392692,4700.98918 352.700204,4700.48683 352.930656,4699.89507 C353.153112,4699.32294 353.305777,4698.66866 353.348669,4697.7105 C353.392288,4696.75016 353.402465,4696.4441 353.402465,4694 C353.402465,4691.5559 353.392288,4691.24911 353.348669,4690.2895 C353.30505,4689.33134 353.153112,4688.67706 352.930656,4688.10493 C352.700204,4687.51317 352.392692,4687.01155 351.89253,4686.51066 C351.392369,4686.0105 350.890026,4685.70226 350.298992,4685.47254 C349.726133,4685.25008 349.071852,4685.09742 348.11442,4685.05452 C347.154808,4685.0109 346.848023,4685 344.403919,4685 C341.959089,4685 341.653031,4685.01018 340.692692,4685.05452" id="Shape"></path>
        </g>
    </g>
</svg>