<?xml version="1.0" encoding="UTF-8"?>
<svg width="40px" height="40px" viewBox="0 0 40 40" version="1.1" xmlns="http://www.w3.org/2000/svg" xmlns:xlink="http://www.w3.org/1999/xlink">
    <title>Group 2 Copy 2</title>
    <g id="FICHA-TÉCNICA" stroke="none" stroke-width="1" fill="none" fill-rule="evenodd">
        <g id="Desktop-HD-Copy" transform="translate(-290.000000, -1374.000000)">
            <g id="Group-2-Copy-2" transform="translate(290.000000, 1374.000000)">
                <rect id="Rectangle-Copy-23" x="0" y="0" width="40" height="40"></rect>
                <g id="005-complejo-de-juegos" transform="translate(2.999992, 6.000000)" fill="#CC9964" fill-rule="nonzero">
                    <path d="M5.99315881,9.71566265 C4.1992547,9.71566265 2.73973415,11.1533783 2.73973415,12.9204819 C2.73973415,14.6875855 4.1992547,16.1253012 5.99315881,16.1253012 C7.78706292,16.1253012 9.24658347,14.6875855 9.24658347,12.9204819 C9.24658347,11.1533783 7.78713141,9.71566265 5.99315881,9.71566265 Z M5.99315881,15.113253 C4.76576155,15.113253 3.76713141,14.1295422 3.76713141,12.9204819 C3.76713141,11.7114217 4.76576155,10.7277108 5.99315881,10.7277108 C7.22055607,10.7277108 8.21918621,11.7114217 8.21918621,12.9204819 C8.21918621,14.1295422 7.22062456,15.113253 5.99315881,15.113253 Z" id="Shape"></path>
                    <path d="M29.0068574,9.71566265 C27.2129533,9.71566265 25.7534328,11.1533783 25.7534328,12.9204819 C25.7534328,14.6875855 27.2129533,16.1253012 29.0068574,16.1253012 C30.8007615,16.1253012 32.2602821,14.6875855 32.2602821,12.9204819 C32.2602821,11.1533783 30.80083,9.71566265 29.0068574,9.71566265 Z M29.0068574,15.113253 C27.7794602,15.113253 26.78083,14.1295422 26.78083,12.9204819 C26.78083,11.7114217 27.7794602,10.7277108 29.0068574,10.7277108 C30.2342547,10.7277108 31.2328848,11.7114217 31.2328848,12.9204819 C31.2328848,14.1295422 30.2343232,15.113253 29.0068574,15.113253 Z" id="Shape"></path>
                    <path d="M34.4863095,26.9879518 L34.4520629,26.9879518 L34.4520629,8.5686747 L34.4863095,8.5686747 C34.6896657,8.5686747 34.8738437,8.45053494 34.956104,8.26735422 C35.0383643,8.08417349 35.0032273,7.87042892 34.866378,7.72226506 L29.5205561,1.92970602 L29.5205561,0.506024096 C29.5205561,0.226563855 29.2905561,0 29.0068574,0 C28.7231588,0 28.4931588,0.226563855 28.4931588,0.506024096 L28.4931588,1.92970602 L23.1473369,7.72226506 C23.0105561,7.87042892 22.9753506,8.08417349 23.0576109,8.26735422 C23.1398711,8.45053494 23.3240492,8.5686747 23.5274054,8.5686747 L23.561652,8.5686747 L23.561652,14.300106 C23.1360355,14.6157976 22.5176109,14.8898602 21.7693917,15.1071807 C21.7496657,15.1115663 21.7304876,15.1172337 21.7117205,15.1238458 C20.5376109,15.4574169 19.0544602,15.653012 17.5,15.653012 C15.9455561,15.653012 14.4624054,15.4574169 13.2882958,15.1238458 C13.2695287,15.1173012 13.2503506,15.1116337 13.2306246,15.1071807 C12.4824054,14.8897928 11.8639807,14.6157976 11.4383643,14.300106 L11.4383643,8.5686747 L11.4726109,8.5686747 C11.675967,8.5686747 11.8601451,8.45053494 11.9424054,8.26735422 C12.0246657,8.08417349 11.9895287,7.87042892 11.8526794,7.72226506 L6.50685744,1.92970602 L6.50685744,0.506024096 C6.50685744,0.226563855 6.27685744,0 5.99315881,0 C5.70946018,0 5.47946018,0.226563855 5.47946018,0.506024096 L5.47946018,1.92970602 L0.13363826,7.72226506 C-0.00314256184,7.87042892 -0.0383480413,8.08417349 0.0439122327,8.26735422 C0.126172507,8.45053494 0.310350589,8.5686747 0.513706753,8.5686747 L0.547953329,8.5686747 L0.547953329,26.9879518 L0.513706753,26.9879518 C0.230008123,26.9879518 0,27.2145157 0,27.4939759 C0,27.7734361 0.230008123,28 0.513706753,28 L1.60959716,28 C1.89329579,28 2.12329579,27.7734361 2.12329579,27.4939759 C2.12329579,27.2145157 1.89329579,26.9879518 1.60959716,26.9879518 L1.57535059,26.9879518 L1.57535059,18.2843373 L3.83562456,18.2843373 L3.83562456,27.4939759 C3.83562456,27.7734361 4.06562456,28 4.34932319,28 C4.63302182,28 4.86302182,27.7734361 4.86302182,27.4939759 L4.86302182,26.9204819 L7.12329579,26.9204819 L7.12329579,27.4939759 C7.12329579,27.7734361 7.35329579,28 7.63699442,28 C7.92069305,28 8.15069305,27.7734361 8.15069305,27.4939759 L8.15069305,18.2843373 L10.410967,18.2843373 L10.410967,26.9879518 L10.3767205,26.9879518 C10.0930218,26.9879518 9.86302182,27.2145157 9.86302182,27.4939759 C9.86302182,27.7734361 10.0930218,28 10.3767205,28 L11.4726109,28 C11.7563095,28 11.9863095,27.7734361 11.9863095,27.4939759 C11.9863095,27.2145157 11.7563095,26.9879518 11.4726109,26.9879518 L11.4383643,26.9879518 L11.4383643,18.7260627 C11.861515,18.9462843 12.3598026,19.1408675 12.9164465,19.3050892 C12.9517205,19.3197976 12.9891862,19.330188 13.0279533,19.3368675 C13.6839122,19.5230843 14.416378,19.6679422 15.1980903,19.7646265 C15.2263095,19.7706988 15.2554876,19.7741398 15.2852136,19.7754217 C15.991515,19.8590843 16.7363095,19.9036819 17.4999396,19.9036819 C18.2635698,19.9036819 19.0084328,19.8590843 19.7146657,19.7754217 C19.7444602,19.7741398 19.7735698,19.7706988 19.8017889,19.7646265 C20.5835013,19.6680096 21.315967,19.5231518 21.9719259,19.3368675 C22.0106931,19.3302554 22.0481588,19.3197976 22.0834328,19.3050892 C22.6400766,19.1408675 23.1383643,18.9462843 23.561515,18.7260627 L23.561515,26.9879518 L23.5272684,26.9879518 C23.2435698,26.9879518 23.0135698,27.2145157 23.0135698,27.4939759 C23.0135698,27.7734361 23.2435698,28 23.5272684,28 L24.6231588,28 C24.9068574,28 25.1368574,27.7734361 25.1368574,27.4939759 C25.1368574,27.2145157 24.9068574,26.9879518 24.6231588,26.9879518 L24.5890492,26.9879518 L24.5890492,18.2843373 L26.8493232,18.2843373 L26.8493232,27.4939759 C26.8493232,27.7734361 27.0793232,28 27.3630218,28 C27.6467205,28 27.8767205,27.7734361 27.8767205,27.4939759 L27.8767205,26.9204819 L30.1369944,26.9204819 L30.1369944,27.4939759 C30.1369944,27.7734361 30.3669944,28 30.6506931,28 C30.9343917,28 31.1643917,27.7734361 31.1643917,27.4939759 L31.1643917,18.2843373 L33.4246657,18.2843373 L33.4246657,26.9879518 L33.3904191,26.9879518 C33.1067205,26.9879518 32.8767205,27.2145157 32.8767205,27.4939759 C32.8767205,27.7734361 33.1067205,28 33.3904191,28 L34.4863095,28 C34.7700081,28 35.0000332,27.7734361 35.0000332,27.4939759 C35.0000332,27.2145157 34.7700081,26.9879518 34.4863095,26.9879518 Z M29.0068574,2.87759036 L33.3250766,7.55662651 L24.6886383,7.55662651 L29.0068574,2.87759036 Z M23.561652,17.5386602 C23.2617205,17.7611084 22.8667205,17.9631133 22.3972684,18.1389398 L22.3972684,15.9681639 C22.8284328,15.8262747 23.2198026,15.665359 23.561652,15.487441 L23.561652,17.5386602 Z M15.8219259,16.5921928 C16.2017205,16.6255904 16.59083,16.6477205 16.9863095,16.6581108 L16.9863095,18.8844145 C16.5902821,18.8734169 16.200967,18.8496 15.8219259,18.8145157 L15.8219259,16.5921928 Z M14.7945287,18.6872675 C14.3851451,18.6229687 13.9952136,18.5444337 13.6301451,18.4534169 L13.6301451,16.2529542 C14.0004876,16.3383036 14.3898711,16.4116434 14.7945287,16.4716241 L14.7945287,18.6872675 Z M18.0137068,16.6581108 C18.4091862,16.6477205 18.7982958,16.6255904 19.1780903,16.5921928 L19.1780903,18.8145157 C18.7990492,18.8496675 18.4097342,18.8734843 18.0137068,18.8844145 L18.0137068,16.6581108 Z M20.2054876,16.4716241 C20.6101451,16.4116434 20.9995287,16.3383036 21.3698711,16.2529542 L21.3698711,18.4534169 C21.0048026,18.5444337 20.6148711,18.6230361 20.2054876,18.6872675 L20.2054876,16.4716241 Z M12.6027478,15.9682313 L12.6027478,18.1390072 C12.1332958,17.9631133 11.7382958,17.7611759 11.4383643,17.5387277 L11.4383643,15.4875759 C11.7802136,15.6654265 12.1715835,15.8262747 12.6027478,15.9682313 Z M5.99315881,2.87759036 L10.311378,7.55662651 L1.67493963,7.55662651 L5.99315881,2.87759036 Z M4.86302182,22.6024096 L7.12329579,22.6024096 L7.12329579,23.7493976 L4.86302182,23.7493976 L4.86302182,22.6024096 Z M7.12329579,21.5903614 L4.86302182,21.5903614 L4.86302182,20.4433735 L7.12329579,20.4433735 L7.12329579,21.5903614 Z M4.86302182,25.9084337 L4.86302182,24.7614458 L7.12329579,24.7614458 L7.12329579,25.9084337 L4.86302182,25.9084337 Z M7.12329579,19.4313253 L4.86302182,19.4313253 L4.86302182,18.2843373 L7.12329579,18.2843373 L7.12329579,19.4313253 Z M1.57535059,17.2722892 L1.57535059,8.5686747 L10.410967,8.5686747 L10.410967,17.2722892 L1.57535059,17.2722892 Z M27.8767205,22.6024096 L30.1369944,22.6024096 L30.1369944,23.7493976 L27.8767205,23.7493976 L27.8767205,22.6024096 Z M30.1369944,21.5903614 L27.8767205,21.5903614 L27.8767205,20.4433735 L30.1369944,20.4433735 L30.1369944,21.5903614 Z M27.8767205,25.9084337 L27.8767205,24.7614458 L30.1369944,24.7614458 L30.1369944,25.9084337 L27.8767205,25.9084337 Z M30.1369944,19.4313253 L27.8767205,19.4313253 L27.8767205,18.2843373 L30.1369944,18.2843373 L30.1369944,19.4313253 Z M24.5890492,17.2722892 L24.5890492,8.5686747 L33.4246657,8.5686747 L33.4246657,17.2722892 L24.5890492,17.2722892 Z" id="Shape"></path>
                </g>
            </g>
        </g>
    </g>
</svg>