<?xml version="1.0" encoding="UTF-8"?>
<svg width="35px" height="35px" viewBox="0 0 35 35" version="1.1" xmlns="http://www.w3.org/2000/svg" xmlns:xlink="http://www.w3.org/1999/xlink">
    <title>icons-07</title>
    <g id="LANDING---VENDE-TU-PROPIEDAD" stroke="none" stroke-width="1" fill="none" fill-rule="evenodd">
        <g id="Desktop-HD" transform="translate(-511.000000, -2160.000000)">
            <g id="icons-07" transform="translate(511.000000, 2160.000000)">
                <rect id="Rectangle" x="0" y="0" width="35" height="35"></rect>
                <path d="M28.21,5.9682 C28.2006054,5.76946616 28.1215518,5.58038186 27.9867,5.4341 C27.2832,4.7166 26.5608,3.99 25.8622,3.2935 C25.3740667,2.80256667 24.8852333,2.3114 24.3957,1.82 C24.2505304,1.66116988 24.043051,1.57393134 23.828,1.5813 L23.828,1.5813 C20.2251,1.5855 16.562,1.5855 13.0193,1.5862 L8.2299,1.5862 C7.2702,1.5876 6.72,2.1301 6.72,3.0751 C6.72,10.7233 6.72,18.5381 6.72,26.9675 C6.72,27.9244 7.2534,28.4543 8.2201,28.4599 C8.7444,28.4599 9.2785,28.4599 9.7944,28.4599 L10.5196,28.4599 C10.9739,28.4599 11.2042,28.6972 11.2042,29.1634 C11.2042,29.4756 11.2042,29.7875667 11.2042,30.0993 C11.2042,31.0254 11.2042,31.9823 11.214,32.9231 C11.2271665,33.053707 11.2687377,33.1798542 11.3358,33.2927 C11.3624,33.3452 11.389,33.4005 11.41,33.4537 L11.4184,33.4754 L11.7033,33.4754 L13.7333,31.8241 L15.715,33.4754 L15.9866,33.4754 L15.9957,33.4698 C16.2211,33.3193 16.2512,33.0946 16.2505,32.8741 C16.2456,31.8661 16.2463,30.8406 16.2505,29.8494 L16.2505,29.1767 C16.249535,28.9873716 16.3248482,28.8056301 16.4594477,28.6724793 C16.5940473,28.5393285 16.7765931,28.4659863 16.9659,28.469 L19.9808,28.469 C22.2175333,28.469 24.4542667,28.469 26.691,28.469 C27.6773,28.469 28.2205,27.9363 28.2205,26.9717 C28.2212,20.7669 28.2226,13.4197 28.21,5.9682 Z M11.9903,29.2082 C12.0393,29.2012 12.0876,29.1928 12.1359,29.1844 C12.2694436,29.1586803 12.4046548,29.1425392 12.5405,29.1361 L12.5405,29.1361 C12.6286296,29.1486239 12.7105012,29.1888244 12.7743,29.2509 C13.3175,29.6996 13.9993,29.7493 14.5103,29.379 C14.8407,29.1389 15.1123,29.092 15.4434,29.2194 L15.4434,32.2231 L15.0682,31.9144 C14.7609,31.6617 14.4669,31.4202 14.1743,31.178 C13.7543,30.828 13.692,30.828 13.2643,31.1815 C12.9619,31.4279 12.6602,31.6715 12.3445,31.9333 L11.9903,32.2231 L11.9903,29.2082 Z M14.9723,28.3976 C14.6762,28.357 14.4326,28.3486 14.2072,28.6349 C14.1065379,28.7599864 13.9540501,28.8319731 13.7935,28.830232 L13.7823,28.830232 C13.5665149,28.8275423 13.362383,28.7318555 13.2223,28.5677 C13.0179,28.3241 12.9304,28.2254 12.7918,28.2254 C12.6994,28.2254 12.5818,28.2695 12.397,28.3423 C12.2045947,28.419514 11.9876716,28.4061491 11.8062,28.3059 C11.6207356,28.2016284 11.4921585,28.019306 11.4562,27.8096 C11.3638,27.2937 11.3519,27.2825 10.8192,27.1901 C10.620548,27.1567055 10.4475073,27.0356027 10.3481,26.8604 C10.2429298,26.6688056 10.2293115,26.440122 10.311,26.2374 C10.4944,25.7656 10.4902,25.7509 10.1101,25.4485 C9.92924291,25.3205742 9.82172487,25.1128272 9.82172487,24.8913 C9.82172487,24.6697728 9.92924291,24.4620258 10.1101,24.3341 C10.4895,24.0331 10.493,24.0184 10.3103,23.5452 C10.2209948,23.3432629 10.2349006,23.1105981 10.3476227,22.9207357 C10.4603448,22.7308733 10.6579544,22.6072742 10.878,22.589 C11.3428,22.5274 11.3743,22.4959 11.4415,22.029 C11.48,21.7658 11.6081,21.5635 11.8034,21.4585 C11.9987,21.3535 12.2304,21.3598 12.4656,21.4704 C12.7708,21.6146 12.9801,21.56 13.1656,21.2891 C13.3189,21.0658 13.5107,20.9475 13.7102,20.9502514 C13.9097,20.9531 14.1176,21.0959 14.2702,21.3458 C14.455,21.6454 14.5978,21.686 14.9324,21.5369 C15.1949,21.4207 15.449,21.4214 15.6471,21.5369 C15.8452,21.6524 15.9628,21.8764 15.9831,22.1606 C16.0034,22.4448 16.1385,22.5932 16.4318,22.6296 C16.751,22.6695 16.9771,22.7899 17.0842,22.9796 C17.1913,23.1693 17.1801,23.4087 17.0576,23.6915 C16.9351,23.9743 16.9932,24.1647 17.2452,24.3404 C17.4755,24.5007 17.6043,24.71 17.6071459,24.9291 C17.6099,25.1482 17.4846,25.3666 17.2529,25.5367 C16.9848,25.7334 16.9351,25.9371 17.0814,26.2367 L17.0814,26.2367 C17.1976,26.4754 17.1997,26.7134 17.0877,26.908 C16.9757,27.1026 16.7531,27.2286 16.4815,27.2489 C16.1462,27.2727 15.9957,27.4281 15.9789,27.7662 C15.9579,28.1764 15.6758,28.434 15.2481,28.4389 L15.1872,28.4277 C15.1368,28.4249 15.0556,28.4102 14.9737,28.399 L14.9723,28.3976 Z M18.0117,26.1261 C17.997,26.0659 18.0495,25.9602 18.1062,25.8916 C18.6214,25.2651 18.6249,24.5175 18.1153,23.8917 C18.0482846,23.7982924 18.0188039,23.6831181 18.0327,23.569 C18.176097,22.8299261 17.7546934,22.0977633 17.0436,21.8505 C16.9316346,21.7997735 16.8425535,21.7091952 16.7937,21.5964 C16.5067,20.8691 15.8284,20.489 15.0654,20.6262 C14.9612117,20.6396914 14.855803,20.6129011 14.7707,20.5513 C14.1218,20.0256 13.3833,20.027 12.7442,20.5513 C12.6585241,20.6114417 12.5530695,20.6364903 12.4495,20.6213 C11.724504,20.4823813 11.0041317,20.8828175 10.7394,21.5719 C10.6855857,21.6939167 10.5889766,21.7920198 10.4678,21.8477 C9.76112251,22.1114836 9.35263938,22.8514505 9.506,23.59 C9.51733112,23.6944438 9.48910854,23.7993419 9.4269,23.884 C8.9068,24.5259 8.9117,25.2637 9.4402,25.9084 C9.4906,25.97 9.5375,26.0638 9.5249,26.1184 C9.3849,26.7022 9.5403,27.2111 10.0072,27.6731 L9.9778,27.6766 C9.92728695,27.6845404 9.87631462,27.6892167 9.8252,27.6906 L9.5361,27.6906 C9.0909,27.6906 8.6317,27.6941 8.1795,27.6906 C7.7273,27.6871 7.5152,27.4694 7.5019,27.013 C7.5019,26.9703 7.5019,26.9269 7.5019,26.8842 L7.5019,3.2396 C7.5019,2.5333 7.6552,2.3807 8.365,2.3807 L23.5956,2.3807 L23.5956,2.6971 C23.5956,2.9155 23.5956,3.1339 23.5956,3.3523 C23.5956,3.8423 23.5956,4.3449 23.5956,4.8412 C23.6012,5.7813 24.1395,6.3245 25.0733,6.3322 C25.5675,6.3357 26.0708,6.3322 26.5573,6.3322 L27.2167,6.3322 L27.559,6.3322 L27.559,26.8835 C27.559,27.5079 27.3798,27.6878 26.761,27.6885 L17.4951,27.6885 C17.99,27.209 18.1517,26.7113 18.0131,26.1275 L18.0117,26.1261 Z M26.3676,5.5349 C25.8902,5.5391 25.396,5.5433 24.8976,5.523 C24.5938,5.5104 24.4076,5.3053 24.4027,4.9749 C24.3943,4.4961 24.3964,4.0208 24.3978,3.5616 C24.3978,3.4083 24.3978,3.2571 24.3978,3.1101 L26.8317,5.53 L26.3676,5.5349 Z" id="Shape" fill="#CC9964" fill-rule="nonzero"></path>
                <path d="M10.64,14.8890039 L24.36,14.8890039 C24.384947,14.8876002 24.409953,14.8876002 24.4349,14.8890039 L24.5112,14.8890039 C24.5553954,14.8891123 24.5995632,14.8867754 24.6435,14.882 C24.8913,14.8505 25.0229,14.714 25.0250253,14.4886 C25.0271,14.2632 24.8983,14.1344 24.6435,14.0952 C24.5807754,14.0879884 24.5175862,14.085648 24.4545,14.0882 L24.3901,14.0882 L10.64,14.0882 C10.192,14.0882 9.9953,14.2023 9.9834,14.4704 C9.97386001,14.5661199 10.0051203,14.6614258 10.0695,14.7329 C10.1682,14.84 10.3495,14.8890039 10.64,14.8890039 Z" id="Path" fill="#CC9964" fill-rule="nonzero"></path>
                <path d="M24.36,16.6082 L24.36,16.6082 C24.3887,16.6082 24.4188,16.6082 24.4489,16.6124 C24.479,16.6166 24.514,16.6166 24.5462,16.6166 C24.6042121,16.6202741 24.6620539,16.6071503 24.7128,16.5788 C24.8297,16.5032 25.0229,16.3415 25.0082,16.2141 C24.9935,16.0867 24.8388,15.9544 24.7149,15.855 L24.6932,15.8375 C24.6351641,15.8061351 24.5674854,15.7976441 24.5035,15.8137 C24.4776,15.8137 24.4524,15.8186 24.4286,15.8186 L10.5826,15.8186 C10.5289141,15.816282 10.4751344,15.8174511 10.4216,15.8221 C10.1738,15.8452 10.0401,15.9789 10.03506,16.2078 C10.0303,16.4248 10.1542,16.5627 10.3852,16.5963 C10.4834635,16.6077019 10.5824099,16.6121463 10.6813,16.6096 L18.69,16.6096 C20.58,16.6100667 22.47,16.6096 24.36,16.6082 Z" id="Path" fill="#CC9964" fill-rule="nonzero"></path>
                <path d="M10.3453,13.132 L10.3453,13.132 C10.3985,13.1733 10.4797,13.1663 10.5588,13.16 C10.5868,13.16 10.6141,13.1551 10.6393,13.1551 L24.3922,13.1551 C24.4209,13.1551 24.451,13.1551 24.4818,13.16 C24.5126,13.1649 24.5469,13.1656 24.5784,13.1656 C24.6272224,13.1689257 24.6759365,13.1577215 24.7184,13.1334 C24.7884,13.09 25.0117,12.936 25.0103066,12.7939 C25.0089,12.6518 24.8451,12.4873 24.7485,12.4068 C24.6869,12.3564 24.5889,12.3606 24.4944,12.3648 L24.4244,12.3648 C19.8296,12.3648 15.2348,12.3648 10.64,12.3648 C10.6183,12.3648 10.5945,12.3648 10.57,12.3648 C10.4939156,12.3500778 10.415083,12.3619398 10.3467,12.3984 C10.2032,12.5097 10.0562,12.6406 10.0575901,12.7652 C10.059,12.8898 10.2109,13.0284 10.3453,13.132 Z" id="Path" fill="#CC9964" fill-rule="nonzero"></path>
                <path d="M12.7638,8.4658 L12.7848,8.4385 L12.7848,8.4385 L12.7652,8.4672 C12.8016621,8.48902729 12.8438884,8.49927877 12.8863,8.4966 C12.9157,8.4966 12.9465,8.4966 12.9766,8.491 C13.0067,8.4854 13.0326,8.4861 13.0592,8.4861 L21.973,8.4861 L22.043,8.4861 C22.1048889,8.48842009 22.1668638,8.48654915 22.2285,8.4805 C22.477,8.449 22.6093,8.3132 22.6100029,8.0878 C22.6107,7.8624 22.4833,7.7308 22.2306,7.6916 C22.1748615,7.6849737 22.1186783,7.68286683 22.0626,7.6853 L12.9696,7.6853 C12.9045916,7.68239181 12.8394534,7.68543784 12.775,7.6944 C12.6477768,7.70781688 12.5316313,7.77284821 12.4537,7.8743 C12.4095794,7.94304483 12.3970886,8.02742082 12.4194,8.106 C12.4551,8.2537 12.6266,8.3713 12.7638,8.4658 Z" id="Path" fill="#CC9964" fill-rule="nonzero"></path>
                <path d="M22.2908,9.3646 C22.217551,9.32986837 22.1349557,9.3200356 22.0556,9.3366 C22.0248,9.3366 21.9954,9.3415 21.9667,9.3415 L13.055,9.3415 C13.0291,9.3415 13.0018,9.3415 12.9738,9.3415 C12.8849,9.3359 12.7925,9.3303 12.7316,9.3758 C12.6056,9.471 12.4712,9.6159 12.4732757,9.7391 C12.4732757,9.8931 12.6784,10.0506 12.7407,10.0954 C12.803,10.1402 12.8933,10.1332 12.9801,10.1269 C13.0088,10.1269 13.0375,10.1234 13.0641,10.1234 L22.0073,10.1234 C22.0318,10.1234 22.0591,10.1234 22.0864,10.1276 C22.1137,10.1318 22.1452,10.1325 22.1732,10.1325 C22.2184604,10.1359896 22.2635792,10.1241552 22.3013,10.0989 C22.4357,9.9946 22.5897,9.8574 22.5876212,9.73 C22.5855,9.6026 22.4,9.4409 22.2908,9.3646 Z" id="Path" fill="#CC9964" fill-rule="nonzero"></path>
                <path d="M21.7812,18.3323 C22.6618,18.3323 23.5419333,18.3323 24.4216,18.3323 L24.4874,18.3323 C24.591,18.3323 24.6974,18.3379 24.7723,18.2861 C24.8675,18.2203 25.0103,18.0726 25.0117103,17.9361 C25.0131,17.7996 24.8717,17.6519 24.7793,17.5861 C24.703,17.5308 24.5854,17.5329 24.4818,17.5343 C24.4643,17.5343 24.4461,17.5343 24.4293,17.5343 C22.1543,17.5343 19.8793,17.5343 17.6043,17.5343 C17.5812,17.5343 17.5567,17.5343 17.5343,17.5308 C17.4592905,17.5156165 17.3813352,17.5270005 17.3138,17.563 C17.1619,17.6792 17.0086,17.8143 17.0212,17.9305 C17.0359,18.0705 17.1913,18.1986 17.3362,18.3092 C17.373144,18.3337997 17.4172364,18.345377 17.4615,18.3421 C17.4902,18.3421 17.5203,18.3421 17.5497,18.3365 C17.5791,18.3309 17.6043,18.3323 17.6295,18.3323 L21.784,18.3323 L21.7812,18.3323 Z" id="Path" fill="#CC9964" fill-rule="nonzero"></path>
                <path d="M16.884,25.0852 C16.9252272,24.2434083 16.6341209,23.4191099 16.0734,22.7899 C15.5205512,22.1708452 14.739146,21.8040322 13.9097,21.7742 C13.0699074,21.7323789 12.2489648,22.0323727 11.634,22.6058 C11.0194167,23.1965055 10.6622974,24.0055566 10.64,24.8577 C10.6099,25.62 10.9137,26.404 11.473,27.0095 C12.0323,27.615 12.7911,27.9797 13.5555,28.0112461 C13.6024,28.0112461 13.65,28.0112461 13.6955,28.0112461 C14.4891212,28.0154254 15.2569094,27.729372 15.8543,27.2069 C16.4755062,26.6719814 16.8481284,25.9041923 16.884,25.0852 Z M16.1035,24.913 C16.0848711,25.561223 15.8075874,26.1750283 15.3335,26.6175 C14.9013591,27.03299 14.319085,27.2552898 13.72,27.2335 C12.4131,27.1733 11.3813,26.1072 11.4205,24.8535 C11.4604,23.5879 12.5104,22.5435 13.7305,22.5435 L13.79,22.5435 C15.0948,22.5876 16.1322,23.6481 16.1035,24.913 L16.1035,24.913 Z" id="Shape" fill="#CC9964" fill-rule="nonzero"></path>
            </g>
        </g>
    </g>
</svg>