<?xml version="1.0" encoding="UTF-8"?>
<svg width="30px" height="30px" viewBox="0 0 30 30" version="1.1" xmlns="http://www.w3.org/2000/svg" xmlns:xlink="http://www.w3.org/1999/xlink">
    <title>Group 10</title>
    <g id="HOME" stroke="none" stroke-width="1" fill="none" fill-rule="evenodd">
        <g id="Desktop-HD" transform="translate(-862.000000, -811.000000)">
            <g id="Group-3" transform="translate(862.000000, 811.000000)">
                <rect id="Rectangle" x="0" y="0" width="30" height="30"></rect>
                <g id="Group-10" transform="translate(0.000000, 2.000000)" fill="#CC9964" fill-rule="nonzero">
                    <path d="M29.9,5.8 C29.1,4 28.3,2.3 27.5,0.5 C27.4,0.2 27.2,0 26.8,0 C18.9,0 11.1,0 3.2,0 C2.8,0 2.6,0.1 2.5,0.5 C1.7,2.3 0.9,4.1 0.1,5.8 C0,5.9 0,6.1 0,6.2 C0,7.1 0,8.1 0,9 C0,9.9 0.3,10.7 1.1,11.2 C1.2,11.3 1.2,11.5 1.2,11.6 C1.2,16.5 1.2,21.4 1.2,26.3 C1.2,26.4 1.2,26.5 1.2,26.6 C1.2,26.9 1.4,27 1.6,27 C1.7,27 1.8,27 1.9,27 C6.9,27 12,27 17,27 C17.1,27 17.3,27 17.4,27 C19.9,27 22.3,27 24.8,27 C24.9,27 25,27 25.1,27 C26,27 27,27 27.9,27 C28.5,27 28.6,26.9 28.6,26.3 C28.6,21.4 28.6,16.5 28.6,11.6 C28.6,11.3 28.7,11.2 28.9,11 C29.5,10.5 29.9,9.9 29.9,9.1 C29.9,8.1 29.9,7.1 29.9,6 C30,6 30,5.9 29.9,5.8 Z M2.9,1.8 C3.2,1.1 3.5,0.9 4.3,0.9 C11.7,0.9 19,0.9 26.4,0.9 C26.7,0.9 26.8,1 26.9,1.2 C27.5,2.5 28.1,3.9 28.7,5.2 C28.7,5.3 28.8,5.4 28.8,5.5 C19.6,5.6 10.4,5.6 1.1,5.6 C1.7,4.3 2.3,3.1 2.9,1.8 Z M25,9.2 C25,10.1 24.3,10.8 23.3,10.8 C22.4,10.8 21.7,10.1 21.7,9.1 C21.7,8.3 21.7,7.6 21.7,6.8 C21.7,6.7 21.7,6.6 21.7,6.5 C22.8,6.5 23.9,6.5 24.9,6.5 C24.9,6.6 24.9,6.7 24.9,6.7 C25,7.6 25,8.4 25,9.2 Z M20.8,6.5 C20.8,7.4 20.8,8.4 20.8,9.3 C20.8,9.4 20.8,9.4 20.8,9.5 C20.6,10.3 19.9,10.9 19,10.8 C18.2,10.7 17.6,10 17.6,9.2 C17.6,8.4 17.6,7.5 17.6,6.7 C17.6,6.7 17.6,6.6 17.6,6.6 C18.6,6.5 19.7,6.5 20.8,6.5 Z M16.6,6.8 C16.6,7.6 16.6,8.3 16.6,9.1 C16.6,10 15.9,10.8 15,10.8 C14.1,10.8 13.4,10.1 13.4,9.2 C13.4,8.4 13.4,7.7 13.4,6.9 C13.4,6.8 13.4,6.7 13.4,6.6 C14.5,6.6 15.6,6.6 16.6,6.6 C16.6,6.6 16.6,6.7 16.6,6.8 Z M12.5,6.5 C12.5,7.1 12.5,7.6 12.5,8.2 C12.5,8.5 12.5,8.8 12.5,9.1 C12.5,10 11.9,10.7 11,10.7 C10.1,10.8 9.3,10.1 9.2,9.2 C9.2,9.1 9.2,9 9.2,8.9 C9.2,8.1 9.2,7.3 9.2,6.4 C10.3,6.5 11.4,6.5 12.5,6.5 Z M8.3,9.4 C8.3,10.2 7.5,10.8 6.7,10.8 C5.9,10.8 5.1,10.1 5.1,9.3 C5.1,8.4 5.1,7.5 5.1,6.5 C6.2,6.5 7.3,6.5 8.4,6.5 C8.3,7.5 8.3,8.4 8.3,9.4 Z M0.9,9.2 C0.9,8.3 0.9,7.4 0.9,6.5 C2,6.5 3.1,6.5 4.2,6.5 C4.2,6.6 4.2,6.7 4.2,6.8 C4.2,7.6 4.2,8.3 4.2,9.1 C4.2,10 3.5,10.7 2.6,10.7 C1.6,10.8 0.9,10.1 0.9,9.2 Z M24.4,26.2 C22.3,26.2 20.2,26.2 18,26.2 C18,22.5 18,18.8 18,15.1 C20.1,15.1 22.3,15.1 24.4,15.1 C24.4,18.8 24.4,22.5 24.4,26.2 Z M27.8,26.2 C27,26.2 26.1,26.2 25.3,26.2 C25.3,26.1 25.3,26 25.3,25.8 C25.3,22.1 25.3,18.5 25.3,14.8 C25.3,14.3 25.2,14.2 24.6,14.2 C22.3,14.2 20.1,14.2 17.8,14.2 C17.2,14.2 17.1,14.3 17.1,14.9 C17.1,18.5 17.1,22.2 17.1,25.8 C17.1,25.9 17.1,26.1 17.1,26.2 C12.1,26.2 7.1,26.2 2.1,26.2 C2.1,21.4 2.1,16.5 2.1,11.6 C3.1,11.7 3.9,11.4 4.6,10.5 C5.1,11.2 5.8,11.6 6.7,11.6 C7.6,11.6 8.2,11.2 8.8,10.5 C9.3,11.2 10,11.6 10.9,11.6 C11.8,11.6 12.4,11.2 13,10.5 C14.1,11.9 16.1,11.9 17.2,10.5 C18.2,11.8 20.2,12 21.4,10.5 C22.6,12 24.6,11.8 25.6,10.5 C26.2,11.3 27,11.7 28,11.6 C27.8,16.5 27.8,21.3 27.8,26.2 Z M29.1,9.1 C29.1,10.1 28.4,10.8 27.4,10.8 C26.5,10.8 25.8,10.1 25.8,9.1 C25.8,8.2 25.8,7.4 25.8,6.5 C26.9,6.5 28,6.5 29.1,6.5 C29.1,6.6 29.1,6.6 29.1,6.7 C29.1,7.5 29.1,8.3 29.1,9.1 Z" id="Shape"></path>
                    <path d="M14.8,14 C11.4,14 7.9,14 4.5,14 C4,14 3.8,14.1 3.8,14.7 C3.8,17.4 3.8,20.1 3.8,22.8 C3.8,23.4 3.9,23.5 4.5,23.5 C6.2,23.5 7.9,23.5 9.6,23.5 C11.3,23.5 13,23.5 14.8,23.5 C15.3,23.5 15.4,23.4 15.4,22.9 C15.4,20.2 15.4,17.5 15.4,14.7 C15.4,14.1 15.3,14 14.8,14 Z M14.6,22.6 C11.3,22.6 8.1,22.6 4.8,22.6 C4.8,20 4.8,17.5 4.8,14.9 C8.1,14.9 11.3,14.9 14.6,14.9 C14.6,17.5 14.6,20 14.6,22.6 Z" id="Shape"></path>
                </g>
            </g>
        </g>
    </g>
</svg>