<?xml version="1.0" encoding="UTF-8"?>
<svg width="114px" height="14px" viewBox="0 0 114 14" version="1.1" xmlns="http://www.w3.org/2000/svg" xmlns:xlink="http://www.w3.org/1999/xlink">
    <title>Combined-Shape</title>
    <g id="Page-1" stroke="none" stroke-width="1" fill="none" fill-rule="evenodd">
        <path d="M0,13.6008869 L0,0.6186253 L2.10244091,0.6186253 L2.10244091,11.4833703 L7.76048043,11.4833703 L7.76048043,13.6119734 L0,13.6008869 Z M15.8566447,13.7228381 C12.0360325,13.7228381 8.88237117,11.0842572 8.88237117,7.1108647 C8.88237117,3.1707317 12.0006974,0.4966741 15.8566447,0.4966741 C19.6750484,0.4966741 22.8287098,3.135255 22.8287098,7.1108647 C22.8287098,11.0864745 19.692716,13.7228381 15.8566447,13.7228381 Z M15.8566447,2.6075388 C13.1932584,2.6075388 10.9848121,4.3126386 10.9848121,7.1108647 C10.9848121,9.9090909 13.1932584,11.6141907 15.8566447,11.6141907 C18.520031,11.6141907 20.7152267,9.924612 20.7152267,7.1108647 C20.7152267,4.2971175 18.5509492,2.6075388 15.8566447,2.6075388 Z M34.2309182,13.6008869 L34.2309182,3.6984479 L30.1497094,8.9933481 L26.0596668,3.6984479 L26.0596668,13.6008869 L23.9572259,13.6008869 L23.9572259,0.6363636 L26.3578071,0.6363636 L30.1607516,5.5631929 L33.9614878,0.6363636 L36.3444014,0.6363636 L36.3444014,13.6008869 L34.2309182,13.6008869 Z M48.0602092,13.6008869 L46.5341728,10.0288248 L41.2626114,10.0288248 L39.736575,13.6008869 L37.4596668,13.6008869 L42.9609066,0.6363636 L44.8314607,0.6363636 L50.3327005,13.6008869 L48.0602092,13.6008869 Z M43.8906625,3.8026608 L42.1548237,7.902439 L45.6419605,7.902439 L43.8906625,3.8026608 Z M59.221697,10.4523282 C59.221697,12.616408 57.2230531,14 55.085277,14 C53.8949244,14 52.7553661,13.5432373 51.7571484,12.8913525 L51.7571484,10.1884701 C52.492561,10.962306 53.8772569,11.8935698 54.9991476,11.8935698 C55.8825262,11.8935698 57.1192561,11.4722838 57.1192561,10.4345898 C57.1192561,9.2039911 55.9090275,8.5521064 54.7716776,7.9379157 C53.071174,7.0221729 51.4590081,6.0554324 51.4590081,3.8736142 C51.4590081,1.8780488 53.1771794,0.3547672 55.5932197,0.3547672 C56.563437,0.3737416 57.5119278,0.646589 58.3449438,1.1463415 L58.3449438,3.8070953 C57.6603255,3.1042129 56.609105,2.4767184 55.5932197,2.4767184 C54.7540101,2.4767184 53.5791166,2.9002217 53.5791166,3.8847007 C53.5791166,6.2305987 59.221697,6.3059867 59.221697,10.4523282 Z M74.7625339,13.6008869 L74.7625339,8.1662971 L67.7175901,8.1662971 L67.7175901,13.6008869 L65.6151492,13.6008869 L65.6151492,0.6186253 L67.7175901,0.6186253 L67.7175901,6.0554324 L74.7625339,6.0554324 L74.7625339,0.6186253 L76.8539326,0.6186253 L76.8539326,13.6008869 L74.7625339,13.6008869 Z M84.9589306,13.7228381 C81.1405269,13.7228381 77.9868656,11.0842572 77.9868656,7.1108647 C77.9868656,3.1707317 81.1051918,0.4966741 84.9589306,0.4966741 C88.8126695,0.4966741 91.9309957,3.135255 91.9309957,7.1108647 C91.9309957,11.0864745 88.7950019,13.7228381 84.9589306,13.7228381 Z M84.9589306,2.6075388 C82.2955444,2.6075388 80.0893065,4.3126386 80.0893065,7.1108647 C80.0893065,9.9090909 82.2977528,11.6141907 84.9589306,11.6141907 C87.6201085,11.6141907 89.8285548,9.924612 89.8285548,7.1108647 C89.8285548,4.2971175 87.6576521,2.6075388 84.9589306,2.6075388 Z M103.337621,13.6008869 L103.337621,3.6984479 L99.2564122,8.9933481 L95.1575358,3.6984479 L95.1575358,13.6008869 L93.0550949,13.6008869 L93.0550949,0.6363636 L95.4534676,0.6363636 L99.2564122,5.5631929 L103.057148,0.6363636 L105.440062,0.6363636 L105.440062,13.6008869 L103.337621,13.6008869 Z M106.561953,13.6008869 L106.561953,0.6363636 L113.746029,0.6363636 L113.746029,2.7583149 L108.65556,2.7583149 L108.65556,6.0665188 L113.536226,6.0665188 L113.536226,8.1773836 L108.65556,8.1773836 L108.65556,11.4722838 L114,11.4722838 L114,13.6008869 L106.561953,13.6008869 Z" id="Combined-Shape" fill="#FFFFFF" fill-rule="nonzero"></path>
    </g>
</svg>