<?xml version="1.0" encoding="UTF-8"?>
<svg width="16px" height="16px" viewBox="0 0 16 16" version="1.1" xmlns="http://www.w3.org/2000/svg" xmlns:xlink="http://www.w3.org/1999/xlink">
    <title>metros.6fb7e5 copy 22</title>
    <g id="FICHA-TÉCNICA" stroke="none" stroke-width="1" fill="none" fill-rule="evenodd">
        <g id="Desktop-HD-Copy" transform="translate(-258.000000, -899.000000)" fill="#CC9964">
            <g id="metros.6fb7e5-copy-22" transform="translate(258.000000, 899.000000)">
                <path d="M1.200003,1.200003 L6.000015,1.200003 L6.000015,2.799031 L3.8015735,2.799031 C3.47020468,2.799031 3.201572,3.06766367 3.201572,3.3990325 C3.201572,3.73040133 3.47020468,3.999034 3.8015735,3.999034 L6.000015,3.999034 L6.000015,5.198449 L4.60313951,5.198449 C4.27177068,5.198449 4.00313801,5.46708167 4.00313801,5.7984505 C4.00313801,6.12981932 4.27177068,6.398452 4.60313951,6.398452 L6.000015,6.398452 L6.000015,7.599043 L3.8015735,7.599043 C3.47020468,7.599043 3.201572,7.86767567 3.201572,8.1990445 C3.201572,8.53041333 3.47020468,8.799046 3.8015735,8.799046 L6.000015,8.799046 L6.000015,9.998425 L4.60313951,9.998425 C4.27177068,9.998425 4.00313801,10.2671057 4.00313801,10.5984265 C4.00313801,10.9298673 4.27177068,11.198428 4.60313951,11.198428 L6.000015,11.198428 L6.000015,12.399031 L3.8015735,12.399031 C3.47020468,12.399031 3.201572,12.6677117 3.201572,12.9990325 C3.201572,13.3304733 3.47020468,13.599034 3.8015735,13.599034 L6.000015,13.599034 L6.000015,14.799997 L1.200003,14.799997 L1.200003,1.200003 Z M7.200018,13.0427126 L7.200018,14.799997 L7.200018,16 L6.000015,16 L1.200003,16 L0,16 L0,14.799997 L0,1.200003 L0,-1.06581677e-15 L1.200003,-1.06581677e-15 L6.000015,-1.06581677e-15 L7.200018,-1.06581677e-15 L7.200018,1.200003 L7.200018,3.35540039 C7.20105,3.36981242 7.201578,3.38435646 7.201578,3.3990325 C7.201578,3.41370853 7.20105,3.42825257 7.200018,3.44266461 L7.200018,5.73683034 C7.20208201,5.75708639 7.20313801,5.77764244 7.20313801,5.7984505 C7.20313801,5.81925855 7.20208201,5.8398146 7.200018,5.86007065 L7.200018,8.15541239 C7.20105,8.16982442 7.201578,8.18436846 7.201578,8.1990445 C7.201578,8.21372053 7.20105,8.22826457 7.200018,8.24267661 L7.200018,10.5368663 C7.20208201,10.5571464 7.20313801,10.5776664 7.20313801,10.5984265 C7.20313801,10.6193065 7.20208201,10.6398266 7.200018,10.6601067 L7.200018,12.9554724 C7.20105,12.9698724 7.201578,12.9843925 7.201578,12.9990325 C7.201578,13.0136725 7.20105,13.0283126 7.200018,13.0427126 Z" id="Shape"></path>
                <path d="M14.6413566,4.28687872 C14.8757172,4.5211913 15.2556381,4.5211913 15.4898787,4.28687872 C15.7242393,4.05256613 15.7242393,3.67266918 15.4898787,3.4383566 L12.6614717,0.609913525 C12.4272311,0.375600939 12.0473101,0.375600939 11.8129495,0.609913525 L8.98453046,3.4383566 C8.75021788,3.67266918 8.75021788,4.05256613 8.98453046,4.28687872 C9.21884305,4.5211913 9.598752,4.5211913 9.83306458,4.28687872 L11.601629,2.5183503 L11.601629,13.0125925 L10.1648654,11.5758289 C9.93062483,11.3415884 9.55070388,11.3415884 9.31639129,11.5758289 C9.08206671,11.8101895 9.08206671,12.1901105 9.31639129,12.4243511 L12.1448704,15.2528781 C12.3791109,15.4871187 12.7590319,15.4871187 12.9933925,15.2528781 L15.8217996,12.4243511 C16.0560401,12.1901105 16.0560401,11.8101895 15.8217996,11.5758289 C15.587439,11.3415884 15.207518,11.3415884 14.9732774,11.5758289 L12.801632,13.7474744 L12.801632,2.44708212 L14.6413566,4.28687872 Z" id="Path"></path>
            </g>
        </g>
    </g>
</svg>