<?xml version="1.0" encoding="UTF-8"?>
<svg width="16px" height="16px" viewBox="0 0 16 16" version="1.1" xmlns="http://www.w3.org/2000/svg" xmlns:xlink="http://www.w3.org/1999/xlink">
    <title>scubierta.695fb2</title>
    <g id="FICHA-TÉCNICA" stroke="none" stroke-width="1" fill="none" fill-rule="evenodd">
        <g id="Desktop-HD-Copy" transform="translate(-70.000000, -899.000000)" fill="#CC9964">
            <g id="scubierta.695fb2" transform="translate(70.000000, 899.000000)">
                <path d="M8.68870154,4.30740923 L11.2487385,4.30740923 L9.63639385,5.93202462 L10.4610092,6.76894769 L12.1225846,5.10740923 L12.1225846,7.81510154 C12.1256615,7.97731692 12.1915077,8.13202462 12.3062154,8.24675692 C12.4210462,8.36147692 12.5757538,8.42733538 12.7379692,8.43048615 C12.9011692,8.43048615 13.0577231,8.36564923 13.1730462,8.25024 C13.2884923,8.13483077 13.3533538,7.97830154 13.3533538,7.81510154 L13.3533538,3.70433231 C13.3533538,3.54112 13.2884923,3.38459077 13.1730462,3.26918154 C13.0577231,3.15377231 12.9011692,3.08894769 12.7379692,3.08894769 L8.68870154,3.08894769 C8.52548923,3.08894769 8.36896,3.15377231 8.25356308,3.26918154 C8.13815385,3.38459077 8.07331692,3.54112 8.07331692,3.70433231 C8.07654154,3.86539077 8.14279385,4.01878154 8.25785846,4.13153231 C8.37291077,4.24429538 8.52760615,4.30743385 8.68870154,4.30740923 Z" id="Path"></path>
                <path d="M7.70451692,12.1724308 L5.14451692,12.1724308 L6.76913231,10.5724308 L5.88297846,9.71086769 L4.20913231,11.3847385 L4.20913231,8.71394462 C4.20913231,8.55073231 4.14429538,8.39420308 4.02889846,8.27879385 C3.91348923,8.16339692 3.75696,8.09856 3.59374769,8.09856 C3.43053538,8.09856 3.27401846,8.16339692 3.15860923,8.27879385 C3.0432,8.39420308 2.97836308,8.55073231 2.97836308,8.71394462 L2.97836308,12.8247385 C2.97996308,12.9054769 2.99747692,12.9852308 3.02988308,13.0593231 C3.06230154,13.1332923 3.10898462,13.2002462 3.16727385,13.2562462 C3.22556308,13.3122462 3.29431385,13.3563077 3.3696,13.3857231 C3.44489846,13.4151385 3.52524308,13.4294154 3.60605538,13.4278154 L7.70451692,13.4278154 C7.86772923,13.4278154 8.02425846,13.3629538 8.13965538,13.2475077 C8.25506462,13.1321846 8.31990154,12.9756308 8.31990154,12.8124308 C8.31990154,12.6492308 8.25506462,12.4926769 8.13965538,12.3772308 C8.02425846,12.2619077 7.86772923,12.1970462 7.70451692,12.1970462 L7.70451692,12.1724308 Z" id="Path"></path>
                <path d="M0,0.615384615 C0,0.27552 0.27552,0 0.615384615,0 L15.3846154,0 C15.7244308,0 16,0.27552 16,0.615384615 L16,15.3846154 C16,15.7244308 15.7244308,16 15.3846154,16 L0.615384615,16 C0.27552,16 0,15.7244308 0,15.3846154 L0,0.615384615 Z M1.23076923,1.23076923 L1.23076923,14.7692308 L14.7692308,14.7692308 L14.7692308,1.23076923 L1.23076923,1.23076923 Z" id="Shape"></path>
                <path d="M12.7545846,3.68804923 C12.9948308,3.92838154 12.9948308,4.31801846 12.7545846,4.55833846 L4.15148308,13.1614769 C3.91116308,13.4017231 3.52152615,13.4017231 3.28120615,13.1614769 C3.04088615,12.9211077 3.04088615,12.5314462 3.28120615,12.2910769 L11.8843077,3.68804923 C12.1245538,3.44772923 12.5142154,3.44772923 12.7545846,3.68804923 Z" id="Path"></path>
            </g>
        </g>
    </g>
</svg>