<?xml version="1.0" encoding="UTF-8"?>
<svg width="25px" height="25px" viewBox="0 0 25 25" version="1.1" xmlns="http://www.w3.org/2000/svg" xmlns:xlink="http://www.w3.org/1999/xlink">
    <title>1782712</title>
    <g id="HOME" stroke="none" stroke-width="1" fill="none" fill-rule="evenodd">
        <g id="Desktop-HD" transform="translate(-622.000000, -4160.000000)" fill="#CC9964" fill-rule="nonzero">
            <g id="1782712" transform="translate(622.000000, 4160.000000)">
                <g id="Group" transform="translate(12.500177, 12.500000) scale(-1, 1) rotate(-180.000000) translate(-12.500177, -12.500000) translate(0.000000, 0.000000)">
                    <path d="M11.311773,24.9666814 C7.41541591,24.5706903 3.97371531,22.4342938 1.89109534,19.1197014 C-0.401742138,15.4726721 -0.626625984,10.7843328 1.30933061,6.93197473 C3.52394761,2.52229583 8.07051233,-0.181199101 12.949514,0.00946328994 C14.8365828,0.0779061997 16.4401024,0.483674879 18.0827323,1.3049898 C21.0648876,2.79606747 23.3479475,5.4311195 24.3892575,8.58438212 C24.8341364,9.9336852 25.0003549,10.9847727 25.0003549,12.4807392 C25.0003549,13.746933 24.9172457,14.4509172 24.6336965,15.5655589 C24.3941463,16.5090933 24.17904,17.0957468 23.7292723,18.0050598 C23.1279525,19.2321434 22.4484122,20.1952329 21.4853226,21.1925439 C19.5346997,23.2116097 17.1000876,24.4631372 14.2694844,24.8982385 C13.658387,24.9911253 11.9375367,25.0351244 11.311773,24.9666814 Z M14.1668201,24.0671461 C16.1712196,23.7738193 18.1658415,22.9133942 19.7644723,21.6569779 C20.2484615,21.2805419 21.3777695,20.1365675 21.7346504,19.6672447 C22.4875224,18.6699338 23.1719515,17.4135175 23.5288324,16.3868738 C24.9807998,12.1580798 23.9786001,7.58707115 20.8937803,4.39469829 C16.3227717,-0.342528817 8.73049753,-0.352306376 4.14971136,4.3702544 C3.21595452,5.32845513 2.59996833,6.21332418 2.02309238,7.39640876 C1.47066032,8.52571677 1.11866821,9.650136 0.94267216,10.867442 C0.820452679,11.6740906 0.820452679,13.3362756 0.94267216,14.1429242 C1.04044775,14.8077981 1.28488671,15.7953315 1.50977056,16.4406504 C1.86176266,17.4526277 2.64396735,18.8557074 3.35772912,19.7601315 C3.73416512,20.2441207 4.87813947,21.3734287 5.34746228,21.7303096 C7.0634238,23.0209473 9.10693354,23.8715949 11.0428901,24.0867012 C11.2971066,24.1160339 11.5855446,24.1502553 11.6784314,24.1600329 C12.0304235,24.2040319 13.6779422,24.1404778 14.1668201,24.0671461 Z" id="Shape"></path>
                    <path d="M6.37410593,17.3695185 L6.25188644,17.2521878 L6.25188644,12.5051831 L6.25188644,7.75817843 L6.37410593,7.64084773 L6.49143663,7.51862824 L12.5095239,7.51862824 L18.5276112,7.51862824 L18.6449419,7.64084773 L18.7671614,7.75817843 L18.7671614,12.5051831 L18.7671614,17.2521878 L18.6449419,17.3695185 L18.5276112,17.4917379 L12.5095239,17.4917379 L6.49143663,17.4917379 L6.37410593,17.3695185 Z M17.1343861,16.6215352 C17.0854213,16.5433148 12.5535229,12.6762904 12.5095239,12.6762904 C12.4655249,12.6762904 7.93362651,16.5433148 7.88466173,16.6215352 C7.87007238,16.6410904 9.95269235,16.6606455 12.5095239,16.6606455 C15.0663555,16.6606455 17.1489754,16.6410904 17.1343861,16.6215352 Z M9.78647385,13.8740413 C11.1504433,12.705623 12.3188615,11.7278672 12.3824156,11.7034233 C12.4459698,11.6789794 12.5486341,11.6740906 12.6121883,11.688757 C12.6757424,11.7083121 13.7952729,12.6371801 15.1005769,13.7567106 C16.405881,14.876241 17.5742992,15.8784408 17.7062963,15.9859939 L17.9360689,16.1815451 L17.9360689,12.2656329 L17.9360689,8.34972072 L12.5095239,8.34972072 L7.08297892,8.34972072 L7.08297892,12.2656329 L7.08297892,16.1766563 L7.19542084,16.0886583 C7.25897497,16.0397705 8.42250444,15.0424595 9.78647385,13.8740413 Z" id="Shape"></path>
                </g>
            </g>
        </g>
    </g>
</svg>