<?xml version="1.0" encoding="UTF-8"?>
<svg width="50px" height="50px" viewBox="0 0 50 50" version="1.1" xmlns="http://www.w3.org/2000/svg" xmlns:xlink="http://www.w3.org/1999/xlink">
    <title>Sin título-1-04-02</title>
    <g id="CONÓCENOS" stroke="none" stroke-width="1" fill="none" fill-rule="evenodd">
        <g id="Desktop-HD" transform="translate(-767.000000, -3089.000000)">
            <g id="Sin-título-1-04-02" transform="translate(767.000000, 3089.000000)">
                <path d="M47.52,10.608 C46.574,8.958 45.794,7.608 45.063,6.351 C45.051,6.331 45.039,6.313 45.027,6.295 L44.742,5.8 C43.716,4.03 42.312,1.606 42.102,1.205 C41.827,0.676 41.477,0.339 41.002,0.147 L29,0.147 C28.9,0.23 28.8,0.308 28.7,0.385 C28.459,0.57 28.231,0.745 28.1,0.968 C26.8,3.175 25.5,5.432 24.238,7.615 C23.678,8.585 23.1173333,9.55466667 22.556,10.524 C22.233,11.082 22.235,11.604 22.562,12.168 C24.327,15.214 26.216,18.476 28.062,21.695 C28.399,22.281 28.875,22.551 29.57,22.547 C30.545,22.54 31.536,22.542 32.494,22.547 L34.41,22.547 L34.41,28.774 L34.054,28.774 L33.873,28.774 C33.803,28.774 33.734,28.774 33.665,28.774 C33.018,28.798 32.655,29.14 32.641,29.734 C32.616,30.84 32.618,36.275 32.629,38.683 C32.629,41.667 32.623,45.19 32.634,48.696 C32.634,49.368 33.022,49.742 33.72,49.749 C34.284,49.756 34.858,49.7535308 35.413,49.749 L36.058,49.749 C37.098,49.749 37.383,49.461 37.383,48.409 C37.383,42.3016667 37.383,36.1943333 37.383,30.087 L37.383,30.009 C37.383,29.889 37.383,29.775 37.375,29.662 C37.356752,29.1908009 36.9837529,28.8104457 36.513,28.783 C36.354,28.767 36.195,28.762 36.026,28.756 L35.784,28.747 L35.641,28.741 L35.641,22.541 L37.176,22.541 C38.296,22.541 39.402,22.541 40.508,22.541 C41.154,22.541 41.615,22.291 41.915,21.771 L43.455,19.104 C44.8083333,16.7606667 46.1603333,14.4173333 47.511,12.074 C47.7914621,11.6264923 47.7949466,11.0589174 47.52,10.608 L47.52,10.608 Z M41.146,1.9 L41.277,2.123 C41.392,2.323 41.877,3.161 42.452,4.159 C43.426,5.848 44.639,7.949 44.808,8.234 L44.817,8.247 L45.127,8.785 C45.373,9.211 45.6183333,9.637 45.863,10.063 C45.917,10.156 45.963,10.25 46.019,10.363 L46.104,10.53 L46.218,10.749 L38.656,10.749 L37.339,8.49 L41.146,1.9 Z M37.368,11.325 C37.36428,12.620113 36.3220147,13.6726184 35.027,13.6890006 L35.02,13.6890006 C34.4032844,13.6894318 33.8120246,13.4431335 33.378,13.005 C32.7001668,12.3385712 32.4939843,11.3277564 32.8566542,10.4490894 C33.219324,9.57042234 34.078446,8.99931206 35.029,9.0049579 L35.041,9.0049579 C36.3188817,9.01687862 37.3528222,10.0481532 37.368,11.326 L37.368,11.325 Z M40.09,1.342 L39.977,1.561 L39.91,1.692 C39.869,1.775 39.829,1.854 39.786,1.929 C39.492,2.439 39.1973333,2.94866667 38.902,3.458 C38.122,4.807 37.315,6.201 36.533,7.578 C36.365,7.878 36.182,7.954 35.925,7.954 C35.881,7.954 35.835,7.954 35.786,7.948 C35.3343216,7.91792 34.8814161,7.91057739 34.429,7.926 C34.229,7.926 34.021,7.932 33.809,7.932 L33.722,7.932 L29.922,1.342 L40.09,1.342 Z M28.89,1.894 L32.7,8.487 L31.389,10.741 L23.789,10.741 L28.89,1.894 Z M28.89,20.794 L23.787,11.95 L31.4,11.95 L32.7,14.2 L28.89,20.794 Z M36.2,29.968 L36.2,48.568 L33.8,48.568 L33.8,46.038 C33.8,43.7793333 33.8,41.521 33.8,39.263 C33.806,37.871 33.8,34.51 33.8,32.896 C33.8,32.413 33.8,32.073 33.8,31.963 L33.8,29.968 L36.2,29.968 Z M29.92,21.35 L33.712,14.771 L36.327,14.771 L40.127,21.35 L29.92,21.35 Z M41.151,20.792 L37.343,14.207 L38.643,11.952 L46.243,11.952 L41.151,20.792 Z" id="Shape" fill="#CC9964" fill-rule="nonzero"></path>
                <path d="M20.88,16.73 L20.687,16.722 C20.4205398,16.7017731 20.1528033,16.7054545 19.887,16.733 C19.133,16.839 18.587,16.58 18.203,15.94 C18.0585656,15.7128395 17.8946122,15.4986963 17.713,15.3 C17.63,15.2 17.544,15.1 17.463,15 C17.2016699,14.6550673 16.7895526,14.4579515 16.357,14.471 C14.963,14.479 13.589,14.476 12.311,14.471 L12.311,14.471 C11.895978,14.4612251 11.5018379,14.6527071 11.253,14.985 C11.146,15.119 11.038,15.251 10.931,15.385 C10.675,15.7 10.41,16.026 10.167,16.356 C9.99508726,16.610089 9.70108537,16.7536624 9.395,16.733 C7.895,16.722 6.373,16.722 4.895,16.723 L3.784,16.723 C2.645,16.723 2.184,17.185 2.184,18.316 C2.184,21.6493333 2.184,24.9793333 2.184,28.306 C2.184,29.443 2.645,29.906 3.775,29.912 L4.533,29.912 L10.596,29.933 C10.709,29.933 10.82,29.94 10.926,29.946 L11.062,29.954 L11.148,29.954 L11.188,30.031 C11.197,30.048 11.205,30.062 11.213,30.074 C11.2417482,30.1142253 11.2587164,30.1616669 11.262,30.211 C11.262,30.505 11.2643333,30.7983333 11.269,31.091 L11.275,31.77 C11.283,32.53 11.584,32.83 12.35,32.842 C12.633,32.842 12.911,32.842 13.205,32.842 L13.757,32.842 L13.757,35.9 L13.04,35.9 L12.253,35.9 C11.665,35.9 11.053,35.895 10.46,35.907 C9.593,35.925 8.984,36.52 8.946,37.388 C8.921,37.94 8.922,38.445 8.946,38.932 C8.991,39.79 9.609,40.381 10.484,40.401 C10.621,40.401 10.758,40.401 10.903,40.401 L11.303,40.401 L11.268,40.579 C11.258,40.632 11.249,40.679 11.242,40.72 C11.227,40.801 11.215,40.864 11.2,40.927 L10.55,43.627 C10.126,45.3896667 9.70266667,47.1526667 9.28,48.916 C9.18,49.34 9.327,49.646 9.68,49.735 C10.014,49.819 10.29,49.606 10.402,49.179 C10.502,48.792 10.602,48.394 10.691,48.01 L11.124,46.222 C11.545,44.48 11.98,42.679 12.424,40.91 C12.466,40.74 12.657,40.42 12.871,40.41 C13.459,40.394 14.055,40.39 14.643,40.39 L16.164,40.39 L16.243,40.69 C16.276,40.815 16.307,40.931 16.335,41.047 L17.018,43.878 C17.4406667,45.63 17.864,47.382 18.288,49.134 C18.351,49.397 18.469,49.586 18.627,49.681 C18.7479947,49.7517129 18.8931121,49.7684014 19.027,49.727 C19.383,49.635 19.527,49.316 19.418,48.852 C19.359,48.599 19.296,48.352 19.234,48.096 C19.191,47.923 19.148,47.751 19.106,47.577 C18.682,45.819 18.259,44.06 17.83,42.277 L17.366,40.4 L17.8,40.4 C17.96,40.4 18.112,40.4 18.261,40.4 C18.7123105,40.3981694 19.1377678,40.1891276 19.415,39.833 C19.892,39.24 19.903,37.079 19.433,36.481 C19.12,36.081 18.699,35.893 18.145,35.899 C17.438,35.906 16.719,35.905 16.023,35.899 L14.972,35.899 L14.972,32.848 L15.519,32.848 C15.794,32.848 16.057,32.848 16.319,32.848 C17.127,32.838 17.401,32.562 17.405,31.748 C17.405,31.375 17.405,31.002 17.405,30.619 L17.405,29.932 L18.166,29.932 C18.436,29.932 18.702,29.932 18.966,29.932 C19.566,29.932 20.183,29.937 20.791,29.925 C21.697,29.907 22.261,29.364 22.262,28.507 C22.27,25.056 22.27,21.564 22.262,18.128 C22.268,17.323 21.709,16.759 20.88,16.73 Z M7.19,28.723 L3.371,28.723 L3.371,17.915 L7.19,17.915 L7.19,18.065 C7.19,18.165 7.19,18.405 7.19,18.741 C7.19,20.112 7.179,22.965 7.19,23.978 C7.19,24.9653333 7.19,25.9506667 7.19,26.934 L7.19,28.723 Z M17.962,37.051 C18.127,37.051 18.335,37.068 18.462,37.21 C18.589,37.352 18.592,37.548 18.581,37.686 C18.5574596,38.002563 18.5574596,38.320437 18.581,38.637 C18.596,38.844 18.558,38.988 18.461,39.09 C18.332,39.226 18.133,39.242 17.975,39.24 C17.104,39.229 16.218,39.23 15.361,39.232 C15.027,39.232 14.697,39.232 14.361,39.232 L13.361,39.232 C12.497,39.232 11.605,39.232 10.727,39.24 L10.7,39.24 C10.5255517,39.2556341 10.3523477,39.1988637 10.221,39.083 C10.121,38.977 10.079,38.825 10.093,38.606 C10.1135194,38.288331 10.1135194,37.969669 10.093,37.652 C10.0684473,37.4927518 10.1128086,37.3305783 10.215,37.206 C10.345,37.068 10.542,37.05 10.706,37.052 C13.4,37.063 15.77,37.063 17.962,37.051 Z M16.216,31.63 L12.455,31.63 L12.455,29.97 L16.216,29.97 L16.216,31.63 Z M21.078,28.73 L8.352,28.73 L8.352,26.63 C8.352,25.588 8.352,24.546 8.352,23.504 L8.352,23.461 C8.352,22.172 8.352,20.071 8.352,18.876 L8.352,17.89 L8.5,17.89 C8.647,17.89 8.786,17.89 8.921,17.883 C9.1980502,17.8713337 9.47555131,17.8763427 9.752,17.898 C10.221,17.945 10.552,17.785 10.852,17.362 C11.2044675,16.8689761 11.5840524,16.3959139 11.989,15.945 C12.1540829,15.7680193 12.3804892,15.6607178 12.622,15.645 C13.856,15.622 14.989,15.622 16.087,15.645 C16.3409615,15.6683636 16.5765423,15.7874052 16.746,15.978 C17.135,16.416 17.528,16.905 17.914,17.431 C18.166,17.775 18.45,17.912 18.859,17.893 C19.336,17.87 19.804,17.875 20.299,17.88 C20.508,17.88 20.72,17.88 20.934,17.88 L21.084,17.88 L21.078,28.73 Z" id="Shape" fill="#CC9964" fill-rule="nonzero"></path>
                <path d="M14.355,19.028 L14.345,19.028 C11.9716884,19.0301624 10.0451932,20.9477241 10.032,23.321 C10.0363874,25.6984542 11.960556,27.6257509 14.338,27.634005 L14.338,27.634005 C16.7144813,27.6375899 18.6439101,25.7139813 18.647505,23.3375 C18.6510899,20.9610187 16.7274813,19.0315899 14.351,19.028 L14.355,19.028 Z M16.589,25.535 C16.0042214,26.1324559 15.2040118,26.47005 14.368,26.4720059 L14.351,26.4720059 C12.6154161,26.4753331 11.2039113,25.0745588 11.194,23.339 C11.1883922,22.50662 11.5177714,21.7069566 12.108,21.12 C12.6994237,20.5229042 13.5055828,20.1879051 14.346,20.1899902 L14.346,20.1899902 C15.6134695,20.1870637 16.7582584,20.9469076 17.2477818,22.1160331 C17.7373053,23.2851585 17.4754351,24.6339833 16.584,25.535 L16.589,25.535 Z" id="Shape" fill="#CC9964" fill-rule="nonzero"></path>
                <rect id="Rectangle" x="0" y="0" width="50" height="50"></rect>
            </g>
        </g>
    </g>
</svg>