<?xml version="1.0" encoding="UTF-8"?>
<svg width="30px" height="30px" viewBox="0 0 30 30" version="1.1" xmlns="http://www.w3.org/2000/svg" xmlns:xlink="http://www.w3.org/1999/xlink">
    <title>Group 10</title>
    <g id="HOME" stroke="none" stroke-width="1" fill="none" fill-rule="evenodd">
        <g id="Desktop-HD" transform="translate(-1036.000000, -811.000000)">
            <g id="Group-3" transform="translate(1036.000000, 811.000000)">
                <rect id="Rectangle" x="0" y="0" width="30" height="30"></rect>
                <g id="Sin-tiÌtulo-1-04" transform="translate(0.000000, 1.980000)" fill="#CC9964" fill-rule="nonzero">
                    <path d="M29.9957997,6.70400299 C30,6.55748025 29.9907252,6.41089476 29.9687975,6.26596794 C29.8307865,5.48590554 29.224738,5.01726805 28.3390671,5.01486786 C26.6793343,5.00946742 25.0196016,5.01486786 23.3586687,5.01486786 L22.9986399,5.01486786 C22.9986399,4.56603195 23.0058405,4.16639998 22.9956397,3.76676801 C22.9988855,3.47341669 22.9788208,3.18027111 22.9356349,2.89009787 C22.6176094,1.18656159 21.2068966,0.0158679361 19.449956,0.00506707203 C17.663013,-0.00633384004 15.8760701,0.00506707203 14.0891271,0.00506707203 C12.8980318,0.00506707203 11.7069366,-0.00573379204 10.5158413,0.00866736006 C8.77570206,0.0290689922 7.35958877,1.1991626 7.06856549,2.8966984 C6.97195776,3.45954343 7.01576126,4.04699043 6.99775982,4.62303651 C6.99355948,4.74604635 6.99775982,4.86905619 6.99775982,5.0178681 L6.60532843,5.0178681 C4.96539723,5.0178681 3.32486599,5.0178681 1.68493479,5.0178681 C1.10348828,5.0178681 0.604848388,5.18048111 0.26762141,5.68212124 C0.156012481,5.84893458 0.0876070086,6.04215004 0,6.22696482 L0,16.7896098 C0.139211137,17.228845 0.341427314,17.629677 0.780062405,17.8384937 C0.960076806,17.9255007 1.00508041,18.0323093 1.00448036,18.2207243 C0.99787983,20.1972824 1.00028002,22.1732405 1.00028002,24.1497987 C1.00028002,24.2380057 1.00028002,24.3262128 1.00028002,24.4138198 C1.0062805,25.4339014 1.62432995,26.0615516 2.6462117,26.0622625 C10.8868709,26.0622625 19.1275302,26.0622625 27.3681895,26.0622625 C27.5243518,26.0637797 27.6801848,26.0474716 27.8326266,26.0135478 C28.3660693,25.8869376 28.7404992,25.5641118 28.9079126,25.0390698 C28.9714936,24.8248991 29.0026415,24.602414 29.00032,24.379017 C29.0075206,22.3244526 29.00032,20.2692882 29.0099208,18.2147238 C29.0099208,18.1091154 29.0591247,17.9477025 29.1359309,17.9062992 C29.75038,17.5690722 30,17.0500307 30,16.3611756 C29.9933995,13.1425181 30,9.92326053 29.9957997,6.70400299 Z M8.60708857,1.88741766 C9.13153052,1.28736966 9.79458357,1.00774729 10.5698456,1.00534709 C13.5168814,0.99654639 16.4639171,0.99654639 19.4109529,1.00534709 C20.9140731,1.00534709 21.9539563,2.14003787 21.9821586,3.43074113 C21.9935595,3.94558231 21.9821586,4.46102355 21.9821586,5.00106675 L20.9896792,5.00106675 C20.9896792,4.56963224 20.9860789,4.15199883 20.9896792,3.73436542 C21.0010801,2.62067632 20.399832,2.00742726 19.2843427,2.00682721 C16.425314,2.00682721 13.5660853,2.00682721 10.7066565,2.00682721 C9.56296504,2.00682721 8.96651732,2.61947622 8.97431795,3.77516868 C8.97431795,4.17360055 8.97431795,4.57263248 8.97431795,4.99326613 L8.00224018,4.99326613 C8.03824306,3.91617996 7.79822386,2.81089154 8.60708857,1.88741766 Z M19.9887991,3.78236926 C19.9839987,4.16319972 19.9783983,4.54443022 19.9719978,4.92606075 C19.9719978,4.94346214 19.9575966,4.96086354 19.9401952,4.99986666 L9.99139931,4.99986666 C9.99139931,4.4754247 9.97819826,3.96178361 9.99739979,3.44934261 C10.0064005,3.20932341 10.1726138,3.06351175 10.4138331,3.02930901 C10.5197532,3.01419274 10.6266714,3.00717184 10.7336587,3.00830733 L19.2231379,3.00830733 C19.8591887,3.00890738 19.9971998,3.14571832 19.9887991,3.78236926 Z M27.299784,25.0612716 L2.69301544,25.0612716 C2.19737579,25.0612716 1.99635971,24.8890578 1.99575966,24.442022 C1.99215937,22.367056 1.99215937,20.29229 1.99575966,18.2177241 C1.99575966,18.1703203 2.00476038,18.1235165 2.012561,18.0521108 L5.5012401,18.0521108 C5.5012401,18.5015468 5.5012401,18.9377817 5.5012401,19.3722164 C5.5012401,19.8762568 5.66265301,20.0388698 6.16729338,20.0424701 C6.72413793,20.0460704 7.28078246,20.0460704 7.83722698,20.0424701 C8.33526682,20.0388698 8.49367949,19.8720564 8.49727978,19.3638158 C8.49727978,18.9347814 8.49727978,18.5057471 8.49727978,18.0569112 L21.4991199,18.0569112 L21.4991199,19.3050111 C21.4991199,19.9050591 21.6407313,20.0424701 22.2455796,20.0436702 C22.7856228,20.0436702 23.3196656,20.0478705 23.8567085,20.0436702 C24.3241459,20.0388698 24.4903592,19.8684561 24.4927594,19.4034189 C24.4927594,18.9635838 24.4927594,18.5243486 24.4927594,18.0611116 L27.9838387,18.0611116 C27.9892391,18.1493186 28.00004,18.241126 28.00004,18.3353335 C28.00004,20.341494 28.00004,22.3476545 28.00004,24.353815 C28.00004,24.8878577 27.8296264,25.0612716 27.299784,25.0612716 Z M6.51052084,16.4997866 C6.51472118,16.2387658 6.75654052,16.0395459 6.99535963,16.0395459 C7.26318612,16.0384903 7.48266883,16.2518393 7.48919914,16.5195882 C7.50180014,17.3464544 7.49339947,18.1733205 7.49339947,19.0217884 L6.50512041,19.0217884 C6.50512041,18.1721204 6.49611969,17.3356535 6.51052084,16.4997866 Z M22.4994,16.6389978 C22.4994,16.2735686 22.7046164,16.0389498 23.00044,16.0389498 C23.2962637,16.0389498 23.4930794,16.278969 23.4948796,16.6449983 C23.4978798,17.4322612 23.4948796,18.2201243 23.4948796,19.0235886 L22.5264021,19.0235886 C22.5123158,18.9707347 22.5030769,18.9167069 22.4987999,18.8621756 C22.4994,18.1217164 22.4945996,17.3800571 22.4994,16.6389978 Z M28.99972,16.2999707 C28.99972,16.8850175 28.8527082,17.0350295 28.2796624,17.0356295 L24.4861589,17.0356295 C24.5293623,16.4115796 24.4705576,15.8571352 24.0031202,15.4347014 C23.7364872,15.1843651 23.3853622,15.0436152 23.0196416,15.0404699 C22.5108009,15.0362696 22.0961677,15.2504867 21.7853428,15.6597194 C21.474518,16.0689522 21.4925194,16.5339894 21.4955196,17.0182281 L8.49427954,17.0182281 C8.49427954,16.8580153 8.49907993,16.6960023 8.49427954,16.5339894 C8.46667733,15.6897218 7.81202496,15.0338694 7.00076006,15.0338694 C6.18949516,15.0338694 5.5300424,15.6939222 5.50064005,16.5339894 C5.49583967,16.6882017 5.50064005,16.8430141 5.50064005,17.0140278 C5.39203136,17.0224285 5.30742459,17.0344294 5.22341787,17.0344294 C4.04212337,17.0344294 2.86082887,17.0344294 1.67953436,17.0344294 C1.15929274,17.0344294 0.994279542,16.8706163 0.994279542,16.3527749 C0.994279542,13.1437182 0.994279542,9.93466144 0.994279542,6.72560472 C0.994279542,6.1753607 1.15329226,6.01874817 1.71433715,6.01874817 L28.1944556,6.01874817 C28.8731098,6.01874817 28.9991199,6.14475825 28.9991199,6.81981225 L28.99972,16.2999707 Z" id="Shape"></path>
                </g>
            </g>
        </g>
    </g>
</svg>