<?xml version="1.0" encoding="UTF-8"?>
<svg width="22px" height="30px" viewBox="0 0 22 30" version="1.1" xmlns="http://www.w3.org/2000/svg" xmlns:xlink="http://www.w3.org/1999/xlink">
    <title>location-pin</title>
    <g id="HOME" stroke="none" stroke-width="1" fill="none" fill-rule="evenodd">
        <g id="Desktop-HD" transform="translate(-180.000000, -4111.000000)" fill="#CC9964" fill-rule="nonzero">
            <g id="location-pin" transform="translate(180.000000, 4111.000000)">
                <path d="M11,30 C10.8557778,30 10.7115556,29.9475 10.5954444,29.84375 C10.1627778,29.4525 0,20.18 0,11.25 C0,5.04625 4.93533333,0 11,0 C17.0646667,0 22,5.04625 22,11.25 C22,20.18 11.8372222,29.4525 11.4045556,29.84375 C11.2884444,29.9475 11.1442222,30 11,30 Z M11,1.25 C5.60877778,1.25 1.22222222,5.73625 1.22222222,11.25 C1.22222222,18.6475 9.10677778,26.6975 11,28.52375 C12.8932222,26.6975 20.7777778,18.6475 20.7777778,11.25 C20.7777778,5.73625 16.3912222,1.25 11,1.25 Z" id="Shape"></path>
                <path d="M11,17.5 C7.63033333,17.5 4.88888889,14.69625 4.88888889,11.25 C4.88888889,7.80375 7.63033333,5 11,5 C14.3696667,5 17.1111111,7.80375 17.1111111,11.25 C17.1111111,14.69625 14.3696667,17.5 11,17.5 Z M11,6.25 C8.30377778,6.25 6.11111111,8.4925 6.11111111,11.25 C6.11111111,14.0075 8.30377778,16.25 11,16.25 C13.6962222,16.25 15.8888889,14.0075 15.8888889,11.25 C15.8888889,8.4925 13.6962222,6.25 11,6.25 Z" id="Shape"></path>
            </g>
        </g>
    </g>
</svg>