<?xml version="1.0" encoding="UTF-8"?>
<svg width="35px" height="35px" viewBox="0 0 35 35" version="1.1" xmlns="http://www.w3.org/2000/svg" xmlns:xlink="http://www.w3.org/1999/xlink">
    <title>Sin título-1-02</title>
    <g id="LANDING---VENDE-TU-PROPIEDAD" stroke="none" stroke-width="1" fill="none" fill-rule="evenodd">
        <g id="Desktop-HD" transform="translate(-180.000000, -2077.000000)">
            <g id="Sin-título-1-02" transform="translate(180.000000, 2077.000000)">
                <path d="M9.0902,9.6068 L8.9838,9.7237 C8.8802,9.8476 8.8725,10.4979 8.8725,19.4313 L8.8725,29.0059 L9.1434,29.2761 L19.481,29.2971 C25.4562,29.3048 29.911,29.2971 30.0734,29.2775 C30.1923301,29.2530887 30.3031208,29.1988976 30.3954,29.12 C30.5025,29.0129 30.5025,28.1092 30.5025,19.4663 L30.5025,9.9197 L30.2596,9.6068 L9.0902,9.6068 Z M29.6975,15.61 L28.9765,15.6415 C28.3997,15.6632 28.3612,15.6877 28.2709,15.7983 C28.1274,15.9782 28.1309,16.0874 28.2856,16.2841 C28.3927,16.4241 28.399,16.4332 28.9856,16.4332 L29.6961,16.4332 L29.6961,22.4175 L28.07,22.4175 C26.6784,22.4175 26.558,22.4266 26.4516,22.5323 C26.3637127,22.6292179 26.3218756,22.7593211 26.3368,22.8893 C26.3394462,22.9814287 26.3821327,23.0678241 26.4537,23.1259 C26.5671,23.2036 26.887,23.2225 28.084,23.2225 L29.6975,23.2225 L29.6975,28.5075 L20.0725,28.5075 L20.0725,23.2225 L20.86,23.2225 C21.4627,23.2225 21.5453,23.2015 21.6384,23.1084 C21.7162576,23.0335423 21.7573212,22.9282749 21.7507181,22.8204701 C21.7441151,22.7126653 21.6905114,22.6131962 21.6041,22.5484 C21.4466,22.4273 21.3206,22.4196 19.355,22.4196 C17.4965,22.4196 17.255,22.4259 17.1283,22.5267 C17.0449067,22.6027041 16.9973825,22.7103179 16.9973825,22.82315 C16.9973825,22.9359821 17.0449067,23.0435959 17.1283,23.1196 C17.2424,23.2113 17.3838,23.2246 18.2056,23.2246 L19.2661,23.2246 L19.2661,28.5103 L14.476,28.49 L9.6782,28.469 L9.66,25.8433 L9.646,23.2211 L12.348,23.2211 C14.6419,23.2211 14.9422,23.2155 15.0738,23.114 C15.2359531,22.9489484 15.2340751,22.6838378 15.0696,22.5211 C14.9422,22.4224 14.6419,22.4161 12.348,22.4161 L9.6425,22.4161 L9.6425,17.5518 L15.2999,17.5518 L15.4399,17.4034 C15.5799,17.2697 15.5904,17.2592 15.5904,16.3583 C15.5904,15.232 15.5071,15.1858 15.1879,15.1858 C14.9079,15.1858 14.7854,15.2656 14.7854,16.0363 L14.7854,16.7468 L9.6404,16.7468 L9.6404,10.4118 L14.7854,10.4118 L14.7854,10.9823 C14.7854,11.6627 15.0192,11.7418 15.1949,11.7418 C15.463,11.7418 15.5904,11.634 15.5904,11.0243 L15.5904,10.4118 L23.3954,10.4118 L23.3954,13.3518 C23.3954,16.0118 23.4017,16.1805 23.513,16.303 C23.6243,16.4255 23.6635,16.4283 24.9739,16.4283 C26.5804,16.4283 26.5804,16.3737 26.5804,16.0748 C26.5804,15.7094 26.5328,15.6233 25.2749,15.6233 L24.2025,15.6233 L24.2025,10.4083 L29.6975,10.4083 L29.6975,15.61 Z" id="Shape" fill="#CC9964" fill-rule="nonzero"></path>
                <path d="M15.4441,13.0249 C15.3757159,12.9578435 15.2866519,12.915902 15.1914,12.9059 C15.1081,12.9059 15.0283,12.9549 14.9303,13.0529 L14.9303,13.0529 C14.784,13.1929 14.7749,13.2013 14.7959,13.7529 C14.8246,14.4382 14.91,14.4669 15.2334,14.4669 C15.4784,14.4669 15.5939,14.3885 15.5939,13.6724 C15.5925,13.1425 15.5785,13.1313 15.4441,13.0249 Z" id="Path" fill="#CC9964" fill-rule="nonzero"></path>
                <path d="M24.276,22.4161 C23.7118,22.4161 23.674,22.4329 23.548,22.5645 L23.548,22.5645 C23.4648758,22.6346582 23.414252,22.7359058 23.408,22.8445 C23.4137175,22.9402784 23.4591312,23.0293298 23.5333,23.0902 C23.6467,23.198 23.7237,23.2204 24.2858,23.2204 C24.8731,23.2204 24.9081,23.205 25.0418,23.0657 C25.1678,22.946 25.1818,22.8921 25.1587,22.7787 C25.0887,22.4994 24.9648,22.4161 24.276,22.4161 Z" id="Path" fill="#CC9964" fill-rule="nonzero"></path>
                <path d="M34.0389,6.6668 L5.7925,6.6668 L5.7925,4.7943 C5.7925,4.6501 5.7925,4.5143 5.7925,4.3904 C5.7925,3.4748 5.7925,3.0604 5.6525,2.912 C5.551,2.8119 5.3361,2.8154 4.9805,2.821 L4.7488,2.821 C4.2903,2.821 3.7282,2.8665 3.4951,2.9232 C2.2582,3.2263 1.2089,4.2119 0.8183,5.4369 L0.6475,5.9696 L0.6475,18.9301 C0.6475,29.2768 0.6475,29.2768 1.0122,29.9964 C1.0318,30.0342 1.0514,30.0734 1.0724,30.1161 C1.3433,30.6642 2.0293,31.3845 2.5704,31.6883 C2.86440739,31.8398608 3.17398379,31.9590911 3.4937,32.0439 C3.9837,32.1734 4.2154,32.1839 7.602,32.1839 L28.987,32.1839 C33.7358,32.1839 34.1236,32.1839 34.237,32.0698 C34.3504,31.9557 34.3511,31.01 34.3511,19.4341 L34.3511,6.909 L34.0389,6.6668 Z M1.4749,6.111 C1.6464,4.7229 2.9295,3.6288 4.396,3.6218 L4.9875,3.6218 L4.9875,24.5595 L4.3253,24.6071 C3.3677,24.6827 2.6943,24.9424 2.0013,25.5045 L1.47,25.9434 L1.4413,16.1483 C1.4266,11.48 1.435,6.3742 1.4749,6.111 Z M26.7183,31.3761 L7.574,31.3761 C3.6883,31.3761 3.6015,31.3691 2.9309,30.9722 C2.5949,30.7797 2.0489,30.2302 1.8291,29.8641 C1.358,29.0598 1.3349,27.9692 1.7696,27.0851 C2.3401,25.9294 3.3285,25.3911 4.879,25.3911 C4.99055674,25.3926439 5.10187973,25.4017649 5.2122,25.4184 C5.3851,25.4408 5.4782,25.4499 5.5426,25.3932 C5.8044,25.1629 5.8023,23.8021 5.7953,19.2934 C5.7953,18.4422 5.7953,17.4734 5.7953,16.3793 L5.7953,7.4718 L19.6938,7.4858 L33.5853,7.5068 L33.6063,19.4446 L33.6203,31.3761 L26.7183,31.3761 Z" id="Shape" fill="#CC9964" fill-rule="nonzero"></path>
                <rect id="Rectangle" x="0" y="0" width="35" height="35"></rect>
            </g>
        </g>
    </g>
</svg>