<?xml version="1.0" encoding="UTF-8"?>
<svg width="35px" height="35px" viewBox="0 0 35 35" version="1.1" xmlns="http://www.w3.org/2000/svg" xmlns:xlink="http://www.w3.org/1999/xlink">
    <title>icons-03</title>
    <g id="LANDING---VENDE-TU-PROPIEDAD" stroke="none" stroke-width="1" fill="none" fill-rule="evenodd">
        <g id="Desktop-HD" transform="translate(-180.000000, -2160.000000)">
            <g id="icons-03" transform="translate(180.000000, 2160.000000)">
                <rect id="Rectangle" x="0" y="0" width="35" height="35"></rect>
                <path d="M32.5969,4.7712 C32.5899,3.22 31.5,1.8578 30.0125,1.54 C29.5085,1.4322 26.7547,1.4224 24.9326,1.4161 L24.8129,1.4161 C24.7507379,1.40520715 24.687706,1.40005213 24.6246,1.40064574 C22.505,1.40064574 20.3849333,1.40064574 18.2644,1.40064574 C17.2046,1.40064574 16.2946,1.7507 15.6324,2.4136 C14.9702,3.0765 14.6188,3.9865 14.6167,5.0477 C14.6167,6.09303333 14.6167,7.13813333 14.6167,8.183 C14.6167,8.64593333 14.6167,9.10886667 14.6167,9.5718 L14.6167,10.01 L14.5397,10.0023 C14.4697,9.9953 14.4032,9.9869 14.3395,9.9792 C14.2212139,9.96199381 14.1019972,9.9519422 13.9825,9.9491 L11.9224,9.9491 C9.6733,9.9449 7.3472,9.9407 5.0624,9.9575 C3.7898,9.9666 2.6544,10.9221 2.4206,12.18 C2.3464,12.5811 2.3506,14.9681 2.3506,16.2498 L2.3506,16.6152 C2.34544299,16.6570015 2.34279582,16.6990816 2.34279582,16.7412 C2.34279582,17.5485333 2.34279582,18.3554 2.34279582,19.1618 C2.34279582,19.9262 2.34279582,20.6908333 2.34279582,21.4557 C2.34143131,21.6199918 2.35549384,21.7840546 2.3849,21.9457 C2.6565,23.3457 3.7933,24.2557 5.2801,24.269 C6.1558,24.2767 7.0476,24.2746 7.9093,24.2732 C8.2985,24.2732 8.687,24.2732 9.0762,24.2732 L9.5452,24.2732 L9.5452,24.3432 C9.5452,24.5084 9.5452,24.6694 9.5452,24.8283 C9.5452,25.2105 9.5452,25.5717 9.5452,25.9357 C9.5452,26.1828 9.5774,26.3445 9.7615,26.4411 C9.9659,26.5475 10.1269,26.474 10.3215,26.3221 C10.8458,25.9119 11.382,25.4996 11.9007,25.1013 L12.2745,24.8136 C12.3312,24.7702 12.3886,24.7296 12.4614,24.6778 L12.5923,24.5854 L12.7029,24.5056 L12.7029,25.0572 C12.7029,25.5416 12.7029,26.0262333 12.7029,26.5111 C12.7029,27.6108 12.7029,28.7476 12.7071,29.8655 C12.7162,31.2109 13.5982,32.0831 14.9555,32.0859 C15.5155,32.0859 16.0755,32.0859 16.6355,32.0859 L17.8157,32.0859 L17.8157,32.1559 C17.8157,32.2546 17.8157,32.3484 17.8157,32.4359 C17.8192,32.6305 17.8227,32.8146 17.808,32.9959 C17.7842,33.2878 17.8668,33.5006 18.0677,33.663 L18.3988,33.663 C18.543,33.5496 18.6879,33.4376 18.8335,33.3249 C19.1835,33.0561 19.5419,32.7775 19.8835,32.4849 C20.1993006,32.1996761 20.6139597,32.0489823 21.0392,32.0649 L21.07,32.0649 C22.0145756,32.0732995 22.8365006,31.4203112 23.0419,30.4983 C23.0861714,30.2882111 23.1112413,30.0745308 23.1168,29.8599 L23.1168,29.8494 C23.1246307,29.8078427 23.1288465,29.7656851 23.1294,29.7234 C23.1385,29.0549 23.135,24.7744 23.1329,24.0149 C23.1287,22.5582 22.2572,21.686 20.8012,21.6825 C19.9490667,21.6825 19.0969333,21.6825 18.2448,21.6825 L16.7251,21.6825 L16.7251,19.1471 L16.807,19.1618 C18.1146,19.3928 19.4509,19.3718 20.7431,19.3466 C21.6181,19.3312 22.5225,19.3151 23.4143,19.3781 L23.4794,19.3823 L23.4794,19.4481 C23.4794,19.6525 23.4794,19.8548 23.4794,20.0564 C23.4794,20.5814 23.4794,21.077 23.4759,21.5838 C23.4759,21.826 23.5102,21.9856 23.6999,22.085 C23.8896,22.1844 24.0499,22.12 24.2599,21.959 L24.4342,21.8246 C25.4142,21.0721 26.425,20.2944 27.4302,19.5419 C27.5923805,19.4298452 27.7822135,19.3644691 27.979,19.3529 C28.21,19.3375 28.4445,19.3403 28.6713,19.3431 C28.8288,19.3431 28.9926,19.3466 29.1522,19.3431 C31.073,19.2906 32.5857,17.8094 32.5969,15.9712 C32.62,12.6245 32.62,9.065 32.5969,4.7712 Z M12.7869,23.2253 C12.7507486,23.346615 12.6808264,23.45514 12.5853,23.5382 C12.012,23.9911 11.4219,24.444 10.8521,24.8815 L10.6841,25.0103 C10.6416443,25.0406422 10.5964087,25.0668929 10.549,25.0887 L10.4622,25.1328 L10.3586,25.1895 L10.3586,24.7695 C10.3586,24.5525 10.3586,24.3495 10.3586,24.1458 C10.3586,23.5305 10.2823,23.4528 9.681,23.4528 L8.274,23.4528 C7.294,23.4528 6.2797,23.4528 5.2822,23.4486 C3.9942,23.4395 3.1591,22.6016 3.1542,21.3136 C3.15,20.58 3.15,19.8324 3.15,19.11 C3.15,18.7702667 3.15,18.4307667 3.15,18.0915 C3.15,17.962 3.15,17.8325 3.15,17.7023 C3.15,17.4188 3.15,17.1255 3.15,16.8371 C3.1563,16.2876 3.15,14.6321 3.15,13.643 C3.15,13.2657 3.15,12.9906 3.15,12.9192 C3.1549,11.5836 3.983,10.7534 5.3109,10.7492 C8.1662,10.7492 10.9984,10.7492 13.7277,10.7492 C15.0423,10.7492 15.8921,11.6025 15.8928,12.9192 C15.8928,14.8876 15.8928,16.856 15.8928,18.8244 L15.8928,21.6881 L15.8228,21.6881 C15.6982,21.6881 15.5778,21.6881 15.4602,21.6881 C15.2131,21.6881 14.9793,21.6825 14.7476,21.6937 C13.8089,21.7399 13.0739,22.3132 12.7841,23.2253 L12.7869,23.2253 Z M20.776,22.4931 C21.8295,22.4931 22.3209,22.9831 22.323,24.0282 C22.323,24.6582 22.323,28.5369 22.323,29.3076 C22.323,29.3944 22.323,29.4805 22.323,29.5666 L22.323,29.7066 C22.323,29.7766 22.323,29.8396 22.323,29.904 C22.3097,30.331 22.1571,30.6992 21.8939,30.9407 C21.644,31.1689 21.3087,31.2781 20.923,31.2557 C20.3406,31.2221 19.8856,31.3838 19.4901,31.7646 C19.3569583,31.8863586 19.2154447,31.9986338 19.0666,32.1006 L18.9329,32.2 C18.8906056,32.2286969 18.845011,32.2521993 18.7971,32.27 C18.774,32.2805 18.7488,32.291 18.7215,32.3043 L18.6214,32.3526 L18.6214,31.92 C18.6214,31.36 18.5332,31.2725 17.9676,31.2725 L15.0563,31.2725 C14.0189,31.2725 13.5163,30.7692 13.5163,29.736 C13.5163,27.8376 13.5163,25.9392 13.5163,24.0408 C13.5163,22.9908 14.0063,22.4973 15.0514,22.4966 C16.9591333,22.4928667 18.8673333,22.4917 20.776,22.4931 Z M31.7856,15.953 C31.773959,17.2468696 30.8030898,18.3307422 29.5183,18.4842 C29.1562093,18.520726 28.7922669,18.5356858 28.4284,18.529 C28.1834,18.529 27.93,18.529 27.6829,18.5437 C27.5012226,18.554445 27.3259539,18.6147239 27.1761,18.718 C26.5734,19.1639 25.9679,19.628 25.3827,20.0781 C25.1587,20.2503 24.9344667,20.4222667 24.71,20.594 C24.6533,20.6374 24.5945,20.6787 24.5231,20.7298 L24.3992,20.818 L24.29,20.8978 L24.29,20.2251 C24.29,19.8506 24.29,19.4978 24.29,19.145 C24.29,18.6445 24.1822,18.536 23.6887,18.536 C23.17,18.536 22.6499,18.536 22.1305,18.536 C20.8467,18.536 19.5195,18.5402 18.214,18.5234 C17.921638,18.5079252 17.6320305,18.4588352 17.3509,18.3771 C17.2459,18.3512 17.1374,18.3239 17.031,18.3008 C16.7356,18.2378 16.6992,18.0068 16.6999,17.8108 C16.7069,16.7531 16.7062,15.6779 16.7062,14.6384 C16.7062,14.0504 16.7062,13.4626333 16.7062,12.8751 C16.7062,11.9168 16.3562,11.1552 15.6303,10.5462 C15.5166034,10.4475347 15.4466306,10.3078408 15.4357,10.1577 L15.4357,9.7881 C15.4273,8.1459 15.4182,6.4484 15.4399,4.7782 C15.456,3.5434 16.3695,2.4829 17.6099,2.2582 C17.8318386,2.22031078 18.0567699,2.20273803 18.2819,2.2057 C19.6016333,2.2029 20.9213667,2.2029 22.2411,2.2057 L23.5011,2.2057 C23.8217,2.2057 24.6155,2.2057 25.5353,2.2057 C27.1236,2.2057 28.9247,2.2057 29.2012,2.2106 C30.6208,2.247 31.7814,3.4006 31.7912,4.7845 C31.8031,8.3335 31.8031,11.9868 31.7856,15.953 Z" id="Shape" fill="#CC9964" fill-rule="nonzero"></path>
                <path d="M27.7235,8.8648 C27.2213667,8.8648 26.7201667,8.8648 26.2199,8.8648 L25.501,8.8648 L25.487,8.8123 C25.4847042,8.80213273 25.4819007,8.79208682 25.4786,8.7822 C25.468928,8.76010669 25.4674391,8.73529129 25.4744,8.7122 C25.501,8.63473333 25.5276,8.55773333 25.5542,8.4812 L25.5983,8.3552 C25.9609,7.3108 25.8734,6.2937 25.3393,5.3326 C25.1797811,5.01528554 24.8366186,4.83400802 24.4846,4.8811 C24.1302808,4.89877411 23.823786,5.13366059 23.7146,5.4712 C23.6872097,5.56215511 23.6716812,5.6562669 23.6684,5.7512 C23.6640144,5.84572426 23.6499407,5.939549 23.6264,6.0312 C23.5949,6.1404 23.5669,6.2552 23.5389,6.3658 C23.4598,6.6885 23.3779,7.0224 23.1945,7.2884 C22.8662041,7.74475507 22.5118835,8.18181287 22.1333,8.5974 C21.9849,8.7661 21.8456,8.925 21.7133,9.0874 L21.686,9.1203 L21.644,9.1105 C21.5579,9.0902 21.4788,9.0678 21.4095,9.0475 C21.2944482,9.00905463 21.1749392,8.98552925 21.0539,8.9775 C20.2895,8.9642 19.5139,8.9684 18.7593,8.9726 L18.7467,8.9726 C18.3491,8.9726 18.228,9.0972 18.2273,9.4948 C18.2273,11.361 18.2273,13.2125 18.2273,14.9982 C18.2273,15.3923 18.3505,15.5127 18.7502,15.5141 L19.1765,15.5141 C19.7827,15.5141 20.4099,15.5211 21.0259,15.5057 C21.1608771,15.4940506 21.2934186,15.4626841 21.4193,15.4126 C21.4837,15.3909 21.5509,15.3685 21.6181,15.3503 L21.6356,15.3461 L21.6538,15.3503 C21.8022,15.3881 21.9541,15.4357 22.1011,15.4812 C22.4224,15.582 22.7542,15.6856 23.0811,15.6961 C24.4811,15.7388 26.0078,15.7465 27.8852,15.7192 C28.5502,15.7094 28.9982,15.2173 28.9996,14.4942 C28.9996,12.8989 29.0038,11.4716 28.9996,10.1297 C28.9961,9.3261 28.532,8.8669 27.7235,8.8648 Z M20.7466,14.6839 L19.0533,14.6839 L19.0533,9.7937 L20.7466,9.7937 L20.7466,14.6839 Z M28.1869,14.4109 C28.1869,14.812 28.0861,14.9163 27.6969,14.917 C27.0046,14.917 26.2969,14.917 25.5857,14.917 C24.8609667,14.917 24.1299333,14.917 23.3926,14.917 C22.8004006,14.9292042 22.2243023,14.7237217 21.7735,14.3395 C21.6629214,14.2386667 21.5956868,14.0989292 21.5859,13.9496 C21.5733,12.838 21.5733,11.7306 21.5859,10.6596 C21.5953289,10.5007655 21.6568336,10.3494639 21.7609,10.2291 C22.2194,9.6943 22.7647,9.0636 23.3324,8.4483 C24.0464,7.6741 24.4111,6.8579 24.4468,5.9521 C24.4499333,5.91595505 24.4579391,5.88039967 24.4706,5.8464 C24.4783,5.8212 24.4881,5.7883 24.5,5.7449 L24.5462,5.572 L24.6295,5.7302 C25.039,6.5128 25.1111,7.2639 24.85,8.0262 C24.78,8.2362 24.6869,8.4462 24.6008,8.6513 C24.5483,8.7731 24.4944,8.8991 24.4454,9.0244 C24.3698,9.2155 24.3705,9.3744 24.4454,9.492 C24.5203,9.6096 24.6708,9.667 24.8752,9.6691 C25.4891,9.6747 26.1135,9.6747 26.7176,9.6754 L27.6591,9.6754 C28.105,9.6754 28.1834,9.7559 28.1834,10.2039 C28.1871333,11.6057667 28.1883,13.0081 28.1869,14.4109 L28.1869,14.4109 Z" id="Shape" fill="#CC9964" fill-rule="nonzero"></path>
                <path d="M12.6945,17.8927 C12.523,17.8829 12.3445,17.8843 12.1758,17.8857 C12.1058,17.8857 12.0393,17.8857 11.9714,17.8857 L10.8731,17.8857 L11.0971,16.5802 L11.1559,16.5802 C11.3036,16.5802 11.4499,16.5802 11.5948,16.5802 C11.9714,16.5851 12.3263,16.5893 12.6847,16.5634 C12.8394002,16.5400575 12.9761896,16.4503134 13.0592,16.3177 C13.1047,16.2253 13.0634,16.0139 12.9808,15.9131 C12.9108,15.8298 12.7316,15.785 12.5818,15.7773 C12.2885,15.7619 11.9966,15.7647 11.6872,15.7675 C11.5626,15.7675 11.4366,15.7675 11.3078,15.7675 L11.2259,15.7675 L11.2392,15.6863 C11.2665,15.5218 11.2931,15.3622 11.3197,15.2054 C11.3813,14.8379 11.4394,14.4907 11.4933,14.1414 C11.5311,13.895 11.4009,13.6948 11.1762,13.6514 C10.9396,13.6094 10.7625,13.7347 10.703,13.986 C10.6834,14.0658 10.6701,14.1498 10.6575,14.231 L10.6428,14.3234 L10.4006,15.7514 L9.1266,15.7514 L9.1644,15.5008 C9.1812,15.393 9.1959,15.2964 9.2106,15.1991 C9.2281,15.0857 9.2477,14.9716 9.2666,14.8575 C9.3093,14.6027 9.3527,14.3388 9.3814,14.0784 C9.4073,13.846 9.2974,13.6983 9.065,13.6521 C8.8326,13.6059 8.6716,13.7221 8.6023,13.9608 C8.58446461,14.0258781 8.57090237,14.0920526 8.5617,14.1589 L8.5547,14.2002 L8.3601,15.3545 L8.2901,15.7647 L7.6762,15.7647 C7.2387,15.7647 6.8257,15.7647 6.405,15.7647 C6.26813553,15.7581449 6.13432237,15.8065293 6.0333,15.8991 C5.96267329,15.9747128 5.92578761,16.0757694 5.9311,16.1791 C5.9353,16.4213 6.1068,16.5676 6.3903,16.5711 C6.7711,16.576 7.1491,16.5711 7.5488,16.5711 L8.1515,16.5711 L8.1389,16.6516 C8.1235,16.7489 8.1067,16.842 8.0899,16.9316 C8.05189331,17.1142644 8.02593733,17.2992299 8.0122,17.4853 C7.9947,17.85 7.7728,17.8899 7.5362,17.8794 C7.1925,17.8633 6.8236,17.864 6.3399,17.8794 C6.0928,17.8878 5.9402,18.0299 5.9318,18.2595 C5.9234,18.4891 6.0795,18.6529 6.3385,18.676 C6.4428,18.6844 6.5485,18.6837 6.6549,18.6823 L7.812,18.6823 L7.56,20.2027 C7.5257,20.4057 7.5194,20.755 7.8638,20.8138 C7.9626201,20.8363138 8.06634932,20.817339 8.1508,20.7613 C8.253,20.6913 8.3244,20.5471 8.3608,20.3525 C8.4252,19.9689 8.4903,19.586 8.5554,19.2066 L8.6373,18.7257 L9.9176,18.7257 L9.8259,19.2808 C9.7706,19.6175 9.716,19.9444 9.6628,20.2706 C9.63193133,20.4073855 9.65714235,20.5508362 9.7328,20.6689 C9.7918839,20.7487354 9.88076619,20.8012568 9.9792,20.8145 C10.2319,20.8551 10.3992,20.7116 10.4566,20.4092 L10.4979,20.1873 C10.5679,19.8128 10.6379,19.4257 10.6848,19.0428 C10.7156,18.7803 10.8283,18.6851 11.0964,18.6928 C11.6718,18.7061 12.1975,18.7047 12.7064,18.6928 C12.8200726,18.6947674 12.9296869,18.6505681 13.0102,18.5703 C13.0811699,18.4906004 13.1167839,18.3855265 13.1089,18.2791 C13.0949,18.0467 12.95,17.9074 12.6945,17.8927 Z M10.0555,17.8682 L8.7724,17.8682 L8.9824,16.5963 L10.262,16.5963 L10.0555,17.8682 Z" id="Shape" fill="#CC9964" fill-rule="nonzero"></path>
                <path d="M17.7317,29.3139 C17.8513176,29.3672669 17.9879824,29.3672669 18.1076,29.3139 L18.3211,29.1739 C18.8566,28.8274 19.411,28.469 19.9038,28.0539 C20.3378,27.6913 20.5681,27.1551 20.5716303,26.502 C20.5751,25.8489 20.2748,25.2756 19.7645,24.9683 C19.2542,24.661 18.6445,24.6624 18.0845,24.9648 C17.9671711,25.0137898 17.8341873,25.0084089 17.7212,24.9501 C17.4653716,24.8037494 17.1759301,24.7263238 16.8812,24.7254 C16.6644542,24.7254542 16.4500274,24.7700074 16.2512,24.8563 C15.784995,25.0627726 15.4435506,25.4771243 15.33,25.9742 C15.1515,26.6994 15.3216,27.3707 15.8361,27.9699 C16.3639,28.5894 17.0625,28.9737 17.7317,29.3139 Z M16.1294,26.1184 C16.2061649,25.8193339 16.4541519,25.5950434 16.7594,25.5486 C17.0772,25.4933 17.3292,25.6067 17.5294,25.8986 C17.6477,26.0694 17.7877,26.1653 17.9249,26.1674 L17.9305,26.1674 C18.0495,26.1674 18.1643,26.0974 18.263,25.9672 C18.5661,25.564 18.8167,25.4639 19.1884,25.5962 C19.5601,25.7285 19.7645,26.0617 19.761,26.5139 C19.7717134,26.900295 19.6067079,27.2707207 19.3123,27.5212 C18.9931,27.7886 18.6431,28.028 18.305,28.259 L18.0831,28.4109 C18.0315015,28.4423225 17.9720005,28.4583514 17.9116,28.4571 C17.8649946,28.4582965 17.8191178,28.4453632 17.78,28.42 C17.675,28.3458 17.57,28.273 17.4636,28.2002 C17.1039277,27.9641456 16.7614669,27.7028555 16.4388,27.4183 C16.0895,27.0949 15.9761,26.621 16.1294,26.1184 L16.1294,26.1184 Z" id="Shape" fill="#CC9964" fill-rule="nonzero"></path>
            </g>
        </g>
    </g>
</svg>