<?xml version="1.0" encoding="UTF-8"?>
<svg width="80px" height="80px" viewBox="0 0 80 80" version="1.1" xmlns="http://www.w3.org/2000/svg" xmlns:xlink="http://www.w3.org/1999/xlink">
    <title>play-button</title>
    <g id="FICHA-TÉCNICA" stroke="none" stroke-width="1" fill="none" fill-rule="evenodd">
        <g id="Desktop-HD-Copy" transform="translate(-459.000000, -1934.000000)" fill="#CC9964" fill-rule="nonzero">
            <g id="play-button" transform="translate(459.000000, 1934.000000)">
                <g id="Group" transform="translate(39.974942, 40.000000) scale(-1, 1) rotate(-180.000000) translate(-39.974942, -40.000000) ">
                    <path d="M36.39279,79.9029313 C28.6611317,79.151677 21.5242165,76.3031714 15.2637645,71.4826233 C12.2117942,69.1349538 8.25205827,64.7213352 5.9669933,61.1215753 C4.98097211,59.5721134 3.05588313,55.6280287 2.36723341,53.7498931 C1.60032804,51.6526417 0.770818151,48.4285089 0.363888772,45.9399792 C-0.121296257,42.8880089 -0.121296257,37.0970908 0.363888772,34.0451205 C1.06818962,29.7254086 2.17941985,26.2508577 4.07320657,22.3850286 C6.13915573,18.1748747 8.28336053,15.1855088 11.7266091,11.7266091 C15.1855088,8.28336053 18.1748747,6.13915573 22.3850286,4.07320657 C26.2508577,2.17941985 29.7254086,1.06818962 34.0451205,0.363888772 C37.0970908,-0.121296257 42.8880089,-0.121296257 45.9399792,0.363888772 C50.2596911,1.06818962 53.734242,2.17941985 57.6000711,4.07320657 C61.810225,6.13915573 64.7995908,8.28336053 68.2584906,11.7266091 C71.7017392,15.1855088 73.845944,18.1748747 75.9118931,22.3850286 C77.2891925,25.1865809 77.9778423,27.0177631 78.7290965,29.8349665 C79.7151177,33.5912377 79.9498846,35.6415357 79.9498846,39.9925498 C79.9498846,44.343564 79.7151177,46.393862 78.7290965,50.1501332 C77.9778423,52.9673366 77.2891925,54.7985188 75.9118931,57.6000711 C73.845944,61.810225 71.7017392,64.7995908 68.2584906,68.2584906 C64.7995908,71.7017392 61.810225,73.845944 57.6000711,75.9118931 C53.7498931,77.8056798 50.1814354,78.9325612 46.0182349,79.5899087 C43.7175188,79.9498846 38.5839481,80.1220471 36.39279,79.9029313 Z M45.0009114,76.3657759 C50.3066445,75.5988705 55.3619595,73.736386 59.8694849,70.8565781 C63.8292208,68.3367462 68.3367462,63.8292208 70.8565781,59.8694849 C73.1103408,56.3323295 74.9571742,51.934362 75.8179863,48.0215795 C76.4596827,45.1261205 76.6474962,43.2949383 76.6474962,39.9925498 C76.6474962,35.6884891 76.1936135,32.6834721 74.9571742,28.8332942 C73.0790386,23.026725 70.2618352,18.456595 65.8951699,14.0899298 C61.5285047,9.72326449 56.9583747,6.9060611 51.1518055,5.0279255 C47.3016275,3.79148623 44.2966106,3.33760346 39.9925498,3.33760346 C35.6884891,3.33760346 32.6834721,3.79148623 28.8332942,5.0279255 C23.026725,6.9060611 18.456595,9.72326449 14.0899298,14.0899298 C8.23640714,19.9278012 4.8714142,26.6577871 3.60367267,35.0624439 C3.24369669,37.4257645 3.24369669,42.5593352 3.60367267,44.9226558 C4.44883369,50.4788069 6.24871364,55.3619595 9.12852155,59.8694849 C11.6483535,63.8292208 16.1558789,68.3367462 20.1156148,70.8565781 C27.5499015,75.5988705 36.4710456,77.5709129 45.0009114,76.3657759 Z" id="Shape"></path>
                    <path d="M30.9618479,56.5201431 C29.9288733,56.0506092 29.9758267,56.9583747 29.9758267,39.9612476 C29.9758267,25.0613719 29.9914778,24.5605357 30.2731981,24.0910018 C30.7114298,23.3553987 31.4939863,23.1362829 32.307845,23.51191 C33.5286332,24.0596995 56.2384227,38.7874128 56.4418874,39.16304 C56.6923055,39.6169227 56.6923055,40.368177 56.4418874,40.8220597 C56.2853761,41.1037801 37.3788111,53.4368705 33.027797,56.0975626 C32.0261247,56.6923055 31.5878931,56.7862123 30.9618479,56.5201431 Z M42.7158465,45.9399792 C47.7555103,42.7158465 51.8717575,40.0395032 51.8717575,39.9925498 C51.8717575,39.9142942 33.6851445,28.2229001 33.4190753,28.1288279 C33.3251685,28.0976911 33.262564,32.5113097 33.262564,39.9925498 C33.262564,47.47379 33.3251685,51.8874086 33.4190753,51.8562717 C33.4973309,51.8404552 37.6761826,49.164112 42.7158465,45.9399792 Z" id="Shape"></path>
                </g>
            </g>
        </g>
    </g>
</svg>