<?xml version="1.0" encoding="UTF-8"?>
<svg width="16px" height="16px" viewBox="0 0 16 16" version="1.1" xmlns="http://www.w3.org/2000/svg" xmlns:xlink="http://www.w3.org/1999/xlink">
    <title>dormitorio.349d35</title>
    <g id="FICHA-TÉCNICA" stroke="none" stroke-width="1" fill="none" fill-rule="evenodd">
        <g id="Desktop-HD-Copy" transform="translate(-467.000000, -899.000000)" fill="#CC9964">
            <g id="dormitorio.349d35" transform="translate(467.000122, 899.000000)">
                <path d="M3.69293346,2.92680071 C3.69293346,1.95694091 4.51943665,1.17072029 5.5389879,1.17072029 L10.4617997,1.17072029 C11.481351,1.17072029 12.3078911,1.95694091 12.3078911,2.92680071 L12.3078911,3.90259607 L3.69293346,3.90259607 L3.69293346,2.92680071 Z M2.4622305,4.36974859 L2.4622305,2.92680071 C2.4622305,1.31037551 3.83974401,0 5.5389879,0 L10.4617997,0 C12.1610683,0 13.5385941,1.31037551 13.5385941,2.92680071 L13.5385941,4.36973688 L15.8311476,9.5491322 C15.929973,9.64870196 15.9926158,9.78129774 15.9986462,9.92770802 L16,9.93065824 L16,10.0488776 L16,15.4146399 C16,15.7379928 15.7244456,16 15.3846485,16 C15.0447284,16 14.769297,15.7379928 14.769297,15.4146399 L14.769297,14.0486434 L1.23152753,14.0486434 L1.23152753,15.4146399 C1.23152753,15.7379928 0.956022368,16 0.616176052,16 C0.276328505,16 0.000825801688,15.7379928 0.000825801688,15.4146399 L0.000825801688,13.4938391 C0.000278138869,13.4837709 0,13.4735856 0,13.4632833 L0,9.95112243 C0,9.79398835 0.0650869569,9.65131267 0.171014792,9.54617028 L2.4622305,4.36974859 Z M12.5146492,5.07331636 L14.4146084,9.36576229 L1.58621613,9.36576229 L3.48616305,5.07331636 L12.5146492,5.07331636 Z M1.23152753,10.5364826 L1.23152753,12.8779231 L14.7684355,12.8779231 L14.7684355,10.5364826 L1.23152753,10.5364826 Z" id="Shape"></path>
            </g>
        </g>
    </g>
</svg>