<?xml version="1.0" encoding="UTF-8"?>
<svg width="40px" height="40px" viewBox="0 0 40 40" version="1.1" xmlns="http://www.w3.org/2000/svg" xmlns:xlink="http://www.w3.org/1999/xlink">
    <title>Group</title>
    <g id="FICHA-TÉCNICA" stroke="none" stroke-width="1" fill="none" fill-rule="evenodd">
        <g id="Desktop-HD-Copy" transform="translate(-622.000000, -1374.000000)">
            <g id="Group" transform="translate(622.000000, 1374.000000)">
                <rect id="Rectangle" x="0" y="0" width="40" height="40"></rect>
                <g id="Group-7" transform="translate(3.000000, 2.961868)">
                    <rect id="Rectangle-Copy-4" x="0" y="0.0333335012" width="34.9666665" height="34.9666665"></rect>
                    <g id="garlands" transform="translate(0.000000, -0.000000)" fill="#CC9964" fill-rule="nonzero">
                        <path d="M0.571591375,1.30937427 L2.19084829,12.6434214 C2.25443025,13.0882903 2.80010139,13.2703628 3.11807947,12.952453 L10.9998518,5.07074896 C11.3637236,5.12401849 11.7325126,5.17271229 12.1052627,5.21710356 L16.9946537,14.9958855 C17.1955754,15.3976607 17.7708179,15.398207 17.9720128,14.9958855 L22.8614038,5.21710356 C23.2341539,5.17271229 23.6029429,5.12401849 23.9668147,5.07074896 L31.8485187,12.952453 C32.1664968,13.2703628 32.712168,13.0882903 32.7757499,12.6434214 L34.3950068,1.30937427 C34.5405419,1.18617143 34.6775402,1.06098805 34.8054553,0.933892427 C35.0194895,0.721155806 35.020514,0.375245376 34.8078456,0.161211164 C34.5950407,-0.0528230486 34.2491303,-0.0538474626 34.0351644,0.158820865 C31.4992619,2.67901567 24.692851,4.43916364 17.4832991,4.43916364 C10.2737472,4.43916364 3.46740461,2.67901567 0.931502128,0.158820865 C0.717331327,-0.0538474626 0.371489192,-0.0527547544 0.158820865,0.161211164 C-0.0538474626,0.375177082 -0.0528230486,0.721155806 0.161211164,0.933892427 C0.289126314,1.06105634 0.4261246,1.18623972 0.571591375,1.30937427 Z M3.11807947,11.4071587 L1.80013683,2.18224321 C3.72425932,3.3485726 6.47808879,4.27355006 9.67186988,4.85330004 L3.11807947,11.4071587 Z M31.848587,11.4071587 L25.2947966,4.85336833 C28.4885777,4.27355006 31.2424072,3.34864089 33.1665297,2.18224321 L31.848587,11.4071587 Z M21.5726911,5.35123349 L17.4832991,13.529881 L13.3939754,5.35123349 C16.0633248,5.58917069 18.8388719,5.59490741 21.5726911,5.35123349 Z" id="Shape"></path>
                        <path d="M34.0351644,19.8275679 C31.4992619,22.3477627 24.692851,24.1079107 17.4833674,24.1079107 C10.2738838,24.1079107 3.46740461,22.3477627 0.931502128,19.8275679 C0.717331327,19.6148996 0.371489192,19.6159923 0.158820865,19.8299582 C-0.0538474626,20.0439241 -0.0528230486,20.3899028 0.161211164,20.6026395 C0.289126314,20.7297351 0.4261246,20.8549184 0.571659669,20.9781213 L2.19091659,32.3121685 C2.25429366,32.7558763 2.79989651,32.939383 3.11814776,32.6212 L10.9998518,24.739496 C11.3637236,24.7927655 11.7325126,24.8414593 12.1052627,24.8858506 L16.9946537,34.6646326 C17.1955754,35.0664077 17.7708179,35.0669541 17.9720128,34.6646326 L22.8614038,24.8858506 C23.2341539,24.8414593 23.6029429,24.7927655 23.9668147,24.739496 L31.8485187,32.6212 C32.16677,32.9393147 32.7123728,32.755808 32.7757499,32.3121685 L34.3950068,20.9781213 C34.5405419,20.8549184 34.6775402,20.7297351 34.8054553,20.6026395 C35.0194895,20.3899028 35.020514,20.0439924 34.8078456,19.8299582 C34.5950407,19.6159923 34.2491303,19.6148996 34.0351644,19.8275679 Z M3.11807947,31.0759058 L1.80013683,21.8509902 C3.72425932,23.0173196 6.47808879,23.9422971 9.67186988,24.5220471 L3.11807947,31.0759058 Z M17.4832991,33.198628 L13.3939754,25.0199805 C16.0687884,25.2583958 18.8443354,25.2631764 21.5726911,25.0199805 L17.4832991,33.198628 Z M31.848587,31.0759058 L25.2947966,24.5220471 C28.4885777,23.9422288 31.2424072,23.0173196 33.1665297,21.8509902 L31.848587,31.0759058 Z" id="Shape"></path>
                        <path d="M11.4612478,12.4514463 C11.3382498,11.8781843 10.5159186,11.878116 10.3929207,12.4514463 C10.2033358,13.3345594 9.51008078,14.0277461 8.6269677,14.2173993 C8.05370567,14.3405338 8.05370567,15.1626601 8.6269677,15.2857947 C9.51014907,15.4754478 10.2033358,16.1686346 10.3929207,17.0517477 C10.5159186,17.6249414 11.3381815,17.625078 11.4612478,17.0517477 C11.650901,16.1685663 12.344156,15.4753795 13.2272008,15.2857947 C13.8004628,15.1626601 13.8004628,14.3405338 13.2272008,14.2173993 C12.3440194,14.0277461 11.6508327,13.3346277 11.4612478,12.4514463 Z M10.9270501,15.5953043 C10.6977863,15.2668089 10.4118382,14.9808608 10.0833428,14.751597 C10.4119065,14.5222648 10.6977863,14.2363851 10.9270501,13.9078897 C11.1563139,14.2363851 11.442262,14.5222648 11.7707574,14.751597 C11.442262,14.9809291 11.1564505,15.2668089 10.9270501,15.5953043 Z" id="Shape"></path>
                        <path d="M26.8860529,31.1543759 C26.0028715,30.9647227 25.3096848,30.271536 25.1200999,29.3884229 C24.9971019,28.8151609 24.174839,28.8150926 24.0517728,29.3884229 C23.8621879,30.271536 23.1689329,30.9647227 22.2858198,31.1543759 C21.7125578,31.2775104 21.7125578,32.0996367 22.2858198,32.2227713 C23.1690012,32.4124244 23.8621879,33.1056112 24.0517728,33.9887243 C24.1747707,34.561918 24.9970336,34.5620546 25.1200999,33.9887243 C25.3097531,33.1055429 26.0030081,32.4123562 26.8860529,32.2227713 C27.4593149,32.0996367 27.4593149,31.2775104 26.8860529,31.1543759 Z M24.5859022,32.5322809 C24.3566384,32.2037855 24.0706903,31.9178374 23.7421949,31.6885736 C24.0707586,31.4592415 24.3566384,31.1733617 24.5859022,30.8448663 C24.815166,31.1733617 25.1011141,31.4592415 25.4296095,31.6885736 C25.1011141,31.9179057 24.8153026,32.2037855 24.5859022,32.5322809 Z" id="Shape"></path>
                    </g>
                </g>
            </g>
        </g>
    </g>
</svg>