<?xml version="1.0" encoding="UTF-8"?>
<svg width="160px" height="33px" viewBox="0 0 160 33" version="1.1" xmlns="http://www.w3.org/2000/svg" xmlns:xlink="http://www.w3.org/1999/xlink">
    <title>Group 5</title>
    <g id="CRÉDITOS" stroke="none" stroke-width="1" fill="none" fill-rule="evenodd">
        <g id="Desktop-HD" transform="translate(-1100.000000, -2199.000000)">
            <g id="Group-5" transform="translate(1100.000000, 2199.000000)">
                <rect id="Rectangle-Copy-6" x="0" y="0" width="160" height="33"></rect>
                <g id="banco-santander-logo" transform="translate(0.000000, 2.000000)" fill="#FFFFFF" fill-rule="nonzero">
                    <path d="M21.1586902,12.886747 C21.0915197,11.8746988 20.822838,10.8626506 20.2854744,9.98554217 L15.7178841,1.95662651 C15.3820319,1.34939759 15.1133501,0.674698795 14.9790092,0 L14.7774979,0.337349398 C13.6356003,2.2939759 13.6356003,4.79036145 14.7774979,6.74698795 L18.4718724,13.1566265 C19.6137699,15.113253 19.6137699,17.6096386 18.4718724,19.5662651 L18.270361,19.9036145 C18.1360202,19.2289157 17.8673384,18.5542169 17.5314861,17.946988 L14.1729639,12.0771084 L12.0235097,8.29879518 C11.6876574,7.69156627 11.4189757,7.01686747 11.2846348,6.34216867 L11.0831234,6.67951807 C9.94122586,8.63614458 9.94122586,11.0650602 11.0831234,13.0891566 L14.7774979,19.4987952 C15.9193955,21.4554217 15.9193955,23.9518072 14.7774979,25.9084337 L14.5759866,26.2457831 C14.4416457,25.5710843 14.1729639,24.8963855 13.8371117,24.2891566 L9.20235097,16.260241 C8.59781696,15.1807229 8.32913518,13.9662651 8.32913518,12.7518072 C3.4256927,14.0337349 0,16.8 0,19.9710843 C0,24.4240964 6.58270361,28 14.7103275,28 C22.8379513,28 29.4206549,24.4240964 29.4206549,19.9710843 C29.4878254,16.9349398 26.1293031,14.1686747 21.1586902,12.886747 L21.1586902,12.886747 Z M35.0629723,26.5831325 C35.1301427,25.4361446 35.2644836,24.6939759 35.6003359,23.7493976 C37.1452561,24.4915663 39.1603694,24.8289157 40.6381192,24.8289157 C43.1905961,24.8289157 44.6683459,24.0192771 44.6683459,22.3325301 C44.6683459,20.713253 43.5936188,19.9710843 41.0411419,18.8240964 L39.6305626,18.2843373 C37.0109152,17.1373494 35.2644836,15.653012 35.2644836,12.7518072 C35.2644836,9.58072289 37.4811083,7.55662651 41.9143577,7.55662651 C43.7279597,7.55662651 45.4072208,7.82650602 46.9521411,8.36626506 C46.8849706,9.44578313 46.6834593,10.3228916 46.4147775,11.1325301 C44.9370277,10.5927711 43.1234257,10.3228916 41.8471872,10.3228916 C39.4290512,10.3228916 38.3543241,11.2674699 38.3543241,12.7518072 C38.3543241,14.1686747 39.4290512,15.0457831 41.3769941,15.8554217 L42.8547439,16.4626506 C46.3476071,17.946988 47.8253568,19.5662651 47.8253568,22.2650602 C47.8253568,25.4361446 45.4072208,27.6626506 40.7052897,27.6626506 C38.488665,27.6626506 36.6078925,27.3253012 35.0629723,26.5831325 L35.0629723,26.5831325 Z M62.6700252,13.2915663 L62.6700252,27.1903614 L59.8488665,27.1903614 L59.7145256,25.5036145 C58.9084803,26.7180723 57.7665827,27.5277108 55.8186398,27.5277108 C52.1914358,27.5277108 49.7061293,24.8289157 49.7061293,20.173494 C49.7061293,15.3156627 52.3257767,12.4819277 57.4307305,12.4819277 C59.4458438,12.5493976 61.125105,12.7518072 62.6700252,13.2915663 L62.6700252,13.2915663 Z M59.6473552,24.0192771 L59.6473552,15.3156627 C59.0428212,15.1807229 58.3039463,15.1807229 57.4307305,15.1807229 C54.2737196,15.1807229 52.7959698,17.1373494 52.7959698,20.2409639 C52.7959698,23.0746988 53.9378673,25.0987952 56.6246851,25.0987952 C57.9009236,25.0313253 58.8413098,24.626506 59.6473552,24.0192771 Z M78.2535684,17.8795181 L78.2535684,27.1903614 L75.2308984,27.1903614 L75.2308984,18.4192771 C75.2308984,16.1927711 74.4920235,15.1807229 71.4693535,15.1807229 C70.7304786,15.1807229 69.9244332,15.2481928 69.0512175,15.3831325 L69.0512175,27.1903614 L66.0285474,27.1903614 L66.0285474,13.2915663 C67.9764903,12.8192771 70.1259446,12.4819277 71.5365239,12.4819277 C76.6414777,12.5493976 78.2535684,14.5060241 78.2535684,17.8795181 L78.2535684,17.8795181 Z M86.7170445,24.9638554 C87.5902603,24.9638554 88.4634761,24.8289157 89.0680101,24.5590361 C89.0008396,25.3686747 88.8664987,26.313253 88.7321579,27.1228916 C87.9261125,27.460241 86.9857263,27.5951807 86.1796809,27.5951807 C83.2241814,27.5951807 81.3434089,26.2457831 81.3434089,22.8722892 L81.3434089,8.2313253 C82.2837951,7.8939759 83.4256927,7.75903614 84.3660789,7.75903614 L84.3660789,13.0216867 L89.202351,13.0216867 C89.1351805,13.9662651 89.0680101,14.8433735 88.9336692,15.653012 L84.3660789,15.653012 L84.3660789,22.4674699 C84.3660789,24.2216867 85.2392947,24.9638554 86.7170445,24.9638554 Z M103.039463,13.2915663 L103.039463,27.1903614 L100.218304,27.1903614 L100.083963,25.5036145 C99.2779177,26.7180723 98.1360202,27.5277108 96.1880772,27.5277108 C92.5608732,27.5277108 90.0755668,24.8289157 90.0755668,20.173494 C90.0755668,15.3156627 92.6952141,12.4819277 97.8001679,12.4819277 C99.8152813,12.5493976 101.427372,12.7518072 103.039463,13.2915663 L103.039463,13.2915663 Z M99.9496222,24.0192771 L99.9496222,15.3156627 C99.3450882,15.1807229 98.6062133,15.1807229 97.7329975,15.1807229 C94.5759866,15.1807229 93.0982368,17.1373494 93.0982368,20.2409639 C93.0982368,23.0746988 94.2401343,25.0987952 96.9269521,25.0987952 C98.2031906,25.0313253 99.2107473,24.626506 99.9496222,24.0192771 L99.9496222,24.0192771 Z M118.623006,17.8795181 L118.623006,27.1903614 L115.533165,27.1903614 L115.533165,18.4192771 C115.533165,16.1927711 114.794291,15.1807229 111.77162,15.1807229 C111.032746,15.1807229 110.2267,15.2481928 109.353484,15.3831325 L109.353484,27.1903614 L106.330814,27.1903614 L106.330814,13.2915663 C108.278757,12.8192771 110.428212,12.4819277 111.838791,12.4819277 C116.943745,12.5493976 118.623006,14.5060241 118.623006,17.8795181 Z M134.005038,7.75903614 L134.005038,27.1903614 L131.183879,27.1903614 L131.049538,25.4361446 C130.243493,26.7180723 129.101595,27.5277108 127.086482,27.5277108 C123.459278,27.5277108 120.973971,24.8289157 120.973971,20.173494 C120.973971,15.3156627 123.593619,12.4819277 128.698573,12.4819277 C129.504618,12.4819277 130.243493,12.5493976 130.982368,12.6843373 L130.982368,8.09638554 C131.922754,7.82650602 132.997481,7.75903614 134.005038,7.75903614 L134.005038,7.75903614 Z M130.982368,24.0192771 L130.982368,15.4506024 C130.176322,15.3156627 129.370277,15.1807229 128.564232,15.1807229 C125.541562,15.1807229 124.130982,17.0698795 124.130982,20.2409639 C124.130982,23.0746988 125.27288,25.0987952 127.959698,25.0987952 C129.168766,25.0313253 130.176322,24.626506 130.982368,24.0192771 Z M149.319899,21.253012 L139.580185,21.253012 C139.983207,23.7493976 141.393787,24.8963855 144.147775,24.8963855 C145.827036,24.8963855 147.506297,24.5590361 148.984047,23.8168675 C148.849706,24.626506 148.715365,25.7060241 148.513854,26.5831325 C147.103275,27.1903614 145.692695,27.460241 144.013434,27.460241 C138.90848,27.460241 136.490344,24.626506 136.490344,19.9036145 C136.490344,15.7879518 138.371117,12.4819277 143.207389,12.4819277 C147.573468,12.4819277 149.45424,15.3156627 149.45424,18.8240964 C149.45424,19.7686747 149.45424,20.4433735 149.319899,21.253012 L149.319899,21.253012 Z M139.580185,18.6891566 L146.43157,18.6891566 C146.43157,16.3951807 145.222502,15.0457831 143.140218,15.0457831 C140.923594,15.113253 139.781696,16.3277108 139.580185,18.6891566 L139.580185,18.6891566 Z M160,12.6843373 C160,13.6289157 159.865659,14.7084337 159.731318,15.3156627 C158.992443,15.2481928 158.320739,15.1807229 157.447523,15.1807229 C156.708648,15.1807229 155.969773,15.2481928 155.230898,15.3156627 L155.230898,27.1903614 L152.208228,27.1903614 L152.208228,13.2915663 C153.484467,12.8192771 155.701092,12.4819277 157.380353,12.4819277 C158.253568,12.5493976 159.328296,12.5493976 160,12.6843373 L160,12.6843373 Z" id="Shape"></path>
                </g>
            </g>
        </g>
    </g>
</svg>