<?xml version="1.0" encoding="UTF-8"?>
<svg width="160px" height="33px" viewBox="0 0 160 33" version="1.1" xmlns="http://www.w3.org/2000/svg" xmlns:xlink="http://www.w3.org/1999/xlink">
    <title>Group 4</title>
    <g id="CRÉDITOS" stroke="none" stroke-width="1" fill="none" fill-rule="evenodd">
        <g id="Desktop-HD" transform="translate(-665.000000, -2199.000000)">
            <g id="Group-4" transform="translate(665.000000, 2199.000000)">
                <rect id="Rectangle-Copy-3" x="0" y="0" width="160" height="33"></rect>
                <g id="scotiabank-5" transform="translate(0.000000, 2.000000)" fill="#FFFFFF" fill-rule="nonzero">
                    <path d="M65.9340741,19.2777778 C67.5333333,19.2777778 68.4733333,17.8755556 68.4733333,16.2066667 C68.4733333,14.5148148 67.5785185,13.1140741 65.9340741,13.1140741 C64.22,13.1140741 63.3977778,14.5148148 63.3977778,16.2066667 C63.3977778,17.8755556 64.3407407,19.2777778 65.9340741,19.2777778 M65.9340741,22.1066667 C62.1051852,22.1066667 59.362963,19.8066667 59.362963,16.2066667 C59.362963,12.6511111 62.2037037,10.2844444 65.9340741,10.2844444 C69.6651852,10.2844444 72.5074074,12.6362963 72.5074074,16.2066667 C72.5074074,19.8066667 69.7422222,22.1066667 65.9340741,22.1066667 Z M113.084444,16.2096296 C113.084444,14.6985185 112.222963,13.3548148 110.720741,13.3548148 C109.399259,13.3548148 108.334074,14.4844444 108.334074,16.2096296 C108.334074,17.8837037 109.205926,19.0748148 110.720741,19.0748148 C112.086667,19.0748148 113.084444,17.9392593 113.084444,16.2096296 M104.468148,21.8651852 L104.468148,5.91925926 L108.394815,5.91925926 L108.394815,11.3837037 L108.439259,11.3837037 C108.715556,11.2103704 109.985185,10.2977778 111.852593,10.2977778 C114.91037,10.2977778 117.157778,12.7562963 117.157778,16.0081481 C117.157778,20.0718519 114.665926,22.1177778 111.828148,22.1177778 C109.682222,22.1177778 108.591852,21.1185185 108.323704,20.8296296 L108.262222,20.8296296 L108.205185,21.8651852 L104.468148,21.8651852 Z M85.3407407,4.84592593 C84.1232839,4.85119718 83.1375314,5.8366191 83.1318519,7.05407407 C83.1371231,8.27193998 84.1228767,9.2580241 85.3407407,9.2637037 C86.5589405,9.25882929 87.5451637,8.27227535 87.5496296,7.05407407 C87.54395,5.8366191 86.5581975,4.85119718 85.3407407,4.84592593 M83.3696296,10.5725926 L87.3118519,10.5725926 L87.3118519,21.8911111 L83.3696296,21.8911111 L83.3696296,10.5725926 Z M133.968148,21.8748148 L137.794074,21.8748148 L137.794074,16.0333333 C137.794074,14.6637037 138.702222,13.7274074 139.861481,13.7274074 C141.187407,13.7274074 141.94,14.5896296 141.94,16.0333333 L141.94,21.8748148 L145.767407,21.8748148 L145.767407,15.0659259 C145.767407,12.5037037 144.117037,10.3096296 141.09037,10.3096296 C139.067407,10.3096296 138.016296,11.4081481 137.535556,11.8407407 L137.454815,11.8407407 L137.416296,10.5881481 L133.968889,10.5881481 L133.968889,21.8748148 M148.185185,21.8762963 L152.107407,21.8762963 L152.107407,16.64 L152.148889,16.64 L155.634074,21.8762963 L160,21.8762963 L155.794074,15.8822222 L159.891852,10.5814815 L155.531852,10.5814815 L152.148889,15.2437037 L152.107407,15.2437037 L152.107407,5.93259259 L148.185185,5.93259259 L148.185185,21.8762963 Z M58.3614815,10.7392593 C58.0659259,10.6577778 56.9866667,10.2866667 55.5548148,10.2866667 C52.0103704,10.2866667 49.3540741,12.5051852 49.3540741,16.1985185 C49.3540741,19.5562963 51.74,22.1088889 55.3962963,22.1088889 C56.9533333,22.1088889 58.1,21.6933333 58.3614815,21.6162963 L58.1696296,18.3185185 C57.8659259,18.4562963 57.0822222,18.9037037 56.1777778,18.9037037 C54.5903704,18.9037037 53.4311111,17.78 53.4311111,16.1985185 C53.4311111,14.5385185 54.6718519,13.4681481 56.2237037,13.4681481 C57.0985185,13.4681481 57.8785185,13.8748148 58.1703704,14.0192593 L58.3614815,10.7392593 Z M93.2377778,16.1059259 C93.2377778,17.9755556 94.2822222,19.1444444 95.6333333,19.1444444 C96.8577778,19.1444444 98.0511111,17.9977778 98.0511111,16.2592593 C98.0511111,14.5074074 96.9933333,13.3081481 95.6333333,13.3081481 C94.2266667,13.3088889 93.2377778,14.5644444 93.2377778,16.1059259 M101.92963,10.5659259 L101.92963,21.8740741 L98.1096296,21.8740741 L98.0525926,20.7340741 L97.9696296,20.7340741 C97.5459259,21.1162963 96.6637037,22.1237037 94.1992593,22.1237037 C91.4674074,22.1237037 89.0740741,19.7488889 89.0740741,16.2096296 C89.0740741,12.9266667 91.1962963,10.3037037 94.4518519,10.3037037 C96.6659259,10.3037037 97.5703704,11.2792593 97.9088889,11.5888889 L98.0111111,11.5888889 L98.0496296,10.5659259 L101.92963,10.5659259 Z M122.73037,16.0992593 C122.73037,17.9696296 123.774074,19.1392593 125.125926,19.1392593 C126.34963,19.1392593 127.543704,17.9918519 127.543704,16.2533333 C127.543704,14.5014815 126.485185,13.302963 125.125926,13.302963 C123.717778,13.302963 122.73037,14.5585185 122.73037,16.0992593 M131.422963,10.5607407 L131.422963,21.8696296 L127.601481,21.8696296 L127.544444,20.7281481 L127.462963,20.7281481 C127.039259,21.1103704 126.155556,22.12 123.692593,22.12 C120.96,22.12 118.566667,19.7437037 118.566667,16.2051852 C118.566667,12.92 120.688889,10.2977778 123.944444,10.2977778 C126.159259,10.2977778 127.062222,11.2740741 127.402222,11.5837037 L127.503704,11.5837037 L127.542222,10.5607407 L131.422963,10.5607407 Z M36.7281481,21.4555556 C37.8274074,21.7881481 39.4992593,22.0933333 41.2718519,22.0933333 C44.6288889,22.0933333 47.9777778,20.9044444 47.9777778,17.2192593 C47.9777778,12.16 41.0037037,12.8607407 41.0037037,10.8444444 C41.0037037,9.81333333 42.0755556,9.59037037 43.1259259,9.59037037 C44.5837037,9.59037037 46.4281481,10.2903704 46.8377778,10.4562963 L47.1540741,6.97185185 C46.1362963,6.62592593 44.5925926,6.42814815 43.1407407,6.42814815 C39.8259259,6.42814815 36.557037,7.7237037 36.557037,11.0059259 C36.557037,15.9755556 43.5118519,14.94 43.5118519,17.5466667 C43.5118519,18.5503704 42.5118519,18.9311111 41.2333333,18.9311111 C39.4777778,18.9311111 37.8266667,18.0525926 37.1125926,17.7355556 L36.7281481,21.4555556 Z M81.4622222,18.7918519 C81.2681481,18.8451852 80.7377778,18.9814815 80.3733333,18.9814815 C79.5762963,18.9814815 78.7051852,18.6081481 78.7051852,17.2274074 L78.7051852,13.4044444 L81.177037,13.4044444 L81.177037,10.5622222 L78.7051852,10.5622222 L78.7051852,6.92 L74.7703704,6.92 L74.7703704,10.5622222 L73.0503704,10.5622222 L73.0503704,13.4044444 L74.7703704,13.4044444 L74.7703704,17.877037 C74.7703704,20.3377778 75.9125926,22.1007407 78.822963,22.1007407 C79.6681481,22.1007407 80.4437037,21.9881481 80.9762963,21.8866667 L81.4622222,18.7918519 Z M22.842963,14.2925926 C22.9422222,19.1762963 18.5281481,22.8637037 14.8392593,22.8637037 L5.72074074,22.8637037 L0,28.562963 L14.74,28.562963 C19.4459259,28.562963 23.96,24.3296296 23.96,19.2755556 C23.96,17.7911111 23.7807407,15.8577778 22.8437037,14.3918519 L22.8437037,14.2925926 M21.2785185,17.8903704 C21.8474074,16.8740741 22.1266667,15.757037 22.1955556,14.6703704 L18.0585185,14.6703704 C18.0585185,15.6777778 17.8903704,16.7740741 17.5118519,17.8903704 L21.2785185,17.8903704 Z M17.2422222,18.5288889 C16.7725926,19.7237037 15.657037,21.2777778 14.5718519,22.1259259 C16.6733333,22.1259259 19.0755556,21.2088889 20.8311111,18.5288889 L17.2422222,18.5288889 Z M16.7725926,17.8903704 C17.1422222,16.8740741 17.3111111,15.757037 17.4111111,14.6703704 L11.1518519,14.6703704 C11.2518519,15.757037 11.4207407,16.8740741 11.7896296,17.8903704 L16.7725926,17.8903704 Z M11.0733333,17.8903704 C10.7044444,16.7740741 10.5044444,15.6785185 10.5044444,14.6703704 L6.36888889,14.6703704 C6.46814815,15.757037 6.73777778,16.8740741 7.28444444,17.8903704 L11.0733333,17.8903704 Z M14.2918519,21.4785185 C15.1088889,20.74 16.0259259,19.5451852 16.4940741,18.5288889 L12.0688889,18.5288889 C12.5385185,19.5451852 13.4548148,20.74 14.2918519,21.4785185 Z M7.65407407,18.5288889 C9.48740741,21.2088889 11.8888889,22.1259259 14.022963,22.1259259 C12.9051852,21.277037 11.7207407,19.7237037 11.3407407,18.5288889 L7.65407407,18.5288889 Z M17.5118519,10.8037037 C17.8903704,11.7903704 18.0585185,12.9066667 18.0585185,14.0222222 L22.1955556,14.0222222 C22.1266667,12.9066667 21.8466667,11.7903704 21.2785185,10.8037037 L17.5118519,10.8037037 Z M20.8311111,10.0555556 C19.0755556,7.48444444 16.6740741,6.46814815 14.5718519,6.46814815 C15.657037,7.28592593 16.7725926,8.84074074 17.2422222,10.0555556 L20.8311111,10.0555556 Z M11.7896296,10.8037037 C11.4207407,11.7903704 11.2518519,12.9066667 11.1518519,14.0222222 L17.4111111,14.0222222 C17.3111111,12.9066667 17.1414815,11.7903704 16.7725926,10.8037037 L11.7896296,10.8037037 Z M7.28518519,10.8037037 C6.73851852,11.7903704 6.46814815,12.9066667 6.36962963,14.0222222 L10.5051852,14.0222222 C10.5051852,12.9066667 10.7051852,11.7903704 11.0740741,10.8037037 L7.28518519,10.8037037 Z M14.2918519,7.18518519 C13.4548148,7.9237037 12.5385185,9.03925926 12.0696296,10.0555556 L16.4948148,10.0555556 C16.0259259,9.03925926 15.1088889,7.9237037 14.2918519,7.18518519 Z M11.3414815,10.0555556 C11.7214815,8.84 12.9059259,7.28518519 14.0237037,6.46814815 C11.8896296,6.46814815 9.48740741,7.48444444 7.65481481,10.0555556 L11.3414815,10.0555556 Z M5.72074074,14.1918519 C4.80444444,12.737037 4.6037037,10.8037037 4.6037037,9.31851852 C4.6037037,4.26444444 9.11925926,0 13.8222222,0 L28.5644444,0 L22.842963,5.76962963 L13.7237037,5.76962963 C10.057037,5.76962963 5.62,9.48814815 5.72074074,14.1918519 Z" id="Shape"></path>
                </g>
            </g>
        </g>
    </g>
</svg>