<?xml version="1.0" encoding="utf-8"?><svg id="sending" image-rendering="auto" baseProfile="basic" version="1.1" x="0px" y="0px" width="50" height="50" xmlns="http://www.w3.org/2000/svg" xmlns:xlink="http://www.w3.org/1999/xlink"><g id="Escena-1" overflow="visible"><g id="Interpolaci.__C3.__B3n-8" transform="translate(27.3 25)"><path fill="#CC9964" stroke="none" d="M19.9 -15.5L18.95 -15.95 .3 -15.95Q-13.35 -16 -15.9 -15.95 -18.6 -15.95 -19.1 -15.75 -20.25 -15.4 -21.15 -14.5 -22.05 -13.6 -22.4 -12.55L-22.65 -10.95Q-22.8 -9.45 -22.15 -9.1L-13.65 -3.6Q-5.35 1.85 -4.45 2.2 -2.5 3.15 0 3.15 2.85 3.15 5.25 1.85L6.3 1.3 11.9 6.75Q17.45 12.15 17.85 12.15L18.5 12.05Q18.7 11.95 18.85 11.55 18.95 11.15 18.9 10.9 18.7 10.55 13.5 5.5 8.15 .35 8.15 .2 8.15 .1 14.4 -4L20.65 -8.1 20.7 1.6Q20.75 11.25 20.6 11.9 20.45 12.45 19.85 13.1 19.2 13.7 18.65 13.9 18.05 14.05 1.7 14.05L-14.7 14.05 -15 14.35Q-15.65 15 -15 15.75L-14.7 16.05 18.95 15.95 19.9 15.5Q21.45 14.75 22.25 13.05L22.7 12.2 22.7 -12.2 22.25 -13Q21.5 -14.6 19.9 -15.5M18.65 -13.85Q19.2 -13.7 19.8 -13.05 20.45 -12.4 20.6 -11.9L20.75 -10.95 20.75 -10.55 5.9 -.85Q4.05 .3 2.85 .75 1.65 1.15 .05 1.15 -2.3 1.15 -4.2 .1 -6.45 -1.25 -12.9 -5.5L-20.7 -10.55 -20.6 -11.15Q-20.45 -12.9 -18.9 -13.7L-18.25 -14 -.05 -14Q18.05 -14 18.65 -13.85Z"/></g><g mask="url(#mask_2)"><g id="Interpolaci.__C3.__B3n-7" transform="translate(5 22)"><path fill="#CC9964" stroke="none" d="M4.7 -.7L4.35 -1 -4.4 -1 -4.7 -.7Q-5 -.4 -5 0 -5 .4 -4.7 .7L-4.4 1 4.35 1 4.7 .75Q5.05 .4 5.05 0 5.05 -.4 4.7 -.7Z"/></g></g><mask id="mask_2"><g><g id="Interpolaci.__C3.__B3n-6" transform="translate(15.05 22)"><animateTransform attributeName="transform" additive="replace" type="translate" repeatCount="indefinite" dur="2.667s" keyTimes="0;.07499;.075;.09999;.1;.11199;.112;.12499;.125;.13699;.137;.14999;.15;.16199;.162;.17499;.175;.18699;.187;.19999;.2;.21199;.212;.22499;.225;.23699;.237;.24999;.25;.26199;.262;.27499;.275;.28699;.287;.29999;.3;.31199;.312;.32499;.325;.33699;.337;.34999;.35;.36199;.362;.37499;.375;.38699;.387;.39999;.4;.41199;.412;.42499;.425;.43699;.437;.44999;.45;.46199;.462;.47499;.475;.48699;.487;.49999;.5;.51199;.512;.52499;.525;.53699;.537;.54999;.55;.57499;.575;1" values="15.05,22;15.05,22;15,22;15,22;14.95,22;14.95,22;14.9,22;14.9,22;14.8,22;14.8,22;14.7,22;14.7,22;14.55,22;14.55,22;14.35,22;14.35,22;14.15,22;14.15,22;13.85,22;13.85,22;13.5,22;13.5,22;13.05,22;13.05,22;12.55,22;12.55,22;11.95,22;11.95,22;11.25,22;11.25,22;10.45,22;10.45,22;9.5,22;9.5,22;8.4,22;8.4,22;7.15,22;7.15,22;5.75,22;5.75,22;4.25,22;4.25,22;2.85,22;2.85,22;1.6,22;1.6,22;.5,22;.5,22;-.45,22;-.45,22;-1.25,22;-1.25,22;-1.95,22;-1.95,22;-2.55,22;-2.55,22;-3.05,22;-3.05,22;-3.5,22;-3.5,22;-3.85,22;-3.85,22;-4.15,22;-4.15,22;-4.35,22;-4.35,22;-4.55,22;-4.55,22;-4.7,22;-4.7,22;-4.8,22;-4.8,22;-4.9,22;-4.9,22;-4.95,22;-4.95,22;-5,22;-5,22;-5.05,22;-5.05,22" calcMode="discrete"/><g id="Interpolación 4_0.0"><g><g id="Layer5_0_FILL"><path fill="#FFF" stroke="none" d="M4.7 -.7L4.35 -1 -4.4 -1 -4.7 -.7Q-5 -.4 -5 0 -5 .4 -4.7 .7L-4.4 1 4.35 1 4.7 .75Q5.05 .4 5.05 0 5.05 -.4 4.7 -.7Z" fill-opacity="1"/></g></g></g></g></g></mask><g display="none"><g id="Interpolaci.__C3.__B3n-5" transform="translate(11.6 28)"><path fill="#CC9964" stroke="none" d="M7.35 -.65L7.05 -1 -7 -1 -7.3 -.65Q-7.6 -.4 -7.6 0 -7.6 .4 -7.3 .7L-7 1 7.05 1 7.35 .7Q7.65 .4 7.65 0 7.65 -.4 7.35 -.65Z"/></g><animate attributeName="display" repeatCount="indefinite" dur="2.667s" keyTimes="0;.113;1" values="none;inline;inline"/><animate attributeName="mask" repeatCount="indefinite" dur="2.667s" keyTimes="0;.113;1" values="none;url(#mask_1);url(#mask_1)"/></g><mask id="mask_1"><g><g display="none"><g id="Interpolaci.__C3.__B3n-4" transform="translate(26.85 28)"><animateTransform attributeName="transform" additive="replace" type="translate" repeatCount="indefinite" dur="2.667s" keyTimes="0;.18699;.187;.21199;.212;.22499;.225;.23699;.237;.24999;.25;.26199;.262;.27499;.275;.28699;.287;.29999;.3;.31199;.312;.32499;.325;.33699;.337;.34999;.35;.36199;.362;.37499;.375;.38699;.387;.39999;.4;.41199;.412;.42499;.425;.43699;.437;.44999;.45;.46199;.462;.47499;.475;.48699;.487;.49999;.5;.51199;.512;.52499;.525;.53699;.537;.54999;.55;.56199;.562;.57499;.575;.58699;.587;.59999;.6;.61199;.612;.62499;.625;.63699;.637;.64999;.65;.66199;.662;.67499;.675;.68699;.687;.69999;.7;.71199;.712;.73699;.737;1" values="26.85,28;26.85,28;26.8,28;26.8,28;26.75,28;26.75,28;26.7,28;26.7,28;26.6,28;26.6,28;26.45,28;26.45,28;26.3,28;26.3,28;26.1,28;26.1,28;25.85,28;25.85,28;25.5,28;25.5,28;25.1,28;25.1,28;24.6,28;24.6,28;24.05,28;24.05,28;23.4,28;23.4,28;22.6,28;22.6,28;21.65,28;21.65,28;20.6,28;20.6,28;19.4,28;19.4,28;18,28;18,28;16.45,28;16.45,28;14.65,28;14.65,28;12.7,28;12.7,28;10.5,28;10.5,28;8.55,28;8.55,28;6.75,28;6.75,28;5.2,28;5.2,28;3.8,28;3.8,28;2.6,28;2.6,28;1.55,28;1.55,28;.6,28;.6,28;-.15,28;-.15,28;-.85,28;-.85,28;-1.4,28;-1.4,28;-1.9,28;-1.9,28;-2.3,28;-2.3,28;-2.6,28;-2.6,28;-2.9,28;-2.9,28;-3.1,28;-3.1,28;-3.25,28;-3.25,28;-3.4,28;-3.4,28;-3.45,28;-3.45,28;-3.55,28;-3.55,28;-3.6,28;-3.6,28;-3.65,28;-3.65,28" calcMode="discrete"/><g id="Interpolación 3_0.0"><g><g id="Layer3_0_FILL"><path fill="#FFF" stroke="none" d="M7.35 -.65L7.05 -1 -7 -1 -7.3 -.65Q-7.6 -.4 -7.6 0 -7.6 .4 -7.3 .7L-7 1 7.05 1 7.35 .7Q7.65 .4 7.65 0 7.65 -.4 7.35 -.65Z" fill-opacity="1"/></g></g></g></g><animate attributeName="display" repeatCount="indefinite" dur="2.667s" keyTimes="0;.113;1" values="none;inline;inline"/></g></g></mask><g display="none"><g id="Interpolaci.__C3.__B3n-3" transform="translate(18.2 34.05)"><path fill="#CC9964" stroke="none" d="M8.4 -.95Q7.15 -1 0 -1L-9.6 -1 -9.9 -.7Q-10.2 -.4 -10.2 0 -10.2 .45 -9.9 .65L-9.6 1 0 1Q9.65 .95 9.8 .8 10.2 .5 10.25 .05 10.3 -.4 9.9 -.75 9.7 -.95 8.4 -.95Z"/></g><animate attributeName="display" repeatCount="indefinite" dur="2.667s" keyTimes="0;.238;1" values="none;inline;inline"/><animate attributeName="mask" repeatCount="indefinite" dur="2.667s" keyTimes="0;.238;1" values="none;url(#mask_);url(#mask_)"/></g><mask id="mask_"><g><g display="none"><g id="Interpolaci.__C3.__B3n-2" transform="translate(38.65 34.05)"><animateTransform attributeName="transform" additive="replace" type="translate" repeatCount="indefinite" dur="2.667s" keyTimes="0;.31199;.312;.33699;.337;.34999;.35;.36199;.362;.37499;.375;.38699;.387;.39999;.4;.41199;.412;.42499;.425;.43699;.437;.44999;.45;.46199;.462;.47499;.475;.48699;.487;.49999;.5;.51199;.512;.52499;.525;.53699;.537;.54999;.55;.56199;.562;.57499;.575;.58699;.587;.59999;.6;.61199;.612;.62499;.625;.63699;.637;.64999;.65;.66199;.662;.67499;.675;.68699;.687;.69999;.7;.71199;.712;.72499;.725;.73699;.737;.74999;.75;.76199;.762;.77499;.775;.78699;.787;.79999;.8;.81199;.812;.82499;.825;.83699;.837;.84999;.85;.86199;.862;.87499;.875;.88699;.887;.89999;.9;.92499;.925;1" values="38.65,34.05;38.65,34.05;38.6,34.05;38.6,34.05;38.55,34.05;38.55,34.05;38.5,34.05;38.5,34.05;38.4,34.05;38.4,34.05;38.3,34.05;38.3,34.05;38.15,34.05;38.15,34.05;37.95,34.05;37.95,34.05;37.7,34.05;37.7,34.05;37.35,34.05;37.35,34.05;37,34.05;37,34.05;36.55,34.05;36.55,34.05;36,34.05;36,34.05;35.35,34.05;35.35,34.05;34.6,34.05;34.6,34.05;33.75,34.05;33.75,34.05;32.75,34.05;32.75,34.05;31.6,34.05;31.6,34.05;30.25,34.05;30.25,34.05;28.8,34.05;28.8,34.05;27.1,34.05;27.1,34.05;25.25,34.05;25.25,34.05;23.15,34.05;23.15,34.05;20.8,34.05;20.8,34.05;18.2,34.05;18.2,34.05;15.6,34.05;15.6,34.05;13.25,34.05;13.25,34.05;11.15,34.05;11.15,34.05;9.3,34.05;9.3,34.05;7.6,34.05;7.6,34.05;6.15,34.05;6.15,34.05;4.8,34.05;4.8,34.05;3.65,34.05;3.65,34.05;2.65,34.05;2.65,34.05;1.8,34.05;1.8,34.05;1.05,34.05;1.05,34.05;.4,34.05;.4,34.05;-.15,34.05;-.15,34.05;-.6,34.05;-.6,34.05;-.95,34.05;-.95,34.05;-1.3,34.05;-1.3,34.05;-1.55,34.05;-1.55,34.05;-1.75,34.05;-1.75,34.05;-1.9,34.05;-1.9,34.05;-2,34.05;-2,34.05;-2.1,34.05;-2.1,34.05;-2.15,34.05;-2.15,34.05;-2.2,34.05;-2.2,34.05;-2.25,34.05;-2.25,34.05" calcMode="discrete"/><g id="Interpolación 2_0.0"><g><g id="Layer1_0_FILL"><path fill="#FFF" stroke="none" d="M8.4 -.95Q7.15 -1 0 -1L-9.6 -1 -9.9 -.7Q-10.2 -.4 -10.2 0 -10.2 .45 -9.9 .65L-9.6 1 0 1Q9.65 .95 9.8 .8 10.2 .5 10.25 .05 10.3 -.4 9.9 -.75 9.7 -.95 8.4 -.95Z" fill-opacity="1"/></g></g></g></g><animate attributeName="display" repeatCount="indefinite" dur="2.667s" keyTimes="0;.238;1" values="none;inline;inline"/></g></g></mask></g></svg>