<?xml version="1.0" encoding="UTF-8"?>
<svg width="30px" height="30px" viewBox="0 0 30 30" version="1.1" xmlns="http://www.w3.org/2000/svg" xmlns:xlink="http://www.w3.org/1999/xlink">
    <title>Group 9</title>
    <g id="HOME" stroke="none" stroke-width="1" fill="none" fill-rule="evenodd">
        <g id="Desktop-HD" transform="translate(-680.000000, -811.000000)">
            <g id="Group-9" transform="translate(680.000000, 811.000000)">
                <g id="Group-5">
                    <rect id="Rectangle" x="0" y="0" width="30" height="30"></rect>
                    <path d="M10.6576051,6.35100092 C11.5027324,9.09664619 13.285891,11.3948796 14.931192,13.7081068 L14.9953258,13.7021093 L15.1505655,13.4915978 L15.1505655,13.4915978 C16.0364507,12.2969003 16.9163421,11.1177962 17.6811523,9.82773871 L17.6811523,9.82773871 C18.6018016,8.22641218 19.5686032,6.3557989 19.5961747,4.49298234 C19.5721995,2.28531081 17.8477802,0.339729062 15.6906078,0.0602466027 C12.2016107,-0.503516297 9.36533953,2.98941469 10.6576051,6.35100092 Z M11.4278097,3.94061465 C12.5174845,-0.743415403 19.3396397,0.597620601 18.481326,5.39680222 C17.9610632,7.80299026 16.3780979,10.007663 14.9395833,12.0318118 C14.5296067,11.4164705 14.1088412,10.8089261 13.7054577,10.1905861 L13.7054577,10.1905861 C12.5774226,8.34276325 11.1508957,6.18786952 11.4278097,3.94061465 Z" id="Shape" fill="#CC9964" fill-rule="nonzero"></path>
                    <path d="M14.9575648,6.31381656 C17.1908586,6.28322942 17.196253,2.99721141 14.9743474,2.95522907 C12.766827,2.98821519 12.7452493,6.25923951 14.9575648,6.31381656 Z M14.4816562,4.19610719 C14.8586669,3.7528936 15.6480517,4.04976874 15.6378623,4.62792559 C15.5443588,5.84001582 13.7312311,5.16410009 14.4816562,4.19610719 Z" id="Shape" fill="#CC9964" fill-rule="nonzero"></path>
                    <path d="M29.7119288,16.6792572 L19.2964842,10.7483515 C19.1166699,11.0482254 18.9368556,11.3397028 18.7570413,11.6137876 L21.1917271,13.0004044 L7.74701068,20.6597831 L5.15648577,19.1844036 L13.2625151,14.5663458 C13.0635206,14.2862636 12.8651255,14.0109794 12.6673298,13.7338959 L4.1273485,18.59845 L1.53682358,17.1230705 L10.7774813,11.8596841 L11.197048,11.619785 C11.0060453,11.3271081 10.826231,11.039629 10.6576051,10.7573478 L0.254747507,16.6792572 C0.0963942238,16.7707359 -0.000822655576,16.9401112 5.24595369e-06,17.1230705 L5.24595369e-06,21.2457367 C-0.000426338422,21.4281201 0.0967707579,21.5967744 0.254747507,21.6877508 C0.561630607,21.7723152 14.6398928,30.0392384 14.98154,29.9998282 C15.3411686,30.0434367 29.4014494,21.7699162 29.7101307,21.6877508 C29.8687087,21.5971427 29.9666087,21.4284594 29.9666657,21.2457367 C29.8641716,20.9404651 30.2357878,16.7182408 29.7119288,16.6792572 Z M28.4316509,17.1230705 L14.9845369,24.7824493 L12.394012,23.30647 L25.8411259,15.6470913 L28.4316509,17.1230705 Z M22.2220631,13.5845587 L24.8131874,15.0599382 L11.3654741,22.7211162 L8.77494919,21.2457367 L22.2220631,13.5845587 Z M28.9513142,20.9494613 L14.9857357,28.9051154 L1.01716021,20.9494613 L1.01716021,17.9987023 C1.32704021,18.0940622 14.6410916,25.9081758 14.9827388,25.8769889 C15.3088021,25.9183715 28.6654095,18.080268 28.9483173,17.9987023 L28.9513142,20.9494613 Z" id="Shape" fill="#CC9964" fill-rule="nonzero"></path>
                </g>
                <g id="Sin-tiÌtulo-1-03" transform="translate(0.000000, 0.000000)"></g>
            </g>
        </g>
    </g>
</svg>