<?xml version="1.0" encoding="UTF-8"?>
<svg width="16px" height="18px" viewBox="0 0 16 18" version="1.1" xmlns="http://www.w3.org/2000/svg" xmlns:xlink="http://www.w3.org/1999/xlink">
    <title>Path</title>
    <g id="HOME" stroke="none" stroke-width="1" fill="none" fill-rule="evenodd">
        <g id="Desktop-HD" transform="translate(-290.000000, -4685.000000)" fill="#FFFFFF">
            <path d="M305.497418,4692.28248 C305.349409,4692.29677 305.200814,4692.30426 305.052109,4692.30492 C303.421012,4692.30515 301.899735,4691.48813 301.006246,4690.13205 L301.006246,4697.53125 C301.006246,4700.55156 298.542414,4703 295.503123,4703 C292.463832,4703 290,4700.55156 290,4697.53125 C290,4694.51094 292.463832,4692.0625 295.503123,4692.0625 C295.618,4692.0625 295.730295,4692.07276 295.843236,4692.07981 L295.843236,4694.77475 C295.730295,4694.76128 295.619291,4694.74075 295.503123,4694.74075 C293.951933,4694.74075 292.694446,4695.99039 292.694446,4697.53189 C292.694446,4699.07339 293.951933,4700.32302 295.503123,4700.32302 C297.054607,4700.32302 298.424741,4699.10832 298.424741,4697.56652 L298.451847,4685 L301.046259,4685 C301.290902,4687.31201 303.16686,4689.1179 305.5,4689.28739 L305.5,4692.28248" id="Path"></path>
        </g>
    </g>
</svg>