<?xml version="1.0" encoding="UTF-8"?>
<svg width="35px" height="35px" viewBox="0 0 35 35" version="1.1" xmlns="http://www.w3.org/2000/svg" xmlns:xlink="http://www.w3.org/1999/xlink">
    <title>Sin título-1-04</title>
    <g id="LANDING---VENDE-TU-PROPIEDAD" stroke="none" stroke-width="1" fill="none" fill-rule="evenodd">
        <g id="Desktop-HD" transform="translate(-510.000000, -1911.000000)">
            <g id="Sin-título-1-04" transform="translate(510.000000, 1911.000000)">
                <path d="M32.9406,32.6326 C32.431,32.3946 31.9501,32.1706 31.4552,31.9613 C31.1486,31.8318 31.0296,31.6491 31.0296,31.3082 C31.0373,27.167 31.0373,22.9558 31.0366,18.8839 L31.0366,16.6047 C31.0366,16.0601 30.9393,15.9642 30.3877,15.9642 L26.124,15.9642 L26.124,15.8242 C26.124,15.6219 26.124,15.4238 26.1198,15.2292 C26.1142,14.7791 26.1093,14.3542 26.1324,13.9251 C26.1527,13.5443 26.026,13.3315 25.6655,13.1404 C24.5231,12.5349 23.366,11.9119 22.2474,11.3092 C21.3115,10.8052 20.3441,10.2837 19.39,9.7755 C19.1226,9.6355 19.0162,9.4521 19.0218,9.1504 C19.0351,8.4987 19.0323,7.8344 19.0295,7.1904 L19.0295,6.6955 C19.0295,6.258 18.9084,6.1355 18.4695,6.1355 C18.0691,6.1355 17.668,6.1355 17.2578,6.1355 L16.5732,6.1355 L16.5732,5.53 C16.5732,5.1912 16.5732,4.8643 16.5732,4.5374 C16.5732,4.0768 16.4542,3.9571 16.0013,3.9557 C15.6667,3.9557 15.3314,3.9557 14.9849,3.9557 L14.371,3.9557 L14.371,1.2432 L13.5667,1.2432 L13.5667,3.9529 L12.4376,3.9529 C11.9238,3.9529 11.6137,3.9529 11.5031,4.0621 C11.3925,4.1713 11.3932,4.4758 11.3932,4.9826 L11.3932,6.1369 L10.6988,6.1369 C10.3075,6.1369 9.9344,6.1369 9.5606,6.1369 C9.0363,6.1369 8.9376,6.2377 8.9376,6.7669 L8.9376,8.3069 C8.9376,10.5756 8.9376,12.9213 8.9439,15.2285 C8.95680818,15.4855979 8.83579047,15.7310758 8.624,15.8774 C8.0178,16.3436 7.4046,16.8217 6.811,17.283 C6.0284,17.892 5.2192,18.522 4.417,19.1338 C4.1279,19.3543 4.0159,19.5797 4.0173,19.9388 C4.0229,21.4977 4.0236,23.0832 4.0236,24.6155 C4.0236,26.7057 4.0236,28.8666 4.039,30.9925 C4.0425,31.5294 3.927,31.8815 3.3257,32.0901 C2.89636742,32.2494854 2.47782255,32.4365446 2.0727,32.6501 C1.9327,32.7201 1.7878,32.7901 1.6415,32.8601 L2.0111,33.5811 C7.518,30.8336 13.4211,29.6058 19.5538,29.9299 L19.5916,29.127 C16.3947,28.9275 13.2356,29.1788 9.9372,29.897 L9.7671,29.9341 L9.7671,6.9706 L18.2301,6.9706 L18.2301,14.028 L19.0295,14.028 L19.0295,10.528 L19.2304,10.6246 L19.3704,10.6904 C19.4565,10.731 19.5314,10.766 19.6049,10.8059 L21.0749,11.5962 C22.3433,12.2801 23.6551,12.9871 24.9487,13.6752 C25.2133,13.8152 25.3211,13.9965 25.3204,14.2975 C25.3134,17.0793 25.3141,19.908 25.3141,22.6436 L25.3141,24.9424 L26.1373,24.9424 L26.1373,16.7923 L30.2029,16.7923 L30.2029,31.43 L29.26,31.0898 L29.0101,31.8087 L33.0701,33.5496 L33.425,32.8573 C33.2619,32.7824 33.1002,32.7068 32.9406,32.6326 Z M8.498,30.2736 C7.7182,30.5053 6.9286,30.758 6.1656,31.0023 L5.32,31.2725 L5.1401,31.3306 L4.8601,31.4216 L4.8517,31.2382 C4.8517,31.1948 4.8468,31.1535 4.8447,31.115 C4.8398,31.0345 4.8356,30.9582 4.8356,30.8819 L4.8356,29.82 C4.8356,26.6784 4.8356,23.4297 4.8426,20.2349 C4.8426,20.0459 4.9245,19.7897 5.0792,19.6665 C5.9892,18.9385 6.9258,18.2126 7.8309,17.5098 L8.5183,16.9764 C8.55360652,16.94954 8.59028966,16.9245394 8.6282,16.9015 C8.6527,16.8861 8.6821,16.8672 8.7185,16.8427 L8.9362,16.6992 L8.9362,19.7092 C8.9362,22.9761 8.9362,26.355 8.94391198,29.6779 C8.9453,30.0146 8.8242,30.1763 8.498,30.2736 Z M15.7458,6.118 L12.2213,6.118 L12.2213,4.788 L15.7458,4.788 L15.7458,6.118 Z" id="Shape" fill="#CC9964" fill-rule="nonzero"></path>
                <path d="M27.0823,31.01 C27.0291,30.9442 26.9766,30.8784 26.9248,30.8119 L26.5419,30.3219 C25.5619,29.0721667 24.5805,27.8229 23.5977,26.5741 C23.233,26.1093 23.1287,26.0953 22.6688,26.4467 C22.6128,26.4894 22.5561,26.5265 22.4959,26.5657 L22.4119,26.6203 L22.3041,26.6903 L21.4844,25.6494 L21.5719,25.5612 C22.7549,24.3712 23.3919,22.8368 23.3674,21.231 C23.3328033,18.7869194 21.7762574,16.6242991 19.4696121,15.8155255 C17.1629669,15.0067519 14.5967264,15.7238092 13.0434214,17.6111276 C11.4901165,19.498446 11.2800546,22.1546906 12.5174,24.2627 C13.2762,25.5458 14.3703,26.4201 15.7696,26.8618 C17.4678,27.3973 19.1359,27.1761 20.7284,26.2038 L20.8348,26.1394 L21.6748,27.216 L21.4438,27.4008 C21.3654,27.4638 21.2947,27.5205 21.2254,27.5779 C20.9377,27.8159 20.9167,27.9979 21.1421,28.2961 C21.2121,28.3878 21.2821,28.4767 21.3521,28.5663 L21.4557,28.6965 L22.4763,29.9957 C23.3223667,31.0727667 24.1686667,32.1496 25.0152,33.2262 C25.3057,33.5951 25.4933,33.5685 25.7187,33.397 C26.2829,32.9693 26.8387,32.5311 27.3756,32.0936 C27.6017,31.9095 27.6206,31.7247 27.44,31.4748 C27.3301,31.3194 27.2041,31.1619 27.0823,31.01 Z M17.5301,26.3361 L17.5133,26.3361 C14.7305585,26.3218534 12.4818037,24.0627775 12.4803,21.28 C12.4803,18.4975 14.7539,16.2309 17.5476,16.2281 L17.5532,16.2281 C20.3436739,16.2344789 22.6006289,18.5017761 22.5942635,21.29225 C22.5878711,24.0827239 20.3205739,26.3396789 17.5301,26.3333 L17.5301,26.3361 Z M25.5143,32.55 L21.9646,28.035 L23.0433,27.1866 L26.586,31.6939 L25.5143,32.55 Z" id="Shape" fill="#CC9964" fill-rule="nonzero"></path>
                <rect id="Rectangle" x="0" y="0" width="35" height="35"></rect>
            </g>
        </g>
    </g>
</svg>