<?xml version="1.0" encoding="UTF-8"?>
<svg width="30px" height="18px" viewBox="0 0 30 18" version="1.1" xmlns="http://www.w3.org/2000/svg" xmlns:xlink="http://www.w3.org/1999/xlink">
    <title>show</title>
    <g id="FICHA-TÉCNICA" stroke="none" stroke-width="1" fill="none" fill-rule="evenodd">
        <g id="Desktop-HD-Copy" transform="translate(-1202.000000, -448.000000)" fill="#FFFFFF" fill-rule="nonzero">
            <g id="show" transform="translate(1202.000000, 448.000000)">
                <g id="Group" transform="translate(15.000000, 9.000000) scale(-1, 1) rotate(-180.000000) translate(-15.000000, -9.000000) translate(0.000000, 0.000000)">
                    <path d="M13.7707081,17.9805629 C10.2990764,17.6648177 7.33763378,16.497688 4.54038997,14.3325779 C3.7487172,13.7236407 2.24747105,12.2689573 1.60826858,11.5021475 C0.916287934,10.6620396 0.0601084885,9.42725028 0.0131945463,9.19044136 C-0.00439818208,9.08331352 -0.00439818208,8.90288767 0.0131945463,8.79575983 C0.0601084885,8.55895091 0.916287934,7.32416155 1.60826858,6.48405372 C2.24747105,5.71724389 3.7487172,4.26256053 4.54038997,3.65362331 C7.08547134,1.68585397 9.77129453,0.541277528 12.8617505,0.101489536 C13.8469433,-0.0338298455 16.1574549,-0.0338298455 17.1426477,0.101489536 C19.1834042,0.389043223 21.0130479,0.969788904 22.7136783,1.87191812 C25.3291306,3.25330348 27.704149,5.37330713 29.4282363,7.85416246 C30.1905879,8.95363244 30.1905879,9.03256875 29.4282363,10.1320387 C28.6776133,11.2145938 28.0032253,12.0039568 26.9652544,13.0019373 C24.1504178,15.7252398 20.9837267,17.3152426 17.3478962,17.8508818 C16.5796804,17.963648 14.4392318,18.036946 13.7707081,17.9805629 Z M16.4799883,16.1255597 C19.1892684,15.8492826 21.8399062,14.7667276 24.1445536,13.0019373 C25.3584518,12.0659782 26.8479695,10.5492735 27.6630993,9.42161197 L27.9680399,8.99310059 L27.7276059,8.65480214 C26.7189562,7.22267201 24.9655476,5.51426482 23.4173875,4.44862468 C20.5380443,2.46394041 17.078141,1.52798135 13.7355227,1.83244996 C10.3518546,2.14255688 7.26726286,3.58032531 4.54038997,6.11756373 C3.79563114,6.81107556 2.83389532,7.882354 2.34129893,8.57022753 L2.03635831,8.99310059 L2.32957044,9.40469705 C2.90426624,10.1996984 3.42618384,10.7804441 4.41137663,11.7333181 C5.83052338,13.0921502 7.1206568,13.9999177 8.76264477,14.7892808 C11.1552558,15.9394955 13.8117578,16.4018368 16.4799883,16.1255597 Z" id="Shape"></path>
                    <path d="M14.0228705,14.3213013 C12.8441577,14.1183222 11.8824219,13.6221511 11.014514,12.776405 C10.2580267,12.043425 9.77129453,11.2089555 9.50740361,10.1996984 C9.36666178,9.6640592 9.36666178,8.32214199 9.50740361,7.78650277 C9.77129453,6.77724571 10.2580267,5.94277619 11.014514,5.20979621 C12.052485,4.19490084 13.2722475,3.67053824 14.7383082,3.59724024 C16.3627034,3.51830393 17.7818502,4.05394315 18.960563,5.18724298 C19.7639642,5.95969111 20.2272394,6.74341587 20.4969946,7.78650277 C20.6377364,8.32214199 20.6377364,9.6640592 20.4969946,10.1996984 C20.3503885,10.7578909 20.0747691,11.383743 19.7639642,11.8686375 C19.4003812,12.4437448 18.5559302,13.2387462 17.9401847,13.6052362 C16.7907931,14.2818331 15.3305967,14.5524719 14.0228705,14.3213013 Z M15.7938719,12.5170428 C17.0605483,12.263319 18.1923472,11.2597002 18.5969799,10.0361875 C18.7787714,9.47799505 18.7787714,8.50820614 18.5969799,7.95001369 C18.2275326,6.82799048 17.2540683,5.89203142 16.087084,5.53681805 C15.7528222,5.43532851 15.5417094,5.41277528 14.9728779,5.41277528 C14.3629966,5.41841359 14.2105263,5.44096682 13.841079,5.56500958 C13.2253335,5.77926527 12.8089723,6.03298911 12.3339686,6.48405372 C10.8855007,7.87107739 10.8972291,10.1207621 12.3632898,11.530339 C13.2722475,12.409915 14.5330597,12.7707667 15.7938719,12.5170428 Z" id="Shape"></path>
                </g>
            </g>
        </g>
    </g>
</svg>