<?xml version="1.0" encoding="UTF-8"?>
<svg width="28px" height="28px" viewBox="0 0 28 28" version="1.1" xmlns="http://www.w3.org/2000/svg" xmlns:xlink="http://www.w3.org/1999/xlink">
    <title>Group-6</title>
    <defs>
        <polygon id="path-1" points="0 0 27 0 27 27 0 27"></polygon>
    </defs>
    <g id="HOME" stroke="none" stroke-width="1" fill="none" fill-rule="evenodd">
        <g id="Desktop-HD" transform="translate(-1399.000000, -158.000000)">
            <g id="Group-6" transform="translate(1399.050000, 158.550000)">
                <g id="Fill-1-Clipped">
                    <mask id="mask-2" fill="white">
                        <use xlink:href="#path-1"></use>
                    </mask>
                    <g id="path-1"></g>
                    <path d="M13.5565063,24.5087004 L13.5521318,24.5087004 C11.5468176,24.5076116 9.58032739,23.9716727 7.86496285,22.9583153 L7.45676404,22.7175647 L3.22768231,23.8212886 L4.35685917,19.7179125 L4.09083275,19.2972453 C2.97231883,17.5265238 2.38175661,15.4803475 2.38257512,13.3793253 C2.38503751,7.2478734 7.39729771,2.25974888 13.5607442,2.25974888 C16.5454074,2.26097372 19.350578,3.41913535 21.4603342,5.52097413 C23.5700904,7.62267683 24.7309826,10.4168268 24.7300269,13.3883075 C24.7274283,19.5198954 19.7150314,24.5087004 13.5565063,24.5087004 M23.0660619,3.92363654 C20.5277379,1.39487026 17.1525108,0.00153786443 13.5565063,-9.52659382e-05 C6.14618069,-9.52659382e-05 0.115884167,6.00152274 0.112876674,13.3783726 C0.111919744,15.7364768 0.73091645,18.0382379 1.90725625,20.0671302 L-4.10112659e-05,27.0000408 L7.12662336,25.1396332 C9.09024277,26.2057951 11.3008867,26.7674559 13.5507647,26.7684084 L13.5565063,26.7684084 C20.9656016,26.7684084 26.996855,20.7657018 27.0000008,13.3891241 C27.0012295,9.81406558 25.6041125,6.45253891 23.0660619,3.92363654" id="Fill-1" fill="#FFFFFF" fill-rule="nonzero" mask="url(#mask-2)"></path>
                </g>
                <path d="M19.6853119,16.180103 C19.349293,16.0128433 17.6979059,15.2037633 17.3899113,15.092302 C17.0820534,14.9807048 16.8581319,14.9250423 16.6340737,15.2598341 C16.4101523,15.5942175 15.7666855,16.3473628 15.5707883,16.5702852 C15.3748911,16.7937517 15.1788573,16.8216511 14.842975,16.6543914 C14.506956,16.4867233 13.4252156,16.133967 12.1416997,14.9947226 C11.1430753,14.108341 10.4689868,13.0137354 10.272953,12.6789437 C10.0770558,12.3445603 10.2520372,12.1634189 10.4204568,11.9967035 C10.5713783,11.8468638 10.7564758,11.6063853 10.9244853,11.4110902 C11.0920847,11.215795 11.1479967,11.0764345 11.2600942,10.8535122 C11.3719182,10.6301817 11.3160062,10.4348865 11.2320698,10.2676267 C11.1479967,10.100503 10.495234,8.44668636 10.1965353,7.78540465 C9.94499956,7.2285072 9.68006679,7.21748356 9.44069771,7.20768479 C9.24480056,7.19924695 9.02074234,7.19977736 8.79695753,7.19977736 C8.57289932,7.19977736 8.20899268,7.28362535 7.90127149,7.61814489 C7.59327689,7.95280052 6.7254785,8.76174443 6.7254785,10.4069872 C6.7254785,12.052366 7.92915914,13.6423545 8.09703193,13.865549 C8.26490471,14.0886074 10.420867,17.5727549 13.8350549,18.9131467 C16.6726244,20.0272138 17.250063,19.8055164 17.8659155,19.7497177 C18.4817679,19.6940552 19.8533213,18.9410461 20.133155,18.1601375 C20.4131252,17.3795012 20.4131252,16.71019 20.3291887,16.5702852 C20.2452524,16.4309247 20.0213309,16.3473628 19.6853119,16.180103" id="Fill-4" fill="#FFFFFF" fill-rule="nonzero"></path>
            </g>
        </g>
    </g>
</svg>