<?xml version="1.0" encoding="UTF-8"?>
<svg width="30px" height="30px" viewBox="0 0 30 30" version="1.1" xmlns="http://www.w3.org/2000/svg" xmlns:xlink="http://www.w3.org/1999/xlink">
    <title>whatsapp</title>
    <g id="HOME" stroke="none" stroke-width="1" fill="none" fill-rule="evenodd">
        <g id="Desktop-HD" transform="translate(-817.000000, -4111.000000)" fill="#CC9964" fill-rule="nonzero">
            <g id="whatsapp" transform="translate(817.000000, 4111.000000)">
                <g id="Group" transform="translate(15.000000, 15.000000) scale(-1, 1) rotate(-180.000000) translate(-15.000000, -15.000000) translate(0.000000, 0.000000)">
                    <path d="M13.6618485,29.9636188 C10.7617239,29.6820502 8.0846858,28.6144359 5.73640676,26.8077039 C4.59162072,25.927802 3.10633423,24.2735864 2.24921238,22.9244034 C1.87935843,22.3436682 1.15726262,20.8654329 0.898951925,20.1615114 C-0.298670389,16.9000083 -0.298670389,13.098832 0.893081227,9.8666589 C1.11029704,9.27419161 1.77368587,7.87808056 2.08483284,7.3501394 L2.25508307,7.05683876 L1.41557331,4.01237811 C0.951788203,2.33469844 0.570192858,0.891659289 0.570192858,0.803669096 C0.570192858,0.574894596 0.793279367,0.340254084 1.03984867,0.305058007 C1.1983575,0.281593955 1.9556775,0.492770417 4.20415468,1.19082594 C5.83033792,1.68943703 7.19233977,2.10005793 7.23343465,2.10005793 C7.27452953,2.10005793 7.66199558,1.91821153 8.0905565,1.69530305 C11.8360616,-0.246347198 16.2449555,-0.533781827 20.1724522,0.903391314 C20.8769359,1.16149588 22.3563517,1.88301546 22.9375508,2.25257426 C24.8220447,3.44924088 26.5773833,5.20317871 27.7750056,7.08616883 C28.1448596,7.6669041 28.8669554,9.14513933 29.1252661,9.84906086 C29.4129302,10.6351066 29.7240772,11.8435052 29.8767154,12.7762013 C29.9823879,13.4390607 30,13.8086195 30,15.0052861 C30,16.6360377 29.9119395,17.4044854 29.5420856,18.8123285 C29.2602921,19.8682108 29.0019814,20.5545343 28.48536,21.6045506 C27.7104279,23.182508 26.9061424,24.3029165 25.6145889,25.5993053 C24.3171647,26.8898281 23.1958615,27.6934719 21.6166438,28.4677856 C20.1724522,29.1775731 18.8339331,29.599926 17.2723276,29.8462986 C16.409335,29.9812169 14.4837462,30.045743 13.6618485,29.9636188 Z M17.2723276,28.678962 C20.2781248,28.1627529 22.8377489,26.8077039 24.9629414,24.6196811 C26.9883321,22.5313806 28.2505321,20.0148611 28.7319293,17.0877207 C28.8845675,16.1726227 28.8845675,13.8379496 28.7319293,12.9228516 C28.2505321,9.99571119 26.9883321,7.47919169 24.9629414,5.39089112 C22.8377489,3.20286834 20.2663834,1.84195337 17.2723276,1.33161025 C16.3623694,1.1732279 14.565936,1.12043379 13.6501071,1.21428999 C11.595363,1.43719848 9.78718811,2.02379976 7.96140115,3.07381606 C7.71483186,3.21460037 7.45065046,3.33192062 7.37433139,3.33192062 C7.29801232,3.33192062 6.06516583,2.97409384 4.63271561,2.53414288 C3.20613609,2.09419192 2.02025517,1.74223115 2.00851377,1.75396317 C1.99677238,1.7656952 2.31966075,2.95062979 2.71886819,4.38780293 C3.22374818,6.19453488 3.44683469,7.06270478 3.4292226,7.20348908 C3.4116105,7.31494333 3.28245516,7.60824397 3.12981702,7.85461651 C2.16115191,9.45603801 1.48015099,11.4504824 1.23945239,13.4214627 C1.11029704,14.465613 1.15139192,16.2488809 1.32751285,17.2637011 C1.81478075,20.1087173 3.06523934,22.5607106 5.06127653,24.6196811 C7.42129697,27.0482105 10.1922662,28.3915274 13.7205555,28.8138803 C13.8320988,28.8256123 14.5189704,28.8314783 15.2469369,28.8197463 C16.2566969,28.8080143 16.7322234,28.7728182 17.2723276,28.678962 Z" id="Shape"></path>
                    <path d="M8.64240208,24.3322465 C7.92617697,24.2559883 7.77353883,24.1914622 7.46826256,23.8512335 C6.1356142,22.3671322 5.31371653,20.2553676 5.40177699,18.5248938 C5.45461327,17.4924756 5.66008769,16.776822 6.24128675,15.5273613 C7.78528023,12.2365281 10.2920681,9.37977984 13.1334858,7.69036815 C14.8301174,6.68141394 16.468042,6.14174076 18.3936308,5.96576038 C21.9571443,5.64312967 24.176268,7.06270478 24.9688121,10.1834236 C25.1214503,10.7817569 25.1449331,11.0809236 25.0510019,11.2510379 C25.0157777,11.3096981 24.6283117,11.5795346 24.1821387,11.8435052 C23.7418363,12.1133418 22.9081973,12.6295509 22.3269982,12.9991097 C21.7516699,13.3686686 21.1411173,13.7323614 20.9767378,13.8086195 C20.6127545,13.9787339 20.0902624,13.9963319 19.7849862,13.8496816 C19.573641,13.7499594 19.5266755,13.6971653 18.9396057,12.9052535 C18.5521397,12.3831784 17.6539229,11.4035543 17.4601899,11.303832 C17.3251639,11.2275739 17.1549136,11.2921 16.5091369,11.6557928 C15.1060402,12.4418385 13.186322,13.9670019 12.2411397,15.0346162 C11.536656,15.83826 11.0200346,16.6770998 11.0200346,17.0349266 C11.0200346,17.0818547 11.2196383,17.3516913 11.4603369,17.6332599 C12.235269,18.5307598 12.5170625,19.2698775 12.3409416,19.9503349 C12.1295965,20.7715767 10.7264997,23.4875407 10.2333611,24.0330799 C9.97505044,24.3205145 9.45842905,24.4143707 8.64240208,24.3322465 Z M9.72848114,22.736691 C9.88698997,22.4727205 10.2920681,21.7160048 10.6208272,21.0648774 C11.3311816,19.6511683 11.3546644,19.522116 11.0200346,18.9707108 C10.9084914,18.7829984 10.5973444,18.3958415 10.3390337,18.1084069 C9.8224123,17.5511357 9.76957602,17.4279494 9.84589509,16.9704004 C10.1218179,15.3337829 12.1061137,13.11643 14.9475313,11.26277 C16.2684383,10.3946001 17.1138187,10.0309073 17.5482504,10.1306295 C18.1235787,10.2655478 18.9807006,11.0222634 19.8025982,12.1250738 L20.3250903,12.8231294 L20.5188234,12.7468712 C20.6244959,12.6999431 21.1763415,12.3655804 21.7516699,11.9960216 C22.3211275,11.6323288 23.0314819,11.1923778 23.3191461,11.0163974 C23.612681,10.846283 23.8592503,10.6937667 23.8768624,10.6820347 C23.9825349,10.5881785 23.4013359,9.05128312 23.1136717,8.68172431 C22.7379471,8.19484525 22.3152568,7.84288448 21.7986354,7.59064593 C21.1000224,7.24455117 20.6244959,7.13896294 19.6088652,7.10376686 C16.6441629,6.99231262 13.8320988,8.14205113 11.2724746,10.5236523 C9.52300672,12.1485379 7.74418534,14.7354495 6.93402907,16.8354821 C6.34695931,18.3489134 6.44676117,19.8212827 7.25104674,21.4461682 C7.49174535,21.9330473 8.11990999,22.8892074 8.30777231,23.0593217 C8.41344487,23.1531779 8.61891929,23.19424 9.12379928,23.2059721 L9.42907556,23.2177041 L9.72848114,22.736691 Z" id="Shape"></path>
                </g>
            </g>
        </g>
    </g>
</svg>