<?xml version="1.0" encoding="UTF-8"?>
<svg width="28px" height="27px" viewBox="0 0 28 27" version="1.1" xmlns="http://www.w3.org/2000/svg" xmlns:xlink="http://www.w3.org/1999/xlink">
    <title>phone-call</title>
    <g id="HOME" stroke="none" stroke-width="1" fill="none" fill-rule="evenodd">
        <g id="Desktop-HD" transform="translate(-1399.000000, -234.000000)" fill="#FFFFFF" fill-rule="nonzero">
            <g id="phone-call" transform="translate(1399.477108, 234.059352)">
                <path d="M26.2759822,19.8427695 L22.0178034,15.5996853 C21.0513956,14.630969 19.4826256,14.6291043 18.5139093,15.5955121 C18.5124886,15.5969328 18.5111567,15.5982647 18.5097361,15.5996853 L16.0700092,18.0394121 C15.8854115,18.2244538 15.5945302,18.2500258 15.3805425,18.1000568 C14.0452056,17.1668571 12.7951974,16.117074 11.6451686,14.9632271 C10.6151861,13.9355531 9.66769088,12.8284995 8.81138469,11.6520995 C8.65617697,11.4407755 8.67873004,11.1477633 8.86439327,10.9626328 L11.3647647,8.4622613 C12.330107,7.49505439 12.330107,5.92894814 11.3647647,4.96174123 L7.10658596,0.703562445 C6.12534998,-0.234520815 4.57975459,-0.234520815 3.59851861,0.703562445 L2.24986299,2.05221807 C0.213072463,4.06610036 -0.514041954,7.05642388 0.370766346,9.78063898 C1.03102069,11.773744 1.9643092,13.6657155 3.14390562,15.4026568 C4.20585316,16.9950453 5.42416271,18.4773323 6.78080958,19.8275862 C8.25572685,21.3130696 9.8894923,22.6317137 11.6527159,23.7599886 C13.5910365,25.0248249 15.7192824,25.9712546 17.9566532,26.5634058 C18.5318452,26.705206 19.1221317,26.7764168 19.7144605,26.7755371 C21.7452132,26.7630981 23.6880622,25.9456826 25.1168078,24.5024639 L26.276071,23.3432008 C27.2413245,22.3760827 27.2413245,20.8099764 26.2759822,19.8427695 Z M25.2030245,22.3098442 C25.2020478,22.3108209 25.2010711,22.3118864 25.2000056,22.3128631 L25.2075529,22.2901324 L24.0482897,23.4493956 C22.5588106,24.9576985 20.389543,25.578263 18.3277133,25.0860023 C16.2504338,24.5299893 14.2757086,23.6449147 12.478389,22.4644303 C10.8085742,21.3972441 9.26111415,20.1497221 7.8640671,18.7441511 C6.5786311,17.468127 5.42380754,16.0669955 4.41655563,14.5617115 C3.31482945,12.9419751 2.44280714,11.1775084 1.82526156,9.3184787 C1.11732612,7.13456049 1.70397223,4.73816398 3.3406678,3.12819468 L4.68932342,1.77953906 C5.06429035,1.40288509 5.67357832,1.40155322 6.05014349,1.77652015 C6.0511202,1.77749685 6.0521857,1.77847356 6.05316241,1.77953906 L10.3113412,6.03771785 C10.6879952,6.41268478 10.689327,7.02197274 10.3143601,7.39853792 C10.3133834,7.39951463 10.3124067,7.40049134 10.3113412,7.40155683 L7.81096972,9.90192831 C7.09353359,10.6115508 7.00332133,11.7392041 7.59884659,12.553867 C8.50318904,13.794996 9.50395917,14.962872 10.5917451,16.0468398 C11.8045495,17.264883 13.123016,18.3729134 14.5316948,19.3579674 C15.3456474,19.9257009 16.4491494,19.8299835 17.1532668,19.1306609 L19.5702629,16.6757507 C19.9452299,16.2990968 20.5545178,16.2977649 20.931083,16.6727318 C20.9320597,16.6737085 20.9330364,16.6746852 20.9341019,16.6757507 L25.1999168,20.9491129 C25.5766595,21.323991 25.5779914,21.9331902 25.2030245,22.3098442 Z" id="Shape"></path>
            </g>
        </g>
    </g>
</svg>